<?xml version="1.0" encoding="utf-8"?>
<!-- Svg Vector Icons : http://www.onlinewebfonts.com/icon -->
<!DOCTYPE svg PUBLIC "-//W3C//DTD SVG 1.1//EN" "http://www.w3.org/Graphics/SVG/1.1/DTD/svg11.dtd">
<svg version="1.1" xmlns="http://www.w3.org/2000/svg" xmlns:xlink="http://www.w3.org/1999/xlink" x="0px" y="0px" viewBox="0 0 256 256" enable-background="new 0 0 256 256" xml:space="preserve">
<metadata> Svg Vector Icons : http://www.onlinewebfonts.com/icon </metadata>
<g>
<g>
<g>
<g>
<path fill="#000000" d="M55.1,86.9c0.6,3.3,1.9,5.5,3.1,6.8c3,20.3,20,39,35.4,39c18,0,34.5-20.3,37.6-39c1.3-1.3,2.6-3.5,3.2-6.9c1-3.8,2.3-10.4,0-13.5c-0.1-0.1-0.3-0.3-0.4-0.4c2.2-7.9,4.9-24.4-4.9-35.6c-0.9-1.1-6.4-7.7-18.2-11.2l-5.6-2c-9.3-2.9-15.1-3.5-15.4-3.5c-0.4,0-0.9,0-1.3,0.1c-0.3,0.1-1.4,0.4-2.3,0.3c-2.2-0.3-5.6,0.8-6.1,1.1c-0.8,0.3-18.8,7.5-24.2,24.3c-0.5,1.3-2.7,8.5,0.2,26c-0.4,0.3-0.8,0.7-1.2,1.1C52.7,76.5,54,83.1,55.1,86.9z"/>
<path fill="#000000" d="M127,214.4c-3.3-1.9-6.9-3.7-10.8-5.3c-1.9-0.8-3.8-1.6-5.6-2.3c-1.5-0.6-3.2-1.3-4.4-1.6l-17.8-4.8l33.4-68l14.3,9c3,1.9,5.2,3.5,7.7,5.3l0.5,0.4c2.4,1.8,4.8,3.6,7.1,5.5c5.1,4.1,9.6,8.1,13.7,12.2c0.3,0.3,0.6,0.6,0.9,0.9c1.4-1.5,2.8-2.9,4.1-4.4c-1.7-5.2-3.9-10-6.5-13.8c0,0-3.7-5-12.4-8.4c0,0-0.7-0.2-1.9-0.6c-7.8-3.6-15.1-5.9-15.1-5.9c-1.6-0.6-3-1.1-4.2-1.7c-5.3-2.6-9.6-5.5-10.5-8.3c0,0,3,29.4-22.7,30.1l-3.6-0.2c-23.3-2.1-24.8-30-24.8-30c-2.4,7.7-31.7,16.6-31.7,16.6c-8.7,3.3-12.4,8.4-12.4,8.4C11.5,166.6,10,209.1,10,209.1c0.2,9.7,4.4,10.7,4.4,10.7C44,233,90.4,235.3,90.4,235.3c2.5,0.1,4.8-0.1,7.2-0.2l0.1,0.2c0,0,22.7-1.2,46.4-6.4l-2.9-3.8C138.8,222.1,133.6,218.1,127,214.4z"/>
<path fill="#000000" d="M118.6,123.9c0.3-0.4,0.6-0.8,1-1.3c-0.1-0.3-0.1-0.4-0.1-0.4C119.2,122.8,118.9,123.3,118.6,123.9z"/>
<path fill="#8F0020" d="M68.7,122.5l-0.1-0.3l0,0.3c0,0,0.1-0.1,0.1-0.2C68.6,122.4,68.6,122.4,68.7,122.5z"/>
<path fill="#8F0020" d="M218.8,136.1c-8.4,5.9-16.3,12.7-23.8,19.8c-7.5,7.1-14.6,14.6-21.5,22.4c-2.6,2.9-5,5.8-7.5,8.7c0,0-0.1-0.1-0.1-0.1c-3.6-4.8-7.5-9.1-11.6-13.1c-4.1-4-8.3-7.7-12.6-11.2c-2.2-1.7-4.4-3.5-6.6-5.2c-2.3-1.7-4.4-3.2-7.2-5l-17.8,36.2c1.6,0.4,4,1.3,6,2.1c2.1,0.8,4.2,1.7,6.3,2.6c4.1,1.8,8.2,3.8,12.1,6c7.6,4.3,14.8,9.5,18.8,14.8L167,232l7.9-17c3.9-8.5,8.7-17.5,13.6-26c4.9-8.6,10.1-17,15.8-25.1c5.7-8.1,11.8-15.9,18.5-23.2c6.8-7.2,14.3-13.8,23.3-18.6C236.3,125,227.2,130.3,218.8,136.1z"/>
</g>
</g>
<g></g><g></g><g></g><g></g><g></g><g></g><g></g><g></g><g></g><g></g><g></g><g></g><g></g><g></g><g></g></g></g>
</svg>