<svg width="15" height="8" viewBox="0 0 15 8" fill="none" xmlns="http://www.w3.org/2000/svg">
<path d="M1.14246 6.45459L7.07996 0.517093C7.1351 0.461888 7.20058 0.418093 7.27266 0.388213C7.34475 0.358333 7.42201 0.342955 7.50004 0.342955C7.57806 0.342955 7.65533 0.358333 7.72741 0.388213C7.79949 0.418093 7.86497 0.461888 7.92011 0.517093L13.8576 6.45459C13.969 6.566 14.0316 6.71711 14.0316 6.87467C14.0316 7.03223 13.969 7.18334 13.8576 7.29475C13.7462 7.40616 13.5951 7.46875 13.4375 7.46875C13.28 7.46875 13.1289 7.40616 13.0175 7.29475L7.50004 1.77658L1.98261 7.29475C1.92745 7.34991 1.86196 7.39367 1.78988 7.42353C1.7178 7.45339 1.64055 7.46875 1.56254 7.46875C1.48452 7.46875 1.40727 7.45339 1.33519 7.42353C1.26311 7.39367 1.19762 7.34991 1.14246 7.29475C1.08729 7.23958 1.04353 7.17409 1.01368 7.10202C0.983822 7.02994 0.968455 6.95269 0.968454 6.87467C0.968455 6.79666 0.983822 6.7194 1.01368 6.64733C1.04353 6.57525 1.08729 6.50976 1.14246 6.45459Z" fill="#343330"/>
</svg>
