<svg width="15" height="8" viewBox="0 0 15 8" fill="none" xmlns="http://www.w3.org/2000/svg">
<path d="M13.8575 1.54541L7.92004 7.48291C7.8649 7.53811 7.79941 7.58191 7.72733 7.61179C7.65525 7.64167 7.57799 7.65705 7.49996 7.65705C7.42194 7.65705 7.34467 7.64167 7.27259 7.61179C7.20051 7.58191 7.13503 7.53811 7.07989 7.48291L1.14239 1.54541C1.03097 1.434 0.968384 1.28289 0.968384 1.12533C0.968384 0.96777 1.03097 0.816663 1.14239 0.705252C1.2538 0.59384 1.4049 0.53125 1.56246 0.53125C1.72002 0.53125 1.87113 0.59384 1.98254 0.705252L7.49996 6.22342L13.0174 0.705252C13.0726 0.650086 13.138 0.606327 13.2101 0.576471C13.2822 0.546616 13.3594 0.53125 13.4375 0.53125C13.5155 0.53125 13.5927 0.546616 13.6648 0.576471C13.7369 0.606327 13.8024 0.650086 13.8575 0.705252C13.9127 0.760417 13.9565 0.825908 13.9863 0.897985C14.0162 0.970062 14.0315 1.04731 14.0315 1.12533C14.0315 1.20335 14.0162 1.2806 13.9863 1.35267C13.9565 1.42475 13.9127 1.49024 13.8575 1.54541Z" fill="#343330"/>
</svg>
