<svg width="12" height="12" viewBox="0 0 12 12" fill="none" xmlns="http://www.w3.org/2000/svg">
<path d="M6 11.6875C7.12488 11.6875 8.2245 11.3539 9.1598 10.729C10.0951 10.104 10.8241 9.21577 11.2546 8.17651C11.685 7.13726 11.7977 5.99369 11.5782 4.89042C11.3588 3.78716 10.8171 2.77374 10.0217 1.97833C9.22626 1.18292 8.21284 0.641237 7.10957 0.421784C6.00631 0.20233 4.86274 0.314962 3.82349 0.745435C2.78423 1.17591 1.89597 1.90489 1.27101 2.84019C0.646064 3.7755 0.312498 4.87512 0.312498 6C0.31409 7.50793 0.913819 8.95364 1.98009 10.0199C3.04635 11.0862 4.49207 11.6859 6 11.6875ZM6 1.1875C6.95182 1.1875 7.88227 1.46975 8.67368 1.99855C9.46509 2.52736 10.0819 3.27897 10.4462 4.15834C10.8104 5.0377 10.9057 6.00534 10.72 6.93887C10.5343 7.87241 10.076 8.72991 9.40295 9.40295C8.72991 10.076 7.8724 10.5343 6.93887 10.72C6.00534 10.9057 5.0377 10.8104 4.15833 10.4462C3.27896 10.0819 2.52735 9.46509 1.99855 8.67368C1.46975 7.88227 1.1875 6.95182 1.1875 6C1.18895 4.72409 1.69644 3.50085 2.59865 2.59865C3.50085 1.69644 4.72409 1.18895 6 1.1875ZM6.4375 5.5625L6.4375 8.625C6.4375 8.74103 6.3914 8.85231 6.30936 8.93436C6.22731 9.01641 6.11603 9.0625 6 9.0625C5.88397 9.0625 5.77269 9.01641 5.69064 8.93436C5.60859 8.85231 5.5625 8.74103 5.5625 8.625L5.5625 5.5625C5.5625 5.44647 5.60859 5.33519 5.69064 5.25314C5.77269 5.17109 5.88397 5.125 6 5.125C6.11603 5.125 6.22731 5.17109 6.30936 5.25314C6.3914 5.33519 6.4375 5.44647 6.4375 5.5625ZM5.34375 3.59375C5.34375 3.46396 5.38224 3.33708 5.45435 3.22916C5.52646 3.12124 5.62895 3.03712 5.74886 2.98745C5.86878 2.93778 6.00073 2.92479 6.12803 2.95011C6.25533 2.97543 6.37226 3.03793 6.46404 3.12971C6.55582 3.22149 6.61832 3.33842 6.64364 3.46572C6.66896 3.59302 6.65596 3.72497 6.60629 3.84489C6.55662 3.9648 6.47251 4.06729 6.36459 4.1394C6.25667 4.21151 6.12979 4.25 6 4.25C5.82595 4.25 5.65903 4.18086 5.53596 4.05779C5.41289 3.93472 5.34375 3.7678 5.34375 3.59375Z" fill="#64748B"/>
</svg>
