<svg width="15" height="15" viewBox="0 0 15 15" fill="none" xmlns="http://www.w3.org/2000/svg">
<path d="M14.148 3.10247L11.898 0.852474C11.8457 0.800174 11.7837 0.758685 11.7154 0.730378C11.6471 0.70207 11.5739 0.6875 11.5 0.6875C11.4261 0.6875 11.3529 0.70207 11.2846 0.730378C11.2163 0.758685 11.1543 0.800174 11.102 0.852474L4.35203 7.60247C4.29981 7.65475 4.2584 7.7168 4.23017 7.78509C4.20194 7.85337 4.18744 7.92655 4.1875 8.00044V10.2504C4.1875 10.3996 4.24676 10.5427 4.35225 10.6482C4.45774 10.7537 4.60082 10.8129 4.75 10.8129H7C7.07389 10.813 7.14707 10.7985 7.21535 10.7703C7.28364 10.742 7.34569 10.7006 7.39797 10.6484L14.148 3.89841C14.2003 3.84617 14.2418 3.78413 14.2701 3.71585C14.2984 3.64756 14.3129 3.57436 14.3129 3.50044C14.3129 3.42652 14.2984 3.35333 14.2701 3.28504C14.2418 3.21675 14.2003 3.15471 14.148 3.10247ZM6.76727 9.68794H5.3125V8.23318L9.8125 3.73318L11.2673 5.18794L6.76727 9.68794ZM12.0625 4.39271L10.6077 2.93794L11.5 2.04568L12.9548 3.50044L12.0625 4.39271ZM13.75 7.43794V13.6254C13.75 13.9238 13.6315 14.21 13.4205 14.4209C13.2095 14.6319 12.9234 14.7504 12.625 14.7504H1.375C1.07663 14.7504 0.790483 14.6319 0.579505 14.4209C0.368526 14.21 0.25 13.9238 0.25 13.6254V2.37544C0.25 2.07707 0.368526 1.79093 0.579505 1.57995C0.790483 1.36897 1.07663 1.25044 1.375 1.25044H7.5625C7.71168 1.25044 7.85476 1.30971 7.96025 1.41519C8.06574 1.52068 8.125 1.66376 8.125 1.81294C8.125 1.96213 8.06574 2.1052 7.96025 2.21069C7.85476 2.31618 7.71168 2.37544 7.5625 2.37544H1.375V13.6254H12.625V7.43794C12.625 7.28876 12.6843 7.14568 12.7898 7.04019C12.8952 6.93471 13.0383 6.87544 13.1875 6.87544C13.3367 6.87544 13.4798 6.93471 13.5852 7.04019C13.6907 7.14568 13.75 7.28876 13.75 7.43794Z" fill="#64748B"/>
</svg>
