<svg width="29" height="29" viewBox="0 0 29 29" fill="none" xmlns="http://www.w3.org/2000/svg">
<rect width="29" height="29" fill="white"/>
<path d="M22.5556 12.8889V0H6.44444V6.44444H0V29H12.8889V22.5556H16.1111V29H29V12.8889H22.5556ZM6.44444 25.7778H3.22222V22.5556H6.44444V25.7778ZM6.44444 19.3333H3.22222V16.1111H6.44444V19.3333ZM6.44444 12.8889H3.22222V9.66667H6.44444V12.8889ZM12.8889 19.3333H9.66667V16.1111H12.8889V19.3333ZM12.8889 12.8889H9.66667V9.66667H12.8889V12.8889ZM12.8889 6.44444H9.66667V3.22222H12.8889V6.44444ZM19.3333 19.3333H16.1111V16.1111H19.3333V19.3333ZM19.3333 12.8889H16.1111V9.66667H19.3333V12.8889ZM19.3333 6.44444H16.1111V3.22222H19.3333V6.44444ZM25.7778 25.7778H22.5556V22.5556H25.7778V25.7778ZM25.7778 19.3333H22.5556V16.1111H25.7778V19.3333Z" fill="#515151"/>
<path d="M28.72 6H22.28C22.1251 6 22 6.12512 22 6.28V12.72C22 12.8749 22.1251 13 22.28 13H28.72C28.8749 13 29 12.8749 29 12.72V6.28C29 6.12512 28.8749 6 28.72 6ZM27.18 9.71C27.18 9.7485 27.1485 9.78 27.11 9.78H25.78V11.11C25.78 11.1485 25.7485 11.18 25.71 11.18H25.29C25.2515 11.18 25.22 11.1485 25.22 11.11V9.78H23.89C23.8515 9.78 23.82 9.7485 23.82 9.71V9.29C23.82 9.2515 23.8515 9.22 23.89 9.22H25.22V7.89C25.22 7.8515 25.2515 7.82 25.29 7.82H25.71C25.7485 7.82 25.78 7.8515 25.78 7.89V9.22H27.11C27.1485 9.22 27.18 9.2515 27.18 9.29V9.71Z" fill="#8C031F"/>
</svg>
