<svg width="32" height="32" viewBox="0 0 32 32" fill="none" xmlns="http://www.w3.org/2000/svg">
<rect width="32" height="32" fill="white"/>
<path fill-rule="evenodd" clip-rule="evenodd" d="M16.5717 7.09696H22.5361L29 13.7784V29H12.7184V24.3077H14.1366V27.5818H27.5818V14.7744H21.5264V8.51514H16.5717V7.09696ZM22.9445 9.55883L26.6183 13.3562H22.9445V9.55883Z" fill="#515151"/>
<path fill-rule="evenodd" clip-rule="evenodd" d="M22.9932 17.7691C23.3091 18.0005 23.3776 18.4442 23.1462 18.7602L22.2576 19.9732H26.0042C26.3958 19.9732 26.7133 20.2906 26.7133 20.6823C26.7133 21.0739 26.3958 21.3913 26.0042 21.3913H22.2576L23.1462 22.6043C23.3776 22.9203 23.3091 23.364 22.9932 23.5954C22.6773 23.8268 22.2336 23.7583 22.0021 23.4424L19.9802 20.6823L22.0021 17.9221C22.2336 17.6062 22.6773 17.5377 22.9932 17.7691Z" fill="#8D0528"/>
<path fill-rule="evenodd" clip-rule="evenodd" d="M11.9256 13.6324C12.2635 13.4344 12.6979 13.5477 12.8959 13.8856L14.8325 17.1902L12.8783 20.1913C12.6646 20.5194 12.2254 20.6122 11.8972 20.3985C11.569 20.1848 11.4762 19.7456 11.6899 19.4174L12.6912 17.8796H7.71077C7.31915 17.8796 7.00168 17.5622 7.00168 17.1706C7.00168 16.7789 7.31915 16.4615 7.71077 16.4615H12.7617L11.6724 14.6027C11.4743 14.2648 11.5877 13.8304 11.9256 13.6324Z" fill="#515151"/>
<path fill-rule="evenodd" clip-rule="evenodd" d="M3 3H13.1642L19.5674 9.86791V25.4883H3V3ZM4.41818 4.41818V24.0701H18.1493V10.8563H12.1467V4.41818H4.41818ZM13.5649 5.50946L17.2277 9.4381H13.5649V5.50946Z" fill="#8D0528"/>
</svg>
