<svg width="29" height="29" viewBox="0 0 29 29" fill="none" xmlns="http://www.w3.org/2000/svg">
<rect width="29" height="29" fill="white"/>
<path d="M2.9 3C2.13087 3 1.39325 3.30553 0.84939 3.84939C0.305535 4.39325 0 5.13087 0 5.9V16.05C0 16.8191 0.305535 17.5568 0.84939 18.1006C1.39325 18.6445 2.13087 18.95 2.9 18.95H18.85C19.6191 18.95 20.3568 18.6445 20.9006 18.1006C21.4445 17.5568 21.75 16.8191 21.75 16.05V5.9C21.75 5.13087 21.4445 4.39325 20.9006 3.84939C20.3568 3.30553 19.6191 3 18.85 3H2.9ZM6.525 22.575C5.88196 22.5752 5.2571 22.3616 4.74867 21.9679C4.24025 21.5742 3.87711 21.0226 3.71635 20.4H19.575C20.5364 20.4 21.4584 20.0181 22.1383 19.3383C22.8181 18.6584 23.2 17.7364 23.2 16.775V6.71635C23.8226 6.87711 24.3742 7.24025 24.7679 7.74867C25.1616 8.2571 25.3752 8.88196 25.375 9.525V16.775C25.375 18.3133 24.7639 19.7885 23.6762 20.8762C22.5885 21.9639 21.1133 22.575 19.575 22.575H6.525ZM10.15 26.2C9.50696 26.2002 8.8821 25.9866 8.37367 25.5929C7.86525 25.1992 7.50211 24.6476 7.34135 24.025H20.6625C22.2969 24.025 23.8644 23.3757 25.02 22.22C26.1757 21.0644 26.825 19.4969 26.825 17.8625V10.3414C27.4476 10.5021 27.9992 10.8653 28.3929 11.3737C28.7866 11.8821 29.0002 12.507 29 13.15V17.8625C29 20.0737 28.1216 22.1944 26.558 23.758C24.9944 25.3216 22.8737 26.2 20.6625 26.2H10.15Z" fill="#515151"/>
<rect y="3" width="22" height="16" rx="3" fill="#8C031F"/>
</svg>
