<svg id="Layer_1" data-name="Layer 1" xmlns="http://www.w3.org/2000/svg" viewBox="0 0 409.45 408.49" style="width:50px">
<path fill-rule="evenodd" clip-rule="evenodd" d="M166.999 174.001C165.999 178.668 165.299 188.101 170.499 188.501C176.999 189.001 232.499 197.501 238.499 199.001C261.999 204.876 267.999 217.501 272.499 227.001L274.499 231.501L260.499 232.001C259.499 226.001 255.499 212.501 225.999 209.501L164.499 199.001C163.166 199.168 160.099 200.201 158.499 203.001C156.723 206.11 157.313 208.824 157.817 211.144C157.844 211.265 157.87 211.384 157.895 211.503C157.931 211.671 157.966 211.837 157.999 212.001C158.177 212.889 158.669 214.092 159.209 215.409L159.209 215.409L159.209 215.409C160.189 217.801 161.322 220.567 161 222.501C160.726 224.146 157.596 229.097 154.825 233.482L154.825 233.482C152.541 237.095 150.5 240.324 150.5 241.001C150.5 241.656 152.5 246.598 154.755 252.167C157.666 259.357 161 267.593 161 269.001C161 271.501 144 348.001 143 350.001C142 352.001 140 354.001 138 354.001C137.915 354.001 137.828 354.002 137.739 354.003C135.706 354.024 132.394 354.058 130 344.001C128.4 337.601 118.333 294.001 113.5 273.001C113.482 272.923 113.464 272.846 113.446 272.77C113.121 271.389 112.863 270.292 114 266.501C117.499 259.835 124.299 245.601 123.499 242.001C123.102 240.218 121.528 237.884 119.771 235.281C117.096 231.317 113.999 226.727 113.999 222.501C113.999 218.323 115.602 214.501 116.788 211.673C117.589 209.764 118.2 208.308 117.999 207.501C117.499 205.501 114.499 199.001 109.499 199.001C87.8319 202.335 42.5986 209.501 34.9986 211.501C25.4986 214.001 13.9986 222.501 12.4986 234.501C11.3292 243.857 11.331 318.232 11.4861 357.031C11.4927 358.683 12.8337 360.001 14.4854 360.001H56C57.6568 360.001 59 358.658 59 357.001V261.501C59 260.397 59.8954 259.501 61 259.501H68.5C69.6046 259.501 70.5 260.397 70.5 261.501V357.001C70.5 358.658 71.8431 360.001 73.5 360.001H183V372.501H3C1.34314 372.501 0 371.158 0 369.501V238.001C1.16667 227.835 8.4 206.201 28 201.001C40.8399 198.314 51.5399 196.518 60.1 195.082C65.8735 194.113 70.6735 193.307 74.5 192.501C84.8333 191.168 105.7 188.101 106.5 186.501C107.5 184.501 109 179.501 106.5 175.001C104.676 171.718 102.585 169.765 99.84 167.201L99.8397 167.201C98.8229 166.251 97.7162 165.218 96.5 164.001C96.216 163.717 95.8961 163.404 95.5459 163.06L95.5453 163.059C90.3468 157.958 78.4684 146.302 78 128.501C77.5471 120.347 75.8632 120.401 73.3201 120.484C73.0558 120.493 72.7824 120.501 72.5 120.501C65 120.501 53.5 118 53.5 102.5C53.5 89.4996 63.1 84.4996 73.5 84.4996C72.6458 81.8983 71.3756 79.3693 70.0433 76.7167C65.6565 67.9827 60.5966 57.9087 67.5 39.4996C71.5 30.2996 81.1667 24.3329 85.5 22.4996C88 21.4996 93.8 18.7996 97 15.9996C101 12.4996 124 -2.00039 143 0.999605C158.649 3.47044 171.923 10.3507 178.075 13.5391C179.392 14.2219 180.383 14.7354 181 15C184.5 16.5 199 24 204 40C209 56 208.5 66 200.5 84.5C209.5 83.5 222.5 90.5 221 103C220 117 206.5 121.5 199.5 120.5C198.667 120.333 197 120.7 197 123.5C197 127 192.96 146.052 186 155C180.629 161.905 174.082 167.044 170.647 169.74L170.647 169.74C169.605 170.558 168.849 171.151 168.5 171.5C167.3 172.7 166.999 173.668 166.999 174.001ZM111.501 20.5007C115.834 17.5007 127.801 11.9007 141.001 13.5007C155.868 15.3028 168.706 21.9762 174.027 24.742C174.611 25.0456 175.105 25.3022 175.501 25.5C179.501 27.5 196.501 41.5 195.001 56C193.801 67.6 192.501 72.5 192.001 73.5C190.001 67.8333 184.901 56.2 180.501 55C177.819 54.2687 172.404 57.9351 166.399 62.0006C160.087 66.2736 153.125 70.9876 148.001 71.5C146.826 71.6174 145.631 71.7832 144.397 71.9542L144.397 71.9543L144.397 71.9543C135.126 73.2398 123.681 74.8269 102.501 58.5C94.3097 52.5844 93.1591 54.1232 90.3802 57.8398L90.3801 57.8399C90.1056 58.207 89.8152 58.5954 89.5005 59L82.0005 74C75.5011 66 72.0014 47.5 83.5005 38C87.8337 34.3333 99.3 28.1 110.5 32.5C119.591 36.0717 122.568 40.4867 124.359 43.1436C125.327 44.5781 125.948 45.5 127 45.5C128.768 45.5 130.189 44.1102 131.775 42.5594C132.879 41.4793 134.063 40.3211 135.5 39.5C134.5 35.5 123.001 21.5013 111.501 20.5007ZM135.5 84.5C120.3 85.7 103.833 75.6667 97.5 70.5C97.5 72.1402 95.7431 75.3177 93.876 78.6945C91.7589 82.5235 89.5 86.6088 89.5 89V123C89.5 136.5 100.5 169 139.5 169C177.092 169 183.559 131.372 184.873 123.729L184.873 123.728C184.922 123.442 184.964 123.198 185 123C185.414 120.724 185.228 118.533 184.975 115.542V115.542C184.616 111.306 184.121 105.464 185 95.5C186.2 81.9 179.167 73.1667 175.5 70.5C168.5 74.6667 150.7 83.3 135.5 84.5ZM122.774 178.913C126.564 179.994 132.46 181.116 138 180.5C143.61 179.877 149.18 179.01 152.628 178.422C153.862 178.211 155 179.158 155 180.41V189.155C155 189.695 154.781 190.212 154.394 190.589L138.894 205.646C138.117 206.4 136.883 206.4 136.106 205.646L120.606 190.589C120.219 190.212 120 189.695 120 189.155V180.924C120 179.517 121.421 178.527 122.774 178.913ZM133.438 219.721L128 216C126 217.5 125.608 220.695 128 225C130.5 229.5 136 235 137.5 234.5C139 234 142.5 230 146.5 225C149.7 221 147.833 217.333 146.5 216L141.489 219.619C139.096 221.347 135.875 221.388 133.438 219.721ZM143.523 260.465L147.532 269.354C148.16 270.746 148.315 272.306 147.974 273.795L138.453 315.341C138.217 316.371 136.752 316.379 136.506 315.351L126.543 273.765C126.19 272.295 126.324 270.75 126.923 269.361L130.715 260.57C133.125 254.984 141.022 254.919 143.523 260.465Z" fill="black"/>
<path style="fill:#8d0527;" fill-rule="oddeven" clip-rule="evenodd" d="M314.5 227.5H342C350.837 227.5 358 234.663 358 243.5V355.5C358 364.337 350.837 371.5 342 371.5H183C174.163 371.5 167 364.337 167 355.5V243.5C167 234.663 174.163 227.5 183 227.5H210C212.209 227.5 214 225.709 214 223.5V209.5C214 200.663 221.163 193.5 230 193.5H294.5C303.337 193.5 310.5 200.663 310.5 209.5V223.5C310.5 225.709 312.291 227.5 314.5 227.5ZM229 204C227.343 204 226 205.343 226 207V226C226 227.657 227.343 229 229 229H295C296.657 229 298 227.657 298 226V207C298 205.343 296.657 204 295 204H229ZM179 350C179 348.343 180.343 347 182 347H343C344.657 347 346 348.343 346 350V357C346 358.657 344.657 360 343 360H182C180.343 360 179 358.657 179 357V350ZM260 276C258.343 276 257 277.343 257 279V310C257 311.657 258.343 313 260 313H265C266.657 313 268 311.657 268 310V279C268 277.343 266.657 276 265 276H260ZM304 300C330.465 300.84 337.754 294.504 343.065 289.887C344.075 289.009 345.014 288.193 346 287.5V334C346 335.105 345.105 336 344 336H180.5C179.395 336 178.5 335.105 178.5 334V287.5C189.5 299 197.5 300 207.5 300H241.5C243.157 300 244.505 301.343 244.585 302.998C244.705 305.48 244.971 308.828 245.5 312C246.5 318 252.5 324.5 262.5 324C272.5 323.5 276.079 319.553 278.5 313.5C279.947 309.883 280.347 306.004 280.458 302.999C280.519 301.343 281.843 299.974 283.499 299.919C286.239 299.828 291.083 299.725 304 300ZM345.5 242.5V263C345.5 271 337.5 288 317.5 288H280.5V271C280.5 267.134 277.366 264 273.5 264H251C247.134 264 244 267.134 244 271V288H207.5C196.5 288 179.5 280.5 178.5 260V259.5V242.5C178.5 241.395 179.395 240.5 180.5 240.5H343.5C344.605 240.5 345.5 241.395 345.5 242.5Z" fill="black"/>
</svg>

