<svg width="29" height="29" viewBox="0 0 29 29" fill="none" xmlns="http://www.w3.org/2000/svg">
<rect width="29" height="29" fill="white"/>
<path d="M26.5833 2.71941H22.6563V0.906873C22.6564 0.666516 22.5611 0.435939 22.3912 0.265867C22.2214 0.0957958 21.991 0.000160453 21.7506 2.15188e-07C21.5103 -0.000160023 21.2797 0.0951679 21.1096 0.265013C20.9395 0.434858 20.8439 0.665307 20.8438 0.905665V2.71941H15.4063V0.906873C15.4063 0.78786 15.383 0.669997 15.3375 0.560013C15.292 0.450029 15.2253 0.350078 15.1412 0.265867C15.0571 0.181656 14.9573 0.114835 14.8474 0.069217C14.7374 0.0235994 14.6196 7.95436e-05 14.5006 2.01684e-07C14.2603 -0.000160037 14.0297 0.0951679 13.8596 0.265013C13.6895 0.434858 13.5939 0.665307 13.5938 0.905665V2.71941H8.15625V0.906873C8.15633 0.78786 8.13297 0.669997 8.0875 0.560013C8.04203 0.450029 7.97534 0.350078 7.89124 0.265867C7.80715 0.181656 7.70729 0.114835 7.59737 0.069217C7.48744 0.0235994 7.36962 7.95436e-05 7.2506 2.01684e-07C7.01025 -0.000160037 6.77968 0.0951679 6.60961 0.265013C6.43954 0.434858 6.34391 0.665307 6.34375 0.905665V2.71941H2.41667C1.77594 2.71941 1.16143 2.97386 0.708252 3.42682C0.255074 3.87978 0.000320365 4.49418 0 5.13492V26.5833C0 27.2242 0.254612 27.8389 0.707825 28.2922C1.16104 28.7454 1.77573 29 2.41667 29H26.5833C27.2243 29 27.839 28.7454 28.2922 28.2922C28.7454 27.8389 29 27.2242 29 26.5833V5.13492C28.9997 4.49418 28.7449 3.87978 28.2917 3.42682C27.8386 2.97386 27.2241 2.71941 26.5833 2.71941V2.71941ZM27.1875 26.5845C27.1875 26.7445 27.124 26.898 27.011 27.0113C26.8979 27.1246 26.7446 27.1884 26.5845 27.1887H2.41667C2.25643 27.1887 2.10276 27.125 1.98946 27.0117C1.87615 26.8984 1.8125 26.7447 1.8125 26.5845V5.13613C1.81282 4.9761 1.87661 4.82273 1.98988 4.70969C2.10315 4.59665 2.25664 4.53316 2.41667 4.53316H6.34375V6.34569C6.34359 6.58605 6.43892 6.81663 6.60876 6.9867C6.7786 7.15677 7.00904 7.25241 7.2494 7.25257C7.48975 7.25273 7.72032 7.1574 7.89039 6.98756C8.06046 6.81771 8.15609 6.58726 8.15625 6.3469V4.53316H13.5938V6.34569C13.5936 6.58605 13.6889 6.81663 13.8588 6.9867C14.0286 7.15677 14.259 7.25241 14.4994 7.25257C14.7397 7.25273 14.9703 7.1574 15.1404 6.98756C15.3105 6.81771 15.4061 6.58726 15.4063 6.3469V4.53316H20.8438V6.34569C20.8436 6.58605 20.9389 6.81663 21.1088 6.9867C21.2786 7.15677 21.509 7.25241 21.7494 7.25257C21.9897 7.25273 22.2203 7.1574 22.3904 6.98756C22.5605 6.81771 22.6561 6.58726 22.6563 6.3469V4.53316H26.5833C26.7432 4.53348 26.8963 4.59711 27.0093 4.71012C27.1223 4.82313 27.186 4.97631 27.1863 5.13613L27.1875 26.5845Z" fill="#515151"/>
<path d="M6.34375 10.8758H9.96875V13.5946H6.34375V10.8758Z" fill="#8C031F"/>
<path d="M6.34375 15.4072H9.96875V18.126H6.34375V15.4072Z" fill="#8C031F"/>
<path d="M6.34375 19.9385H9.96875V22.6573H6.34375V19.9385Z" fill="#8C031F"/>
<path d="M12.6875 19.9385H16.3125V22.6573H12.6875V19.9385Z" fill="#8C031F"/>
<path d="M12.6875 15.4072H16.3125V18.126H12.6875V15.4072Z" fill="#8C031F"/>
<path d="M12.6875 10.8758H16.3125V13.5946H12.6875V10.8758Z" fill="#8C031F"/>
<path d="M19.0312 19.9385H22.6563V22.6573H19.0312V19.9385Z" fill="#8C031F"/>
<path d="M19.0312 15.4072H22.6563V18.126H19.0312V15.4072Z" fill="#8C031F"/>
<path d="M19.0312 10.8758H22.6563V13.5946H19.0312V10.8758Z" fill="#8C031F"/>
</svg>
