<svg width="29" height="29" viewBox="0 0 29 29" fill="none" xmlns="http://www.w3.org/2000/svg">
<rect width="29" height="29" fill="white"/>
<path d="M24.65 2.9H21.75V1.45C21.75 1.06544 21.5972 0.696623 21.3253 0.424695C21.0534 0.152767 20.6846 0 20.3 0C19.9154 0 19.5466 0.152767 19.2747 0.424695C19.0028 0.696623 18.85 1.06544 18.85 1.45V2.9H10.15V1.45C10.15 1.06544 9.99723 0.696623 9.7253 0.424695C9.45338 0.152767 9.08456 0 8.7 0C8.31544 0 7.94662 0.152767 7.6747 0.424695C7.40277 0.696623 7.25 1.06544 7.25 1.45V2.9H4.35C3.19631 2.9 2.08987 3.3583 1.27409 4.17409C0.458302 4.98987 0 6.09631 0 7.25V24.65C0 25.8037 0.458302 26.9101 1.27409 27.7259C2.08987 28.5417 3.19631 29 4.35 29H24.65C25.8037 29 26.9101 28.5417 27.7259 27.7259C28.5417 26.9101 29 25.8037 29 24.65V7.25C29 6.09631 28.5417 4.98987 27.7259 4.17409C26.9101 3.3583 25.8037 2.9 24.65 2.9ZM26.1 24.65C26.1 25.0346 25.9472 25.4034 25.6753 25.6753C25.4034 25.9472 25.0346 26.1 24.65 26.1H4.35C3.96544 26.1 3.59662 25.9472 3.3247 25.6753C3.05277 25.4034 2.9 25.0346 2.9 24.65V14.5H26.1V24.65ZM26.1 11.6H2.9V7.25C2.9 6.86544 3.05277 6.49662 3.3247 6.2247C3.59662 5.95277 3.96544 5.8 4.35 5.8H7.25V7.25C7.25 7.63456 7.40277 8.00338 7.6747 8.2753C7.94662 8.54723 8.31544 8.7 8.7 8.7C9.08456 8.7 9.45338 8.54723 9.7253 8.2753C9.99723 8.00338 10.15 7.63456 10.15 7.25V5.8H18.85V7.25C18.85 7.63456 19.0028 8.00338 19.2747 8.2753C19.5466 8.54723 19.9154 8.7 20.3 8.7C20.6846 8.7 21.0534 8.54723 21.3253 8.2753C21.5972 8.00338 21.75 7.63456 21.75 7.25V5.8H24.65C25.0346 5.8 25.4034 5.95277 25.6753 6.2247C25.9472 6.49662 26.1 6.86544 26.1 7.25V11.6Z" fill="#515151"/>
</svg>
