<svg width="32" height="32" viewBox="0 0 32 32" fill="none" xmlns="http://www.w3.org/2000/svg">
<rect width="32" height="32" fill="white"/>
<path d="M15 6L13.59 7.41L17.17 11L13.59 14.59L15 16L20 11L15 6Z" fill="#8C031F"/>
<path d="M28 24H17V20H23C23.5302 19.9992 24.0384 19.7882 24.4133 19.4133C24.7882 19.0384 24.9992 18.5302 25 18V4C24.9995 3.46973 24.7886 2.96133 24.4136 2.58637C24.0387 2.21141 23.5303 2.00053 23 2H9C8.46973 2.00053 7.96133 2.21141 7.58637 2.58637C7.21141 2.96133 7.00053 3.46973 7 4V18C7.00053 18.5303 7.21141 19.0387 7.58637 19.4136C7.96133 19.7886 8.46973 19.9995 9 20H15V24H4C3.46957 24 2.96086 24.2107 2.58579 24.5858C2.21071 24.9609 2 25.4696 2 26V30H4V26H15V30H17V26H28V30H30V26C30 25.4696 29.7893 24.9609 29.4142 24.5858C29.0391 24.2107 28.5304 24 28 24ZM9 4H23L23.002 18H9V4Z" fill="#515151"/>
</svg>
