<svg width="29" height="29" viewBox="0 0 29 29" fill="none" xmlns="http://www.w3.org/2000/svg">
<rect width="29" height="29" fill="white"/>
<path d="M26.2813 9.0625H21.75V10.875H26.2813V16.3125H19.9375V18.125H22.6563V20.0662C21.802 20.2868 21.0575 20.8113 20.5623 21.5416C20.0671 22.2718 19.8552 23.1576 19.9664 24.0328C20.0776 24.9081 20.5042 25.7128 21.1662 26.296C21.8282 26.8793 22.6802 27.2011 23.5625 27.2011C24.4448 27.2011 25.2968 26.8793 25.9588 26.296C26.6209 25.7128 27.0474 24.9081 27.1586 24.0328C27.2698 23.1576 27.0579 22.2718 26.5627 21.5416C26.0676 20.8113 25.323 20.2868 24.4688 20.0662V18.125H26.2813C26.7618 18.1244 27.2224 17.9332 27.5622 17.5934C27.9019 17.2536 28.0931 16.793 28.0938 16.3125V10.875C28.0932 10.3945 27.9021 9.93377 27.5623 9.59398C27.2225 9.25419 26.7618 9.06305 26.2813 9.0625ZM25.375 23.5625C25.375 23.921 25.2687 24.2714 25.0695 24.5695C24.8704 24.8675 24.5873 25.0998 24.2561 25.237C23.9249 25.3742 23.5605 25.4101 23.2089 25.3402C22.8573 25.2702 22.5344 25.0976 22.2809 24.8441C22.0274 24.5906 21.8548 24.2677 21.7848 23.9161C21.7149 23.5645 21.7508 23.2001 21.888 22.8689C22.0252 22.5377 22.2575 22.2546 22.5555 22.0555C22.8536 21.8563 23.204 21.75 23.5625 21.75C24.043 21.7506 24.5037 21.9418 24.8434 22.2816C25.1832 22.6214 25.3744 23.082 25.375 23.5625V23.5625Z" fill="#515151"/>
<path d="M17.2187 5.4375H12.6875V7.25H17.2187V12.6875H10.875V14.5H13.5937V20.0662C12.7395 20.2868 11.9949 20.8113 11.4998 21.5416C11.0046 22.2718 10.7927 23.1576 10.9039 24.0328C11.0151 24.9081 11.4416 25.7128 12.1037 26.296C12.7657 26.8793 13.6177 27.2011 14.5 27.2011C15.3823 27.2011 16.2343 26.8793 16.8963 26.296C17.5583 25.7128 17.9849 24.9081 18.0961 24.0328C18.2073 23.1576 17.9954 22.2718 17.5002 21.5416C17.005 20.8113 16.2605 20.2868 15.4062 20.0662V14.5H17.2187C17.6993 14.4994 18.16 14.3083 18.4998 13.9685C18.8396 13.6287 19.0307 13.168 19.0312 12.6875V7.25C19.0307 6.76946 18.8396 6.30877 18.4998 5.96898C18.16 5.62919 17.6993 5.43805 17.2187 5.4375ZM16.3125 23.5625C16.3125 23.921 16.2062 24.2714 16.007 24.5695C15.8079 24.8675 15.5248 25.0998 15.1936 25.237C14.8624 25.3742 14.498 25.4101 14.1464 25.3402C13.7948 25.2702 13.4718 25.0976 13.2184 24.8441C12.9649 24.5906 12.7923 24.2677 12.7223 23.9161C12.6524 23.5645 12.6883 23.2001 12.8255 22.8689C12.9626 22.5377 13.195 22.2546 13.493 22.0555C13.7911 21.8563 14.1415 21.75 14.5 21.75C14.9805 21.7506 15.4411 21.9418 15.7809 22.2816C16.1207 22.6214 16.3118 23.082 16.3125 23.5625Z" fill="#515151"/>
<path d="M8.15625 1.8125H2.71875C2.23819 1.81298 1.77745 2.00409 1.43765 2.3439C1.09784 2.6837 0.90673 3.14444 0.90625 3.625V9.0625C0.90673 9.54306 1.09784 10.0038 1.43765 10.3436C1.77745 10.6834 2.23819 10.8745 2.71875 10.875H4.53125V20.0662C3.67697 20.2868 2.93245 20.8113 2.43727 21.5416C1.94208 22.2718 1.73022 23.1576 1.84139 24.0328C1.95257 24.9081 2.37914 25.7128 3.04116 26.296C3.70319 26.8793 4.5552 27.2011 5.4375 27.2011C6.3198 27.2011 7.17181 26.8793 7.83384 26.296C8.49586 25.7128 8.92243 24.9081 9.03361 24.0328C9.14478 23.1576 8.93292 22.2718 8.43773 21.5416C7.94255 20.8113 7.19803 20.2868 6.34375 20.0662V10.875H8.15625C8.63681 10.8745 9.09755 10.6834 9.43735 10.3436C9.77716 10.0038 9.96827 9.54306 9.96875 9.0625V3.625C9.96827 3.14444 9.77716 2.6837 9.43735 2.3439C9.09755 2.00409 8.63681 1.81298 8.15625 1.8125V1.8125ZM7.25 23.5625C7.25 23.921 7.1437 24.2714 6.94454 24.5695C6.74538 24.8675 6.4623 25.0998 6.13111 25.237C5.79992 25.3742 5.43549 25.4101 5.0839 25.3402C4.73231 25.2702 4.40935 25.0976 4.15587 24.8441C3.90239 24.5906 3.72976 24.2677 3.65983 23.9161C3.58989 23.5645 3.62578 23.2001 3.76297 22.8689C3.90015 22.5377 4.13247 22.2546 4.43053 22.0555C4.72859 21.8563 5.07902 21.75 5.4375 21.75C5.91804 21.7506 6.37873 21.9417 6.71852 22.2815C7.05831 22.6213 7.24945 23.082 7.25 23.5625ZM2.71875 9.0625V3.625H8.15625L8.15761 9.0625H2.71875Z" fill="#8C031F"/>
</svg>
