<svg width="29" height="29" viewBox="0 0 29 29" fill="none" xmlns="http://www.w3.org/2000/svg">
<rect width="29" height="29" fill="white"/>
<path d="M14.8919 7.83789C13.0011 7.83789 11.4628 9.33221 11.4628 11.169V13.1676H10.777C10.4132 13.1676 10.0644 13.308 9.80713 13.5579C9.54991 13.8078 9.4054 14.1467 9.4054 14.5001V19.8298C9.4054 20.1832 9.54991 20.5221 9.80713 20.772C10.0644 21.0218 10.4132 21.1622 10.777 21.1622H19.0067C19.3705 21.1622 19.7194 21.0218 19.9766 20.772C20.2339 20.5221 20.3784 20.1832 20.3784 19.8298V14.5001C20.3784 14.1467 20.2339 13.8078 19.9766 13.5579C19.7194 13.308 19.3705 13.1676 19.0067 13.1676H18.3209V11.169C18.3209 9.33221 16.7827 7.83789 14.8919 7.83789ZM12.8344 11.169C12.8344 10.0671 13.7576 9.17032 14.8919 9.17032C16.0262 9.17032 16.9493 10.0671 16.9493 11.169V13.1676H12.8344V11.169ZM15.5777 18.3128V19.8298H14.2061V18.3128C13.9663 18.1794 13.7738 17.9786 13.6539 17.7368C13.534 17.4949 13.4923 17.2235 13.5344 16.9582C13.5766 16.693 13.7004 16.4463 13.8898 16.2508C14.0791 16.0553 14.3249 15.9202 14.5949 15.8631C14.7955 15.8201 15.0034 15.8213 15.2034 15.8667C15.4034 15.912 15.5904 16.0005 15.7505 16.1254C15.9106 16.2503 16.0399 16.4086 16.1287 16.5885C16.2174 16.7684 16.2635 16.9654 16.2635 17.1649C16.2631 17.3979 16.1995 17.6267 16.0791 17.8282C15.9587 18.0298 15.7858 18.1969 15.5777 18.3128V18.3128Z" fill="#8C031F"/>
<path d="M25.5981 5.18329L25.6037 5.17883C25.501 5.05621 25.3839 4.94921 25.2769 4.83105C25.0716 4.60254 24.8675 4.37403 24.6489 4.1589C24.4939 4.0073 24.3299 3.86685 24.1693 3.72306C23.9652 3.53914 23.761 3.35633 23.5469 3.18578C23.3684 3.0431 23.1844 2.91046 23.0004 2.7767C22.7862 2.62064 22.5709 2.46793 22.3479 2.32414C22.1525 2.1992 21.9543 2.07878 21.7534 1.96298C21.5243 1.82996 21.292 1.70326 21.0562 1.58288C20.851 1.4781 20.6435 1.37666 20.4316 1.28191C20.184 1.17045 19.9308 1.06901 19.6754 0.969803C19.4635 0.889546 19.2538 0.808174 19.0385 0.73795C18.7641 0.646546 18.483 0.570748 18.202 0.496064C17.9945 0.441445 17.7915 0.382367 17.5818 0.336665C17.2584 0.266441 16.9271 0.217395 16.5969 0.169464C16.4185 0.143826 16.2456 0.107042 16.066 0.0880921C13.6843 -0.176251 11.2741 0.156556 9.05336 1.05645C6.83258 1.95634 4.87112 3.39497 3.34617 5.24237V1.11471H1.1154V10.0321H10.0385V7.80278H4.25074C5.35899 6.09374 6.87713 4.68865 8.66712 3.71528C10.4571 2.74191 12.4622 2.23113 14.5 2.22939C14.9431 2.23057 15.3858 2.2555 15.8262 2.30407C15.9779 2.32079 16.1251 2.35089 16.2757 2.37207C16.5545 2.41331 16.8345 2.45567 17.1078 2.51475C17.2862 2.55376 17.4591 2.60392 17.6342 2.64962C17.8718 2.71316 18.1083 2.7767 18.3403 2.85361C18.5232 2.9138 18.7028 2.98291 18.8824 3.05202C19.0976 3.13451 19.3107 3.21922 19.5181 3.31397C19.6988 3.39423 19.875 3.48117 20.0502 3.57035C20.2494 3.67141 20.445 3.77768 20.6369 3.88915C20.8075 3.98947 20.977 4.08979 21.1421 4.1968C21.3295 4.31941 21.5102 4.44648 21.6909 4.57802C21.847 4.69171 22.0054 4.8043 22.156 4.9258C22.3367 5.07071 22.5085 5.22453 22.6802 5.37836C22.8174 5.50097 22.9569 5.62024 23.0874 5.74843C23.2736 5.93124 23.4476 6.12519 23.6216 6.31914C24.949 7.79877 25.8965 9.57884 26.3822 11.5059C26.8679 13.4329 26.8774 15.4491 26.4098 17.3806C25.9422 19.3121 25.0115 21.101 23.698 22.593C22.3846 24.085 20.7277 25.2354 18.8703 25.945C17.0129 26.6545 15.0106 26.902 13.0362 26.666C11.0618 26.4301 9.17441 25.7177 7.5368 24.5905C5.8992 23.4632 4.5605 21.9548 3.63613 20.1953C2.71176 18.4358 2.22945 16.4781 2.23078 14.4909H1.15948e-05C-0.00293777 16.8218 0.556825 19.1191 1.6318 21.1877C2.70677 23.2564 4.26523 25.0353 6.17492 26.3736C8.08461 27.7119 10.2892 28.5701 12.6015 28.8753C14.9139 29.1804 17.2658 28.9237 19.4577 28.1267C21.6495 27.3297 23.6167 26.0161 25.1921 24.2973C26.7676 22.5784 27.905 20.5052 28.5076 18.2533C29.1103 16.0015 29.1605 13.6377 28.654 11.3623C28.1475 9.08701 27.0992 6.96737 25.5981 5.18329V5.18329Z" fill="#515151"/>
</svg>
