<svg width="29" height="29" viewBox="0 0 29 29" fill="none" xmlns="http://www.w3.org/2000/svg">
<rect width="29" height="29" fill="white"/>
<path d="M22.7857 22.7857V24.8571H25.3336C24.7546 25.5103 24.0433 26.0328 23.2469 26.39C22.4504 26.7471 21.5871 26.9307 20.7143 26.9285C19.0667 26.9266 17.4872 26.2713 16.3222 25.1063C15.1573 23.9413 14.5019 22.3618 14.5 20.7143H12.4286C12.4252 22.3991 12.9365 24.0447 13.8942 25.4309C14.8518 26.8171 16.21 27.8777 17.7869 28.4708C19.3639 29.0638 21.0844 29.161 22.7182 28.7494C24.3519 28.3377 25.8209 27.4368 26.9286 26.1673V29H29V22.7857H22.7857Z" fill="#8C031F"/>
<path d="M20.7143 12.4286C19.5371 12.4346 18.3746 12.6902 17.3034 13.1785C16.2322 13.6668 15.2767 14.3766 14.5 15.2612V12.4286H12.4286V18.6428H18.6429V16.5714H16.095C16.674 15.9182 17.3853 15.3957 18.1817 15.0385C18.9781 14.6814 19.8414 14.4978 20.7143 14.5C22.3618 14.5019 23.9413 15.1572 25.1063 16.3222C26.2713 17.4872 26.9267 19.0667 26.9286 20.7143H29C28.9973 18.5176 28.1234 16.4117 26.5701 14.8584C25.0169 13.3051 22.911 12.4313 20.7143 12.4286V12.4286Z" fill="#8C031F"/>
<path d="M10.3571 26.9286H4.14286V22.7857H6.21429V20.7143H4.14286V15.5357H6.21429V13.4643H4.14286V8.28571H6.21429V6.21428H4.14286V2.07143H22.7857V10.3571H24.8571V2.07143C24.8571 1.52205 24.6389 0.995175 24.2504 0.606707C23.862 0.218239 23.3351 0 22.7857 0H4.14286C3.59348 0 3.0666 0.218239 2.67814 0.606707C2.28967 0.995175 2.07143 1.52205 2.07143 2.07143V6.21428H0V8.28571H2.07143V13.4643H0V15.5357H2.07143V20.7143H0V22.7857H2.07143V26.9286C2.07143 27.4779 2.28967 28.0048 2.67814 28.3933C3.0666 28.7817 3.59348 29 4.14286 29H10.3571V26.9286Z" fill="#515151"/>
</svg>
