<svg width="29" height="29" viewBox="0 0 29 29" fill="none" xmlns="http://www.w3.org/2000/svg">
<rect width="29" height="29" fill="white"/>
<path d="M15.5317 8.37221C17.5675 8.37221 19.2178 6.72189 19.2178 4.68611C19.2178 2.65033 17.5675 1 15.5317 1C13.496 1 11.8456 2.65033 11.8456 4.68611C11.8456 6.72189 13.496 8.37221 15.5317 8.37221Z" fill="#515151" stroke="#515151" stroke-width="2" stroke-linecap="round" stroke-linejoin="round"/>
<path d="M5 20.4837C5 15.8303 9.24376 12.0583 14.4786 12.0583" stroke="#515151" stroke-width="1.5" stroke-linecap="round" stroke-linejoin="round"/>
<path d="M21.1704 18.1532V27.7046H11.5986V28.9091H21.1704C21.5072 28.9091 21.7926 28.7923 22.0265 28.5589C22.2604 28.3255 22.3774 28.0407 22.3774 27.7046V18.1532H21.1704ZM10.3916 15.7444C10.0735 15.7444 9.79748 15.8611 9.56357 16.0945C9.32966 16.3279 9.2127 16.6127 9.2127 16.9488V25.3238C9.2127 25.6412 9.32966 25.9167 9.56357 26.1501C9.79748 26.3835 10.0735 26.5002 10.3916 26.5002H18.7844C19.1213 26.5002 19.4067 26.3835 19.6406 26.1501C19.8745 25.9167 19.9914 25.6412 19.9914 25.3238V16.9488C19.9914 16.6127 19.8745 16.3279 19.6406 16.0945C19.4067 15.8611 19.1213 15.7444 18.7844 15.7444H10.3916ZM10.3916 25.3238V16.9488H18.7844V25.3238H10.3916Z" fill="#8C031F"/>
</svg>
