<svg width="29" height="29" viewBox="0 0 29 29" fill="none" xmlns="http://www.w3.org/2000/svg">
<rect width="29" height="29" fill="white"/>
<path d="M1 0V26.9286H17.6154V24.8571H3.07692V2.07143H13.4615V8.28571H19.6923V10.3571H21.7692V6.83571L21.4577 6.525L15.2269 0.310714L14.9154 0H1ZM15.5385 3.52143L18.2385 6.21429H15.5385V3.52143ZM5.15385 10.3571V12.4286H17.6154V10.3571H5.15385ZM22.8077 12.4286V14.5C21.0423 14.8107 19.6923 16.2607 19.6923 18.125C19.6923 20.1964 21.25 21.75 23.3269 21.75H24.3654C25.1962 21.75 25.9231 22.475 25.9231 23.3036C25.9231 24.1321 25.1962 24.8571 24.3654 24.8571H20.7308V26.9286H22.8077V29H24.8846V26.9286C26.65 26.6179 28 25.1679 28 23.3036C28 21.2321 26.4423 19.6786 24.3654 19.6786H23.3269C22.4962 19.6786 21.7692 18.9536 21.7692 18.125C21.7692 17.2964 22.4962 16.5714 23.3269 16.5714H26.9615V14.5H24.8846V12.4286H22.8077ZM5.15385 15.5357V17.6071H12.4231V15.5357H5.15385ZM14.5 15.5357V17.6071H17.6154V15.5357H14.5ZM5.15385 19.6786V21.75H12.4231V19.6786H5.15385ZM14.5 19.6786V21.75H17.6154V19.6786H14.5Z" fill="#515151"/>
<path d="M5.15385 11.3929H17.6154" stroke="#8C031F" stroke-width="2"/>
<path d="M5.15385 16.5714H12.4231" stroke="#8C031F" stroke-width="2"/>
<path d="M5.15385 20.7143H12.4231" stroke="#8C031F" stroke-width="2"/>
<path d="M14.5 20.7143H17.6154" stroke="#8C031F" stroke-width="2"/>
<path d="M14.5 16.5714H17.6154" stroke="#8C031F" stroke-width="2"/>
</svg>
