<svg width="29" height="29" viewBox="0 0 29 29" fill="none" xmlns="http://www.w3.org/2000/svg">
<rect width="29" height="29" fill="white"/>
<path d="M1 1H20.0981L27.9999 7.10119V28H1.00002L1 1ZM1 1H19.1316V7.71556H28" stroke="#515151" stroke-width="1.5" stroke-linecap="round"/>
<path d="M10.6057 17.0743C10.7816 17.1171 10.9618 17.1401 11.1429 17.1429C11.5968 17.1427 12.0404 17.0075 12.4171 16.7543L14.2571 18.3943C14.1114 18.6711 14.0258 18.9756 14.0061 19.2878C13.9864 19.6 14.033 19.9128 14.1429 20.2057C14.2582 20.5376 14.4485 20.8384 14.699 21.0848C14.9495 21.3312 15.2534 21.5165 15.5871 21.6264C15.9209 21.7363 16.2754 21.7677 16.6233 21.7183C16.9712 21.6689 17.303 21.54 17.5929 21.3415C17.8829 21.1431 18.1231 20.8804 18.2951 20.574C18.4671 20.2676 18.5661 19.9257 18.5845 19.5749C18.6028 19.224 18.5401 18.8736 18.4011 18.5509C18.262 18.2282 18.0505 17.9419 17.7829 17.7143L19.2343 14.8057C19.5176 14.8696 19.8109 14.8757 20.0966 14.8237C20.3823 14.7717 20.6546 14.6625 20.8971 14.5029C21.3091 14.2515 21.6309 13.8761 21.8164 13.4306C22.002 12.9851 22.0418 12.4923 21.9301 12.0228C21.8184 11.5533 21.561 11.1312 21.1947 10.817C20.8284 10.5027 20.372 10.3125 19.891 10.2735C19.41 10.2346 18.929 10.3488 18.5169 10.6C18.1048 10.8512 17.7828 11.2263 17.5969 11.6717C17.4111 12.1171 17.371 12.6099 17.4825 13.0794C17.5939 13.549 17.851 13.9713 18.2171 14.2857L16.7657 17.1943C16.6081 17.1596 16.4471 17.1424 16.2857 17.1429C15.8318 17.143 15.3882 17.2782 15.0114 17.5314L13.1714 15.8914C13.3172 15.6146 13.4027 15.3101 13.4224 14.9979C13.4421 14.6857 13.3955 14.3729 13.2857 14.08C13.1712 13.7505 12.9828 13.4516 12.735 13.2062C12.4872 12.9608 12.1864 12.7753 11.8559 12.664C11.5253 12.5528 11.1736 12.5186 10.8278 12.5642C10.482 12.6098 10.1512 12.734 9.86082 12.9271C9.57039 13.1203 9.32802 13.3774 9.15228 13.6786C8.97654 13.9799 8.87208 14.3175 8.8469 14.6653C8.82173 15.0132 8.87651 15.3623 9.00704 15.6857C9.13758 16.0092 9.34041 16.2985 9.6 16.5314L7.14286 21.1429V8H6V22.8571C6 23.1602 6.12041 23.4509 6.33474 23.6653C6.54906 23.8796 6.83975 24 7.14286 24H22V22.8571H7.52571L10.6057 17.0743ZM19.7143 11.4286C19.9403 11.4286 20.1613 11.4956 20.3492 11.6212C20.5372 11.7468 20.6836 11.9252 20.7701 12.1341C20.8566 12.3429 20.8793 12.5727 20.8352 12.7944C20.7911 13.0161 20.6822 13.2197 20.5224 13.3796C20.3626 13.5394 20.1589 13.6482 19.9372 13.6923C19.7156 13.7364 19.4858 13.7138 19.2769 13.6273C19.0681 13.5408 18.8896 13.3943 18.764 13.2064C18.6385 13.0184 18.5714 12.7975 18.5714 12.5714C18.5714 12.2683 18.6918 11.9776 18.9062 11.7633C19.1205 11.549 19.4112 11.4286 19.7143 11.4286ZM17.4286 19.4286C17.4286 19.6546 17.3615 19.8756 17.236 20.0635C17.1104 20.2515 16.9319 20.3979 16.7231 20.4844C16.5142 20.5709 16.2844 20.5936 16.0628 20.5495C15.8411 20.5054 15.6374 20.3965 15.4776 20.2367C15.3178 20.0769 15.2089 19.8732 15.1648 19.6515C15.1207 19.4298 15.1434 19.2 15.2299 18.9912C15.3164 18.7824 15.4628 18.6039 15.6508 18.4783C15.8387 18.3527 16.0597 18.2857 16.2857 18.2857C16.5888 18.2857 16.8795 18.4061 17.0938 18.6205C17.3082 18.8348 17.4286 19.1255 17.4286 19.4286ZM11.1429 13.7143C11.3689 13.7143 11.5899 13.7813 11.7778 13.9069C11.9657 14.0325 12.1122 14.211 12.1987 14.4198C12.2852 14.6286 12.3079 14.8584 12.2638 15.0801C12.2197 15.3018 12.1108 15.5054 11.951 15.6653C11.7911 15.8251 11.5875 15.9339 11.3658 15.978C11.1441 16.0221 10.9143 15.9995 10.7055 15.913C10.4967 15.8265 10.3182 15.68 10.1926 15.4921C10.067 15.3041 10 15.0832 10 14.8571C10 14.554 10.1204 14.2633 10.3347 14.049C10.5491 13.8347 10.8398 13.7143 11.1429 13.7143Z" fill="#8C031F"/>
</svg>
