<svg width="29" height="29" viewBox="0 0 29 29" fill="none" xmlns="http://www.w3.org/2000/svg">
<rect width="29" height="29" fill="white"/>
<path d="M12.6659 16.1017L11.3729 15.0987C11.4015 14.9026 11.4177 14.7048 11.4213 14.5066C11.4237 14.3082 11.4075 14.1099 11.3729 13.9145L12.6538 12.9115C12.7081 12.865 12.7449 12.8013 12.7581 12.731C12.7713 12.6606 12.7601 12.5879 12.7263 12.5249L11.5179 10.4343C11.4814 10.3714 11.4237 10.3234 11.355 10.2991C11.2864 10.2747 11.2114 10.2755 11.1433 10.3014L9.64493 10.9056C9.33279 10.6599 8.98685 10.4605 8.6178 10.3135L8.38821 8.71844C8.37958 8.64786 8.34522 8.58294 8.29171 8.53612C8.2382 8.48929 8.16929 8.46386 8.09819 8.46468H5.68142C5.60946 8.46543 5.54 8.49114 5.4849 8.53743C5.4298 8.58371 5.39248 8.64769 5.37932 8.71844L5.14973 10.3135C4.78433 10.4679 4.43935 10.6668 4.1226 10.9056L2.62421 10.3014C2.55597 10.2775 2.4816 10.2776 2.41345 10.3018C2.34529 10.326 2.28748 10.3727 2.24961 10.4343L1.04122 12.5249C1.00463 12.5872 0.991809 12.6607 1.00513 12.7318C1.01846 12.8028 1.05702 12.8667 1.11372 12.9115L2.39461 13.9145C2.34623 14.3078 2.34623 14.7055 2.39461 15.0987L1.11372 16.1017C1.05942 16.1482 1.02264 16.212 1.00945 16.2823C0.996271 16.3526 1.00748 16.4253 1.04122 16.4884L2.24961 18.5789C2.28613 18.6419 2.34386 18.6898 2.41248 18.7142C2.4811 18.7385 2.55615 18.7377 2.62421 18.7118L4.1226 18.1076C4.43474 18.3533 4.78068 18.5527 5.14973 18.6997L5.37932 20.2948C5.39067 20.3664 5.42747 20.4315 5.48298 20.4781C5.53848 20.5247 5.60895 20.5497 5.68142 20.5485H8.09819C8.17015 20.5478 8.23961 20.5221 8.29471 20.4758C8.34982 20.4295 8.38713 20.3655 8.40029 20.2948L8.62988 18.6997C8.99284 18.5479 9.33414 18.3488 9.64493 18.1076L11.1554 18.7118C11.2236 18.7357 11.298 18.7356 11.3662 18.7114C11.4343 18.6873 11.4921 18.6405 11.53 18.5789L12.7384 16.4884C12.7721 16.4253 12.7833 16.3526 12.7702 16.2823C12.757 16.212 12.7202 16.1482 12.6659 16.1017V16.1017ZM6.88981 16.3192C6.53131 16.3192 6.18087 16.2129 5.88279 16.0137C5.58472 15.8145 5.35239 15.5315 5.2152 15.2003C5.07801 14.869 5.04212 14.5046 5.11206 14.153C5.182 13.8014 5.35463 13.4784 5.60812 13.2249C5.86161 12.9714 6.18458 12.7988 6.53619 12.7289C6.8878 12.6589 7.25225 12.6948 7.58345 12.832C7.91466 12.9692 8.19774 13.2015 8.39691 13.4996C8.59608 13.7977 8.70239 14.1481 8.70239 14.5066C8.7027 14.7447 8.65604 14.9806 8.56506 15.2006C8.47408 15.4207 8.34058 15.6206 8.1722 15.789C8.00383 15.9574 7.80388 16.0909 7.58383 16.1819C7.36377 16.2728 7.12793 16.3195 6.88981 16.3192V16.3192Z" fill="#8C031F"/>
<path d="M23.7529 0H18.9193C18.5998 0.00127926 18.2938 0.129194 18.0684 0.355706C17.843 0.582219 17.7167 0.888849 17.717 1.20839L17.7146 3.60703H5.62708V7.24427L8.05835 7.25877V6.0383L17.7133 6.0238L17.7109 10.8755C17.7106 11.195 17.837 11.5016 18.0624 11.7282C18.2877 11.9547 18.5937 12.0826 18.9133 12.0839H26.1696C26.4898 12.0829 26.7966 11.9553 27.023 11.7289C27.2494 11.5025 27.3771 11.1957 27.378 10.8755V3.62516L23.7529 0ZM23.1487 4.22935V0.906289L26.4717 4.22935H23.1487Z" fill="#515151"/>
<path d="M23.754 16.9101H18.9205C18.601 16.9114 18.295 17.0393 18.0696 17.2658C17.8442 17.4923 17.7178 17.7989 17.7182 18.1185L17.7157 22.9641L8.06074 22.9689V21.7485H5.63068V25.3857L17.7145 25.3809L17.7121 27.7856C17.7118 28.1051 17.8382 28.4117 18.0636 28.6382C18.2889 28.8648 18.5949 28.9927 18.9145 28.994H26.1708C26.491 28.993 26.7978 28.8654 27.0242 28.639C27.2506 28.4126 27.3782 28.1058 27.3792 27.7856V20.5353L23.754 16.9101ZM23.1499 21.1394V17.8164L26.4729 21.1394H23.1499Z" fill="#515151"/>
</svg>
