<svg width="29" height="29" viewBox="0 0 29 29" fill="none" xmlns="http://www.w3.org/2000/svg">
<rect width="29" height="29" fill="white"/>
<path d="M2.07143 18.6429V20.7143H6.82121L0 27.5355L1.4645 29L8.28571 22.1788V26.9286H10.3571V18.6429H2.07143Z" fill="#515151"/>
<path d="M22.7857 19.6786H24.8571V24.8571H22.7857V19.6786Z" fill="#8C031F"/>
<path d="M18.6429 14.5H20.7143V24.8571H18.6429V14.5Z" fill="#8C031F"/>
<path d="M14.5 16.5714H16.5714V24.8571H14.5V16.5714Z" fill="#8C031F"/>
<path d="M26.9286 0H2.07143C1.52222 0.000548387 0.995662 0.218964 0.607313 0.607313C0.218964 0.995662 0.000548387 1.52222 0 2.07143V14.5H2.07143V11.3929H26.9296L26.9306 26.9286H14.5V29H26.9286C27.4777 28.9992 28.0041 28.7807 28.3924 28.3924C28.7807 28.0041 28.9992 27.4777 29 26.9286V2.07143C28.9995 1.52222 28.781 0.995662 28.3927 0.607313C28.0043 0.218964 27.4778 0.000548387 26.9286 0ZM10.3571 9.32143H2.07143V2.07143H10.3571V9.32143ZM12.4286 9.32143V2.07143H26.9286V9.32143H12.4286Z" fill="#515151"/>
</svg>
