<svg width="29" height="29" viewBox="0 0 29 29" fill="none" xmlns="http://www.w3.org/2000/svg">
<rect width="29" height="29" fill="white"/>
<path d="M3.7 17.1999C4.41608 17.1999 5.10284 16.9155 5.60919 16.4091C6.11554 15.9028 6.4 15.216 6.4 14.4999C6.4 13.7838 6.11554 13.0971 5.60919 12.5907C5.10284 12.0844 4.41608 11.7999 3.7 11.7999C2.98392 11.7999 2.29716 12.0844 1.79081 12.5907C1.28446 13.0971 1 13.7838 1 14.4999C1 15.216 1.28446 15.9028 1.79081 16.4091C2.29716 16.9155 2.98392 17.1999 3.7 17.1999V17.1999Z" fill="#8C031F" stroke="black" stroke-width="2" stroke-linejoin="round"/>
<path d="M26.65 3.7C27.0081 3.7 27.3514 3.55777 27.6046 3.30459C27.8578 3.05142 28 2.70804 28 2.35C28 1.99196 27.8578 1.64858 27.6046 1.39541C27.3514 1.14223 27.0081 1 26.65 1C26.292 1 25.9486 1.14223 25.6954 1.39541C25.4422 1.64858 25.3 1.99196 25.3 2.35C25.3 2.70804 25.4422 3.05142 25.6954 3.30459C25.9486 3.55777 26.292 3.7 26.65 3.7ZM26.65 15.85C27.0081 15.85 27.3514 15.7078 27.6046 15.4546C27.8578 15.2014 28 14.858 28 14.5C28 14.142 27.8578 13.7986 27.6046 13.5454C27.3514 13.2922 27.0081 13.15 26.65 13.15C26.292 13.15 25.9486 13.2922 25.6954 13.5454C25.4422 13.7986 25.3 14.142 25.3 14.5C25.3 14.858 25.4422 15.2014 25.6954 15.4546C25.9486 15.7078 26.292 15.85 26.65 15.85ZM26.65 28C27.0081 28 27.3514 27.8578 27.6046 27.6046C27.8578 27.3514 28 27.008 28 26.65C28 26.292 27.8578 25.9486 27.6046 25.6954C27.3514 25.4422 27.0081 25.3 26.65 25.3C26.292 25.3 25.9486 25.4422 25.6954 25.6954C25.4422 25.9486 25.3 26.292 25.3 26.65C25.3 27.008 25.4422 27.3514 25.6954 27.6046C25.9486 27.8578 26.292 28 26.65 28Z" stroke="#8C031F" stroke-width="2" stroke-linejoin="round"/>
<path d="M6.39996 14.5H19.9M19.9 2.35004H11.8V26.65H19.9V2.35004Z" stroke="black" stroke-width="2" stroke-linecap="round" stroke-linejoin="round"/>
</svg>
