<svg width="29" height="29" viewBox="0 0 29 29" fill="none" xmlns="http://www.w3.org/2000/svg">
<rect width="29" height="29" fill="white"/>
<path d="M18.348 18.2687C19.7381 18.2687 20.8663 19.3969 20.8663 20.787L20.8649 22.1714C21.0333 25.323 18.6905 26.916 14.487 26.916C10.2993 26.916 7.91482 25.3474 7.91482 22.2261V20.787C7.91482 19.3969 9.04304 18.2687 10.4332 18.2687H18.348V18.2687ZM2.51835 11.0734H8.81567C8.56458 12.0505 8.57423 13.0764 8.84367 14.0486C9.11311 15.0208 9.63291 15.9053 10.3511 16.6138L10.5843 16.8311L10.4332 16.8296C9.56949 16.8293 8.72942 17.1116 8.04113 17.6333C7.35285 18.155 6.85414 18.8876 6.6211 19.7193L6.57218 19.7207C2.38452 19.7207 0 18.1521 0 15.0308V13.5918C0 12.2016 1.12822 11.0734 2.51835 11.0734ZM26.2628 11.0734C27.6529 11.0734 28.7812 12.2016 28.7812 13.5918L28.7797 14.9761C28.9481 18.1277 26.6053 19.7207 22.4018 19.7207L22.1586 19.7178C21.9374 18.934 21.4802 18.2372 20.8491 17.7223C20.2181 17.2074 19.4438 16.8992 18.6315 16.8397L18.348 16.8296L18.1969 16.8311C18.9957 16.1294 19.5841 15.2197 19.8963 14.2034C20.2086 13.1871 20.2325 12.104 19.9655 11.0748L26.2628 11.0734ZM14.3906 8.19529C14.9575 8.19529 15.5189 8.30696 16.0427 8.52391C16.5665 8.74087 17.0424 9.05887 17.4433 9.45976C17.8442 9.86065 18.1622 10.3366 18.3791 10.8604C18.5961 11.3841 18.7077 11.9455 18.7077 12.5125C18.7077 13.0794 18.5961 13.6408 18.3791 14.1646C18.1622 14.6884 17.8442 15.1643 17.4433 15.5652C17.0424 15.9661 16.5665 16.2841 16.0427 16.501C15.5189 16.718 14.9575 16.8296 14.3906 16.8296C13.2456 16.8296 12.1475 16.3748 11.3379 15.5652C10.5282 14.7555 10.0734 13.6574 10.0734 12.5125C10.0734 11.3675 10.5282 10.2694 11.3379 9.45976C12.1475 8.65013 13.2456 8.19529 14.3906 8.19529V8.19529ZM6.47576 1C7.62074 1 8.71883 1.45484 9.52846 2.26447C10.3381 3.0741 10.7929 4.17219 10.7929 5.31717C10.7929 6.46216 10.3381 7.56025 9.52846 8.36988C8.71883 9.1795 7.62074 9.63435 6.47576 9.63435C5.33077 9.63435 4.23268 9.1795 3.42306 8.36988C2.61343 7.56025 2.15859 6.46216 2.15859 5.31717C2.15859 4.17219 2.61343 3.0741 3.42306 2.26447C4.23268 1.45484 5.33077 1 6.47576 1V1ZM22.3054 1C23.4504 1 24.5485 1.45484 25.3581 2.26447C26.1677 3.0741 26.6226 4.17219 26.6226 5.31717C26.6226 6.46216 26.1677 7.56025 25.3581 8.36988C24.5485 9.1795 23.4504 9.63435 22.3054 9.63435C21.1604 9.63435 20.0623 9.1795 19.2527 8.36988C18.4431 7.56025 17.9882 6.46216 17.9882 5.31717C17.9882 4.17219 18.4431 3.0741 19.2527 2.26447C20.0623 1.45484 21.1604 1 22.3054 1Z" fill="#515151"/>
<path d="M10.0734 18.2687H14.3906C21.2981 16.5418 21.5859 20.9069 20.8663 23.3054C20.2188 25.464 19.4273 26.1835 17.9882 26.903C16.5492 27.1428 13.2393 27.4786 11.5125 26.903C9.7856 26.3274 9.35388 25.464 8.63435 24.7444C7.91483 24.0249 7.91483 22.1541 7.91483 20.4272C7.91483 18.7004 9.35388 18.2687 10.0734 18.2687Z" fill="#8C031F" stroke="#8C031F"/>
<circle cx="14.3906" cy="12.5125" r="4.31717" fill="#8C031F"/>
</svg>
