<svg width="26" height="26" viewBox="0 0 26 26" fill="none" xmlns="http://www.w3.org/2000/svg">
<path d="M9.70691 15.4375C8.91173 15.4376 8.13438 15.2019 7.47318 14.7601C6.81199 14.3184 6.29664 13.6905 5.99233 12.9558C5.68801 12.2212 5.6084 11.4128 5.76355 10.6329C5.9187 9.85296 6.30166 9.13658 6.86398 8.57434L11.0126 4.42734C11.7666 3.67335 12.7892 3.24976 13.8555 3.24976C14.9218 3.24976 15.9445 3.67335 16.6985 4.42734C17.4525 5.18133 17.8761 6.20397 17.8761 7.27028C17.8761 8.33658 17.4525 9.35922 16.6985 10.1132L16.2492 10.5617L15.0995 9.41365L15.552 8.96109C15.9996 8.51135 16.2506 7.90249 16.25 7.26798C16.2494 6.63347 15.9972 6.02509 15.5488 5.57621C15.0924 5.14062 14.4857 4.89758 13.8547 4.89758C13.2238 4.89758 12.6171 5.14062 12.1607 5.57621L8.01366 9.72321C7.79104 9.94559 7.61443 10.2097 7.49393 10.5003C7.37343 10.791 7.31141 11.1026 7.31141 11.4173C7.31141 11.7319 7.37343 12.0435 7.49393 12.3342C7.61443 12.6249 7.79104 12.889 8.01366 13.1113C8.4701 13.5469 9.07679 13.79 9.70773 13.79C10.3387 13.79 10.9454 13.5469 11.4018 13.1113L12.5507 14.2602C12.178 14.6347 11.7348 14.9316 11.2467 15.1337C10.7586 15.3357 10.2352 15.439 9.70691 15.4375Z" fill="white"/>
<path d="M16.2069 13.8125C15.4117 13.8126 14.6344 13.5769 13.9732 13.1351C13.312 12.6934 12.7966 12.0655 12.4923 11.3308C12.188 10.5962 12.1084 9.78776 12.2635 9.00786C12.4187 8.22796 12.8017 7.51158 13.364 6.94934L13.8133 6.50084L14.9622 7.65053L14.5137 8.09903C14.0645 8.54822 13.8122 9.15744 13.8122 9.79268C13.8122 10.4279 14.0645 11.0371 14.5137 11.4863C14.9701 11.9219 15.5768 12.165 16.2077 12.165C16.8387 12.165 17.4454 11.9219 17.9018 11.4863L22.0496 7.33853C22.4979 6.88905 22.7497 6.28012 22.7497 5.64528C22.7497 5.01043 22.4979 4.4015 22.0496 3.95203C21.5932 3.51643 20.9865 3.27339 20.3555 3.27339C19.7246 3.27339 19.1179 3.51643 18.6615 3.95203L17.5126 2.80234C18.2666 2.04835 19.2892 1.62476 20.3555 1.62476C21.4218 1.62476 22.4445 2.04835 23.1985 2.80234C23.9525 3.55633 24.3761 4.57897 24.3761 5.64528C24.3761 6.71158 23.9525 7.73422 23.1985 8.48821L19.0515 12.6344C18.6788 13.009 18.2357 13.3059 17.7475 13.5082C17.2594 13.7104 16.7361 13.8138 16.2077 13.8125H16.2069Z" fill="white"/>
<path d="M19.5 24.375H3.25C2.81916 24.3746 2.40608 24.2032 2.10143 23.8986C1.79677 23.5939 1.62543 23.1808 1.625 22.75V6.5C1.62543 6.06916 1.79677 5.65608 2.10143 5.35143C2.40608 5.04677 2.81916 4.87543 3.25 4.875H6.5V6.5H3.25V22.75H19.5V14.625H21.125V22.75C21.1246 23.1808 20.9532 23.5939 20.6486 23.8986C20.3439 24.2032 19.9308 24.3746 19.5 24.375V24.375Z" fill="white"/>
</svg>
