<svg width="29" height="29" viewBox="0 0 29 29" fill="none" xmlns="http://www.w3.org/2000/svg">
<rect width="29" height="29" fill="white"/>
<path d="M6.12077 14.4235V22.8496H14.5062L12.7574 21.0923H7.86956V16.1807L6.12077 14.4235Z" fill="#515151"/>
<path d="M28.7413 27.4975L26.2318 24.9407V27.2427H1.7488V23.5964H3.49759V22.1906H1.7488V16.3477H3.49759V14.9419H1.7488V9.31862H3.49759V7.9128H1.7488V3.00125L15.6866 16.9276V14.4498L1.49523 0.259913C1.37293 0.136001 1.21667 0.0514931 1.04639 0.0171652C0.876099 -0.0171626 0.699497 0.000244283 0.539095 0.0671669C0.378693 0.13409 0.241757 0.247496 0.145748 0.392927C0.0497386 0.538358 -0.000995216 0.709225 1.47921e-05 0.883743V28.1214C1.47921e-05 28.3544 0.0921381 28.5779 0.256119 28.7426C0.420099 28.9074 0.642505 29 0.874409 29H28.1205C28.2942 29.001 28.4642 28.95 28.609 28.8535C28.7537 28.7571 28.8666 28.6195 28.9332 28.4583C28.9998 28.2971 29.0171 28.1197 28.9829 27.9485C28.9488 27.7774 28.8647 27.6204 28.7413 27.4975V27.4975Z" fill="#515151"/>
<path d="M19.2367 25.4855H22.7342C23.1981 25.4855 23.6429 25.3003 23.9708 24.9708C24.2988 24.6412 24.483 24.1942 24.483 23.7282V6.77058L22.4719 3.05397C22.3164 2.78319 22.0918 2.55901 21.8213 2.40456C21.5507 2.25011 21.2441 2.17098 20.933 2.17533C20.6148 2.17787 20.3034 2.26758 20.0322 2.43479C19.7611 2.602 19.5404 2.84038 19.3941 3.12426L17.4879 6.78815V23.7282C17.4879 24.1942 17.6721 24.6412 18.0001 24.9708C18.3281 25.3003 18.7729 25.4855 19.2367 25.4855ZM19.2367 7.2099L20.933 3.89745L22.7342 7.21868V20.2137H19.2367V7.2099ZM19.2367 21.6458H22.7342V23.7897H19.2367V21.6458Z" fill="#8C031F"/>
</svg>
