<svg width="29" height="29" viewBox="0 0 29 29" fill="none" xmlns="http://www.w3.org/2000/svg">
<rect width="29" height="29" fill="white"/>
<path d="M5.74122 6.42857H1.01866C0.476006 6.42857 -0.0666481 6.97714 0.00668355 7.86857L2.29463 24.9943C2.29463 24.9943 5.0079 12.3771 5.53589 9.34286C5.69722 8.43429 6.43054 8.14286 6.97319 8.14286H14.541C14.541 8.14286 13.5144 4.57714 13.4117 4.18286C13.2357 3.42857 12.9131 3 12.2677 3H7.41318C6.88519 3 6.38654 3.39429 6.23988 4.09714C6.10788 4.78286 5.74122 6.42857 5.74122 6.42857ZM12.8984 6.42857H7.03186C7.03186 6.42857 7.64784 4.71429 8.30783 4.71429H11.4318C12.1357 4.71429 12.8984 6.42857 12.8984 6.42857ZM3.7906 25.7143C3.33594 26.52 2.67596 27 1.94264 27H25.0128C25.8048 27 26.3621 26.4686 26.5234 25.5771C27.1687 21.8229 28.9874 11.1086 28.9874 11.1086C29.09 10.2514 28.5474 9.85714 28.078 9.85714H23.3408V7.33714C23.3408 7.06286 22.9595 6.42857 22.3728 6.42857H16.8583C16.0957 6.42857 15.5823 7.42286 15.5823 7.42286L14.541 9.85714H8.07317C7.60385 9.85714 7.14919 10.1829 7.06119 10.7143C7.06119 10.7143 4.72924 22.2 4.53858 23.28C4.43592 23.9143 4.21592 24.9771 3.7906 25.7143V25.7143ZM22.4315 9.85714H16.0077C16.0077 9.85714 16.8583 8.14286 17.665 8.14286H21.0235C22.0649 8.14286 22.4315 9.85714 22.4315 9.85714V9.85714Z" fill="#515151"/>
<path d="M16.7616 21.3409C16.471 21.3032 16.1853 21.2259 15.9101 21.1106C15.9185 20.8795 15.9235 20.6385 15.9235 20.3877V20.3093V20.0576C16.1833 20.2026 16.4657 20.3035 16.7616 20.3534V17.9387C16.7616 17.549 16.894 17.1752 17.1298 16.8997C17.3655 16.6241 17.6853 16.4693 18.0187 16.4693H20.0846C20.0178 15.9265 19.8405 15.4103 19.5677 14.9642C19.2949 14.518 18.9345 14.1548 18.5168 13.9051C18.0991 13.6554 17.6362 13.5265 17.167 13.5291C16.6978 13.5318 16.2361 13.666 15.8204 13.9204C15.7541 13.6 15.6449 13.2938 15.4969 13.0133C16.0402 12.6963 16.641 12.5373 17.2481 12.5499C17.8552 12.5625 18.4508 12.7463 18.9841 13.0856C19.5175 13.4249 19.9728 13.9097 20.3115 14.4988C20.6502 15.0879 20.8621 15.7639 20.9294 16.4693H22.2091C22.5425 16.4693 22.8623 16.6241 23.0981 16.8997C23.3338 17.1752 23.4663 17.549 23.4663 17.9387V22.8367C23.4663 23.2264 23.3338 23.6002 23.0981 23.8757C22.8623 24.1513 22.5425 24.3061 22.2091 24.3061H18.0187C17.6853 24.3061 17.3655 24.1513 17.1298 23.8757C16.894 23.6002 16.7616 23.2264 16.7616 22.8367V21.3409ZM20.9294 17.4489C20.8342 18.4428 20.4527 19.3694 19.8477 20.0765C19.2427 20.7837 18.45 21.2295 17.5997 21.3409V22.8367C17.5997 22.9666 17.6438 23.0912 17.7224 23.183C17.801 23.2749 17.9076 23.3265 18.0187 23.3265H22.2091C22.3203 23.3265 22.4269 23.2749 22.5054 23.183C22.584 23.0912 22.6282 22.9666 22.6282 22.8367V17.9387C22.6282 17.8088 22.584 17.6842 22.5054 17.5924C22.4269 17.5005 22.3203 17.4489 22.2091 17.4489H20.9294ZM20.0846 17.4489H18.0187C17.9076 17.4489 17.801 17.5005 17.7224 17.5924C17.6438 17.6842 17.5997 17.8088 17.5997 17.9387V20.3534C18.2265 20.2475 18.8073 19.9074 19.2551 19.3839C19.703 18.8604 19.994 18.1816 20.0846 17.4489V17.4489Z" fill="white"/>
<path d="M14.9136 17.9984C14.8256 17.6203 14.6831 17.2412 14.4384 16.9503C14.834 16.5124 15.0854 15.8149 15.0854 14.9999C15.0854 14.3171 14.9672 13.8479 14.7535 13.4727C14.6587 13.3113 14.5491 13.1625 14.4267 13.0289C14.3797 12.976 14.3322 12.9237 14.2842 12.8722C14.2331 12.8164 14.1861 12.7654 14.125 12.6939C13.9992 12.547 13.985 12.4294 13.985 12.3677C13.9851 12.3334 13.9899 12.2993 13.9992 12.2668C14.0376 12.1699 14.0478 12.0611 14.0283 11.9569C14.0089 11.8526 13.9608 11.7586 13.8915 11.6892C13.8221 11.6198 13.7353 11.5787 13.6441 11.5723C13.553 11.5659 13.4626 11.5944 13.3866 11.6536L13.3849 11.6546L13.3824 11.6565L13.3749 11.6624L13.3497 11.682C13.224 11.7868 13.1029 11.8989 12.9868 12.018C12.7773 12.2345 12.5041 12.5548 12.3105 12.9368C12.1415 13.2536 12.0059 13.593 11.9065 13.9478C11.806 14.2995 11.7331 14.6805 11.7331 14.9999C11.7331 15.8149 11.9845 16.5114 12.3801 16.9513C12.1353 17.2412 11.9929 17.6203 11.9049 17.9994C11.7331 18.7361 11.7331 19.6471 11.7331 20.3515V20.3877C11.7331 22.4037 12.0557 23.6008 12.4211 24.313C12.6047 24.6695 12.7958 24.8997 12.9558 25.0447C13.0411 25.1225 13.1339 25.1882 13.2324 25.2406C13.2893 25.2649 13.3488 25.2801 13.4092 25.2857C13.4796 25.2857 13.5861 25.2406 13.5861 25.2406C13.6845 25.1882 13.7773 25.1225 13.8626 25.0447C14.0219 24.8997 14.2146 24.6695 14.3973 24.313C14.7627 23.6018 15.0854 22.4037 15.0854 20.3877V20.3524C15.0854 19.6471 15.0854 18.7371 14.9136 17.9984ZM12.9793 17.636C13.074 17.5243 13.2005 17.4489 13.4092 17.4489C13.6188 17.4489 13.7445 17.5253 13.8392 17.635C13.9448 17.7594 14.0361 17.9612 14.1048 18.2561C14.244 18.8546 14.2473 19.6403 14.2473 20.3877C14.2473 22.2901 13.9414 23.2971 13.6783 23.8094C13.5777 24.0054 13.483 24.1317 13.4092 24.2111C13.3039 24.0926 13.2133 23.9574 13.1402 23.8094C12.877 23.2961 12.5711 22.2901 12.5711 20.3877C12.5711 19.6403 12.5745 18.8546 12.7136 18.2561C12.7823 17.9622 12.8737 17.7594 12.9793 17.635V17.636ZM13.4092 16.4693C13.0866 16.4693 12.5711 16.05 12.5711 14.9999C12.5711 14.8304 12.6147 14.562 12.7019 14.2583C12.7813 13.9716 12.8908 13.6975 13.0279 13.4423C13.1008 13.2983 13.1955 13.1582 13.2978 13.0299C13.3556 13.1494 13.4319 13.2699 13.5324 13.3875C13.5936 13.459 13.6732 13.5452 13.7411 13.6196L13.845 13.7333C13.933 13.8332 14.0009 13.9204 14.0554 14.0173C14.156 14.1927 14.2473 14.4582 14.2473 14.9999C14.2473 16.05 13.7319 16.4693 13.4092 16.4693Z" fill="white"/>
</svg>
