<svg width="29" height="29" viewBox="0 0 29 29" fill="none" xmlns="http://www.w3.org/2000/svg">
<rect width="29" height="29" fill="white"/>
<path d="M26.2972 14.645C26.1511 14.645 25.8589 14.79 25.7128 14.935L24.2519 16.385L27.3199 19.43L28.7809 17.98C29.073 17.69 29.073 17.11 28.7809 16.82L26.8816 14.935C26.7355 14.79 26.5894 14.645 26.2972 14.645ZM23.5214 17.255L19.0655 21.605L14.6096 25.955V29H17.6776L26.5894 20.155L23.5214 17.255ZM26.2972 8.7H14.6096V0H26.2972V8.7ZM14.6096 21.837V11.6H26.2972V11.745C25.1869 11.745 24.2081 12.325 23.6529 12.8905L14.6096 21.837ZM11.6877 14.5H0V0H11.6877V14.5ZM11.6877 26.1H0V17.4H11.6877V26.1Z" fill="#515151"/>
<rect width="12" height="15" fill="#8C031F"/>
<rect y="17" width="12" height="9" fill="#8C031F"/>
</svg>
