<svg id="Layer_1" data-name="Layer 1" xmlns="http://www.w3.org/2000/svg" viewBox="0 0 383.39 359.37"><path d="M-447.93,240.92c1.59-2.74,1.42-5.9,2.09-8.85,8.47-37.18,41.3-64.29,79.36-65.07,3.63-.08,3.23-2.09,3.58-4.11,6.44-37.7,26.88-65.13,61.22-81.73,60.49-29.26,135.22,7.08,150.07,72.66a95.15,95.15,0,0,1,1.92,10.27c.24,2.17.89,2.77,3.13,2.84,22.85.72,42.62,9,58.2,25.71,22.42,24,29.44,52.44,19.26,83.68s-32.51,50.14-64.9,56.76a61.58,61.58,0,0,1-12.25,1.32q-30.87.08-61.73,0c-6,0-10.43-3.37-12-8.79a11.82,11.82,0,0,1,4.85-13.09,13.46,13.46,0,0,1,7.81-2.07q29,.06,58,0C-120,310.43-96.09,291-90,262.37c7.09-33.18-16.62-66.54-50.35-71-6.23-.82-12.44-.5-18.67-.58-8.73-.1-13.44-4.64-13.61-13.27-.81-43.41-33.53-78.2-77.41-82.32-41-3.84-79.93,25.47-88.48,66.7a86,86,0,0,0-1.72,16.34c-.1,7.67-5.05,12.46-12.79,12.53-9,.07-17.91-.36-26.73,2.07A60.1,60.1,0,0,0-423.87,255a60,60,0,0,0,51.86,55,71.48,71.48,0,0,0,9.69.56c19.33,0,38.66,0,58,0a12,12,0,0,1,12,10.66,12,12,0,0,1-9.08,12.87,18.77,18.77,0,0,1-4.44.37c-19.21,0-38.41.07-57.62,0-42.38-.13-77.06-29.95-83.63-71.82-.12-.78.31-1.81-.81-2.25Z" transform="translate(447.93 -70.93)"/><path d="M-244.4,389.41c9.3-9.32,17.91-18,26.57-26.6,5.6-5.58,12.89-5.88,17.88-.81s4.57,12.15-.88,17.62q-23.1,23.17-46.28,46.28c-6,5.93-12.66,5.84-18.68-.17q-23-23-46-46c-5.58-5.6-5.89-12.9-.82-17.88s12.15-4.58,17.61.87c8.7,8.69,17.32,17.44,26.67,26.87v-4.93q0-71.81,0-143.62a17.79,17.79,0,0,1,.67-6.27,12,12,0,0,1,12.92-8,12.18,12.18,0,0,1,10.29,10.79c.12,1.37.06,2.75.06,4.12V389.41Z" transform="translate(447.93 -70.93)"/></svg>