<svg width="29" height="29" viewBox="0 0 29 29" fill="none" xmlns="http://www.w3.org/2000/svg">
<rect width="29" height="29" fill="white"/>
<path d="M23.25 0H5.75C5.28587 0 4.84075 0.190959 4.51256 0.530869C4.18437 0.870779 4 1.3318 4 1.8125V27.1875C4 27.6682 4.18437 28.1292 4.51256 28.4691C4.84075 28.809 5.28587 29 5.75 29H23.25C23.7141 29 24.1592 28.809 24.4874 28.4691C24.8156 28.1292 25 27.6682 25 27.1875V1.8125C25 1.3318 24.8156 0.870779 24.4874 0.530869C24.1592 0.190959 23.7141 0 23.25 0ZM5.75 27.1875V1.8125H23.25V27.1875H5.75Z" fill="#515151"/>
<path d="M9.25 5.4375H21.2113V3.625H8.375C8.14294 3.625 7.92038 3.72048 7.75628 3.89043C7.59219 4.06039 7.5 4.2909 7.5 4.53125V8.76344H9.25V5.4375Z" fill="#515151"/>
<path d="M9.25 12.6875H7.5V14.5H11V10.875H9.25V12.6875Z" fill="#8C031F"/>
<path d="M19.75 12.6875H18V14.5H21.5V10.875H19.75V12.6875Z" fill="#8C031F"/>
<path d="M14.5 12.6875H12.75V14.5H16.25V10.875H14.5V12.6875Z" fill="#8C031F"/>
<path d="M9.25 18.125H7.5V19.9375H11V16.3125H9.25V18.125Z" fill="#8C031F"/>
<path d="M19.75 18.125H18V19.9375H21.5V16.3125H19.75V18.125Z" fill="#8C031F"/>
<path d="M14.5 18.125H12.75V19.9375H16.25V16.3125H14.5V18.125Z" fill="#8C031F"/>
<path d="M9.25 23.5625H7.5V25.375H11V21.75H9.25V23.5625Z" fill="#8C031F"/>
<path d="M19.75 23.5625H18V25.375H21.5V21.75H19.75V23.5625Z" fill="#8C031F"/>
<path d="M14.5 23.5625H12.75V25.375H16.25V21.75H14.5V23.5625Z" fill="#8C031F"/>
</svg>
