<svg width="29" height="29" viewBox="0 0 29 29" fill="none" xmlns="http://www.w3.org/2000/svg">
<rect width="29" height="29" fill="white"/>
<path d="M24 28.911H6V26.911H24V28.911ZM11 17.911H7V24.911H11V17.911ZM17 13.911H13V24.911H17V13.911ZM23 10.911H19V24.911H23V10.911Z" fill="#515151"/>
<path fill-rule="evenodd" clip-rule="evenodd" d="M21.5967 0.398191C21.7717 0.402782 21.9377 0.477029 22.0582 0.604598C22.1787 0.732167 22.2438 0.902609 22.2392 1.07843L22.0305 9.03352C22.0259 9.20934 21.952 9.37614 21.8249 9.49721C21.6979 9.61829 21.5282 9.68373 21.3532 9.67914C21.1782 9.67454 21.0121 9.6003 20.8916 9.47273C20.7711 9.34516 20.706 9.17472 20.7107 8.9989L20.8774 2.6441L7.1331 15.7462C7.07012 15.8062 6.996 15.8532 6.91495 15.8845C6.83391 15.9157 6.74754 15.9306 6.66077 15.9283C6.57399 15.9261 6.48852 15.9066 6.40923 15.8712C6.32993 15.8357 6.25837 15.7849 6.19863 15.7217C6.13889 15.6584 6.09214 15.584 6.06105 15.5026C6.02995 15.4212 6.01513 15.3344 6.01741 15.2472C6.0197 15.1601 6.03906 15.0742 6.07437 14.9946C6.10969 14.9149 6.16028 14.843 6.22326 14.783L19.9688 1.68225L13.6427 1.51629C13.4677 1.5117 13.3017 1.43745 13.1812 1.30988C13.0607 1.18231 12.9956 1.01187 13.0002 0.836053C13.0048 0.660234 13.0787 0.49344 13.2058 0.372364C13.3328 0.251289 13.5025 0.185849 13.6775 0.190441L21.5967 0.398191Z" fill="#8C031F"/>
</svg>
