<svg width="40" height="40" viewBox="0 0 40 40" fill="none" xmlns="http://www.w3.org/2000/svg">
<circle cx="20" cy="20" r="20" fill="#F8F8F8"/>
<g clip-path="url(#clip0_150_1043)">
<path d="M27.5 20.572L20 28L12.5 20.572M12.5 20.572C12.0053 20.0906 11.6156 19.512 11.3555 18.8726C11.0954 18.2333 10.9706 17.5469 10.9887 16.8569C11.0069 16.1669 11.1678 15.4881 11.4612 14.8633C11.7545 14.2385 12.1741 13.6812 12.6935 13.2266C13.2128 12.7719 13.8207 12.4297 14.4788 12.2215C15.1369 12.0133 15.831 11.9436 16.5174 12.0168C17.2037 12.09 17.8675 12.3046 18.4669 12.6469C19.0662 12.9892 19.5882 13.452 20 14.006C20.4135 13.456 20.9361 12.9973 21.5351 12.6586C22.1341 12.3199 22.7965 12.1084 23.4809 12.0375C24.1654 11.9666 24.8571 12.0377 25.5128 12.2464C26.1685 12.4551 26.774 12.7969 27.2915 13.2504C27.8091 13.7038 28.2274 14.2593 28.5204 14.8819C28.8134 15.5045 28.9747 16.1809 28.9943 16.8687C29.0139 17.5565 28.8913 18.241 28.6341 18.8792C28.377 19.5175 27.9909 20.0958 27.5 20.578" stroke="#8D0528" stroke-width="2" stroke-linecap="round" stroke-linejoin="round"/>
</g>
<defs>
<clipPath id="clip0_150_1043">
<rect width="24" height="24" fill="white" transform="translate(8 8)"/>
</clipPath>
</defs>
</svg>
