<svg width="53" height="34" viewBox="0 0 53 34" fill="none" xmlns="http://www.w3.org/2000/svg">
<path d="M52.1311 30.2745C52.1311 29.2634 51.6602 28.7957 50.634 28.7875C49.6664 28.7875 48.6987 28.7781 47.7324 28.7875C47.4602 28.7875 47.3513 28.7213 47.3527 28.4226C47.3609 23.0155 47.3609 17.6043 47.3527 12.1891C47.3527 11.9079 47.4235 11.8133 47.7174 11.8187C48.6334 11.8363 49.5507 11.8255 50.4666 11.8255C51.6833 11.8255 52.1297 11.3902 52.1297 10.2033V1.65876C52.1297 0.454325 51.6888 0.0136482 50.4816 0.0136482C46.0679 0.0136482 41.6556 0.0312204 37.2433 0.000129608C36.2266 -0.00798105 35.3801 0.362404 35.5189 1.72229C35.5638 2.16162 35.3992 2.23732 34.9881 2.23732C29.272 2.222 23.5527 2.21884 17.8302 2.22785C17.6765 2.22785 17.524 2.21839 17.3716 2.22785C16.9361 2.263 16.6829 2.50632 16.6571 2.93619C16.6312 3.36605 16.8776 3.63235 17.2927 3.72157C17.4775 3.74686 17.6645 3.7532 17.8507 3.74049H34.7051C35.5217 3.74049 35.4767 3.74049 35.5285 4.56643C35.5598 5.08821 35.3924 5.1923 34.8929 5.19095C26.3722 5.17382 17.852 5.16977 9.33226 5.17878C8.22442 5.17878 7.74399 5.65055 7.74399 6.74008C7.74399 13.0952 7.74399 19.4486 7.74399 25.8001C7.74399 26.8275 8.21489 27.3182 9.20705 27.3182H42.9145C43.8903 27.3182 44.3762 26.8315 44.3776 25.8515C44.383 23.7103 44.383 21.5695 44.3776 19.4292C44.3776 18.806 44.0836 18.4573 43.5909 18.4667C43.0982 18.4762 42.8533 18.7966 42.8519 19.413C42.8519 21.1496 42.8519 22.8861 42.8519 24.6227C42.8519 25.8258 42.8519 25.8123 41.6352 25.8123C41.3344 25.8123 41.2405 25.7096 41.167 25.4419C40.9649 24.6652 40.6064 23.9372 40.113 23.302C39.6197 22.6667 39.0018 22.1375 38.2967 21.7461C38.0245 21.5893 38.0408 21.492 38.2082 21.2676C38.5229 20.8571 38.7428 20.3828 38.8522 19.8784C38.9615 19.374 38.9578 18.8519 38.8411 18.3491C38.5308 16.8703 37.3358 15.7078 35.8973 15.4888C34.3104 15.2482 33.0174 15.7767 32.1097 17.1109C31.6984 17.7256 31.4866 18.4507 31.5029 19.1886C31.5192 19.9265 31.7628 20.6417 32.2009 21.2379C32.3982 21.5082 32.3914 21.6042 32.0879 21.7786C30.8872 22.4674 29.9588 23.5421 29.4558 24.8255C29.3197 25.1445 29.3646 25.623 29.0788 25.7623C28.793 25.9015 28.3466 25.7839 27.9764 25.815C27.6647 25.8407 27.5803 25.7488 27.5803 25.4311C27.5912 19.3111 27.5912 13.1917 27.5803 7.07262C27.5803 6.74819 27.6824 6.68871 27.9886 6.69007C30.3486 6.70223 32.7071 6.70764 35.0657 6.69007C35.474 6.69007 35.5325 6.82524 35.5257 7.18346C35.5053 8.29597 35.5094 9.40849 35.5257 10.521C35.5353 11.3104 36.0416 11.8052 36.8336 11.8309C37.1215 11.8478 37.41 11.8478 37.6979 11.8309C37.9782 11.8079 38.0395 11.9214 38.0299 12.1756C38.0123 12.6649 38.0299 13.1543 38.0299 13.6422C38.0218 14.2262 38.2001 14.7102 38.7622 14.9737C39.2984 15.2252 39.7774 15.0832 40.2279 14.7385C40.9275 14.2041 41.6334 13.6792 42.3456 13.1637C42.4967 13.0556 42.6178 12.8704 42.8642 12.8758V15.3198C42.8642 16.1011 43.1064 16.4485 43.6372 16.4364C44.168 16.4242 44.3912 16.0619 44.3912 15.2874C44.3912 14.461 44.3912 13.635 44.3912 12.8096C44.3912 11.8336 44.3912 11.8525 45.3439 11.8268C45.7277 11.8174 45.8502 11.9012 45.8488 12.3108C45.8325 17.6376 45.8325 22.965 45.8488 28.2928C45.8488 28.6672 45.7821 28.8038 45.3602 28.8038C32.4953 28.7902 19.6304 28.7902 6.76544 28.8038C6.42792 28.8038 6.30407 28.747 6.30407 28.3739C6.31678 20.3534 6.31678 12.3292 6.30407 4.30148C6.30407 3.83782 6.46739 3.72697 6.89746 3.74049C7.76169 3.76753 8.62727 3.7486 9.49286 3.7486C10.9015 3.7486 12.3101 3.7486 13.7201 3.7486C14.0739 3.7486 14.3638 3.63911 14.523 3.32279C14.5922 3.19478 14.6212 3.04917 14.6064 2.90465C14.5916 2.76013 14.5337 2.6233 14.44 2.51173C14.2277 2.24137 13.9283 2.2238 13.6139 2.2238C11.3901 2.2238 9.16712 2.2238 6.94509 2.2238C5.42351 2.2238 4.78658 2.86049 4.78658 4.37583C4.78658 12.3504 4.78975 20.3259 4.7961 28.3023C4.7961 28.6889 4.71308 28.82 4.30207 28.8051C3.40382 28.7713 2.50148 28.8227 1.6046 28.7862C0.832919 28.7551 0.300777 29.0417 0 29.7487V33.0862C0.367465 33.7959 0.952686 34.0013 1.74206 34C12.5873 33.9838 23.4325 33.9802 34.2777 33.9892C34.4643 34.0019 34.6518 33.9956 34.8371 33.9702C35.2454 33.881 35.4985 33.6188 35.4727 33.1849C35.4468 32.7509 35.2005 32.509 34.7595 32.4765C34.5907 32.463 34.4193 32.4765 34.2505 32.4765H2.15852C2.04019 32.4705 1.92163 32.4705 1.8033 32.4765C1.58418 32.5009 1.50116 32.4238 1.51069 32.1981C1.53928 31.7773 1.53928 31.355 1.51069 30.9342C1.46169 30.4475 1.58962 30.2988 2.12313 30.3002C18.0766 30.3182 34.0305 30.3227 49.9848 30.3137C50.0691 30.3198 50.1537 30.3198 50.238 30.3137C50.5183 30.2718 50.6299 30.3651 50.6122 30.6638C50.5768 31.1011 50.5768 31.5405 50.6122 31.9777C50.6585 32.4238 50.4761 32.4874 50.0787 32.486C46.2081 32.4698 42.3388 32.4752 38.4695 32.4765C37.8598 32.4765 37.5291 32.7469 37.525 33.2214C37.5209 33.6958 37.8666 33.9905 38.4546 33.9919C42.5457 33.9919 46.6363 33.9919 50.7266 33.9919C51.6248 33.9919 52.1229 33.4674 52.1284 32.5603C52.1352 31.7912 52.1338 31.0328 52.1311 30.2745ZM35.2195 16.9555C35.6494 16.9555 36.0696 17.0819 36.4273 17.3187C36.785 17.5555 37.0641 17.8922 37.2295 18.2863C37.3948 18.6804 37.439 19.1143 37.3565 19.5333C37.274 19.9524 37.0685 20.3378 36.7659 20.641C36.4633 20.9442 36.077 21.1517 35.6559 21.2372C35.2348 21.3228 34.7975 21.2827 34.3993 21.1219C34.0011 20.9611 33.6597 20.6868 33.4182 20.3336C33.1766 19.9804 33.0457 19.5642 33.0419 19.1372C33.0367 18.8509 33.0892 18.5663 33.1965 18.3005C33.3039 18.0347 33.4638 17.7929 33.6668 17.5895C33.8698 17.3861 34.1118 17.2252 34.3785 17.1163C34.6452 17.0074 34.9312 16.9527 35.2195 16.9555ZM31.2904 24.5727C31.753 23.8408 32.417 23.2558 33.2039 22.887C33.6204 22.6843 34.0205 22.5802 34.5173 22.7235C35.0122 22.8589 35.5358 22.8514 36.0266 22.7019C36.3352 22.6104 36.6669 22.6345 36.9589 22.7694C37.6169 23.0317 38.2054 23.4407 38.679 23.9648C39.1526 24.4889 39.4986 25.114 39.6903 25.792H30.7745C30.8317 25.3365 31.0576 24.9471 31.2904 24.5727ZM9.73647 6.69007C12.3822 6.70764 15.0293 6.69953 17.6751 6.69953C20.3208 6.69953 22.9666 6.70629 25.6123 6.69142C25.9539 6.69142 26.0724 6.75225 26.071 7.12398C26.0538 9.78518 26.0538 12.4468 26.071 15.1089C26.071 15.4023 26.0261 15.5145 25.6913 15.5145C24.7386 15.4888 23.7859 15.4982 22.8427 15.5145C22.5855 15.5145 22.4644 15.455 22.3827 15.1846C22.0665 14.0881 21.3522 13.147 20.378 12.5433C20.1058 12.3756 20.1507 12.2661 20.28 12.0404C21.0449 10.6994 20.755 9.12326 19.5832 8.17161C19.0299 7.72484 18.3356 7.48633 17.6227 7.49809C16.9097 7.50985 16.2238 7.77114 15.6857 8.23591C15.1477 8.70069 14.792 9.33914 14.6814 10.0388C14.5708 10.7385 14.7123 11.4545 15.0811 12.0607C15.2308 12.3162 15.1899 12.404 14.9599 12.55C14.0028 13.1471 13.297 14.0696 12.9742 15.1454C12.8899 15.4158 12.7946 15.5239 12.4965 15.5172C11.5439 15.4955 10.5912 15.4928 9.64801 15.5172C9.30913 15.5266 9.26693 15.3982 9.26829 15.1116C9.27918 12.4662 9.28326 9.82078 9.26829 7.17671C9.25876 6.78604 9.3554 6.68196 9.73647 6.69007ZM16.3699 13.4963C16.5672 13.4027 16.7918 13.3826 17.0028 13.4395C17.2927 13.5152 17.6084 13.5882 17.9065 13.5044C18.9762 13.207 19.6757 13.7896 20.3154 14.4912C20.569 14.7759 20.7579 15.1115 20.8693 15.4753H14.4645C14.6241 15.0308 14.8763 14.6248 15.2046 14.2838C15.5329 13.9428 15.93 13.6744 16.3699 13.4963ZM16.1685 10.4926C16.1714 10.2968 16.2132 10.1035 16.2913 9.92373C16.3695 9.74395 16.4826 9.58122 16.624 9.44484C16.7655 9.30846 16.9327 9.20109 17.1159 9.12887C17.2992 9.05664 17.495 9.02098 17.6921 9.02391C17.8892 9.02684 18.0839 9.0683 18.2649 9.14594C18.4459 9.22358 18.6097 9.33586 18.747 9.47638C18.8843 9.61691 18.9924 9.78292 19.0651 9.96494C19.1378 10.147 19.1738 10.3414 19.1708 10.5372C19.1679 10.733 19.1261 10.9263 19.0479 11.1061C18.9698 11.2859 18.8567 11.4486 18.7152 11.585C18.5738 11.7214 18.4066 11.8287 18.2234 11.901C18.0401 11.9732 17.8443 12.0089 17.6472 12.0059C17.45 12.003 17.2554 11.9615 17.0744 11.8839C16.8934 11.8063 16.7296 11.694 16.5923 11.5534C16.455 11.4129 16.3469 11.2469 16.2742 11.0649C16.2014 10.8829 16.1655 10.6884 16.1685 10.4926ZM14.4659 25.788C14.6258 25.3441 14.8782 24.9386 15.2065 24.5981C15.5348 24.2576 15.9317 23.9896 16.3713 23.8117C16.5684 23.7175 16.7932 23.6973 17.0041 23.7549C17.294 23.8319 17.6098 23.9022 17.9092 23.8198C18.9762 23.5237 19.6784 24.1009 20.3168 24.8066C20.5753 25.0852 20.7621 25.422 20.8611 25.788H14.4659ZM16.1685 20.8215C16.1706 20.4261 16.3309 20.0477 16.6139 19.7696C16.897 19.4915 17.2797 19.3365 17.6778 19.3386C18.0759 19.3408 18.4569 19.4999 18.7369 19.7811C19.0169 20.0622 19.173 20.4423 19.1708 20.8378C19.1697 21.0336 19.1298 21.2272 19.0534 21.4077C18.977 21.5882 18.8655 21.752 18.7254 21.8897C18.4423 22.1678 18.0596 22.3228 17.6615 22.3207C17.2633 22.3185 16.8824 22.1593 16.6024 21.8782C16.3224 21.5971 16.1663 21.217 16.1685 20.8215ZM26.0683 25.3676C26.0683 25.7028 26.0179 25.8339 25.6396 25.8217C24.7073 25.7907 23.7723 25.8042 22.84 25.8217C22.5842 25.8217 22.4603 25.7663 22.3786 25.4933C22.0629 24.3961 21.3467 23.4552 20.3698 22.8546C20.0976 22.687 20.148 22.5734 20.2759 22.349C20.6385 21.7388 20.7726 21.0211 20.6547 20.3223C20.5368 19.6235 20.1744 18.9884 19.6313 18.529C19.0882 18.0695 18.3993 17.8152 17.6859 17.8107C16.9725 17.8062 16.2805 18.052 15.7316 18.5046C14.5693 19.4779 14.2998 21.0365 15.0797 22.3828C15.2035 22.5964 15.2253 22.6924 14.9885 22.8397C13.9949 23.4475 13.2665 24.4029 12.947 25.5176C12.8708 25.7717 12.7565 25.8231 12.5238 25.8204C11.5561 25.8109 10.5885 25.8055 9.62215 25.8204C9.32137 25.8204 9.25877 25.7258 9.26013 25.4473C9.26965 22.7667 9.2751 20.0862 9.26013 17.4069C9.26013 17.0298 9.42209 17.0149 9.71334 17.0149C12.3604 17.023 15.0076 17.0149 17.6547 17.0149C20.3018 17.0149 22.9503 17.023 25.5974 17.0041C25.9825 17.0041 26.0724 17.1001 26.0696 17.4759C26.0533 20.1028 26.0528 22.7334 26.0683 25.3676ZM44.2673 10.3088C43.8263 10.2998 43.3958 10.4431 43.0493 10.7143C41.9196 11.5713 40.7778 12.4135 39.5461 13.3313C39.5461 12.7109 39.5556 12.2094 39.5461 11.7092C39.5257 10.79 39.0452 10.3263 38.1184 10.3142C37.0446 10.2993 37.0446 10.2993 37.0446 9.24627C37.0446 6.81308 37.0514 4.39475 37.0364 1.96831C37.0364 1.62091 37.1167 1.51953 37.4788 1.52088C41.7196 1.53439 45.9604 1.53439 50.2012 1.52088C50.5428 1.52088 50.6095 1.62091 50.6095 1.94128C50.5977 4.58625 50.5977 7.23168 50.6095 9.87756C50.6095 10.2263 50.5306 10.3263 50.1686 10.3223C48.2033 10.3047 46.2353 10.3236 44.2673 10.3088Z" fill="#922230"/>
<path d="M28.7035 8.62039C28.6963 8.73556 28.7419 8.84951 28.8345 8.9475C28.927 9.04549 29.0623 9.12302 29.2227 9.17008C29.3831 9.21714 29.5614 9.23156 29.7345 9.21148C29.9075 9.1914 30.0674 9.13775 30.1935 9.05744C30.3196 8.97714 30.4061 8.87388 30.4418 8.76102C30.4774 8.64815 30.4607 8.53086 30.3937 8.4243C30.3267 8.31773 30.2125 8.2268 30.0659 8.16325C29.9192 8.0997 29.7469 8.06644 29.5712 8.06779C29.3467 8.07074 29.1324 8.12941 28.9713 8.23198C28.8103 8.33454 28.7146 8.47335 28.7035 8.62039Z" fill="#922230"/>
<path d="M31.0455 8.64366C31.0454 8.75883 31.0979 8.87139 31.1963 8.9668C31.2947 9.06222 31.4344 9.13611 31.5974 9.17895C31.7604 9.22178 31.9392 9.23161 32.1108 9.20714C32.2824 9.18268 32.4389 9.12505 32.5601 9.04169C32.6813 8.95833 32.7616 8.85307 32.7907 8.73949C32.8198 8.62591 32.7963 8.50921 32.7233 8.40446C32.6503 8.29971 32.5311 8.21171 32.3811 8.15181C32.2311 8.09191 32.0572 8.06287 31.8818 8.06842C31.6571 8.07677 31.4457 8.14086 31.2904 8.24768C31.1351 8.35451 31.0476 8.49607 31.0455 8.64366Z" fill="#922230"/>
<path d="M47.0236 3.45764C44.971 3.45764 42.9194 3.45764 40.8688 3.45764C40.212 3.45764 39.818 3.80495 39.8324 4.34675C39.8468 4.88854 40.212 5.18337 40.8529 5.18646C41.8792 5.18646 42.904 5.18646 43.9303 5.18646C44.9566 5.18646 45.9814 5.18646 47.0077 5.18646C47.6948 5.18646 48.0427 4.87774 48.0326 4.30661C48.0225 3.76636 47.6659 3.45919 47.0236 3.45764Z" fill="#922230"/>
<path d="M47.0175 6.91516C44.9667 6.91516 42.9153 6.91516 40.8635 6.91516C40.2153 6.91516 39.853 7.11359 39.8328 7.46521C39.8126 7.81684 40.2095 8.06565 40.8592 8.0677C41.8856 8.0677 42.9105 8.0677 43.9369 8.0677C44.9633 8.0677 45.9882 8.0677 47.0146 8.0677C47.683 8.0677 48.0468 7.84563 48.0324 7.46727C48.0179 7.08892 47.6873 6.91619 47.0175 6.91516Z" fill="#922230"/>
</svg>
