<svg width="29" height="29" viewBox="0 0 29 29" fill="none" xmlns="http://www.w3.org/2000/svg">
<rect width="29" height="29" fill="white"/>
<path d="M0 5.05C0 3.97587 0.426695 2.94574 1.18622 2.18622C1.94574 1.4267 2.97587 1 4.05 1H22.95C24.0241 1 25.0543 1.4267 25.8138 2.18622C26.5733 2.94574 27 3.97587 27 5.05V17.2675C26.7778 17.2225 26.5517 17.1999 26.325 17.2H24.975V11.125H11.556L13.878 13.447C13.9775 13.5397 14.0573 13.6515 14.1126 13.7757C14.1679 13.8999 14.1977 14.0339 14.2001 14.1699C14.2025 14.3058 14.1775 14.4409 14.1266 14.567C14.0756 14.693 13.9998 14.8076 13.9037 14.9037C13.8076 14.9998 13.693 15.0756 13.567 15.1266C13.4409 15.1775 13.3058 15.2025 13.1699 15.2001C13.0339 15.1977 12.8999 15.1679 12.7757 15.1126C12.6515 15.0573 12.5397 14.9775 12.447 14.878L10.125 12.556V19.225H12.4308C12.245 19.6508 12.1493 20.1104 12.15 20.575V21.25H4.05C2.97587 21.25 1.94574 20.8233 1.18622 20.0638C0.426695 19.3043 0 18.2741 0 17.2V5.05ZM4.05 3.025C3.51294 3.025 2.99787 3.23835 2.61811 3.61811C2.23835 3.99787 2.025 4.51294 2.025 5.05V9.1H3.6558C3.384 8.47816 3.30598 7.78881 3.43192 7.12195C3.55787 6.45509 3.88193 5.84169 4.36181 5.36181C4.84169 4.88193 5.45509 4.55787 6.12195 4.43192C6.78881 4.30598 7.47816 4.384 8.1 4.6558V3.025H4.05ZM10.125 3.025V4.6558C10.7468 4.384 11.4362 4.30598 12.103 4.43192C12.7699 4.55787 13.3833 4.88193 13.8632 5.36181C14.3431 5.84169 14.6671 6.45509 14.7931 7.12195C14.919 7.78881 14.841 8.47816 14.5692 9.1H24.975V5.05C24.975 4.51294 24.7617 3.99787 24.3819 3.61811C24.0021 3.23835 23.4871 3.025 22.95 3.025H10.125ZM8.1 19.225V12.556L5.778 14.878C5.58606 15.0568 5.3322 15.1542 5.06989 15.1496C4.80759 15.145 4.55732 15.0387 4.37181 14.8532C4.1863 14.6677 4.08004 14.4174 4.07541 14.1551C4.07079 13.8928 4.16815 13.6389 4.347 13.447L6.669 11.125H2.025V17.2C2.025 17.7371 2.23835 18.2521 2.61811 18.6319C2.99787 19.0117 3.51294 19.225 4.05 19.225H8.1ZM11.475 9.1C11.742 9.1 12.003 9.02082 12.225 8.87248C12.447 8.72414 12.6201 8.5133 12.7222 8.26662C12.8244 8.01994 12.8512 7.7485 12.7991 7.48663C12.747 7.22475 12.6184 6.98421 12.4296 6.79541C12.2408 6.60661 12.0002 6.47803 11.7384 6.42594C11.4765 6.37385 11.2051 6.40058 10.9584 6.50276C10.7117 6.60494 10.5009 6.77797 10.3525 6.99998C10.2042 7.22199 10.125 7.483 10.125 7.75V9.1H11.475ZM8.1 7.7446C8.09893 7.47783 8.01885 7.21735 7.86986 6.99606C7.72088 6.77476 7.50966 6.60257 7.26289 6.50122C7.01612 6.39987 6.74485 6.3739 6.48333 6.4266C6.22182 6.4793 5.98177 6.6083 5.79351 6.79731C5.60525 6.98633 5.47721 7.22688 5.42556 7.48861C5.3739 7.75033 5.40095 8.0215 5.50329 8.26786C5.60562 8.51423 5.77866 8.72475 6.00054 8.87285C6.22243 9.02096 6.48323 9.1 6.75 9.1H8.1V7.7446ZM13.5 20.575C13.5 20.0379 13.7133 19.5229 14.0931 19.1431C14.4729 18.7633 14.9879 18.55 15.525 18.55H26.325C26.8621 18.55 27.3771 18.7633 27.7569 19.1431C28.1367 19.5229 28.35 20.0379 28.35 20.575V25.975C28.35 26.5121 28.1367 27.0271 27.7569 27.4069C27.3771 27.7867 26.8621 28 26.325 28H15.525C14.9879 28 14.4729 27.7867 14.0931 27.4069C13.7133 27.0271 13.5 26.5121 13.5 25.975V20.575ZM27 21.25C26.642 21.25 26.2986 21.1078 26.0454 20.8546C25.7922 20.6014 25.65 20.258 25.65 19.9H24.3C24.3 20.6161 24.5845 21.3028 25.0908 21.8092C25.5972 22.3155 26.2839 22.6 27 22.6V21.25ZM27 23.95C26.2839 23.95 25.5972 24.2345 25.0908 24.7408C24.5845 25.2472 24.3 25.9339 24.3 26.65H25.65C25.65 26.292 25.7922 25.9486 26.0454 25.6954C26.2986 25.4422 26.642 25.3 27 25.3V23.95ZM16.2 19.9C16.2 20.258 16.0578 20.6014 15.8046 20.8546C15.5514 21.1078 15.208 21.25 14.85 21.25V22.6C15.5661 22.6 16.2528 22.3155 16.7592 21.8092C17.2655 21.3028 17.55 20.6161 17.55 19.9H16.2ZM17.55 26.65C17.55 25.9339 17.2655 25.2472 16.7592 24.7408C16.2528 24.2345 15.5661 23.95 14.85 23.95V25.3C15.208 25.3 15.5514 25.4422 15.8046 25.6954C16.0578 25.9486 16.2 26.292 16.2 26.65H17.55ZM23.2875 23.275C23.2875 22.6484 23.0386 22.0475 22.5955 21.6045C22.1525 21.1614 21.5516 20.9125 20.925 20.9125C20.2984 20.9125 19.6975 21.1614 19.2545 21.6045C18.8114 22.0475 18.5625 22.6484 18.5625 23.275C18.5625 23.9016 18.8114 24.5025 19.2545 24.9455C19.6975 25.3886 20.2984 25.6375 20.925 25.6375C21.5516 25.6375 22.1525 25.3886 22.5955 24.9455C23.0386 24.5025 23.2875 23.9016 23.2875 23.275V23.275Z" fill="#515151"/>
<path d="M9.45 3.02502V9.77502M9.45 19.225V9.77502M9.45 9.77502H2.025H24.975H9.45Z" stroke="#8C031F" stroke-width="2"/>
</svg>
