<svg width="29" height="29" viewBox="0 0 29 29" fill="none" xmlns="http://www.w3.org/2000/svg">
<g clip-path="url(#clip0_40_365)">
<rect width="29" height="29" fill="white"/>
<path d="M19.3333 4H9.66667" stroke="#8C031F" stroke-width="1.5" stroke-linecap="round" stroke-linejoin="round"/>
<path d="M28.0333 26.5555H19.3333V20.2722C19.3333 20.0158 19.4352 19.77 19.6165 19.5887C19.7977 19.4074 20.0436 19.3055 20.3 19.3055H28.0333C28.2897 19.3055 28.5356 19.4074 28.7169 19.5887C28.8982 19.77 29 20.0158 29 20.2722V25.5889C29 25.8453 28.8982 26.0911 28.7169 26.2724C28.5356 26.4537 28.2897 26.5555 28.0333 26.5555V26.5555Z" stroke="#515151" stroke-width="1.5" stroke-linecap="round" stroke-linejoin="round"/>
<path d="M9.66667 26.5555V17.05C9.66667 16.7936 9.56482 16.5477 9.38354 16.3664C9.20225 16.1852 8.95638 16.0833 8.7 16.0833H0.966667C0.710291 16.0833 0.464415 16.1852 0.28313 16.3664C0.101845 16.5477 0 16.7936 0 17.05V25.5889C0 25.8452 0.101845 26.0911 0.28313 26.2724C0.464415 26.4537 0.710291 26.5555 0.966667 26.5555H9.66667Z" stroke="#515151" stroke-width="1.5" stroke-linecap="round" stroke-linejoin="round"/>
<path d="M19.3333 26.5555H9.66667V9.79998C9.66667 9.5436 9.76852 9.29773 9.9498 9.11644C10.1311 8.93516 10.377 8.83331 10.6333 8.83331H18.3667C18.623 8.83331 18.8689 8.93516 19.0502 9.11644C19.2315 9.29773 19.3333 9.5436 19.3333 9.79998V26.5555V26.5555Z" stroke="#8C031F" stroke-width="1.5" stroke-linecap="round" stroke-linejoin="round"/>
</g>
<defs>
<clipPath id="clip0_40_365">
<rect width="29" height="29" fill="white"/>
</clipPath>
</defs>
</svg>
