<svg width="29" height="29" viewBox="0 0 29 29" fill="none" xmlns="http://www.w3.org/2000/svg">
<rect width="29" height="29" fill="white"/>
<mask id="path-1-inside-1_48_819" fill="white">
<path d="M28.8971 21.1258L23.639 2.59548C23.3321 1.51185 22.4002 0.767043 21.3267 0.618661C21.9423 0.948733 22.4078 1.50229 22.6274 2.16531L28.6453 20.468C29.1214 21.918 28.2992 23.4821 26.8082 23.962L14.3649 27.8833L26.6936 23.4458C28.1668 22.9151 28.9339 21.3235 28.4065 19.8914L21.7506 1.8062C21.3393 0.690194 20.2644 0 19.1126 0C18.7859 0 18.4533 0.0550996 18.1276 0.172549L5.45324 4.73421L3.45274 5.45485C2.1608 5.91982 1.97327 6.62209 2.30193 7.75357C0.944261 8.1528 -0.290162 9.11559 0.0602517 10.1547C0.480748 11.4008 1.95539 11.4467 3.46386 10.9605L4.41988 13.5569C3.07236 13.9605 1.85485 14.917 2.20333 15.9499C2.62431 17.1978 4.08348 17.235 5.59389 16.7469L5.46629 16.4003L6.37881 18.8788C5.03806 19.2853 3.83119 20.2384 4.17773 21.267C4.59871 22.5149 6.04822 22.5729 7.55862 22.0848L7.25122 21.2501C7.25122 21.2501 5.49432 21.8117 5.19997 20.9852C5.03903 20.5328 5.86745 20.0934 6.73503 19.8455L8.403 24.3786C7.05741 24.7827 5.84184 25.7387 6.19032 26.7706C6.6113 28.0186 8.07433 28.0771 9.58474 27.5889L9.60262 27.6382C9.95738 28.5991 10.2599 28.9998 10.8651 28.9998C11.1623 28.9998 11.5335 28.9026 12.0193 28.7276L13.9023 28.05L26.9189 24.542C28.4273 24.123 29.3137 22.5937 28.8971 21.1258V21.1258ZM1.08249 9.87297C0.920094 9.4167 1.76592 8.97301 2.6422 8.72651L3.15356 10.1151C3.12891 10.1228 1.37539 10.6937 1.08249 9.87297V9.87297ZM3.22557 15.6681C3.06366 15.2138 3.9032 14.771 4.77658 14.524L5.28552 15.9064C5.28214 15.9073 3.51992 16.4936 3.22557 15.6681ZM7.21304 26.4898C7.05112 26.036 7.88777 25.5937 8.75969 25.3467L9.27734 26.7532C9.27444 26.7542 7.50642 27.3158 7.21304 26.4898ZM11.6911 27.8185C11.2957 27.9611 11.0178 28.0331 10.8651 28.0331H10.8578C10.8129 27.9819 10.6983 27.8146 10.5103 27.3042L9.72103 25.1597C9.76067 25.1563 9.80272 25.1505 9.83993 25.1486C9.83462 25.2796 9.85298 25.4139 9.90132 25.5444C10.0995 26.0829 10.7007 26.3603 11.245 26.1641C11.7892 25.9678 12.0695 25.3733 11.8723 24.8354C11.7752 24.576 11.5797 24.3654 11.3281 24.2495C11.0766 24.1335 10.7895 24.1216 10.5292 24.2162C10.49 24.2303 10.4552 24.2506 10.4185 24.2684C10.1062 24.1805 9.74423 24.1578 9.36385 24.1906L7.6954 19.657C7.73939 19.6526 7.78579 19.6468 7.82687 19.6444C7.82155 19.7754 7.83992 19.9098 7.88825 20.0408C7.98555 20.3002 8.18131 20.5108 8.433 20.6267C8.68469 20.7427 8.97196 20.7546 9.23239 20.6599C9.36121 20.6143 9.47972 20.5437 9.58108 20.4521C9.68244 20.3604 9.76464 20.2496 9.82292 20.126C9.88121 20.0024 9.91443 19.8685 9.92067 19.732C9.92691 19.5955 9.90604 19.4591 9.85927 19.3307C9.76207 19.0714 9.56647 18.861 9.31498 18.745C9.06348 18.6291 8.7764 18.6171 8.51609 18.7116C8.47695 18.7256 8.44263 18.7464 8.40541 18.7643C8.09028 18.6754 7.72344 18.6536 7.33822 18.6879L5.73695 14.338C5.77514 14.3346 5.81574 14.3288 5.85199 14.3268C5.84764 14.4554 5.86552 14.5869 5.91288 14.7154C6.01019 14.9749 6.20593 15.1855 6.45759 15.3015C6.70926 15.4175 6.99653 15.4296 7.25702 15.3351C7.38584 15.2895 7.50435 15.2189 7.60571 15.1272C7.70707 15.0356 7.78927 14.9248 7.84756 14.8012C7.90585 14.6776 7.93907 14.5437 7.94531 14.4072C7.95154 14.2707 7.93067 14.1343 7.8839 14.0059C7.78681 13.7465 7.59123 13.536 7.33969 13.42C7.08816 13.3041 6.80102 13.2921 6.54073 13.3868C6.49771 13.4022 6.45953 13.424 6.42038 13.4443C6.11105 13.3592 5.75484 13.337 5.38074 13.3694L3.60354 8.54188C3.63882 8.53898 3.67652 8.53366 3.71084 8.53173C3.7089 8.65304 3.72582 8.77629 3.77029 8.89712C3.86759 9.1566 4.06333 9.3672 4.31499 9.48322C4.56666 9.59923 4.85393 9.61128 5.11442 9.51675C5.24328 9.47123 5.36184 9.40062 5.46323 9.309C5.56463 9.21737 5.64685 9.10655 5.70514 8.98295C5.76344 8.85935 5.79665 8.72541 5.80286 8.58889C5.80906 8.45237 5.78814 8.31598 5.7413 8.1876C5.64421 7.9282 5.44863 7.71763 5.1971 7.60169C4.94556 7.48574 4.65842 7.4738 4.39813 7.56845C4.34448 7.58778 4.29567 7.61388 4.24685 7.64047C3.95105 7.56362 3.61224 7.54284 3.25747 7.57135C3.09218 7.03534 3.11586 6.82316 3.15259 6.74438C3.17337 6.70039 3.27874 6.54379 3.77947 6.36351L5.77997 5.64287L18.4538 1.08121C18.6653 1.00571 18.8881 0.966967 19.1126 0.966658C19.8888 0.966658 20.5848 1.43839 20.8434 2.14018L27.4993 20.2254C27.6603 20.6623 27.6385 21.1389 27.4394 21.5666C27.3338 21.7915 27.1846 21.9931 27.0003 22.1596C26.8159 22.3262 26.6003 22.4544 26.3659 22.5367L13.6921 27.0983L11.6911 27.8185"/>
</mask>
<path d="M28.8971 21.1258L23.639 2.59548C23.3321 1.51185 22.4002 0.767043 21.3267 0.618661C21.9423 0.948733 22.4078 1.50229 22.6274 2.16531L28.6453 20.468C29.1214 21.918 28.2992 23.4821 26.8082 23.962L14.3649 27.8833L26.6936 23.4458C28.1668 22.9151 28.9339 21.3235 28.4065 19.8914L21.7506 1.8062C21.3393 0.690194 20.2644 0 19.1126 0C18.7859 0 18.4533 0.0550996 18.1276 0.172549L5.45324 4.73421L3.45274 5.45485C2.1608 5.91982 1.97327 6.62209 2.30193 7.75357C0.944261 8.1528 -0.290162 9.11559 0.0602517 10.1547C0.480748 11.4008 1.95539 11.4467 3.46386 10.9605L4.41988 13.5569C3.07236 13.9605 1.85485 14.917 2.20333 15.9499C2.62431 17.1978 4.08348 17.235 5.59389 16.7469L5.46629 16.4003L6.37881 18.8788C5.03806 19.2853 3.83119 20.2384 4.17773 21.267C4.59871 22.5149 6.04822 22.5729 7.55862 22.0848L7.25122 21.2501C7.25122 21.2501 5.49432 21.8117 5.19997 20.9852C5.03903 20.5328 5.86745 20.0934 6.73503 19.8455L8.403 24.3786C7.05741 24.7827 5.84184 25.7387 6.19032 26.7706C6.6113 28.0186 8.07433 28.0771 9.58474 27.5889L9.60262 27.6382C9.95738 28.5991 10.2599 28.9998 10.8651 28.9998C11.1623 28.9998 11.5335 28.9026 12.0193 28.7276L13.9023 28.05L26.9189 24.542C28.4273 24.123 29.3137 22.5937 28.8971 21.1258V21.1258ZM1.08249 9.87297C0.920094 9.4167 1.76592 8.97301 2.6422 8.72651L3.15356 10.1151C3.12891 10.1228 1.37539 10.6937 1.08249 9.87297V9.87297ZM3.22557 15.6681C3.06366 15.2138 3.9032 14.771 4.77658 14.524L5.28552 15.9064C5.28214 15.9073 3.51992 16.4936 3.22557 15.6681ZM7.21304 26.4898C7.05112 26.036 7.88777 25.5937 8.75969 25.3467L9.27734 26.7532C9.27444 26.7542 7.50642 27.3158 7.21304 26.4898ZM11.6911 27.8185C11.2957 27.9611 11.0178 28.0331 10.8651 28.0331H10.8578C10.8129 27.9819 10.6983 27.8146 10.5103 27.3042L9.72103 25.1597C9.76067 25.1563 9.80272 25.1505 9.83993 25.1486C9.83462 25.2796 9.85298 25.4139 9.90132 25.5444C10.0995 26.0829 10.7007 26.3603 11.245 26.1641C11.7892 25.9678 12.0695 25.3733 11.8723 24.8354C11.7752 24.576 11.5797 24.3654 11.3281 24.2495C11.0766 24.1335 10.7895 24.1216 10.5292 24.2162C10.49 24.2303 10.4552 24.2506 10.4185 24.2684C10.1062 24.1805 9.74423 24.1578 9.36385 24.1906L7.6954 19.657C7.73939 19.6526 7.78579 19.6468 7.82687 19.6444C7.82155 19.7754 7.83992 19.9098 7.88825 20.0408C7.98555 20.3002 8.18131 20.5108 8.433 20.6267C8.68469 20.7427 8.97196 20.7546 9.23239 20.6599C9.36121 20.6143 9.47972 20.5437 9.58108 20.4521C9.68244 20.3604 9.76464 20.2496 9.82292 20.126C9.88121 20.0024 9.91443 19.8685 9.92067 19.732C9.92691 19.5955 9.90604 19.4591 9.85927 19.3307C9.76207 19.0714 9.56647 18.861 9.31498 18.745C9.06348 18.6291 8.7764 18.6171 8.51609 18.7116C8.47695 18.7256 8.44263 18.7464 8.40541 18.7643C8.09028 18.6754 7.72344 18.6536 7.33822 18.6879L5.73695 14.338C5.77514 14.3346 5.81574 14.3288 5.85199 14.3268C5.84764 14.4554 5.86552 14.5869 5.91288 14.7154C6.01019 14.9749 6.20593 15.1855 6.45759 15.3015C6.70926 15.4175 6.99653 15.4296 7.25702 15.3351C7.38584 15.2895 7.50435 15.2189 7.60571 15.1272C7.70707 15.0356 7.78927 14.9248 7.84756 14.8012C7.90585 14.6776 7.93907 14.5437 7.94531 14.4072C7.95154 14.2707 7.93067 14.1343 7.8839 14.0059C7.78681 13.7465 7.59123 13.536 7.33969 13.42C7.08816 13.3041 6.80102 13.2921 6.54073 13.3868C6.49771 13.4022 6.45953 13.424 6.42038 13.4443C6.11105 13.3592 5.75484 13.337 5.38074 13.3694L3.60354 8.54188C3.63882 8.53898 3.67652 8.53366 3.71084 8.53173C3.7089 8.65304 3.72582 8.77629 3.77029 8.89712C3.86759 9.1566 4.06333 9.3672 4.31499 9.48322C4.56666 9.59923 4.85393 9.61128 5.11442 9.51675C5.24328 9.47123 5.36184 9.40062 5.46323 9.309C5.56463 9.21737 5.64685 9.10655 5.70514 8.98295C5.76344 8.85935 5.79665 8.72541 5.80286 8.58889C5.80906 8.45237 5.78814 8.31598 5.7413 8.1876C5.64421 7.9282 5.44863 7.71763 5.1971 7.60169C4.94556 7.48574 4.65842 7.4738 4.39813 7.56845C4.34448 7.58778 4.29567 7.61388 4.24685 7.64047C3.95105 7.56362 3.61224 7.54284 3.25747 7.57135C3.09218 7.03534 3.11586 6.82316 3.15259 6.74438C3.17337 6.70039 3.27874 6.54379 3.77947 6.36351L5.77997 5.64287L18.4538 1.08121C18.6653 1.00571 18.8881 0.966967 19.1126 0.966658C19.8888 0.966658 20.5848 1.43839 20.8434 2.14018L27.4993 20.2254C27.6603 20.6623 27.6385 21.1389 27.4394 21.5666C27.3338 21.7915 27.1846 21.9931 27.0003 22.1596C26.8159 22.3262 26.6003 22.4544 26.3659 22.5367L13.6921 27.0983L11.6911 27.8185" fill="#515151"/>
<path d="M23.639 2.59548L8.75781 6.81026L8.75988 6.81754L23.639 2.59548ZM21.3267 0.618661L23.4445 -14.7022L14.0175 14.2491L21.3267 0.618661ZM22.6274 2.16531L37.3201 -2.66565L37.3148 -2.68162L37.3095 -2.69758L22.6274 2.16531ZM28.6453 20.468L43.34 15.6433L43.338 15.6371L28.6453 20.468ZM26.8082 23.962L31.4568 38.7134L31.502 38.6992L31.5471 38.6847L26.8082 23.962ZM14.3649 27.8833L9.12699 13.3307L19.0135 42.6347L14.3649 27.8833ZM26.6936 23.4458L31.9315 37.9984L31.9355 37.997L26.6936 23.4458ZM28.4065 19.8914L13.8918 25.2333L13.8926 25.2356L28.4065 19.8914ZM21.7506 1.8062L36.2654 -3.53568L36.2629 -3.54241L21.7506 1.8062ZM18.1276 0.172549L23.3653 14.7252L23.3733 14.7223L18.1276 0.172549ZM5.45324 4.73421L0.215542 -9.81846L0.211434 -9.81698L5.45324 4.73421ZM3.45274 5.45485L8.69021 20.0076L8.69454 20.006L3.45274 5.45485ZM2.30193 7.75357L6.66521 22.5919L21.4546 18.243L17.1546 3.43926L2.30193 7.75357ZM0.0602517 10.1547L-14.5955 15.0968L-14.5943 15.1002L0.0602517 10.1547ZM3.46386 10.9605L17.9778 5.61635L12.8483 -8.31462L-1.28111 -3.76024L3.46386 10.9605ZM4.41988 13.5569L8.85733 28.3732L24.6189 23.6527L18.9338 8.21279L4.41988 13.5569ZM2.20333 15.9499L16.8585 11.0062L16.8582 11.0055L2.20333 15.9499ZM5.59389 16.7469L10.3504 31.4638L25.6711 26.5122L20.1078 11.4028L5.59389 16.7469ZM5.46629 16.4003L19.9802 11.0563L-9.04779 21.744L5.46629 16.4003ZM6.37881 18.8788L10.8661 33.6801L26.5582 28.9227L20.8929 13.5351L6.37881 18.8788ZM4.17773 21.267L-10.4792 26.2054L-10.4774 26.2107L4.17773 21.267ZM7.55862 22.0848L12.3151 36.8017L27.6368 31.8498L22.0723 16.7399L7.55862 22.0848ZM7.25122 21.2501L21.7649 15.9051L16.6473 2.00884L2.54181 6.51794L7.25122 21.2501ZM5.19997 20.9852L-9.37184 26.1694L-9.37013 26.1742L5.19997 20.9852ZM6.73503 19.8455L21.2502 14.5047L16.2916 1.02851L2.48495 4.97437L6.73503 19.8455ZM8.403 24.3786L12.8512 39.1917L28.5943 34.4643L22.9181 19.0378L8.403 24.3786ZM6.19032 26.7706L20.8455 21.8269L20.8438 21.8221L6.19032 26.7706ZM9.58474 27.5889L24.1242 22.3146L19.0333 8.28087L4.82821 12.8719L9.58474 27.5889ZM9.60262 27.6382L-4.93681 32.9125L-4.9218 32.9539L-4.90655 32.9952L9.60262 27.6382ZM12.0193 28.7276L6.7823 14.1747L6.77789 14.1763L12.0193 28.7276ZM13.9023 28.05L9.87763 13.1163L9.26366 13.2818L8.66535 13.4971L13.9023 28.05ZM26.9189 24.542L30.9435 39.4757L31.0011 39.4602L31.0586 39.4442L26.9189 24.542ZM2.6422 8.72651L17.1559 3.38175L12.2157 -10.0334L-1.54601 -6.16216L2.6422 8.72651ZM3.15356 10.1151L7.78331 24.8725L23.2797 20.0109L17.6672 4.77036L3.15356 10.1151ZM3.22557 15.6681L-11.3434 20.8602L-11.3426 20.8625L3.22557 15.6681ZM4.77658 14.524L19.2906 9.18023L14.3441 -4.25463L0.567859 -0.358845L4.77658 14.524ZM5.28552 15.9064L9.53451 30.7778L25.557 26.2L19.7996 10.5626L5.28552 15.9064ZM7.21304 26.4898L21.7876 21.3133L21.7839 21.303L21.7803 21.2928L7.21304 26.4898ZM8.75969 25.3467L23.2744 20.0047L18.3268 6.56173L4.54449 10.4657L8.75969 25.3467ZM9.27734 26.7532L14.1683 41.4261L29.3018 36.3816L23.792 21.4112L9.27734 26.7532ZM10.8578 28.0331L-0.768328 38.2334L3.85204 43.4996H10.8578V28.0331ZM10.5103 27.3042L-4.00439 32.6462L-4.00284 32.6505L10.5103 27.3042ZM9.72103 25.1597L8.40551 9.74922L-11.7967 11.4738L-4.79367 30.5017L9.72103 25.1597ZM9.83993 25.1486L25.2937 25.7759L25.9819 8.82265L9.03756 9.70288L9.83993 25.1486ZM9.90132 25.5444L24.416 20.2024L24.4105 20.1875L24.405 20.1727L9.90132 25.5444ZM11.8723 24.8354L26.3939 19.5121L26.3758 19.4627L26.3574 19.4135L11.8723 24.8354ZM10.5292 24.2162L15.7425 38.7777L15.7787 38.7647L15.8148 38.7516L10.5292 24.2162ZM10.4185 24.2684L6.22431 39.1554L11.8932 40.7525L17.1886 38.1745L10.4185 24.2684ZM9.36385 24.1906L-5.15096 29.5323L-1.07181 40.6165L10.6953 39.5997L9.36385 24.1906ZM7.6954 19.657L6.17317 4.26556L-13.7253 6.23354L-6.81941 24.9987L7.6954 19.657ZM7.82687 19.6444L23.2807 20.2717L23.9736 3.20136L6.91864 4.20459L7.82687 19.6444ZM7.88825 20.0408L-6.62192 25.3951L-6.60784 25.4332L-6.59357 25.4713L7.88825 20.0408ZM9.23239 20.6599L4.07406 6.07891L4.01067 6.10134L3.94747 6.12432L9.23239 20.6599ZM9.85927 19.3307L24.3915 14.0365L24.367 13.9693L24.3419 13.9023L9.85927 19.3307ZM8.51609 18.7116L13.7294 33.273L13.7623 33.2612L13.7951 33.2493L8.51609 18.7116ZM8.40541 18.7643L4.2047 33.6494L9.83299 35.2378L15.1041 32.7049L8.40541 18.7643ZM7.33822 18.6879L-7.17615 24.0308L-3.08517 35.1443L8.71061 34.0934L7.33822 18.6879ZM5.73695 14.338L4.37185 -1.06821L-15.7588 0.715515L-8.77742 19.6809L5.73695 14.338ZM5.85199 14.3268L21.3097 14.8498L21.8803 -2.01652L5.02827 -1.11774L5.85199 14.3268ZM5.91288 14.7154L-8.60003 20.0623L-8.58454 20.1043L-8.56881 20.1463L5.91288 14.7154ZM7.25702 15.3351L2.0987 0.754076L2.03979 0.774916L1.98106 0.79623L7.25702 15.3351ZM7.8839 14.0059L22.4161 8.71169L22.3928 8.64776L22.369 8.58403L7.8839 14.0059ZM6.54073 13.3868L11.7738 27.9411L11.8001 27.9317L11.8264 27.9221L6.54073 13.3868ZM6.42038 13.4443L2.31933 28.3572L8.16121 29.9637L13.5399 27.1748L6.42038 13.4443ZM5.38074 13.3694L-9.13349 18.7127L-5.05291 29.7969L6.71459 28.7783L5.38074 13.3694ZM3.60354 8.54188L2.33659 -6.87268L-17.939 -5.20619L-10.9107 13.8852L3.60354 8.54188ZM3.71084 8.53173L19.1754 8.77817L19.4403 -7.8455L2.84086 -6.91032L3.71084 8.53173ZM3.77029 8.89712L-10.7446 14.2386L-10.7281 14.2833L-10.7114 14.328L3.77029 8.89712ZM5.11442 9.51675L-0.0370165 -5.06667L-0.0993736 -5.04465L-0.16154 -5.02209L5.11442 9.51675ZM5.7413 8.1876L20.271 2.88651L20.2489 2.82602L20.2264 2.76572L5.7413 8.1876ZM4.39813 7.56845L9.64159 22.119L9.66269 22.1114L9.68377 22.1038L4.39813 7.56845ZM4.24685 7.64047L0.357695 22.61L6.27466 24.1473L11.6436 21.2236L4.24685 7.64047ZM3.25747 7.57135L-11.5222 12.1292L-7.867 23.982L4.4967 22.9882L3.25747 7.57135ZM3.15259 6.74438L-10.8314 0.136579L-10.8483 0.172502L-10.8651 0.208513L3.15259 6.74438ZM3.77947 6.36351L9.01878 20.9156L9.02127 20.9147L3.77947 6.36351ZM5.77997 5.64287L0.542096 -8.90974L0.538165 -8.90832L5.77997 5.64287ZM18.4538 1.08121L13.253 -13.4847L13.2345 -13.4781L13.216 -13.4714L18.4538 1.08121ZM19.1126 0.966658L19.1126 -14.4999H19.102L19.0914 -14.4999L19.1126 0.966658ZM20.8434 2.14018L35.3582 -3.2017L35.3561 -3.20714L20.8434 2.14018ZM27.4993 20.2254L12.9846 25.5673L12.9861 25.5715L27.4993 20.2254ZM27.4394 21.5666L41.4403 28.1385L41.4507 28.1164L41.461 28.0942L27.4394 21.5666ZM26.3659 22.5367L21.2413 7.94379L21.1846 7.96371L21.128 7.98407L26.3659 22.5367ZM13.6921 27.0983L18.9296 41.6511L18.9299 41.6509L13.6921 27.0983ZM43.7762 16.9038L38.5181 -1.62659L8.75988 6.81754L14.018 25.3479L43.7762 16.9038ZM38.5202 -1.6193C36.4208 -9.03159 30.1535 -13.7748 23.4445 -14.7022L19.209 15.9395C14.6469 15.3089 10.2434 12.0553 8.75781 6.81026L38.5202 -1.6193ZM14.0175 14.2491C11.1438 12.7081 8.97046 10.1237 7.94521 7.02821L37.3095 -2.69758C35.8451 -7.11909 32.7407 -10.8106 28.6359 -13.0118L14.0175 14.2491ZM7.93467 6.99628L13.9526 25.299L43.338 15.6371L37.3201 -2.66565L7.93467 6.99628ZM13.9506 25.2928C11.6335 18.2357 15.7589 11.2705 22.0692 9.23937L31.5471 38.6847C40.8396 35.6936 46.6093 25.6004 43.34 15.6433L13.9506 25.2928ZM22.1596 9.2106L9.71626 13.1318L19.0135 42.6347L31.4568 38.7134L22.1596 9.2106ZM19.6027 42.4359L31.9315 37.9984L21.4558 8.89321L9.12699 13.3307L19.6027 42.4359ZM31.9355 37.997C41.1258 34.6863 46.5442 24.3889 42.9205 14.5473L13.8926 25.2356C11.3235 18.2582 15.2078 11.1439 21.4518 8.89464L31.9355 37.997ZM42.9213 14.5495L36.2654 -3.53568L7.23587 7.14808L13.8918 25.2333L42.9213 14.5495ZM36.2629 -3.54241C33.4657 -11.132 26.3132 -15.4665 19.1126 -15.4665V15.4665C14.2156 15.4665 9.21291 12.5124 7.23834 7.15481L36.2629 -3.54241ZM19.1126 -15.4665C17.0379 -15.4665 14.9277 -15.1148 12.8819 -14.3772L23.3733 14.7223C21.979 15.225 20.5338 15.4665 19.1126 15.4665V-15.4665ZM12.8899 -14.3801L0.215543 -9.81846L10.6909 19.2869L23.3653 14.7252L12.8899 -14.3801ZM0.211434 -9.81698L-1.78907 -9.09634L8.69454 20.006L10.695 19.2854L0.211434 -9.81698ZM-1.78473 -9.0979C-4.19373 -8.23091 -9.21036 -5.87739 -11.8559 0.0547787C-14.3146 5.56793 -13.0029 10.511 -12.5507 12.0679L17.1546 3.43926C17.2781 3.8647 18.5192 7.89086 16.3951 12.6538C14.0842 17.8357 9.80727 19.6056 8.69021 20.0076L-1.78473 -9.0979ZM-2.06134 -7.08474C-4.43854 -6.38572 -7.52126 -5.00714 -10.2152 -2.4001C-12.8792 0.177984 -17.4491 6.63431 -14.5955 15.0968L14.716 5.2127C17.2192 12.636 13.0913 18.0914 11.2963 19.8285C9.4714 21.5945 7.68474 22.2921 6.66521 22.5919L-2.06134 -7.08474ZM-14.5943 15.1002C-12.2206 22.1341 -6.32192 25.5676 -1.3058 26.4433C2.79691 27.1595 6.29541 26.2979 8.20882 25.6812L-1.28111 -3.76024C-0.876168 -3.89077 1.13078 -4.53224 4.01393 -4.02891C5.62403 -3.74782 7.86252 -3.03826 10.0556 -1.33173C12.3584 0.460151 13.9044 2.80777 14.7148 5.20926L-14.5943 15.1002ZM-11.0501 16.3046L-10.094 18.901L18.9338 8.21279L17.9778 5.61635L-11.0501 16.3046ZM-0.0175686 -1.2594C-2.37058 -0.554674 -5.44137 0.829161 -8.12368 3.4454C-10.7912 6.04719 -15.288 12.4874 -12.4516 20.8943L16.8582 11.0055C19.3461 18.3794 15.2839 23.825 13.4749 25.5894C11.6511 27.3683 9.86282 28.0721 8.85733 28.3732L-0.0175686 -1.2594ZM-12.4518 20.8936C-10.0916 27.8902 -4.22446 31.3661 0.868112 32.2421C4.98669 32.9505 8.48689 32.0661 10.3504 31.4638L0.837363 2.0299C1.19048 1.91578 3.20589 1.25684 6.11204 1.75674C7.74275 2.03725 10.0038 2.75205 12.2131 4.47599C14.5282 6.28251 16.0586 8.63505 16.8585 11.0062L-12.4518 20.8936ZM20.1078 11.4028L19.9802 11.0563L-9.04766 21.7444L-8.92006 22.0909L20.1078 11.4028ZM-9.04779 21.744L-8.13526 24.2226L20.8929 13.5351L19.9804 11.0566L-9.04779 21.744ZM1.89148 4.07757C-0.447878 4.7868 -3.50937 6.17494 -6.18234 8.7956C-8.84678 11.4079 -13.2999 17.8337 -10.4792 26.2054L18.8347 16.3285C21.3088 23.6717 17.2859 29.1067 15.4734 30.8837C13.6524 32.669 11.8648 33.3774 10.8661 33.6801L1.89148 4.07757ZM-10.4774 26.2107C-8.15542 33.094 -2.41177 36.6184 2.70041 37.5453C6.85181 38.298 10.3914 37.4235 12.3151 36.8017L2.8021 7.36779C3.21541 7.23421 5.27508 6.57475 8.21888 7.10849C9.86541 7.40702 12.1041 8.14601 14.2772 9.86808C16.5465 11.6664 18.0453 13.9886 18.8329 16.3233L-10.4774 26.2107ZM22.0723 16.7399L21.7649 15.9051L-7.26241 26.595L-6.95501 27.4297L22.0723 16.7399ZM7.25122 21.2501C2.54181 6.51794 2.54523 6.51685 2.54865 6.51576C2.54978 6.5154 2.5532 6.5143 2.55547 6.51358C2.56001 6.51213 2.56455 6.51069 2.56907 6.50925C2.57813 6.50638 2.58715 6.50352 2.59615 6.50068C2.61414 6.49501 2.63203 6.4894 2.64983 6.48386C2.68541 6.47278 2.72075 6.46194 2.75591 6.45131C2.82598 6.43013 2.89655 6.40944 2.96787 6.38928C3.10762 6.34977 3.26441 6.30829 3.43798 6.26755C3.72258 6.20075 4.32057 6.07119 5.13434 6.00777C5.72708 5.96158 7.71586 5.82853 10.2034 6.59583C11.5609 7.01454 13.4358 7.81463 15.2954 9.36995C17.2578 11.0112 18.8473 13.2053 19.7701 15.7962L-9.37013 26.1742C-7.17315 32.343 -2.19916 35.1414 1.0859 36.1547C3.98566 37.0491 6.46885 36.9306 7.53762 36.8473C8.8274 36.7468 9.88302 36.5285 10.5062 36.3822C10.8491 36.3018 11.1455 36.2229 11.3824 36.1559C11.5024 36.122 11.611 36.09 11.7069 36.061C11.755 36.0465 11.8003 36.0326 11.8425 36.0194C11.8636 36.0128 11.8841 36.0064 11.9037 36.0002C11.9136 35.9971 11.9233 35.9941 11.9327 35.9911C11.9375 35.9895 11.9422 35.9881 11.9468 35.9866C11.9491 35.9858 11.9526 35.9847 11.9538 35.9844C11.9572 35.9833 11.9606 35.9822 7.25122 21.2501ZM19.7718 15.801C21.6753 21.1515 20.1728 25.9849 18.3296 28.9056C16.7661 31.383 14.9006 32.7135 14.1738 33.1991C12.6 34.2506 11.3214 34.6205 10.9851 34.7166L2.48495 4.97437C1.28108 5.31843 -0.845496 6.03199 -3.01022 7.47824C-4.03246 8.16119 -6.12909 9.70188 -7.82975 12.3967C-9.81011 15.5347 -11.3559 20.5927 -9.37184 26.1694L19.7718 15.801ZM-7.78011 25.1863L-6.11214 29.7195L22.9181 19.0378L21.2502 14.5047L-7.78011 25.1863ZM3.95482 9.56556C1.60401 10.2715 -1.4648 11.6567 -4.14486 14.274C-6.81093 16.8777 -11.3005 23.3175 -8.46319 31.7192L20.8438 21.8221C23.3326 29.1919 19.2766 34.6377 17.4676 36.4044C15.6446 38.1847 13.8564 38.8899 12.8512 39.1917L3.95482 9.56556ZM-8.46484 31.7143C-6.12511 38.6503 -0.330577 42.1377 4.73171 43.0514C8.86718 43.7978 12.3981 42.9339 14.3413 42.3059L4.82821 12.8719C5.26098 12.7321 7.30517 12.083 10.2263 12.6102C11.8565 12.9045 14.0871 13.6341 16.2593 15.3461C18.5325 17.1375 20.0485 19.4645 20.8455 21.8269L-8.46484 31.7143ZM-4.95469 32.8632L-4.93681 32.9125L24.142 22.3639L24.1242 22.3146L-4.95469 32.8632ZM-4.90655 32.9952C-4.66474 33.6502 -3.69241 36.3958 -1.42442 38.9496C1.79996 42.5803 6.28522 44.4663 10.8651 44.4663V13.5332C12.4609 13.5332 14.523 13.8074 16.7128 14.7748C18.9198 15.7499 20.5615 17.1222 21.7043 18.409C22.7672 19.6058 23.372 20.6966 23.6542 21.2523C23.9437 21.8223 24.0934 22.2314 24.1118 22.2812L-4.90655 32.9952ZM10.8651 44.4663C14.0511 44.4663 16.6016 43.5164 17.2606 43.279L6.77789 14.1763C6.81056 14.1645 7.17285 14.0324 7.73248 13.897C8.27259 13.7662 9.39037 13.5332 10.8651 13.5332V44.4663ZM17.2562 43.2806L19.1393 42.6029L8.66535 13.4971L6.7823 14.1747L17.2562 43.2806ZM17.927 42.9837L30.9435 39.4757L22.8942 9.6083L9.87763 13.1163L17.927 42.9837ZM31.0586 39.4442C40.45 36.8353 46.6404 26.9948 43.7759 16.9027L14.0183 25.3489C11.9871 18.1926 16.4046 11.4106 22.7791 9.63979L31.0586 39.4442ZM15.6536 4.68666C17.5817 10.1037 16.0177 14.9729 14.1615 17.8733C12.5864 20.3343 10.7197 21.6489 10.0018 22.1234C8.43828 23.157 7.17347 23.5187 6.83041 23.6152L-1.54601 -6.16216C-2.76535 -5.81916 -4.89121 -5.11236 -7.05613 -3.68126C-8.07467 -3.00796 -10.1772 -1.48148 -11.8925 1.19869C-13.8891 4.31831 -15.4979 9.41406 -13.4886 15.0593L15.6536 4.68666ZM-11.8715 14.0713L-11.3601 15.4599L17.6672 4.77036L17.1559 3.38175L-11.8715 14.0713ZM-1.4762 -4.64222C-1.53432 -4.62399 -1.38317 -4.67194 -1.23573 -4.71467C-1.10245 -4.75329 -0.950657 -4.79462 -0.781138 -4.83569C-0.504884 -4.90263 0.0863065 -5.0356 0.894388 -5.10504C1.47775 -5.15517 3.46962 -5.30621 5.96952 -4.55642C8.86103 -3.68917 13.5743 -1.13935 15.6491 4.67427L-13.4842 15.0717C-11.2629 21.2956 -6.22057 24.0819 -2.91713 25.0727C-0.00529447 25.946 2.48141 25.8057 3.54285 25.7144C4.829 25.6039 5.8815 25.3781 6.50263 25.2276C6.84458 25.1447 7.1397 25.064 7.37474 24.9958C7.62394 24.9236 7.83527 24.8561 7.78331 24.8725L-1.4762 -4.64222ZM17.7946 10.4759C19.7189 15.8757 18.1723 20.736 16.3222 23.6409C14.7519 26.1064 12.8868 27.4262 12.1663 27.9044C10.5995 28.9444 9.32979 29.3095 8.9853 29.4069L0.567859 -0.358845C-0.650008 -0.0144459 -2.77617 0.695498 -4.94058 2.13217C-5.95989 2.80876 -8.05914 4.33983 -9.76857 7.02383C-11.7579 10.1473 -13.3487 15.2333 -11.3434 20.8602L17.7946 10.4759ZM-9.73746 19.8678L-9.22852 21.2502L19.7996 10.5626L19.2906 9.18023L-9.73746 19.8678ZM1.03654 1.03492C0.44199 1.20479 1.6468 0.814104 2.96228 0.694334C3.54418 0.641353 5.54381 0.478872 8.05711 1.2221C10.9731 2.08441 15.713 4.63803 17.7938 10.4737L-11.3426 20.8625C-9.11469 27.1109 -4.04412 29.9008 -0.714819 30.8853C2.21179 31.7508 4.70737 31.5965 5.76704 31.5C8.03806 31.2932 10.1257 30.6089 9.53451 30.7778L1.03654 1.03492ZM21.7803 21.2928C23.7018 26.6788 22.1691 31.5333 20.3212 34.4441C18.7531 36.9141 16.8875 38.2377 16.1647 38.7185C14.5947 39.7628 13.3209 40.1298 12.9749 40.2278L4.54449 10.4657C3.3266 10.8107 1.19851 11.5223 -0.967345 12.9629C-1.98807 13.6419 -4.08694 15.1766 -5.79362 17.8649C-7.78013 20.9939 -9.3567 26.0739 -7.3542 31.6869L21.7803 21.2928ZM-5.75501 30.6888L-5.23736 32.0953L23.792 21.4112L23.2744 20.0047L-5.75501 30.6888ZM4.38639 12.0804C4.92261 11.9017 5.83549 11.6143 7.15422 11.5117C7.73796 11.4663 9.71592 11.333 12.1932 12.0926C15.0448 12.967 19.7285 15.516 21.7876 21.3133L-7.36149 31.6664C-5.15573 37.8767 -0.141048 40.6652 3.12474 41.6666C6.01609 42.5532 8.49124 42.4343 9.55402 42.3516C11.8308 42.1744 13.6292 41.6058 14.1683 41.4261L4.38639 12.0804ZM6.44408 13.2692C6.50921 13.2457 6.82197 13.1333 7.30034 13.0091C7.54661 12.9451 7.94475 12.8497 8.45264 12.7648C8.91661 12.6872 9.77254 12.5666 10.8651 12.5666V43.4996C12.9344 43.4996 14.5615 43.0825 15.0738 42.9495C15.8282 42.7536 16.4776 42.5339 16.9381 42.3678L6.44408 13.2692ZM10.8651 12.5666H10.8578V43.4996H10.8651V12.5666ZM22.484 17.8328C23.5792 19.0811 24.2054 20.2116 24.4843 20.7525C24.7971 21.3592 24.9675 21.806 25.0235 21.958L-4.00284 32.6505C-3.6681 33.5591 -2.76522 35.9574 -0.768328 38.2334L22.484 17.8328ZM25.025 21.9622L24.2357 19.8177L-4.79367 30.5017L-4.00439 32.6462L25.025 21.9622ZM11.0366 40.5702C11.1818 40.5578 11.2977 40.5459 11.3504 40.5404C11.3778 40.5376 11.4009 40.5351 11.4067 40.5345C11.4184 40.5333 11.408 40.5344 11.398 40.5354C11.3779 40.5375 11.2913 40.5466 11.1771 40.5568C11.0621 40.567 10.8749 40.5822 10.6423 40.5943L9.03756 9.70288C8.78634 9.71593 8.57997 9.73262 8.44532 9.74456C8.31157 9.75642 8.20496 9.76756 8.1648 9.77178C8.15315 9.77301 8.14339 9.77404 8.13719 9.7747C8.13404 9.77504 8.1313 9.77533 8.12951 9.77552C8.12536 9.77596 8.12867 9.77561 8.12587 9.77591C8.12156 9.77637 8.13448 9.77498 8.15184 9.77318C8.18434 9.7698 8.28011 9.75992 8.40551 9.74922L11.0366 40.5702ZM-5.61387 24.5213C-5.69535 26.5285 -5.41652 28.7181 -4.60241 30.9162L24.405 20.1727C25.1225 22.1098 25.3646 24.0306 25.2937 25.7759L-5.61387 24.5213ZM-4.61338 30.8865C-1.43972 39.5095 8.05526 43.7554 16.4911 40.7137L5.99884 11.6144C13.3462 8.96519 21.6387 12.6562 24.416 20.2024L-4.61338 30.8865ZM16.4911 40.7137C24.9827 37.6519 29.5852 28.2178 26.3939 19.5121L-2.64925 30.1587C-5.44617 22.5288 -1.40428 14.2838 5.99884 11.6144L16.4911 40.7137ZM26.3574 19.4135C24.8311 15.336 21.7567 12.026 17.8028 10.2034L4.85348 38.2956C1.40262 36.7049 -1.28066 33.816 -2.61272 30.2573L26.3574 19.4135ZM17.8028 10.2034C13.8488 8.38079 9.33518 8.19302 5.24352 9.68092L15.8148 38.7516C12.2437 40.0502 8.30436 39.8863 4.85348 38.2956L17.8028 10.2034ZM5.31582 9.65483C4.46157 9.96067 3.82019 10.2756 3.57463 10.3979C3.46294 10.4536 3.34824 10.5128 3.38684 10.493C3.39012 10.4913 3.42087 10.4755 3.46152 10.455C3.50388 10.4336 3.56861 10.4012 3.6484 10.3623L17.1886 38.1745C17.3549 38.0936 17.4882 38.0249 17.5047 38.0164C17.5614 37.9874 17.4647 38.0372 17.3712 38.0838C17.162 38.1881 16.5576 38.4858 15.7425 38.7777L5.31582 9.65483ZM14.6126 9.38145C12.0639 8.66338 9.75189 8.63294 8.03244 8.7815L10.6953 39.5997C9.73658 39.6826 8.14861 39.6976 6.22431 39.1554L14.6126 9.38145ZM23.8787 18.8489L22.2102 14.3153L-6.81941 24.9987L-5.15096 29.5323L23.8787 18.8489ZM9.21763 35.0484C9.29247 35.041 9.3543 35.0344 9.37037 35.0327C9.40389 35.0291 9.37433 35.0323 9.35062 35.0347C9.31918 35.038 9.24609 35.0454 9.15064 35.0538C9.0554 35.0622 8.91158 35.0739 8.73509 35.0843L6.91864 4.20459C6.72162 4.21618 6.55659 4.2295 6.43972 4.23978C6.32264 4.25008 6.2275 4.25969 6.17383 4.26524C6.14583 4.26813 6.1226 4.27059 6.10903 4.27203C6.10213 4.27277 6.0961 4.27341 6.09274 4.27377C6.08821 4.27425 6.08805 4.27427 6.08708 4.27438C6.08079 4.27505 6.12033 4.27078 6.17317 4.26556L9.21763 35.0484ZM-7.62694 19.0172C-7.70857 21.0282 -7.42812 23.2103 -6.62192 25.3951L22.3984 14.6865C23.108 16.6093 23.3517 18.5226 23.2807 20.2717L-7.62694 19.0172ZM-6.59357 25.4713C-5.06544 29.5464 -1.99077 32.8538 1.9622 34.6746L14.9038 6.57888C18.3534 8.16785 21.0365 11.054 22.3701 14.6102L-6.59357 25.4713ZM1.9622 34.6746C5.91519 36.4954 10.4271 36.6826 14.5173 35.1955L3.94747 6.12432C7.51685 4.82655 11.4542 4.9899 14.9038 6.57888L1.9622 34.6746ZM14.3907 35.2409C16.4458 34.5139 18.3364 33.3869 19.9535 31.9249L-0.791301 8.97915C0.622994 7.70052 2.27662 6.71479 4.07406 6.07891L14.3907 35.2409ZM19.9535 31.9249C21.5704 30.4631 22.8818 28.6953 23.8117 26.7236L-4.16583 13.5284C-3.35251 11.804 -2.20557 10.2578 -0.791301 8.97915L19.9535 31.9249ZM23.8117 26.7236C24.7416 24.752 25.2716 22.6157 25.3711 20.4381L-5.52974 19.026C-5.4427 17.1214 -4.97914 15.2529 -4.16583 13.5284L23.8117 26.7236ZM25.3711 20.4381C25.4706 18.2606 25.1377 16.0848 24.3915 14.0365L-4.67293 24.625C-5.32559 22.8335 -5.61677 20.9305 -5.52974 19.026L25.3711 20.4381ZM24.3419 13.9023C22.8146 9.82775 19.7413 6.52048 15.7896 4.69893L2.84033 32.7911C-0.608333 31.2014 -3.29047 28.3151 -4.62332 24.7592L24.3419 13.9023ZM15.7896 4.69893C11.8379 2.87737 7.32708 2.68869 3.23707 4.17388L13.7951 33.2493C10.2257 34.5455 6.28903 34.3808 2.84033 32.7911L15.7896 4.69893ZM3.30275 4.1502C2.38188 4.47989 1.69484 4.82573 1.46962 4.93984C1.38883 4.98077 1.2429 5.0564 1.33339 5.00965C1.36106 4.99535 1.51045 4.91797 1.70668 4.82368L15.1041 32.7049C15.319 32.6017 15.4866 32.515 15.5324 32.4913C15.641 32.4352 15.5131 32.5014 15.4504 32.5332C15.2615 32.6289 14.6112 32.9573 13.7294 33.273L3.30275 4.1502ZM12.6061 3.87914C10.0139 3.14759 7.67237 3.13037 5.96583 3.2824L8.71061 34.0934C7.7745 34.1768 6.16666 34.2031 4.2047 33.6494L12.6061 3.87914ZM21.8526 13.345L20.2513 8.99506L-8.77742 19.6809L-7.17615 24.0308L21.8526 13.345ZM7.10206 29.7441C7.25133 29.7309 7.37022 29.7183 7.42295 29.7126C7.45041 29.7096 7.47359 29.7071 7.47851 29.7065C7.4894 29.7053 7.47825 29.7065 7.46656 29.7078C7.44357 29.7103 7.35222 29.7202 7.23214 29.7312C7.11104 29.7423 6.91665 29.7586 6.6757 29.7714L5.02827 -1.11774C4.7692 -1.10392 4.55614 -1.08619 4.41603 -1.07339C4.27695 -1.06067 4.16627 -1.04872 4.12382 -1.0441C4.11159 -1.04277 4.10135 -1.04165 4.09478 -1.04092C4.08915 -1.0403 4.08265 -1.03958 4.08263 -1.03958C4.07779 -1.03905 4.09121 -1.04054 4.10893 -1.04245C4.14217 -1.04603 4.24167 -1.05668 4.37185 -1.06821L7.10206 29.7441ZM-9.6057 13.8038C-9.67098 15.7331 -9.40451 17.8787 -8.60003 20.0623L20.4258 9.36858C21.1355 11.295 21.3662 13.1778 21.3097 14.8498L-9.6057 13.8038ZM-8.56881 20.1463C-7.0412 24.2197 -3.96831 27.5262 -0.0173791 29.3475L12.9326 1.2556C16.3802 2.84489 19.0616 5.73007 20.3946 9.28459L-8.56881 20.1463ZM-0.0173791 29.3475C3.93354 31.1688 8.44344 31.358 12.533 29.8739L1.98106 0.79623C5.54961 -0.498754 9.48497 -0.333691 12.9326 1.2556L-0.0173791 29.3475ZM12.4153 29.9161C14.4704 29.189 16.3611 28.062 17.9781 26.6001L-2.76667 3.65432C-1.35237 2.37569 0.301258 1.38996 2.0987 0.754076L12.4153 29.9161ZM17.9781 26.6001C19.5951 25.1382 20.9064 23.3704 21.8363 21.3988L-6.1412 8.20358C-5.32788 6.47911 -4.18094 4.93293 -2.76667 3.65432L17.9781 26.6001ZM21.8363 21.3988C22.7662 19.4271 23.2962 17.2908 23.3957 15.1133L-7.5051 13.7011C-7.41807 11.7966 -6.95453 9.92806 -6.1412 8.20358L21.8363 21.3988ZM23.3957 15.1133C23.4952 12.9357 23.1623 10.7599 22.4161 8.71169L-6.6483 19.3001C-7.30095 17.5087 -7.59214 15.6057 -7.5051 13.7011L23.3957 15.1133ZM22.369 8.58403C20.8427 4.50651 17.7683 1.19651 13.8143 -0.626082L0.865047 27.4661C-2.58581 25.8754 -5.26909 22.9865 -6.60116 19.4278L22.369 8.58403ZM13.8143 -0.626082C9.86039 -2.44868 5.34675 -2.63645 1.25509 -1.14856L11.8264 27.9221C8.2553 29.2207 4.31593 29.0568 0.865047 27.4661L13.8143 -0.626082ZM1.3077 -1.16758C0.498759 -0.876724 -0.119472 -0.579107 -0.437718 -0.419984C-0.595481 -0.341103 -0.71988 -0.275577 -0.753816 -0.257716C-0.831426 -0.216869 -0.745099 -0.262365 -0.699131 -0.2862L13.5399 27.1748C13.6054 27.1408 13.7112 27.085 13.6531 27.1155C13.6387 27.1231 13.5339 27.1784 13.3959 27.2474C13.1173 27.3867 12.5397 27.6657 11.7738 27.9411L1.3077 -1.16758ZM10.5214 -1.46863C8.03556 -2.15225 5.77154 -2.18883 4.04689 -2.03954L6.71459 28.7783C5.73813 28.8628 4.18654 28.8707 2.31933 28.3572L10.5214 -1.46863ZM19.895 8.02607L18.1178 3.19858L-10.9107 13.8852L-9.13349 18.7127L19.895 8.02607ZM4.87049 23.9564C5.03273 23.9431 5.16218 23.93 5.22536 23.9234C5.2585 23.92 5.28541 23.9171 5.2957 23.916C5.31625 23.9138 5.30007 23.9155 5.298 23.9157C5.2849 23.9171 5.20245 23.926 5.09424 23.9359C4.98402 23.946 4.80425 23.9612 4.58081 23.9738L2.84086 -6.91032C2.60027 -6.89676 2.40291 -6.88015 2.27487 -6.86844C2.14884 -6.8569 2.04833 -6.84618 2.0171 -6.84285C2.00597 -6.84166 1.98071 -6.83895 1.99219 -6.84018C1.99341 -6.84031 2.01125 -6.84223 2.03537 -6.84473C2.08048 -6.84941 2.19198 -6.86079 2.33659 -6.87268L4.87049 23.9564ZM-11.7537 8.28528C-11.7814 10.0226 -11.5402 12.0768 -10.7446 14.2386L18.2852 3.55564C18.9918 5.47581 19.1992 7.2835 19.1754 8.77817L-11.7537 8.28528ZM-10.7114 14.328C-9.18379 18.4015 -6.11087 21.7079 -2.15998 23.5292L10.79 -4.56272C14.2375 -2.97344 16.919 -0.088277 18.252 3.46628L-10.7114 14.328ZM-2.15998 23.5292C1.79091 25.3505 6.30081 25.5396 10.3904 24.0556L-0.16154 -5.02209C3.40705 -6.31708 7.34241 -6.15199 10.79 -4.56272L-2.15998 23.5292ZM10.2659 24.1002C12.3225 23.3737 14.2146 22.2467 15.8329 20.7843L-4.90644 -2.16635C-3.49096 -3.44544 -1.83592 -4.43123 -0.0370165 -5.06667L10.2659 24.1002ZM15.8329 20.7843C17.4512 19.322 18.7635 17.5533 19.6939 15.5806L-8.28361 2.38534C-7.4698 0.659831 -6.32195 -0.887228 -4.90644 -2.16635L15.8329 20.7843ZM19.6939 15.5806C20.6243 13.6078 21.1544 11.4702 21.2534 9.29132L-9.64772 7.88647C-9.56107 5.98062 -9.09743 4.11087 -8.28361 2.38534L19.6939 15.5806ZM21.2534 9.29132C21.3525 7.11244 21.0186 4.93554 20.271 2.88651L-8.7884 13.4887C-9.44229 11.6964 -9.73436 9.79231 -9.64772 7.88647L21.2534 9.29132ZM20.2264 2.76572C18.7001 -1.3118 15.6257 -4.6218 11.6717 -6.4444L-1.27755 21.6478C-4.72842 20.0571 -7.41169 17.1682 -8.74375 13.6095L20.2264 2.76572ZM11.6717 -6.4444C7.7178 -8.267 3.20415 -8.45477 -0.88751 -6.96687L9.68377 22.1038C6.1127 23.4024 2.17333 23.2385 -1.27755 21.6478L11.6717 -6.4444ZM-0.845327 -6.98214C-1.54828 -6.72882 -2.11114 -6.47029 -2.48864 -6.28519C-2.84053 -6.11264 -3.12287 -5.95739 -3.14991 -5.94267L11.6436 21.2236C11.6424 21.2243 11.6272 21.2325 11.606 21.244C11.5841 21.2558 11.5502 21.274 11.5082 21.2962C11.4255 21.3399 11.2942 21.4081 11.13 21.4887C10.8025 21.6492 10.2909 21.8851 9.64159 22.119L-0.845327 -6.98214ZM8.136 -7.32911C5.79754 -7.93665 3.66769 -7.97804 2.01825 -7.84546L4.4967 22.9882C3.55679 23.0637 2.10456 23.0639 0.357695 22.61L8.136 -7.32911ZM18.0372 3.0135C18.1555 3.39733 18.4403 4.39241 18.5488 5.78153C18.6401 6.94955 18.741 9.91142 17.1703 13.2802L-10.8651 0.208513C-12.4726 3.65612 -12.4018 6.76347 -12.2903 8.19128C-12.1614 9.84018 -11.8059 11.2094 -11.5222 12.1292L18.0372 3.0135ZM17.1365 13.3522C15.8165 16.1458 13.9323 17.9764 12.4377 19.0734C10.9954 20.1321 9.70945 20.6669 9.01878 20.9156L-1.45984 -8.18857C-3.35003 -7.50804 -8.19463 -5.44345 -10.8314 0.136579L17.1365 13.3522ZM9.02127 20.9147L11.0218 20.1941L0.538165 -8.90832L-1.46233 -8.18768L9.02127 20.9147ZM11.0178 20.1955L23.6917 15.6338L13.216 -13.4714L0.542096 -8.90974L11.0178 20.1955ZM23.6546 15.6471C22.2036 16.1652 20.6746 16.4311 19.1338 16.4332L19.0914 -14.4999C17.1016 -14.4971 15.1269 -14.1538 13.253 -13.4847L23.6546 15.6471ZM19.1126 16.4332C13.7419 16.4332 8.42523 13.1722 6.33066 7.48751L35.3561 -3.20714C32.7444 -10.2954 26.0358 -14.4999 19.1126 -14.4999L19.1126 16.4332ZM6.32866 7.48206L12.9846 25.5673L42.0141 14.8835L35.3582 -3.2017L6.32866 7.48206ZM12.9861 25.5715C11.6961 22.0694 11.9118 18.2741 13.4178 15.0391L41.461 28.0942C43.3653 24.0036 43.6245 19.2552 42.0125 14.8793L12.9861 25.5715ZM13.4385 14.9948C14.2057 13.3603 15.2909 11.8949 16.6306 10.6843L37.3699 33.635C39.0783 32.0913 40.4619 30.2227 41.4403 28.1385L13.4385 14.9948ZM16.6306 10.6843C17.9703 9.47366 19.5377 8.54204 21.2413 7.94379L31.4905 37.1296C33.6629 36.3667 35.6616 35.1787 37.3699 33.635L16.6306 10.6843ZM21.128 7.98407L8.45419 12.5457L18.9299 41.6509L31.6038 37.0893L21.128 7.98407ZM8.4545 12.5456L6.45352 13.2658L16.9286 42.3712L18.9296 41.6511L8.4545 12.5456Z" fill="#515151" mask="url(#path-1-inside-1_48_819)"/>
<mask id="path-3-inside-2_48_819" fill="white">
<path d="M17.4422 6.74146L9.1362 9.73133L10.418 13.2137L18.724 10.2234L17.4422 6.74146V6.74146ZM9.75825 10.0208L17.1542 7.35867L18.102 9.93336L10.7061 12.596L9.75825 10.0208"/>
</mask>
<path d="M17.4422 6.74146L9.1362 9.73133L10.418 13.2137L18.724 10.2234L17.4422 6.74146V6.74146ZM9.75825 10.0208L17.1542 7.35867L18.102 9.93336L10.7061 12.596L9.75825 10.0208" fill="black"/>
<path d="M9.1362 9.73133L5.69853 0.181299L-3.92016 3.64369L-0.388956 13.2373L9.1362 9.73133ZM10.418 13.2137L0.892833 16.7197L4.37399 26.1774L13.8562 22.7636L10.418 13.2137ZM18.724 10.2234L22.1622 19.7732L31.7806 16.3103L28.249 6.71693L18.724 10.2234ZM17.1542 7.35867L26.6792 3.85228L23.198 -5.60426L13.7166 -2.1914L17.1542 7.35867ZM18.102 9.93336L21.5401 19.4832L31.1586 16.0204L27.627 6.42697L18.102 9.93336ZM10.7061 12.596L1.18083 16.1018L4.66185 25.5597L14.1442 22.1459L10.7061 12.596ZM14.0045 -2.80858L5.69853 0.181299L12.5739 19.2814L20.8799 16.2915L14.0045 -2.80858ZM-0.388956 13.2373L0.892833 16.7197L19.9432 9.70772L18.6614 6.22533L-0.388956 13.2373ZM13.8562 22.7636L22.1622 19.7732L15.2858 0.673505L6.97982 3.66386L13.8562 22.7636ZM28.249 6.71693L26.9672 3.23503L7.91721 10.2479L9.199 13.7298L28.249 6.71693ZM13.1958 19.5709L20.5917 16.9087L13.7166 -2.1914L6.32067 0.470775L13.1958 19.5709ZM7.62914 10.8651L8.57694 13.4398L27.627 6.42697L26.6792 3.85228L7.62914 10.8651ZM14.6638 0.383492L7.26793 3.04615L14.1442 22.1459L21.5401 19.4832L14.6638 0.383492ZM20.2313 9.09021L19.2835 6.51503L0.233019 13.5267L1.18083 16.1018L20.2313 9.09021Z" fill="#8C031F" mask="url(#path-3-inside-2_48_819)"/>
<path d="M12.2234 11.356L12.2764 11.4944L11.6347 11.7404L11.5817 11.602L12.2234 11.356ZM11.1762 10.4441L11.6682 11.7275L11.4981 11.7927L11.0061 10.5093L11.1762 10.4441ZM12.8491 11.2951C12.7827 11.3205 12.7182 11.3324 12.6555 11.3308C12.5933 11.3284 12.5349 11.3141 12.4803 11.2878C12.4264 11.2613 12.3783 11.2238 12.3361 11.1753C12.2939 11.1268 12.26 11.069 12.2343 11.002L12.2201 10.965C12.1903 10.8874 12.1753 10.814 12.175 10.7447C12.1745 10.6748 12.1859 10.6111 12.209 10.5537C12.2322 10.4963 12.2645 10.4472 12.3062 10.4063C12.3478 10.3654 12.3953 10.3347 12.4488 10.3142C12.517 10.288 12.5802 10.2773 12.6386 10.2819C12.6976 10.2862 12.751 10.3035 12.799 10.3336C12.8467 10.3632 12.8891 10.4035 12.9263 10.4547C12.9632 10.5052 12.9945 10.564 13.0201 10.631L13.0482 10.7041L12.336 10.9772L12.2849 10.8441L12.8341 10.6336L12.8294 10.6212C12.8108 10.5798 12.7862 10.5421 12.7556 10.508C12.7256 10.4736 12.6895 10.4497 12.6472 10.4363C12.605 10.4228 12.556 10.4268 12.5002 10.4482C12.4631 10.4624 12.4321 10.4834 12.407 10.5112C12.3817 10.5384 12.3638 10.5715 12.3532 10.6107C12.3426 10.6498 12.3395 10.6937 12.3441 10.7425C12.3486 10.7913 12.362 10.8445 12.384 10.9021L12.3982 10.9392C12.4156 10.9844 12.4381 11.0246 12.4657 11.0599C12.4937 11.0943 12.5256 11.1219 12.5611 11.1426C12.5973 11.1631 12.636 11.1752 12.6772 11.179C12.719 11.1825 12.7622 11.1757 12.8069 11.1586C12.8645 11.1365 12.9087 11.1061 12.9397 11.0672C12.9706 11.0284 12.9935 10.9836 13.0084 10.9327L13.1372 10.9733C13.1286 11.0123 13.1138 11.052 13.0929 11.0924C13.072 11.1328 13.0417 11.1707 13.002 11.2061C12.9629 11.2413 12.912 11.271 12.8491 11.2951ZM13.934 10.6466L13.4859 9.47782L13.6499 9.41497L14.1689 10.7689L14.0191 10.8263L13.934 10.6466ZM13.1845 10.6114L13.1774 10.5929C13.1495 10.5201 13.133 10.4506 13.1278 10.3845C13.1231 10.3175 13.1289 10.2563 13.1454 10.2008C13.1624 10.1451 13.1895 10.097 13.2265 10.0565C13.2639 10.0152 13.3112 9.9836 13.3682 9.96175C13.4281 9.93877 13.4844 9.9293 13.5372 9.93333C13.5903 9.93655 13.6401 9.95217 13.6866 9.98019C13.7334 10.0074 13.7767 10.0454 13.8163 10.0943C13.8559 10.1431 13.8927 10.2014 13.9268 10.2693L13.9579 10.3503C13.9783 10.4228 13.9897 10.4905 13.9923 10.5535C13.9955 10.6163 13.9888 10.6735 13.9721 10.725C13.9561 10.7763 13.9295 10.8212 13.8924 10.8597C13.855 10.8977 13.806 10.9282 13.7455 10.9514C13.6897 10.9728 13.6339 10.9804 13.5783 10.9741C13.5232 10.9675 13.4706 10.949 13.4204 10.9183C13.3709 10.8874 13.3257 10.8461 13.285 10.7943C13.2446 10.7418 13.2111 10.6808 13.1845 10.6114ZM13.3414 10.5301L13.3485 10.5486C13.3667 10.5962 13.3885 10.639 13.4139 10.6772C13.4399 10.7151 13.4693 10.7459 13.502 10.7698C13.5347 10.7936 13.5705 10.8086 13.6092 10.8146C13.6477 10.8201 13.6889 10.8144 13.733 10.7975C13.7871 10.7768 13.827 10.7483 13.8529 10.7121C13.8794 10.6756 13.896 10.6346 13.9027 10.5889C13.9095 10.5431 13.9103 10.496 13.9051 10.4474L13.8237 10.235C13.8043 10.2054 13.782 10.1782 13.757 10.1534C13.7324 10.1278 13.705 10.1073 13.6748 10.0919C13.645 10.0757 13.6121 10.0664 13.5762 10.064C13.5408 10.0614 13.5025 10.0679 13.4614 10.0837C13.4168 10.1008 13.3819 10.125 13.3568 10.1562C13.332 10.1866 13.3155 10.2219 13.3074 10.2621C13.299 10.3017 13.2979 10.3446 13.3041 10.3907C13.3107 10.436 13.3231 10.4825 13.3414 10.5301ZM14.6751 9.48097L14.8231 9.4242L15.181 10.3577C15.2132 10.4417 15.2236 10.5199 15.2123 10.5923C15.201 10.6647 15.1706 10.7279 15.1212 10.7819C15.0726 10.8363 15.0087 10.8787 14.9293 10.9091C14.8964 10.9217 14.8556 10.9313 14.8069 10.9378C14.759 10.9447 14.7089 10.9441 14.6565 10.9358C14.605 10.9279 14.5569 10.909 14.5123 10.8789L14.5607 10.7491C14.6191 10.782 14.6737 10.7995 14.7244 10.8016C14.7756 10.8035 14.8227 10.7963 14.8656 10.7798C14.9173 10.76 14.9583 10.7332 14.9885 10.6994C15.0186 10.6656 15.0367 10.6256 15.0426 10.5795C15.0493 10.5338 15.0421 10.4833 15.021 10.4281L14.7405 9.6965L14.6751 9.48097ZM14.2052 10.2201L14.1981 10.2016C14.1702 10.1288 14.1534 10.0594 14.1477 9.99351C14.1423 9.92682 14.1476 9.86582 14.1635 9.81054C14.1799 9.75502 14.207 9.70691 14.2446 9.6662C14.282 9.62489 14.3298 9.59309 14.388 9.57079C14.4479 9.54781 14.5043 9.53834 14.5571 9.54238C14.6102 9.5456 14.66 9.56122 14.7064 9.58924C14.7533 9.61645 14.7965 9.65447 14.8361 9.70331C14.8757 9.75215 14.9126 9.81048 14.9467 9.8783L14.9778 9.95939C14.9981 10.0318 15.0096 10.0995 15.0122 10.1625C15.0153 10.2254 15.0086 10.2825 14.992 10.3341C14.9759 10.3854 14.9493 10.4303 14.9122 10.4688C14.8748 10.5067 14.8259 10.5373 14.7654 10.5605C14.7084 10.5823 14.652 10.5901 14.5964 10.5838C14.5413 10.5773 14.489 10.5586 14.4394 10.5277C14.3898 10.4968 14.345 10.4554 14.3048 10.4034C14.265 10.3506 14.2318 10.2895 14.2052 10.2201ZM14.3612 10.1391L14.3683 10.1576C14.3865 10.2052 14.4084 10.2481 14.4338 10.2862C14.4597 10.3241 14.4888 10.3551 14.521 10.3792C14.5537 10.403 14.5894 10.418 14.6281 10.424C14.6666 10.4295 14.7079 10.4238 14.752 10.4069C14.806 10.3861 14.8463 10.3576 14.8728 10.3211C14.8992 10.2847 14.9156 10.2437 14.9217 10.1982C14.9284 10.1525 14.9292 10.1054 14.9241 10.0568L14.8427 9.84436C14.8238 9.81452 14.8019 9.7872 14.7769 9.76241C14.7522 9.73681 14.7248 9.71632 14.6947 9.70092C14.6649 9.68471 14.632 9.67541 14.596 9.67302C14.5601 9.67063 14.5215 9.67732 14.4804 9.69309C14.4357 9.71021 14.4008 9.73437 14.3757 9.76556C14.351 9.79595 14.3345 9.83124 14.3263 9.87144C14.3185 9.91083 14.3177 9.9536 14.3239 9.99974C14.3305 10.0451 14.343 10.0915 14.3612 10.1391ZM15.839 10.1489C15.7726 10.1743 15.7081 10.1863 15.6454 10.1847C15.5832 10.1822 15.5248 10.1679 15.4702 10.1416C15.4162 10.1151 15.3682 10.0776 15.326 10.0291C15.2838 9.98058 15.2498 9.92282 15.2242 9.85583L15.21 9.81881C15.1802 9.74124 15.1652 9.6678 15.1649 9.59849C15.1644 9.52859 15.1758 9.46494 15.1989 9.40753C15.2221 9.35013 15.2544 9.30098 15.2961 9.26009C15.3377 9.2192 15.3852 9.18851 15.4387 9.16801C15.5069 9.14188 15.5701 9.1311 15.6285 9.13569C15.6875 9.14004 15.7409 9.1573 15.7889 9.18744C15.8366 9.217 15.879 9.25735 15.9161 9.30849C15.953 9.35905 15.9843 9.41782 16.01 9.48481L16.0381 9.55797L15.3259 9.831L15.2748 9.6979L15.824 9.48739L15.8192 9.47505C15.8007 9.43364 15.7761 9.39588 15.7455 9.36178C15.7155 9.32745 15.6794 9.30355 15.6371 9.29009C15.5949 9.27662 15.5459 9.28059 15.49 9.30199C15.453 9.31618 15.422 9.33718 15.3969 9.36499C15.3716 9.3922 15.3537 9.42537 15.3431 9.46449C15.3325 9.50361 15.3294 9.54757 15.334 9.59637C15.3385 9.64517 15.3518 9.69837 15.3739 9.75596L15.3881 9.79298C15.4055 9.83823 15.428 9.87846 15.4556 9.91369C15.4836 9.94811 15.5154 9.97568 15.551 9.99642C15.5872 10.0169 15.6259 10.0291 15.6671 10.0328C15.7089 10.0363 15.7521 10.0295 15.7968 10.0124C15.8543 9.99034 15.8986 9.95989 15.9296 9.92106C15.9605 9.88224 15.9834 9.8374 15.9983 9.78654L16.1271 9.82714C16.1185 9.86617 16.1037 9.90587 16.0828 9.94624C16.0619 9.98661 16.0316 10.0245 15.9919 10.0599C15.9528 10.0951 15.9018 10.1248 15.839 10.1489ZM16.2486 9.04962L16.5568 9.8535L16.3937 9.91602L16.0281 8.96228L16.1867 8.90146L16.2486 9.04962ZM16.4871 8.78027L16.5443 8.93222C16.5297 8.93446 16.5161 8.93765 16.5035 8.9418C16.4913 8.94513 16.4775 8.94972 16.4623 8.95558C16.4247 8.97 16.3937 8.9886 16.3694 9.01139C16.3451 9.03418 16.327 9.05998 16.3152 9.0888C16.3033 9.11761 16.2971 9.14896 16.2966 9.18285C16.2965 9.21592 16.3013 9.25047 16.3111 9.28649L16.2754 9.33051C16.2533 9.27292 16.2382 9.21672 16.23 9.1619C16.2224 9.10686 16.2232 9.05533 16.2324 9.00731C16.2414 8.9587 16.2602 8.91643 16.2889 8.8805C16.318 8.84375 16.3583 8.81546 16.41 8.79564C16.4218 8.79113 16.4359 8.78742 16.4523 8.7845C16.4685 8.781 16.4801 8.77959 16.4871 8.78027Z" fill="#8C031F"/>
</svg>
