<svg width="30" height="30" viewBox="0 0 30 30" fill="none" xmlns="http://www.w3.org/2000/svg">
<path d="M12 23C12 24.1 11.1 25 10 25C8.9 25 8 24.1 8 23C8 21.9 8.9 21 10 21C11.1 21 12 21.9 12 23ZM20 21C18.9 21 18 21.9 18 23C18 24.1 18.9 25 20 25C21.1 25 22 24.1 22 23C22 21.9 21.1 21 20 21ZM10.2 17.8V17.7L11.1 16H18.5C19.2 16 19.9 15.6 20.2 15L24.1 8L22.4 7L18.5 14H11.5L7.3 5H4V7H6L9.6 14.6L8.2 17C8.1 17.3 8 17.6 8 18C8 19.1 8.9 20 10 20H22V18H10.4C10.3 18 10.2 17.9 10.2 17.8Z" fill="#515151"/>
<path d="M10.5 8L12 6.5L14.5 9L19.5 4L21 5.5L14.5 12L10.5 8Z" fill="#8C031F"/>
</svg>
