<svg width="29" height="29" viewBox="0 0 29 29" fill="none" xmlns="http://www.w3.org/2000/svg">
<rect width="29" height="29" fill="white"/>
<path d="M3.51815e-07 3.55883C3.51815e-07 2.88018 0.26959 2.22934 0.749462 1.74946C1.22933 1.26959 1.88018 1 2.55882 1H24.7353C25.3396 0.999103 25.9247 1.2121 26.387 1.60126C26.8493 1.99042 27.1589 2.53064 27.2611 3.12623C27.3633 3.72183 27.2513 4.33436 26.9452 4.85534C26.639 5.37631 26.1583 5.77212 25.5882 5.97265V16.3529H23.8824V6.11765H3.41177V23.1765H5.11765V17.2059C5.11765 16.9797 5.20751 16.7627 5.36747 16.6028C5.52743 16.4428 5.74437 16.3529 5.97059 16.3529H12.7941C12.9583 16.3528 13.119 16.4001 13.257 16.489C13.395 16.578 13.5044 16.7049 13.572 16.8545C13.0737 17.1593 12.662 17.587 12.3764 18.0966C12.0908 18.6061 11.941 19.1806 11.9412 19.7647V18.0588H6.82353V23.1765H11.9412V24.8824H2.55882C2.33261 24.8824 2.11566 24.7925 1.9557 24.6325C1.79575 24.4726 1.70588 24.2556 1.70588 24.0294V5.97265C1.20678 5.79619 0.77469 5.46927 0.469166 5.03696C0.163642 4.60464 -0.000277172 4.08821 3.51815e-07 3.55883ZM2.55882 2.70589C2.33261 2.70589 2.11566 2.79575 1.9557 2.95571C1.79575 3.11566 1.70588 3.33261 1.70588 3.55883C1.70588 3.78504 1.79575 4.00199 1.9557 4.16195C2.11566 4.3219 2.33261 4.41177 2.55882 4.41177H24.7353C24.9615 4.41177 25.1785 4.3219 25.3384 4.16195C25.4984 4.00199 25.5882 3.78504 25.5882 3.55883C25.5882 3.33261 25.4984 3.11566 25.3384 2.95571C25.1785 2.79575 24.9615 2.70589 24.7353 2.70589H2.55882ZM5.97059 7.82353C5.74437 7.82353 5.52743 7.91339 5.36747 8.07335C5.20751 8.23331 5.11765 8.45026 5.11765 8.67647V13.7941C5.11765 14.0203 5.20751 14.2373 5.36747 14.3972C5.52743 14.5572 5.74437 14.6471 5.97059 14.6471H21.3235C21.5497 14.6471 21.7667 14.5572 21.9266 14.3972C22.0866 14.2373 22.1765 14.0203 22.1765 13.7941V8.67647C22.1765 8.45026 22.0866 8.23331 21.9266 8.07335C21.7667 7.91339 21.5497 7.82353 21.3235 7.82353H5.97059ZM6.82353 12.9412V9.52941H20.4706V12.9412H6.82353ZM29 20.6176V25.7353C29 26.4139 28.7304 27.0648 28.2505 27.5447C27.7707 28.0245 27.1198 28.2941 26.4412 28.2941H16.2059C15.5272 28.2941 14.8764 28.0245 14.3965 27.5447C13.9166 27.0648 13.6471 26.4139 13.6471 25.7353V20.6176C13.6471 19.939 13.9166 19.2882 14.3965 18.8083C14.8764 18.3284 15.5272 18.0588 16.2059 18.0588H26.4412C27.1198 18.0588 27.7707 18.3284 28.2505 18.8083C28.7304 19.2882 29 19.939 29 20.6176ZM26.4412 26.5882C26.4412 26.362 26.531 26.1451 26.691 25.9851C26.851 25.8252 27.0679 25.7353 27.2941 25.7353V24.0294C26.6155 24.0294 25.9646 24.299 25.4848 24.7789C25.0049 25.2587 24.7353 25.9096 24.7353 26.5882H26.4412ZM27.2941 20.6176C27.0679 20.6176 26.851 20.5278 26.691 20.3678C26.531 20.2079 26.4412 19.9909 26.4412 19.7647H24.7353C24.7353 20.4434 25.0049 21.0942 25.4848 21.5741C25.9646 22.0539 26.6155 22.3235 27.2941 22.3235V20.6176ZM16.2059 19.7647C16.2059 19.9909 16.116 20.2079 15.9561 20.3678C15.7961 20.5278 15.5792 20.6176 15.3529 20.6176V22.3235C16.0316 22.3235 16.6824 22.0539 17.1623 21.5741C17.6422 21.0942 17.9118 20.4434 17.9118 19.7647H16.2059ZM15.3529 25.7353C15.5792 25.7353 15.7961 25.8252 15.9561 25.9851C16.116 26.1451 16.2059 26.362 16.2059 26.5882H17.9118C17.9118 25.9096 17.6422 25.2587 17.1623 24.7789C16.6824 24.299 16.0316 24.0294 15.3529 24.0294V25.7353ZM21.3235 20.6176C20.6449 20.6176 19.994 20.8872 19.5142 21.3671C19.0343 21.847 18.7647 22.4978 18.7647 23.1765C18.7647 23.8551 19.0343 24.506 19.5142 24.9858C19.994 25.4657 20.6449 25.7353 21.3235 25.7353C22.0022 25.7353 22.653 25.4657 23.1329 24.9858C23.6128 24.506 23.8824 23.8551 23.8824 23.1765C23.8824 22.4978 23.6128 21.847 23.1329 21.3671C22.653 20.8872 22.0022 20.6176 21.3235 20.6176Z" fill="#515151"/>
<mask id="path-2-inside-1_48_805" fill="white">
<rect x="5" y="7" width="18" height="8" rx="1"/>
</mask>
<rect x="5" y="7" width="18" height="8" rx="1" fill="white" stroke="#8C031F" stroke-width="4" mask="url(#path-2-inside-1_48_805)"/>
</svg>
