<svg width="29" height="29" viewBox="0 0 29 29" fill="none" xmlns="http://www.w3.org/2000/svg">
<rect width="29" height="29" fill="white"/>
<path d="M28 21.75V19.6786H25.8296C25.674 18.7565 25.3104 17.8818 24.7662 17.1204L26.3011 15.5875L24.8327 14.123L23.2968 15.6548C22.5332 15.1115 21.6557 14.7485 20.7308 14.5932V12.4286H18.6538V14.5932C17.7293 14.7484 16.8522 15.111 16.0888 15.6538L14.5519 14.123L13.0835 15.5875L14.6194 17.1193C14.0748 17.881 13.7109 18.7561 13.555 19.6786H11.3846V21.75H13.555C13.7107 22.672 14.0743 23.5468 14.6184 24.3082L13.0835 25.8411L14.5519 27.3056L16.0878 25.7738C16.8514 26.317 17.7289 26.6801 18.6538 26.8354V29H20.7308V26.8354C21.6553 26.6802 22.5324 26.3176 23.2958 25.7748L24.8327 27.3056L26.3011 25.8411L24.7652 24.3093C25.3099 23.5476 25.6738 22.6725 25.8296 21.75H28ZM19.6923 24.8571C18.8708 24.8571 18.0676 24.6142 17.3846 24.1589C16.7015 23.7037 16.169 23.0567 15.8547 22.2997C15.5403 21.5427 15.458 20.7097 15.6183 19.9061C15.7786 19.1024 16.1742 18.3642 16.7551 17.7848C17.336 17.2055 18.0762 16.8109 18.8819 16.651C19.6877 16.4912 20.5229 16.5732 21.2819 16.8868C22.0409 17.2003 22.6897 17.7314 23.1461 18.4126C23.6025 19.0939 23.8462 19.8949 23.8462 20.7143C23.8448 21.8126 23.4067 22.8656 22.628 23.6422C21.8493 24.4189 20.7936 24.8558 19.6923 24.8571Z" fill="#8C031F"/>
<path d="M25.9231 4.14286C25.9231 3.59348 25.7043 3.0666 25.3148 2.67814C24.9253 2.28967 24.397 2.07143 23.8462 2.07143H19.6923V0H17.6154V2.07143H9.30769V0H7.23077V2.07143H3.07692C2.52609 2.07143 1.99782 2.28967 1.60832 2.67814C1.21882 3.0666 1 3.59348 1 4.14286V24.8571C1 25.4065 1.21882 25.9334 1.60832 26.3219C1.99782 26.7103 2.52609 26.9286 3.07692 26.9286H7.23077V24.8571H3.07692V4.14286H7.23077V6.21429H9.30769V4.14286H17.6154V6.21429H19.6923V4.14286H23.8462V10.3571H25.9231V4.14286Z" fill="#515151"/>
</svg>
