<svg width="29" height="29" viewBox="0 0 29 29" fill="none" xmlns="http://www.w3.org/2000/svg">
<rect width="29" height="29" fill="white"/>
<path d="M0 24.7143H3.10714C3.10714 23.8902 2.77978 23.0999 2.19708 22.5172C1.61438 21.9345 0.824066 21.6071 0 21.6071V24.7143Z" fill="#8C031F"/>
<path d="M7.25 24.7143H5.17857C5.17693 23.3414 4.6308 22.0251 3.65999 21.0543C2.68917 20.0835 1.37294 19.5374 0 19.5357V17.4643C1.92215 17.4665 3.76494 18.231 5.1241 19.5902C6.48327 20.9494 7.24781 22.7921 7.25 24.7143Z" fill="#8C031F"/>
<path d="M11.3929 24.7143H9.32143C9.31869 22.2429 8.33573 19.8736 6.58822 18.1261C4.8407 16.3785 2.47136 15.3956 0 15.3928V13.3214C3.02056 13.3247 5.91647 14.5261 8.05233 16.6619C10.1882 18.7978 11.3896 21.6937 11.3929 24.7143V24.7143Z" fill="#8C031F"/>
<path d="M26.9286 24.7143H13.4643V22.6429H26.9286V6.07143H2.07143V11.25H0V6.07143C0.000548387 5.52222 0.218964 4.99566 0.607313 4.60731C0.995662 4.21896 1.52222 4.00055 2.07143 4H26.9286C27.4778 4.00055 28.0043 4.21896 28.3927 4.60731C28.781 4.99566 28.9995 5.52222 29 6.07143V22.6429C28.9995 23.1921 28.781 23.7186 28.3927 24.107C28.0043 24.4953 27.4778 24.7137 26.9286 24.7143V24.7143Z" fill="#515151"/>
</svg>
