<svg width="29" height="29" viewBox="0 0 29 29" fill="none" xmlns="http://www.w3.org/2000/svg">
<rect width="29" height="29" fill="white"/>
<path d="M2.7619 12.7059C2.7619 16.4529 5.19238 19.5424 8.39619 20.2153L6.33857 17.9365L8.28571 15.7647L13.8095 21.8976L8.28571 28L6.33857 25.8435L8.52048 23.4271V23.3353C6.17287 23.0225 4.00993 21.7685 2.44013 19.8101C0.870321 17.8518 0.00230485 15.3246 0 12.7059C0 6.78706 4.32238 2 9.66667 2H13.8095V5.05882H9.66667C5.85524 5.05882 2.7619 8.48471 2.7619 12.7059ZM29 12.7059V2H16.5714V12.7059H29ZM26.2381 9.64706H19.3333V5.05882H26.2381V9.64706ZM16.5714 15.7647H29V26.4706H16.5714V15.7647Z" fill="black"/>
<rect x="16.5714" y="15.7647" width="12.4286" height="10.7059" fill="#8C031F"/>
</svg>
