<svg width="16" height="16" viewBox="0 0 16 16" fill="none" xmlns="http://www.w3.org/2000/svg">
<g clip-path="url(#clip0_1015_12065)">
<path d="M15.9112 0.826758C15.6432 0.277532 15.2107 -0.000265137 14.5949 1.89881e-07C10.288 0.00176903 5.98094 0.00176903 1.6737 1.89881e-07C1.50734 1.89881e-07 1.34151 0.0021228 1.17516 0.0132665C0.621428 0.0509429 0.0528417 0.61715 0.0154312 1.16823C0.00375704 1.3399 0.00189993 1.51104 0.00189993 1.68244C0.00189993 4.11177 0.00110365 6.5411 -0.000488281 8.97043C-0.000488281 9.47243 0.18736 9.86697 0.594895 10.1575C0.867912 10.3523 1.1786 10.4247 1.50813 10.426C2.16348 10.4287 2.81883 10.426 3.47417 10.426C4.82679 10.426 6.17931 10.426 7.53175 10.426C7.705 10.426 7.70899 10.4324 7.67184 10.5685C7.52697 11.1066 7.44738 11.6486 7.52114 12.2061C7.75807 13.9737 8.72092 15.1637 10.3768 15.8042C10.6795 15.9212 10.9969 15.9687 11.3174 16H11.5047C11.5256 15.9581 11.5463 15.9644 11.5673 16H12.0353C12.0563 15.9629 12.077 15.9568 12.0979 16H12.1916C12.1984 15.9921 12.2078 15.987 12.2181 15.9857C12.7798 15.9883 13.293 15.7999 13.7743 15.542C14.679 15.0576 15.3343 14.3353 15.7257 13.3794C15.8723 13.0198 15.9649 12.6405 16.0003 12.2539V12.0978C15.9568 12.0769 15.9629 12.0562 16.0003 12.0352V11.5672C15.9999 11.6 15.9943 11.6273 15.9999 11.6C15.9962 11.5735 15.9999 11.6 16.0003 11.4422V11.3172C15.9369 11.2363 15.9472 11.1363 15.9308 11.0437C15.8699 10.7082 15.7691 10.3811 15.6307 10.0694C15.6119 10.0275 15.5692 9.98318 15.6217 9.92879C15.8369 9.70618 15.9342 9.42626 16.0003 9.13281V1.26481C15.9682 1.11941 15.9791 0.966586 15.9112 0.826758ZM14.12 0.962606L9.90665 4.14467C9.30525 4.59873 8.70447 5.05341 8.10431 5.50871C8.03905 5.5586 7.99819 5.57425 7.92071 5.51561C5.93716 4.01209 3.95193 2.51132 1.96502 1.01328C1.94937 1.00161 1.93504 0.98675 1.90532 0.962606H14.12ZM8.11387 9.44696C5.91877 9.44324 3.72375 9.44227 1.52883 9.44404C1.12236 9.44404 0.953611 9.2745 0.953611 8.86563V1.42215L2.94194 2.9239C4.50911 4.10797 6.07654 5.29194 7.64425 6.47583C7.92045 6.68464 8.09715 6.68438 8.37441 6.47583L14.8679 1.571C14.925 1.52775 14.982 1.4853 15.0489 1.43515V9.08107C14.9812 9.07152 14.9618 9.02403 14.9327 8.99139C14.3474 8.33869 13.6326 7.89639 12.7785 7.69527C11.6748 7.43525 10.6246 7.58145 9.64106 8.15986C9.13612 8.45327 8.69851 8.84957 8.35664 9.32305C8.33116 9.36373 8.29513 9.39674 8.25238 9.41856C8.20963 9.44038 8.16175 9.4502 8.11387 9.44696ZM11.7753 15.0631C9.95441 15.0544 8.46807 13.5725 8.47736 11.7755C8.48691 9.97124 9.9812 8.49921 11.7955 8.50797C13.5981 8.51672 15.0653 9.98929 15.0632 11.7879C15.0621 13.5935 13.5766 15.0719 11.7753 15.0631Z" fill="#A1A1A1"/>
<path d="M16.0003 11.5038V11.4414C15.9812 11.4584 15.9846 11.4812 15.9841 11.503L16.0003 11.5038Z" fill="#A1A1A1"/>
<path d="M15.9836 11.5127V11.5039H15.974C15.976 11.508 15.9794 11.5111 15.9836 11.5127Z" fill="#A1A1A1"/>
<path d="M11.5049 15.9991H11.5675C11.5637 15.9945 11.5589 15.9908 11.5535 15.9882C11.5481 15.9857 11.5422 15.9844 11.5362 15.9844C11.5302 15.9844 11.5243 15.9857 11.5189 15.9882C11.5135 15.9908 11.5087 15.9945 11.5049 15.9991Z" fill="#A1A1A1"/>
<path d="M12.0356 15.9991H12.0982C12.0944 15.9945 12.0896 15.9908 12.0842 15.9882C12.0788 15.9857 12.0729 15.9844 12.0669 15.9844C12.0609 15.9844 12.055 15.9857 12.0496 15.9882C12.0442 15.9908 12.0394 15.9945 12.0356 15.9991Z" fill="#A1A1A1"/>
<path d="M13.9092 10.454C13.7068 10.3248 13.4847 10.3625 13.2783 10.5657C12.6524 11.1821 12.0257 11.7974 11.4049 12.4188C11.316 12.5076 11.2698 12.5191 11.1769 12.4222C10.8676 12.0998 10.5495 11.7854 10.2297 11.4731C10.0193 11.2678 9.73784 11.2659 9.54919 11.458C9.36055 11.6501 9.36347 11.9239 9.56405 12.1272C10.0197 12.5901 10.4791 13.0494 10.9421 13.5053C11.1517 13.712 11.4141 13.7175 11.6224 13.5143C12.4101 12.7438 13.1946 11.9701 13.9761 11.1932C14.0237 11.1488 14.0616 11.0951 14.0875 11.0354C14.1134 10.9757 14.1267 10.9113 14.1265 10.8462C14.1252 10.768 14.1046 10.6914 14.0668 10.623C14.0289 10.5546 13.9748 10.4966 13.9092 10.454Z" fill="#A1A1A1"/>
</g>
<defs>
<clipPath id="clip0_1015_12065">
<rect width="16" height="16" fill="white"/>
</clipPath>
</defs>
</svg>
