<svg width="24" height="18" viewBox="0 0 24 18" fill="none" xmlns="http://www.w3.org/2000/svg">
<path d="M22.8828 7.23688C22.732 7.0278 22.5336 6.8576 22.304 6.74034C22.0745 6.62308 21.8203 6.56212 21.5625 6.5625H19.9375V4.9375C19.9375 4.50652 19.7663 4.0932 19.4615 3.78845C19.1568 3.48371 18.7435 3.3125 18.3125 3.3125H11.2712L8.45484 1.2C8.17309 0.989951 7.83128 0.876016 7.47984 0.875H2.0625C1.63152 0.875 1.2182 1.0462 0.913451 1.35095C0.608705 1.6557 0.4375 2.06902 0.4375 2.5V17.125C0.4375 17.3405 0.523102 17.5472 0.675476 17.6995C0.827849 17.8519 1.03451 17.9375 1.25 17.9375H19.4398C19.6104 17.9375 19.7766 17.8839 19.9149 17.7842C20.0533 17.6844 20.1568 17.5437 20.2107 17.382L23.1042 8.70141C23.1856 8.45715 23.2079 8.1971 23.1695 7.94254C23.131 7.68798 23.0327 7.44616 22.8828 7.23688ZM7.47984 2.5L10.2962 4.6125C10.5779 4.82268 10.9197 4.93663 11.2712 4.9375H18.3125V6.5625H12.8718C12.5508 6.56249 12.237 6.65755 11.9699 6.8357L9.93867 8.1875H5.05047C4.72541 8.1866 4.4076 8.28358 4.13842 8.46581C3.86925 8.64804 3.66116 8.90708 3.54125 9.20922L2.0625 12.9061V2.5H7.47984Z" fill="#922230"/>
</svg>
