<svg width="29" height="29" viewBox="0 0 29 29" fill="none" xmlns="http://www.w3.org/2000/svg">
<rect width="29" height="29" fill="white"/>
<path d="M4.14286 23.5H24.8571V5.5H4.14286V23.5ZM8.28571 10H20.7143V19H8.28571V10ZM2.07143 10H0V2.125L1.03571 1H8.28571V3.25H2.07143V10ZM29 2.125V10H26.9286V3.25H20.7143V1H27.9643L29 2.125ZM26.9286 19H29V26.875L27.9643 28H20.7143V25.75H26.9286V19ZM2.07143 25.75H8.28571V28H1.03571L0 26.875V19H2.07143V25.75Z" fill="#515151"/>
<rect x="6.5" y="7.5" width="16" height="14" stroke="#8C031F" stroke-width="5"/>
</svg>
