<svg width="29" height="29" viewBox="0 0 29 29" fill="none" xmlns="http://www.w3.org/2000/svg">
<rect width="29" height="29" fill="white"/>
<path d="M22.7857 19.6786H24.8571V24.8571H22.7857V19.6786Z" fill="#8C031F"/>
<path d="M18.6429 14.5H20.7143V24.8571H18.6429V14.5Z" fill="#8C031F"/>
<path d="M9.32142 24.8571C7.94849 24.8555 6.63225 24.3094 5.66144 23.3386C4.69062 22.3677 4.1445 21.0515 4.14285 19.6786H6.21428C6.21428 20.2931 6.39651 20.8938 6.73793 21.4048C7.07935 21.9158 7.56462 22.314 8.13237 22.5492C8.70013 22.7844 9.32487 22.8459 9.9276 22.726C10.5303 22.6061 11.084 22.3102 11.5185 21.8757C11.953 21.4411 12.249 20.8875 12.3689 20.2847C12.4888 19.682 12.4272 19.0573 12.192 18.4895C11.9569 17.9218 11.5586 17.4365 11.0477 17.0951C10.5367 16.7537 9.93596 16.5714 9.32142 16.5714V14.5C10.6949 14.5 12.0121 15.0456 12.9832 16.0168C13.9544 16.9879 14.5 18.3051 14.5 19.6786C14.5 21.052 13.9544 22.3692 12.9832 23.3404C12.0121 24.3115 10.6949 24.8571 9.32142 24.8571Z" fill="#8C031F"/>
<path d="M26.9286 0H2.07143C1.52222 0.000548387 0.995662 0.218964 0.607313 0.607313C0.218964 0.995662 0.000548387 1.52222 0 2.07143V26.9286C0.000548387 27.4778 0.218964 28.0043 0.607313 28.3927C0.995662 28.781 1.52222 28.9995 2.07143 29H26.9286C27.4777 28.9992 28.0041 28.7807 28.3924 28.3924C28.7807 28.0041 28.9992 27.4777 29 26.9286V2.07143C28.9995 1.52222 28.781 0.995662 28.3927 0.607313C28.0043 0.218964 27.4778 0.000548387 26.9286 0ZM26.9286 9.32143H12.4286V2.07143H26.9286V9.32143ZM10.3571 2.07143V9.32143H2.07143V2.07143H10.3571ZM2.07143 26.9286V11.3929H26.9286L26.9306 26.9286H2.07143Z" fill="#515151"/>
</svg>
