<svg xmlns="http://www.w3.org/2000/svg" width="36" height="36" fill="none" viewBox="0 0 36 36">
    <path fill="#8D0528" fill-rule="evenodd" d="M22.98 5.917c0-.111-.091-.203-.203-.203-.097 0-.177.069-.198.158-.04.026-.16.072-.35.072-.19 0-.31-.046-.35-.072-.019-.09-.101-.158-.198-.158-.111 0-.203.092-.203.203 0 .256.308.434.751.434s.75-.178.75-.434zM21.584 4.941c0-.054-.023-.105-.06-.143-.075-.076-.211-.076-.286 0-.039.038-.06.089-.06.143 0 .054.021.105.06.144.036.038.089.06.143.06.054 0 .105-.022.144-.06.036-.039.06-.09.06-.144zM23.078 5.144c.054 0 .105-.023.143-.06.039-.038.06-.088.06-.143 0-.054-.023-.105-.06-.143-.075-.076-.211-.076-.287 0-.038.038-.059.09-.059.143 0 .055.021.105.06.144.036.036.089.06.143.06zM18.82 10.894c-.08-.017-.167.016-.215.09-.059.096-.031.22.063.281.029.018.081.042.154.042.065 0 .144-.019.236-.084.09-.061.177-.16.25-.271.193-.306.197-.593.01-.712-.095-.06-.221-.032-.28.063-.047.073-.04.166.01.233-.005.037-.028.112-.084.199-.054.088-.112.138-.143.16zM18.72 10.043c.054 0 .106-.023.143-.06.038-.038.061-.088.061-.143 0-.054-.023-.105-.061-.143-.075-.075-.212-.075-.287 0-.038.038-.06.09-.06.143 0 .055.023.105.06.144.038.038.091.06.143.06zM18.052 11.099c.054 0 .105-.023.144-.06.038-.038.059-.09.059-.143 0-.055-.023-.105-.06-.144-.075-.075-.211-.075-.286 0-.039.039-.06.09-.06.143 0 .055.021.106.06.144.036.037.089.06.143.06zM15.506 22.7c0 .082.037.234.278.327.117.046.268.07.425.07h.004c.159 0 .311-.026.43-.072.24-.094.276-.246.276-.329 0-.112-.09-.203-.202-.203h-.002c-.09.002-.166.06-.193.14-.042.023-.15.056-.31.058-.157-.002-.267-.033-.31-.056-.027-.08-.104-.138-.193-.138-.112 0-.203.091-.203.203zM15.376 21.854c.054 0 .105-.022.143-.06.038-.038.06-.088.06-.143 0-.054-.022-.104-.06-.143-.075-.075-.212-.075-.287 0-.038.039-.06.09-.06.143 0 .055.022.107.06.144.037.037.09.06.144.06zM17.05 21.851c.054 0 .105-.022.143-.06.038-.038.06-.09.06-.142 0-.055-.021-.107-.06-.144-.075-.075-.212-.075-.287 0-.038.037-.06.09-.06.144 0 .054.022.104.06.143.037.037.09.06.143.06zM24.733 15.266c-.089 0-.164.057-.192.136-.04.02-.14.05-.285.05h-.004c-.143 0-.243-.029-.283-.05-.028-.079-.104-.135-.193-.135-.112 0-.203.091-.203.205.002.231.275.387.68.387h.003c.152-.002.299-.027.41-.07.235-.091.27-.24.27-.32 0-.112-.09-.203-.203-.203zM23.664 14.498c0-.054-.021-.105-.06-.143-.075-.075-.212-.075-.287 0-.038.038-.06.089-.06.143 0 .053.022.105.06.144.039.038.09.06.144.06.054 0 .106-.022.143-.06.039-.039.06-.091.06-.144zM24.906 14.355c-.038.037-.06.09-.06.143 0 .054.023.107.06.143.039.04.091.06.144.06.054 0 .106-.02.143-.06.039-.036.06-.09.06-.143 0-.052-.021-.105-.06-.143-.075-.076-.212-.076-.287 0zM7.461 9.116c.443 0 .75-.179.75-.434 0-.112-.09-.203-.203-.203-.095 0-.178.068-.197.16-.04.024-.16.071-.35.071-.19 0-.31-.047-.35-.072-.02-.09-.102-.159-.198-.159-.112 0-.203.091-.203.203 0 .255.308.434.751.434zM6.443 7.928c.054 0 .105-.022.144-.06.038-.038.06-.088.06-.143 0-.054-.022-.106-.06-.143-.076-.075-.212-.075-.287 0-.037.037-.06.09-.06.143 0 .053.023.105.06.144.038.037.089.06.143.06zM8.479 7.928c.054 0 .105-.022.143-.06.037-.038.06-.088.06-.143 0-.054-.023-.106-.06-.143-.075-.075-.213-.075-.287 0-.038.037-.06.09-.06.143 0 .055.022.105.06.144.037.037.09.06.144.06zM29.576 8.55c0-.112-.091-.203-.203-.203-.063 0-.12.03-.158.076-.056.015-.19.04-.39.04s-.334-.025-.39-.04c-.037-.046-.094-.076-.157-.076-.112 0-.203.091-.203.203 0 .079 0 .319.75.319s.75-.24.75-.319zM28.074 6.032h1.503c.113 0 .204-.091.204-.203 0-.112-.09-.203-.204-.203h-1.503c-.112 0-.203.091-.203.203 0 .112.09.203.203.203zM28.404 5.373h.842c.112 0 .203-.09.203-.203 0-.111-.091-.202-.203-.202h-.842c-.112 0-.203.09-.203.202 0 .112.091.203.203.203zM27.684 7.366c.055 0 .105-.023.144-.06.038-.038.06-.091.06-.145 0-.053-.022-.103-.06-.142-.075-.075-.212-.075-.287 0-.037.037-.06.09-.06.142 0 .054.023.107.06.145.038.037.09.06.143.06zM29.965 7.366c.054 0 .107-.023.144-.06.038-.038.06-.091.06-.144 0-.054-.022-.106-.06-.143-.076-.075-.212-.075-.287 0-.039.037-.06.09-.06.143 0 .053.023.106.06.144.038.037.09.06.143.06z" clip-rule="evenodd"/>
    <path fill="#8D0528" fill-rule="evenodd" d="M35.01 21.24l-.034-.245.112-.736c.002-.007-1.62-8.1-1.62-8.1-.018-.151-.217-1.455-1.89-1.88l-1.585-.532V9.41C30.613 9.032 31 8.346 31 7.51v-.043c.09-.051.203-.139.294-.287.222-.368.218-.93-.013-1.671-.26-.845-.946-1.298-1.686-1.129-.23-.124-.49-.19-.779-.19-.288 0-.55.066-.778.19-.739-.17-1.424.284-1.687 1.129-.23.742-.233 1.303-.012 1.669.093.15.203.238.294.287v.045c0 .837.388 1.523 1.008 1.9v.338l-1.103.37c-.15-.45-.65-1.586-1.961-1.894l-1.326-.318v-.47c.83-.041 1.426-.321 1.777-.837.697-1.029.147-2.621.046-2.89-.007-.721-.238-1.304-.684-1.733-.81-.778-2.042-.762-2.17-.759-.117-.003-1.358-.02-2.17.76-.445.428-.676 1.01-.683 1.731-.102.27-.651 1.862.045 2.89.35.517.948.799 1.776.837v.47l-1.324.32c-.153.034-.3.085-.44.146-.094-.189-.236-.406-.44-.62-.011-.015-.027-.029-.043-.041-.3-.298-.73-.58-1.347-.742l-1.653-.796v-.313c.32-.341.537-.852.674-1.557.274-.15.803-.7.491-2.646C16.969.782 16.665 0 14.521 0c-2.145 0-2.448.782-2.588 1.655-.311 1.946.217 2.495.492 2.646.137.705.353 1.215.676 1.557v.313l-1.656.796c-1.824.483-2.034 1.946-2.052 2.105l-.318 1.625-.592-.142V9.71c.54-.418.898-1.153.898-1.989l-.002-1.368c-.003-.578-.283-1.083-.724-1.407.06-.154.093-.317.093-.483 0-.714-.581-1.293-1.295-1.293s-1.295.58-1.295 1.293c0 .166.033.33.093.483-.441.324-.721.828-.725 1.405l-.001 1.37c0 .836.358 1.571.895 1.99v.844l-1.324.317c-1.611.38-1.998 2.01-2.014 2.08l-1.835 8.283c-.025-.002-.047-.003-.072-.003-.55 0-.999.447-.999.999v13.286c0 .112.091.203.203.203.112 0 .203-.091.203-.203V22.231c0-.32.257-.583.576-.592l-.048.216c-.052.23-.012.468.116.668.126.2.324.339.555.392.064.015.13.022.195.022.167 0 .33-.047.473-.138.2-.124.338-.32.39-.548l1.912-6.676c.14.341.217.609.02.948-1.057 1.806-1.027 3.384-1.017 3.6-.037.246-.273 2.258.663 7.811.016.098.102.17.2.17h.563c.124 1.547.357 3.793.779 6.129-.389.101-.905.44-1.005 1.26-.006.057.01.115.05.159.038.044.094.068.151.068H9.75c.058 0 .114-.024.152-.068.039-.044.056-.102.05-.16-.1-.817-.617-1.158-1.005-1.26.422-2.335.654-4.581.779-6.128h.563c.098 0 .184-.072.2-.17.935-5.556.7-7.567.663-7.814.008-.189.03-1.41-.662-2.916l.039-.187.706 2.404v14.637c-.106.056-.203.13-.287.218-.446.473-.407 1.222-.405 1.253.005.107.094.19.2.19h7.864c.11 0 .199-.085.203-.195.001-.02.013-.502-.301-.828-.07-.071-.15-.13-.24-.175-.07-.126-.158-.232-.257-.32l.12-1.555h.091c.114 0 .205-.091.205-.203v-5.277l.04.075c.05.091.158.131.254.095l.021-.009.97 2.206c.062.179.225.296.426.326.16 1.333.368 2.7.618 4.066-.025.156-.193.962-.94 1.419-.077.047-.113.142-.089.229.025.088.105.147.196.147h8.255c.112 0 .203-.091.203-.203v-1.04h.04c.11 0 .2-.087.203-.195l.192-5.793.193 5.793c.003.108.092.196.203.196h.04v1.039c0 .112.09.203.203.203h2.766c.107 0 .196-.084.201-.19.002-.029.037-.688-.364-1.115-.078-.082-.166-.149-.264-.203V21.195c.012-.056.023-.112.033-.17v-.002c.21-1.109.249-2.41.219-3.581 0 0 .598 2.888.605 2.899l.48.722.154.695c.063.432.444.749.88.749.037 0 .075-.004.114-.007.24-.032.45-.152.596-.34.112-.147.172-.318.177-.498.247.073.427.3.427.569v13.286c0 .112.09.203.203.203.112 0 .203-.091.203-.203V22.231c0-.51-.383-.93-.877-.99zm-1.58-.46l-.23-.35h1.45l-.052.35H33.43zm-2.89-10.42l-.045.99-.903-.4.406-.772.543.181zm-1.09 2.04l-.132-.501.334-.478.446.198c-.063.207-.23.581-.647.78zm-.633.136c-.085-.002-.168-.007-.243-.02l.12-.452h.246l.12.453c-.075.012-.155.017-.243.019zm-1.28-.917l.446-.198.336.478-.133.5c-.42-.199-.587-.573-.65-.78zm1.737-.365l-.284.404h-.346l-.283-.404h.913zm-.457-6.66c.949 0 1.33.887 1.379 1.785h-1.078c-.103 0-.189.079-.201.18h-.2c-.012-.101-.096-.18-.2-.18h-1.078c.049-.898.43-1.784 1.378-1.784zM27.04 7.108v-.322h1.274v.322c0 .224-.184.408-.41.408h-.455c-.226 0-.41-.184-.41-.408zm1.562.418c.073-.122.117-.266.117-.418v-.142h.196v.142c0 .152.044.296.117.418v.068c0 .12-.096.215-.215.215s-.215-.096-.215-.215v-.068zm.72-.418v-.322h1.273v.322c0 .224-.184.408-.41.408h-.454c-.226 0-.41-.184-.41-.408zm1.574-1.478c.197.644.178 1.012.105 1.22v-.267c0-.112-.091-.203-.203-.203h-.196c-.032-.68-.224-1.237-.544-1.616.376.064.684.372.838.866zm-4.155 0c.151-.494.461-.802.836-.868-.319.381-.513.938-.545 1.618h-.195c-.112 0-.203.09-.203.203v.268c-.072-.21-.093-.577.107-1.221zm.323 2.195c.116.062.247.096.385.096h.455c.124 0 .24-.027.345-.076.096.218.315.37.568.37.254 0 .473-.152.569-.37.105.048.22.076.345.076h.454c.139 0 .27-.034.385-.096-.13.894-.813 1.496-1.753 1.496s-1.623-.602-1.753-1.496zm1.753 1.902c.275 0 .534-.044.77-.126v.486l-.397.758h-.744l-.397-.758V9.6c.236.082.494.126.768.126zm-.775 1.225l-.903.399-.043-.99.54-.182.406.773zm-1.888-.705l-.098.033c-.386.098-.694.247-.937.413-.047-.068-.105-.13-.168-.184-.088-.072-.216-.061-.287.026-.072.086-.062.214.026.286.044.036.08.08.112.13-.149.146-.26.295-.343.431-.105-.009-.18-.007-.212-.005-.068-.004-.318.016-.631.08-.3-.208-.494-.388-.548-.474-.084-.127-.173-.234-.263-.325-.003-.007-.255-.359-.38-.5v-.345c1.04-.054 1.76-.529 1.897-1.234l.163.04c1.12.263 1.545 1.252 1.67 1.628zm2.647 14.814c.015.066.002.134-.034.192-.037.058-.093.098-.16.114-.066.014-.136.003-.194-.033-.058-.037-.116-.177-.119-.184 0 0-1.842-5.305-1.846-5.31l.046-.368.785-.698 1.522 6.287zm-3.259 9.308h-.65l.003-6.37h1.349c-.028 2.372-.569 5.607-.702 6.37zm-2.997.024c-.042.009-.082.021-.12.033v-.3h.074l.046.267zm-1.412-.674c-.24-1.314-.437-2.626-.591-3.906.32-.125.5-.422.409-.7l-.422-1.146c.032.019.067.031.105.031h1.211c.009.823.079 1.745.173 2.635v3.086h-.885zm-3.802-9.794v-.332l.07-.053v.399l-.07-.014zm-1.125.495h-.003c-.382 0-.684-.25-.72-.338v-.258c.226.096.47.148.721.148.252 0 .495-.052.721-.148v.258c-.035.088-.336.338-.719.338zm-1.31-.46l-.03-.54c.068.06.138.12.212.173v.332l-.182.035zm-.618-5.529h.486v-.316h-.486v.316zm-1.24 0l-.07-.316h.902v.316h-.833zm.362 3.514c.057.259-.105.517-.364.575-.126.028-.245-.01-.362-.063-.156-.068-.216-.31-.216-.313l-.183-.625.958-.322.167.748zm-1.24-.816l-.522-1.777c-.004-.016-.007-.03-.012-.044l-1.257-4.276c.144-.43.214-.959-.078-1.673l.89-.924c.18.331.245.604.247.606l1.718 7.758-.987.33zm.566-14.326l.389-.187.008.02.552 1.075-1.019.464.07-1.372zm.413-4.953c.009-.008.016-.014.02-.015.029.007.09.04.14.068.213.114.566.304 1.22.304h.002c.656 0 1.01-.19 1.22-.304.05-.028.113-.061.141-.068.004.001.01.005.014.01.074.103.133.672.091 1.24h-2.934c-.042-.568.018-1.137.086-1.235zm3.095 1.641v.254c0 .182-.168.33-.375.33h-.428c-.205 0-.373-.148-.373-.33V3.49h1.176zm-3.426 0h1.174v.254c0 .182-.166.33-.372.33h-.429c-.205 0-.372-.148-.372-.33V3.49zm.373.99h.429c.43 0 .78-.33.78-.736V3.49h.262v.254c0 .406.35.737.779.737h.429c.113 0 .22-.023.316-.063-.295 1.291-.88 1.567-1.655 1.567-.777 0-1.36-.276-1.655-1.567.096.04.203.063.315.063zm3.356 5.274l.469.296c-.084.28-.095.577-.03.87.031.136.079.265.138.388-.13.273-.448 1.07-.294 2.075.006.037.023.072.047.101.006.007.188.209.534.44v3.784h-2.677v-.653l.849-1.07c.031-.039.047-.09.043-.14l-.484-6.892.386-.754 1.006.404c.025.01.051.014.076.014-.105.05-.198.131-.266.238-.193.302-.102.707.203.899zm2.133-.542c.25 0 .495.071.708.206.62.392.803 1.213.411 1.832-.245.387-.665.618-1.123.618-.25 0-.495-.072-.709-.207-.299-.189-.507-.484-.584-.831-.079-.345-.017-.701.173-1 .245-.387.665-.618 1.123-.618zm6.31 7.52c-.017.386-.127.73-.733.73-.603 0-.715-.342-.733-.73.061-.027.105-.08.12-.142.188.078.393.12.613.12.22 0 .425-.042.614-.12.014.063.058.115.12.142zm.217-.896c-.012.012-.393.469-.95.469-.556 0-.938-.457-.95-.47-.34-.421-.498-1.075-.498-1.724l.001-.125h1.041c.077 0 .147-.043.18-.112l.226-.444.226.444c.033.069.103.112.18.112h1.041c.002.04.002.083.002.125 0 .649-.16 1.303-.499 1.725zm-7.455-2.165c-.02-.017-.04-.031-.066-.041-.24-.155-.394-.302-.462-.37-.09-.663.056-1.226.175-1.551.103.111.219.213.352.295.024.016.05.03.075.046 0 .041.005.09.019.143.066.245.297.474.684.68.276.148.742.223 1.235.253l.133 1.055-.035.001c-.649.034-1.18-.085-1.596-.252-.02-.015-.045-.024-.071-.03-.168-.071-.315-.15-.443-.229zm2.143-1.898l1.187-.238c.175.278.506.478.808.658.13.079.256.154.357.23-.02.024-.037.046-.054.073-.24.015-.47.07-.683.127-.294.08-2.052.265-2.79-.108-.196-.098-.314-.198-.387-.277.114.023.228.036.343.036.465 0 .9-.182 1.22-.5zm-.325 2.813c-.126.29-.245.625-.355.998-.061.21-.115.43-.166.658l-.58-1.825c.32.096.69.16 1.1.17zm.453-.012c.034-.002.59-.075.828-.133.187.086.378.161.57.226-.054.404-.082.845-.082 1.319 0 .061.028.116.072.154-1.185-.017-1.77-.096-1.796-.474.127-.422.263-.79.408-1.092zm1.577-.787c-.064.015-.12.031-.167.049-.405.154-.782.25-1.131.303l-.127-1.001h.07c.574 0 1.117-.053 1.37-.123.1-.026.203-.052.308-.073-.13.253-.236.537-.323.845zm.999-1.757c-.03.028-.056.056-.084.084-.125-.093-.268-.18-.417-.27-.365-.218-.743-.445-.738-.748 0-.007 0-.014-.002-.021 0-.002-.014-.224.117-.357.086-.09.23-.127.422-.115.02.001.483.05.84.6.073.115.23.266.439.427-.187.094-.385.224-.577.4zm-.688-1.833c-.311-.018-.556.063-.728.238-.241.248-.234.59-.229.664l.002.048-.716.143c.308-.642.187-1.403-.283-1.917.495-.009 1.249.152 1.954.824zm-5.52-2.09l-1.01-.405.548-1.067c.004-.006.005-.013.007-.02l.385.186.07 1.307zM14.52 6.392h.001c.4 0 .733-.071 1.015-.222v.324l-.57 1.113h-.889l-.57-1.113v-.324c.28.15.615.222 1.013.222zm-.524 1.62h1.054l.089.036-.338.66h-.56l-.336-.655.091-.04zm.31 1.103h.429l.472 6.68-.686.864-.686-.864.47-6.68zm.864 9h2.231v.316h-.686c-.194-.042-.37-.056-.51-.056-.139 0-.317.014-.512.056h-.523v-.316zm1.034.666c1.083 0 1.729 1.327 1.788 1.948h-1.84l-.445-.709v.002c-.015-.027-.036-.05-.063-.065-.094-.06-.22-.032-.28.063l-.444.707h-.504c.105-1.07.705-1.946 1.788-1.946zm-1.172 2.353c.07 0 .135-.036.174-.096l.33-.528.332.528c.037.06.102.096.172.096h1.975c.002.037.002.072.002.11 0 1.281-.814 2.323-1.813 2.323-.998 0-1.812-1.042-1.812-2.322l.002-.11h.638zm2.773 1.995c.383-.49.618-1.153.618-1.884 0-.107-.004-.21-.009-.31l.002-.004c0-.007-.002-.014-.004-.019-.049-.873-.29-1.45-.605-1.83v-4.923c.054.028.11.054.17.082l.908 2.857c-.366 2.497-.165 5.54-.006 7.172-.178-.077-.398-.14-.668-.175l-.404-.079v-.882l-.002-.005zm1.51 1.405c-.159-1.522-.416-4.8-.023-7.419 0-.006.002-.013.004-.022.046-.305.101-.6.166-.883.213.17.497.225.626.25.496.09 1.218.09 2.133.09l.584-.001-.624.217c-1.165.273-1.419 1.412-1.43 1.46-.015.072.01.146.065.195l.056.049-1.483 6.129c-.023-.021-.047-.044-.074-.065zm6.56-3.36H22.62l-.044-.363h3.342l-.044.364zm-5.099 3.87h-.109l1.491-4.296.073.586c-.185.318-.986 1.769-1.455 3.71zm1.261-5.187L20.2 25.15l-.007.023c-.03.138-.168.223-.306.194-.002 0-.003 0-.005-.002l-.184-.32 1.517-6.27.786.696.045.369c-.001.005-.005.012-.009.017zM20.3 27.345c-.019-.254-.031-.436-.042-.614l.114-.046c.056-.021.098-.065.117-.12.02-.057.014-.118-.016-.169l-.365-.638c.17-.044.318-.156.409-.31h.168c-.147.705-.245 1.466-.252 2.255l-.133-.358zm2.124 6.32c.004.018.005.036.009.053h-.009v-.052zm.529.703c-.133-.764-.672-3.997-.702-6.37H23.6l.002 6.37h-.65zm1.053-6.37h.082c-.024.284-.05.573-.082.863v-.864zm-3.165-.407c.061-2.911 1.424-5.488 1.718-6.011h3.377c.295.523 1.656 3.097 1.72 6.011H20.84zm5.495-6.844l.01.033h-.013l.003-.033zm-.17-1.53c-.036.034-.06.08-.066.128l-.131 1.059h-3.443l-.131-1.059c-.006-.049-.03-.094-.067-.127L21.18 18.2c.086-.255.364-.875 1.102-1.043.01-.001.835-.288.835-.288.044.407.236.999 1.13.999.893 0 1.087-.59 1.13-1l.835.29c.738.167 1.017.787 1.102 1.042l-1.148 1.017zm-.904-2.816v-.052c.058-.048.116-.102.168-.16h.219l-.021.338-.366-.126zm.46-.618c.243-.437.38-1.008.38-1.672 0-.118-.004-.233-.009-.342l-.002.002c-.007-.107-.092-.192-.2-.192h-1.112l-.35-.691h-.002c-.019-.037-.048-.07-.089-.09-.1-.05-.222-.01-.273.09l-.35.69h-1.11c-.11 0-.195.086-.202.193l-.002-.002c-.005.109-.008.224-.008.342 0 .664.136 1.235.38 1.672h-1.036c.007-.442.042-.85.101-1.224l.004-.016c.027-.182.11-.537.111-.546.121-.467.51-1.195.511-1.195.118-.175.247-.33.39-.464.651-.603 1.388-.556 1.393-.556.007 0 .728-.054 1.384.547.72.662 1.099 1.822 1.127 3.454h-1.036zM20.783 4.845v-.4c.334-.088 1.078-.34 1.438-.9.36.56 1.104.812 1.439.9v.4c0 1.132-.646 2.054-1.439 2.054-.792 0-1.438-.922-1.438-2.054zM19.751 6.37c-.627-.923.002-2.533.009-2.549.008-.024.013-.049.013-.075 0-.623.188-1.12.557-1.477.71-.682 1.872-.647 1.884-.647h.016c.01 0 1.167-.039 1.88.646.372.356.559.853.559 1.478 0 .026.005.05.016.075.005.016.633 1.626.007 2.55-.271.4-.756.62-1.438.655v-.143c.49-.443.811-1.192.811-2.038v-.56c0-.095-.068-.18-.164-.2-.016-.001-1.477-.29-1.477-1.233 0-.112-.09-.203-.203-.203-.112 0-.203.091-.203.203 0 .936-1.454 1.23-1.475 1.233-.098.02-.166.105-.166.2v.56c0 .846.324 1.595.814 2.038v.143c-.684-.035-1.169-.255-1.44-.656zm1.69 1.892c.09-.021.156-.104.156-.198v-.906c.194.094.406.147.624.147.219 0 .43-.053.625-.147v.906c0 .094.065.177.156.198l.925.222c-.103.56-.761.927-1.706.927s-1.602-.367-1.706-.927l.926-.222zm-1.482.355l.16-.039c.029.147.083.284.16.41-.323-.037-.598-.013-.782.03-.073-.04-.149-.076-.226-.104.209-.138.438-.238.688-.297zm-1.212.19h-.039l.186-.537c.07.098.127.196.173.29-.112.074-.219.156-.32.247zm-1.272-1.452c.493.128.85.336 1.11.57l-.323.93c-.434.103-.814.37-1.059.757l-.034.062-.415-.263c-.116-.073-.149-.226-.077-.34.073-.115.225-.148.339-.076.095.06.22.033.28-.063.06-.095.032-.22-.063-.28-.155-.098-.34-.123-.506-.08.051-.04.08-.104.076-.169L16.729 7s.733.352.746.355zm-5.14-5.637c.108-.675.211-1.312 2.186-1.312 1.976 0 2.077.637 2.185 1.312.177 1.099.069 1.664-.066 1.953v-.384c0-.111-.091-.202-.203-.202h-.042c.032-.503.016-1.3-.206-1.522-.237-.237-.46-.116-.64-.018-.2.107-.475.255-1.028.255s-.827-.148-1.029-.255c-.178-.098-.402-.219-.64.018-.22.222-.236 1.02-.205 1.522h-.042c-.112 0-.203.09-.203.202v.384c-.136-.289-.243-.854-.068-1.953zm-.767 5.637c.012-.003.742-.353.742-.353l-.075 1.485c-.004.072.03.139.087.179.035.024.075.035.116.035.027 0 .055-.006.084-.018l1.012-.462.377.732-.487 6.892c-.003.05.012.101.044.14l.85 1.07v.653h-1.441l-1.054-4.757c-.003-.013-.052-.223-.182-.506V11.36c0-.005-.01-.063-.012-.068l-1.172-3.368c.257-.231.614-.44 1.11-.569zM9.795 9.121c.004-.03.048-.427.352-.852l1.081 3.105-.064.326c-.364-.42-.826-.704-1.354-.826l-.342-.082c.002 0 .327-1.664.327-1.671zm-2.45-1.892c-.004-.108-.093-.196-.204-.196h-1.04c.251-.127.598-.35.804-.682.18.252.506.521 1.081.682h-.222c-.11 0-.2.088-.203.196h-.217zm-1.413.21h1.006v.237c0 .173-.14.313-.311.313h-.383c-.172 0-.312-.14-.312-.313v-.237zm2.035 0h1.006v.237c0 .173-.14.313-.311.313h-.383c-.172 0-.312-.14-.312-.313v-.237zM6.564 4.463c0-.488.399-.887.889-.887s.889.397.889.887c0 .095-.018.186-.046.275-.254-.114-.539-.175-.843-.175-.305 0-.59.061-.843.175-.029-.09-.046-.18-.046-.275zm.889.506c.852 0 1.52.61 1.52 1.393v.404C7.163 6.7 7.083 5.78 7.08 5.742c-.003-.11-.096-.2-.206-.196-.11.002-.2.093-.2.203 0 .455-.442.76-.742.913v-.3c0-.782.669-1.393 1.521-1.393zM6.015 8.356c.071.025.148.039.229.039h.383c.396 0 .717-.322.717-.72v-.04h.217v.04c0 .398.322.72.718.72h.383c.08 0 .157-.014.229-.039-.207.765-.773 1.316-1.438 1.316-.665 0-1.232-.551-1.438-1.316zm.657 2.556c.092-.022.156-.103.156-.197V9.95c.196.082.406.128.625.128.218 0 .429-.046.624-.128v.765c0 .094.065.176.156.197l.399.097-.476 1.376H6.75l-.477-1.376.4-.097zm.781 3.507l-.564-1.628h1.127l-.563 1.628zm-3.975-1.377c.007-.027.07-.29.245-.611l.892.927c-.273.667-.23 1.173-.107 1.587L2.74 21.126l-.98-.328 1.719-7.756zm-1.03 9.103c0 .003-.062.255-.216.311-.12.044-.238.091-.362.063-.126-.028-.233-.103-.301-.211-.068-.11-.091-.238-.063-.364l.038-.175c.137.108.224.274.224.462 0 .112.09.202.203.202.112 0 .203-.09.203-.202 0-.384-.218-.718-.535-.884l.033-.15.955.32-.18.628zM5.12 16.73c.325-.557.136-1.005-.048-1.438-.211-.5-.432-1.02-.033-1.893.033-.076.02-.165-.038-.226L3.95 12.08c.263-.341.656-.675 1.24-.813l.686-.165 1.374 3.97v4.857H4.158c.012-.473.125-1.767.963-3.2zM7.25 34.196h-.886c-.42-2.315-.652-4.549-.776-6.092H7.25v6.092zm-1.05.406h1.05v.712H5.4c.182-.654.725-.707.8-.712zm3.305.712h-1.85v-.712h1.05c.074.005.618.056.8.712zm-.964-1.118h-.885v-6.092h1.662c-.124 1.543-.357 3.777-.777 6.092zm1.577-6.498H4.79c-.78-4.689-.7-6.79-.651-7.362h6.628c.05.568.133 2.656-.65 7.362zM7.656 19.93v-4.857l1.373-3.97.688.165c.498.117.913.393 1.237.817l-1.05 1.088c-.058.06-.072.15-.038.226.399.873.178 1.392-.034 1.893-.183.434-.372.881-.047 1.438.836 1.427.95 2.726.96 3.2h-3.09zm2.54-3.3l-.06-.107c-.185-.314-.13-.57-.01-.878l.161.55-.09.435zm1.87 5.621c.053.23.191.424.39.548.144.091.307.138.473.138.065 0 .131-.007.196-.022.478-.107.778-.583.67-1.059l-.668-3.02h1.721c-.43.359-.79.987-.852 2.075l-.001.02v.003c-.006.1-.01.203-.01.31 0 .444.088.862.242 1.233l-.089 1.626c-.999.15-1.3.7-1.353.811l-.85 1.48c-.03.053-.035.114-.016.17.02.055.064.1.118.12l.274.11-.67 1.82v-7.81l.426 1.447zm1.222 4.927l-.966 2.2c-.004.006-.005.014-.007.019-.016.049-.135.09-.276.045-.142-.045-.214-.15-.2-.19l.85-2.31.599.236zm-1.647 6.73v-4.231c.076.065.167.117.271.152.085.026.168.04.249.04.249 0 .462-.126.535-.336l.97-2.206.022.009c.097.037.205-.004.254-.095l.026-.049-.369 6.715h-1.958zm6.381-4.04v2.372h-1.455l-.16-1.61c-.01-.094-.084-.173-.182-.182-.112-.012-.211.07-.222.182l-.16 1.61h-1.455v-2.373h3.634zm-3.606 4.563c-.162.028-.302.089-.423.183v-.498l.084-1.502c.031.02.068.032.108.032h.091l.14 1.785zm.406-.018l-.138-1.767h.918v1.767h-.78zm1.186.901h.39v-1h-.39v1zm.392-1.407h-.392v-1.261h.018c.077 0 .143-.042.178-.107.035.065.102.107.179.107h.017v1.261zm-5.446 1.407c.02-.206.082-.537.29-.758.154-.164.362-.243.637-.243h1.706v1.001h-2.633zm3.24-.338c.103-.105.248-.157.441-.157h.967v.495h-1.574c.023-.107.07-.238.166-.338zm2.612.338v-.495h.97c.192 0 .335.052.439.157.096.1.143.231.168.338h-1.577zm.78-.9h-.78v-1.768h.92l-.14 1.767zm.818-8.16c-.044-.082-.139-.124-.23-.1-.089.022-.152.104-.152.197v3.11h-3.634v-3.11c0-.093-.063-.175-.154-.198-.09-.023-.185.02-.229.102l-.337.636-1.264-.496.753-1.314c.007-.02.227-.457 1.098-.585.005-.002.905-.175.905-.175.173.26.598.504 1.043.504h.003c.444 0 .87-.245 1.043-.504l.313.061h.002l.577.11.013.004c.89.112 1.154.684 1.154.684.002.002.002.006.004.007l.692 1.207-1.263.497-.337-.636zm1.692 3.143c-.004-.005-.006-.012-.01-.02l-.965-2.199.598-.236.849 2.302c.016.048-.056.153-.198.198-.142.046-.259.004-.274-.045zm1.513 5.917h-1.111c.41-.43.574-.93.633-1.19h.887v.546c-.206.191-.339.44-.41.644zm.437 0c.107-.23.327-.539.737-.54h.819v.536l-1.556.004zm1.962 0v-.098c.03.033.06.066.094.098h-.094zm0-.756v-2.537c.208-1.347.369-2.67.48-3.936l-.001 7.03c-.178-.156-.34-.342-.48-.557zm.885.752v-.537h.819c.41.002.63.31.736.541l-1.555-.004zm3.083.004h-1.09c-.095-.276-.301-.63-.65-.815.065-.014.133-.021.21-.021h1.53v.836zm.25-1.242h-1.98v-1.58c.188-1.333.388-3.065.405-4.495h1.209c.112 0 .203-.09.203-.203 0-3.219-1.534-6.004-1.8-6.461l.02-.147h.206l1.418 4.087c.04.166.144.31.29.402.092.058.197.091.304.1l-.275 8.297zm1.433 1.242v-.836h1.53c.25 0 .436.07.573.215.173.182.23.444.248.621H29.66zm-.25-1.242l-.286-8.624c.084-.145.11-.313.074-.481l-.105-.427-.072-1.814c0-.004.004-.184-.192-.184-.194 0-.193.1-.194.103l-.352-1.46h3.107v12.887h-1.98zm2.382-19.93c-.022-.107-.125-.177-.234-.16-.107.02-.182.12-.166.228.005.04.525 3.883.07 6.57h-3.279l-.558-2.311.054-.05c.056-.048.08-.122.065-.193-.01-.05-.264-1.188-1.43-1.461l-.287-.1c.01-.157.018-.315.029-.476h.908c.112 0 .203-.091.203-.203 0-1.856-.424-3.188-1.26-3.954-.35-.322-.712-.486-1.011-.572.22-.294.603-.621 1.268-.79.005 0 .532-.178.532-.178l.05 1.174c.004.067.041.128.097.163.033.021.07.03.107.03.028 0 .055-.005.082-.016l.13-.058c.13.396.458.889 1.103 1.078l.007.004h.006c.073.022.307.082.54.082.233 0 .467-.06.543-.082h.003c.004 0 .005-.002.007-.004.646-.189.975-.682 1.104-1.078l.13.058c.026.01.054.016.082.016.037 0 .073-.009.107-.03.057-.035.092-.096.096-.163l.052-1.174.53.179c1.46.367 1.589 1.49 1.592 1.538l1.575 7.815h-1.651l-1.196-5.882zm1.894 7.536l-.11-.492h1.016l.012.087c-.35.104-.62.394-.695.756-.166-.068-.221-.346-.223-.351zm.631.398c.045-.171.168-.313.327-.384-.008.078-.038.154-.089.22-.061.079-.143.135-.238.165z" clip-rule="evenodd"/>
    <path fill="#8D0528" fill-rule="evenodd" d="M14.529 5.578c.429 0 .73-.175.73-.424 0-.113-.091-.204-.204-.204-.096 0-.176.066-.197.155-.04.025-.152.067-.33.067-.176 0-.288-.042-.328-.067-.02-.089-.101-.154-.198-.154-.112 0-.203.09-.203.203 0 .249.301.424.73.424zM13.403 3.997c.055 0 .106-.02.144-.06.038-.038.06-.088.06-.143 0-.052-.021-.105-.06-.143-.075-.075-.212-.075-.287 0-.037.038-.06.09-.06.143 0 .055.023.107.06.144.038.038.09.06.143.06zM15.653 3.997c.055 0 .106-.02.144-.06.038-.036.06-.088.06-.143 0-.052-.021-.105-.06-.143-.075-.075-.212-.075-.287 0-.038.038-.06.09-.06.143 0 .055.023.107.06.144.039.038.091.06.143.06z" clip-rule="evenodd"/>
</svg>
