<svg xmlns="http://www.w3.org/2000/svg" width="40" height="36" fill="none" viewBox="0 0 40 36">
    <path fill="#8D0528" fill-rule="evenodd" d="M12.116 12.621c-.248-.2-.61-.162-.81.085-.233.286-.541.444-.868.444-.328 0-.636-.158-.868-.444-.2-.247-.563-.285-.809-.085-.248.201-.285.563-.085.81.449.554 1.091.87 1.762.87s1.314-.316 1.762-.87c.2-.247.163-.609-.084-.81zM7.808 9.205c-.319 0-.575.258-.575.575v.659c0 .316.256.575.575.575.319 0 .575-.259.575-.575V9.78c0-.317-.256-.575-.575-.575zM13.068 9.205c-.319 0-.575.258-.575.575v.659c0 .316.256.575.575.575.319 0 .575-.259.575-.575V9.78c0-.317-.256-.575-.575-.575zM31.184 15.91c-.248-.202-.61-.164-.81.084-.233.286-.541.443-.868.443-.328 0-.636-.157-.868-.443-.2-.248-.563-.286-.809-.085-.248.201-.286.563-.085.809.449.554 1.091.871 1.762.871s1.314-.317 1.762-.871c.2-.246.163-.608-.084-.809zM26.876 12.493c-.319 0-.575.258-.575.575v.658c0 .317.256.575.575.575.319 0 .575-.258.575-.575v-.658c0-.317-.256-.575-.575-.575zM32.136 12.493c-.319 0-.575.258-.575.575v.658c0 .317.256.575.575.575.319 0 .575-.258.575-.575v-.658c0-.317-.256-.575-.575-.575z" clip-rule="evenodd"/>
    <path fill="#8D0528" fill-rule="evenodd" d="M37.685 23.873l-4.508-1.802c-.024-.01-.047-.023-.07-.035 3.113-.708 4.588-1.893 4.654-1.947.156-.128.234-.327.205-.526-.007-.047-.651-4.615-.651-9.125 0-4.305-3.504-7.807-7.81-7.807-4.305 0-7.807 3.502-7.807 7.807 0 1.18-.053 2.624-.142 3.988l-1.255.629-3.687-1.843c-.01-.007-.023-.01-.033-.014.175-.512.289-1.05.332-1.61.77-.24 1.334-.958 1.334-1.806 0-.572-.257-1.085-.658-1.433V4.52c0-1.056-.536-2.047-1.412-2.641C15.881.776 14.89 0 13.725 0h-5.26C5.61 0 3.287 2.322 3.287 5.178V8.35c-.402.348-.658.86-.658 1.433 0 .848.563 1.567 1.333 1.806.146 1.933 1.142 3.63 2.612 4.723v1.59l-4.759 1.428C.729 19.655 0 20.635 0 21.77v6.422c0 .319.258.577.575.577h.083v6.655c0 .319.256.577.575.577.317 0 .575-.258.575-.577v-6.655h2.137v6.655c0 .319.258.577.575.577.319 0 .575-.258.575-.577v-9.921c0-.506-.147-.994-.428-1.414l-.983-1.475c-.175-.265-.534-.336-.797-.161-.265.176-.336.535-.161.798l.984 1.476c.154.23.235.498.235.776v2.114H1.152v-5.847c0-.621.4-1.16.994-1.338l1.976-.593c.687 2.88 3.3 4.985 6.316 4.985 1.084 0 2.135-.269 3.077-.776.345.469.9.776 1.526.776h.082v.081c0 1.93 1.061 3.614 2.63 4.505v.938c0 .037-.023.068-.057.078l-2.146.715c-1.042.348-1.742 1.32-1.742 2.418v1.865c0 .319.258.577.575.577.319 0 .575-.258.575-.577v-1.865c0-.603.384-1.134.956-1.325l.63-.211c.837 1.247 2.241 2.005 3.757 2.005 1.517 0 2.92-.758 3.756-2.005l.63.211c.572.19.956.722.956 1.325v1.865c0 .319.257.577.575.577.317 0 .576-.258.576-.577v-1.865c0-1.098-.7-2.07-1.743-2.418l-2.145-.715c-.035-.01-.058-.041-.058-.078v-.939c1.175-.666 2.065-1.778 2.437-3.105 1.088 1.138 2.606 1.806 4.22 1.806 2.55 0 4.786-1.646 5.556-4.045l2.196.878c.534.213.878.722.878 1.297v2.691h-2.137v-.739c0-.317-.256-.575-.575-.575-.317 0-.575.258-.575.575v7.234c0 .317.258.575.575.575.319 0 .575-.258.575-.575v-5.343h1.48v5.343c0 .317.257.575.576.575.317 0 .575-.258.575-.575v-5.343h.081c.154 0 .3-.06.407-.168.11-.109.17-.254.17-.407V26.24c0-1.048-.629-1.976-1.602-2.366zM22.848 10.438c0-3.67 2.988-6.658 6.658-6.658 3.671 0 6.657 2.988 6.657 6.658 0 3.865.466 7.77.617 8.938-.515.337-1.836 1.08-4.069 1.569v-.916c.307-.173.6-.37.875-.593 1.133-.916 1.932-2.197 2.253-3.61.106-.47.161-.956.161-1.443 0-3.252-2.354-3.718-4.628-4.17-1.448-.288-2.944-.586-4.137-1.538-.171-.139-.409-.166-.608-.07-.2.096-.327.297-.327.518 0 .016-.024 1.53-2.194 2.072-.309.078-.496.39-.418.698.077.308.39.496.698.419 1.815-.454 2.556-1.472 2.858-2.238 1.248.74 2.646 1.017 3.903 1.268 2.432.481 3.701.836 3.701 3.04 0 .403-.045.803-.131 1.189-.265 1.162-.923 2.217-1.855 2.97-.96.774-2.12 1.185-3.356 1.185-1.126 0-2.198-.345-3.11-1-.332-.909-.868-1.742-1.575-2.428v-2.571c0-.2-.102-.385-.272-.49-.17-.104-.383-.115-.561-.025l-1.242.62c.068-1.198.102-2.338.102-3.394zm.823 4.218v2.084l-2.084-1.04 2.084-1.043zm-6.74 0l2.083 1.043-2.084 1.041v-2.083zm-3.123 6.303v.547c-.412.355-.658.876-.658 1.425-.82.484-1.751.74-2.712.74-2.503 0-4.67-1.761-5.211-4.165l1.422-.426c.35 1.771 1.917 3.112 3.789 3.112 1.487 0 2.78-.845 3.425-2.08-.036.279-.055.561-.055.847zm-6.082-2.63v-1.334c.826.38 1.744.594 2.712.594.968 0 1.886-.213 2.712-.594v1.333c0 1.496-1.216 2.712-2.712 2.712-1.493 0-2.707-1.212-2.712-2.705v-.007zm2.712-1.89c-2.946 0-5.343-2.397-5.343-5.343 0-.317-.256-.575-.575-.575-.407 0-.74-.333-.74-.74 0-.408.333-.74.74-.74h1.316c.248 0 .468-.158.546-.394l.528-1.585c1.322-.029 5.422-.214 7.73-1.37.285-.142.4-.486.257-.77-.142-.286-.486-.4-.772-.258-2.477 1.238-7.58 1.254-7.632 1.254-.248 0-.468.16-.546.393l-.526 1.58h-.982V5.179c0-2.22 1.806-4.026 4.026-4.026h5.26c.688 0 1.266.495 1.373 1.177.028.174.134.324.286.41.65.368 1.053 1.05 1.053 1.781v3.372l-.081-.002h-.659c-.316 0-.574.258-.574.575 0 .319.258.577.574.577h.659c.408 0 .74.33.74.74 0 .406-.332.739-.74.739-.317 0-.575.256-.575.575 0 2.946-2.397 5.343-5.343 5.343zm3.864 1.89V16.31c.571-.427 1.072-.943 1.479-1.53v1.517c-.645.626-1.147 1.374-1.485 2.191.004-.053.006-.107.006-.16zm8.607 13.31c-.634.774-1.586 1.237-2.608 1.237-1.02 0-1.973-.463-2.607-1.237l.367-.121c.504-.168.842-.64.842-1.17v-.46c.445.125.915.194 1.398.194.485 0 .952-.07 1.397-.194v.46c0 .53.338 1.002.844 1.17l.367.121zm1.995-7.968c-.319 0-.577.258-.577.575V24.904c0 2.22-1.806 4.026-4.026 4.026-2.22 0-4.027-1.806-4.027-4.026v-.658c0-.317-.258-.575-.577-.575h-.656c-.409 0-.74-.333-.74-.74 0-.263.14-.5.371-.635.052-.03.097-.068.137-.111 1.422-.042 6.034-.31 9.065-2.042.277-.158.372-.51.214-.784-.157-.278-.509-.373-.786-.215-2.655 1.517-6.827 1.822-8.344 1.882v-.067c0-1.07.325-2.108.913-2.98.045.072.107.134.181.181.094.057.198.087.304.087.088 0 .176-.021.258-.06l3.687-1.845 3.687 1.844c.081.04.17.06.258.06.106 0 .21-.029.303-.086.074-.047.137-.109.182-.182.589.873.912 1.91.912 2.98v.84c0 .205.11.396.286.498.232.135.37.372.37.635 0 .407-.33.74-.739.74h-.656zm4.602 3.287c-1.594 0-3.071-.81-3.932-2.137 1.036-.007 1.878-.852 1.878-1.89 0-.549-.246-1.07-.659-1.425v-.547c0-.232-.012-.462-.036-.691.854.4 1.786.61 2.749.61.703 0 1.395-.118 2.055-.337v.842c0 .778.466 1.467 1.188 1.756l1.24.495c-.594 1.968-2.41 3.324-4.483 3.324z" clip-rule="evenodd"/>
    <path fill="#8D0528" fill-rule="evenodd" d="M21.979 25.772c-.248-.201-.61-.163-.81.085-.233.285-.541.443-.869.443-.327 0-.635-.158-.867-.443-.2-.248-.563-.286-.81-.085-.247.2-.285.563-.084.809.449.554 1.091.87 1.761.87.672 0 1.315-.316 1.763-.87.2-.247.162-.608-.084-.81zM18.339 23.016c.318 0 .575.258.575.575 0 .319-.257.577-.575.577-.319 0-.575-.258-.575-.577 0-.317.256-.575.575-.575zM22.252 23.016c.32 0 .575.258.575.575 0 .319-.256.577-.575.577-.318 0-.575-.258-.575-.577 0-.317.257-.575.575-.575z" clip-rule="evenodd"/>
</svg>
