<svg xmlns="http://www.w3.org/2000/svg" width="38" height="36" fill="none" viewBox="0 0 38 36">
    <path fill="#8D0528" fill-rule="evenodd" d="M12.048 12.568c-.238-.193-.586-.157-.78.081-.233.29-.546.45-.879.45-.332 0-.644-.16-.88-.45-.193-.238-.541-.274-.779-.081-.236.193-.272.541-.081.78.445.544 1.079.857 1.74.857.663 0 1.297-.313 1.74-.858.194-.238.157-.586-.081-.78zM7.77 9.17c-.306 0-.553.247-.553.553v.655c0 .306.247.553.553.553.305 0 .553-.247.553-.553v-.655c0-.306-.248-.553-.553-.553zM13.009 9.17c-.305 0-.553.247-.553.553v.655c0 .306.248.553.553.553.306 0 .553-.247.553-.553v-.655c0-.306-.247-.553-.553-.553zM3.84 24.233c-.305 0-.553.247-.553.552v10.48c0 .305.248.553.553.553.305 0 .553-.248.553-.553v-10.48c0-.305-.248-.552-.553-.552zM16.939 24.233c-.306 0-.553.247-.553.552v10.48c0 .305.247.553.553.553.305 0 .552-.248.552-.553v-10.48c0-.305-.247-.552-.552-.552zM29.73 15.842c-.238-.193-.585-.156-.779.082-.234.29-.547.45-.88.45-.332 0-.643-.16-.88-.45-.192-.238-.54-.275-.778-.082-.236.194-.273.542-.082.78.445.545 1.08.858 1.74.858.664 0 1.298-.313 1.74-.858.194-.238.157-.586-.08-.78zM25.452 12.444c-.305 0-.553.248-.553.553v.656c0 .305.248.553.553.553.306 0 .553-.248.553-.553v-.656c0-.305-.247-.553-.553-.553zM30.692 12.444c-.306 0-.553.248-.553.553v.656c0 .305.247.553.553.553.305 0 .553-.248.553-.553v-.656c0-.305-.248-.553-.553-.553z" clip-rule="evenodd"/>
    <path fill="#8D0528" fill-rule="evenodd" d="M36.211 23.778l-.46-.183-1.858-6.52c.205-.425.361-.873.466-1.336.106-.466.16-.949.16-1.432 0-3.223-2.335-3.687-4.593-4.136-1.444-.286-2.937-.582-4.128-1.535-.13-.104-.301-.143-.464-.108-.162.035-.302.143-.377.292-.002.006-.313.617-.837 1.21-.445.505-1.143 1.104-1.943 1.104-.269 0-.524.058-.756.162v-.918c0-1.386.437-2.74 1.237-3.86.416.303.93.484 1.485.484 1.259 0 2.305-.93 2.488-2.138.24.11.505.174.785.174.803 0 1.487-.508 1.75-1.22 1.456.242 2.794.961 3.805 2.061 1.129 1.23 1.752 2.829 1.752 4.5v1.308c0 .308.247.555.552.555.306 0 .553-.248.553-.555v-1.309c0-1.949-.725-3.813-2.043-5.247-1.206-1.315-2.815-2.163-4.565-2.425-.207-.802-.938-1.395-1.804-1.395-.787 0-1.461.49-1.734 1.183-.425-.33-.959-.528-1.54-.528-1.39 0-2.518 1.13-2.518 2.517 0 .426.106.824.292 1.176-1.035 1.35-1.6 3.012-1.6 4.72v2.619c0 .84.558 1.554 1.326 1.784.023.323.071.644.142.957.105.462.263.911.466 1.336l-1.858 6.52-.46.183c-.96.385-1.583 1.303-1.583 2.338v3.256c0 .146.06.288.162.39.105.104.246.162.393.162h.1v5.34c0 .306.248.555.553.555.308 0 .555-.25.555-.555v-5.34h1.512v5.34c0 .306.247.555.553.555.307 0 .555-.25.555-.555v-6.877c0-.786-.377-1.54-1.007-2.014l-1.773-1.328c.114-.099.245-.18.392-.238l.893-.358c1.435 1.36 4.033 2.2 6.837 2.2 2.82 0 5.397-.837 6.836-2.2l.89.358c.146.058.278.139.394.238l-1.773 1.328c-.633.473-1.007 1.228-1.007 2.014v6.877c0 .306.247.555.553.555.305 0 .552-.25.552-.555v-5.34h1.514v5.34c0 .306.248.555.553.555.306 0 .553-.25.553-.555v-5.34h.103c.145 0 .286-.058.39-.162.105-.104.163-.244.163-.39v-3.256c0-1.035-.623-1.953-1.584-2.338zm-8.795-21.36c.418 0 .758.339.758.756 0 .418-.34.756-.758.756-.415 0-.756-.338-.756-.756 0-.417.34-.756.756-.756zm-3.273.654c.777 0 1.411.634 1.411 1.411 0 .78-.634 1.412-1.411 1.412-.779 0-1.411-.633-1.411-1.412 0-.777.632-1.411 1.41-1.411zM21.06 27.258c.353.267.564.689.564 1.13v.428h-2.167v-2.7l.002-.058 1.6 1.2zm1.117-13.504c-.416 0-.756-.338-.756-.756s.34-.756.756-.756c1.678 0 2.896-1.52 3.445-2.37 1.292.83 2.769 1.123 4.09 1.386 2.431.483 3.702.837 3.702 3.049 0 .402-.047.8-.134 1.189-.263 1.16-.922 2.213-1.854 2.968-.959.775-2.119 1.184-3.354 1.184-1.236 0-2.396-.41-3.355-1.184-.931-.755-1.59-1.808-1.854-2.968-.087-.389-.131-.787-.131-1.19 0-.305-.248-.552-.555-.552zm.864 4.584c.29.361.617.694.98.986.277.224.57.421.878.595v1.361c0 .312-.188.586-.476.702l-2.731 1.092 1.35-4.736zm5.033 7.205c-2.28 0-4.378-.587-5.673-1.56l2.434-.974c.712-.285 1.17-.963 1.17-1.729v-.868c.663.225 1.361.343 2.067.343.706 0 1.403-.118 2.067-.343v.868c0 .766.46 1.444 1.171 1.729l2.434.974c-1.291.963-3.412 1.56-5.67 1.56zm3.646-3.56c-.288-.117-.476-.391-.476-.703v-1.36c.308-.175.602-.372.878-.596.364-.292.692-.625.98-.986l1.35 4.736-2.732-1.092zm4.967 6.834h-2.168v-.43c0-.44.211-.862.565-1.129l1.6-1.2c.003.019.003.038.003.058v2.7z" clip-rule="evenodd"/>
    <path fill="#8D0528" fill-rule="evenodd" d="M19.93 19.79c-.277-.25-.6-.431-.958-.537l-4.754-1.427v-1.609c1.467-1.088 2.461-2.782 2.602-4.71.766-.23 1.326-.943 1.326-1.784 0-.545-.243-1.06-.655-1.411V4.483c0-1.05-.53-2.03-1.402-2.62C15.798.77 14.817 0 13.665 0h-5.24C5.592 0 3.288 2.307 3.288 5.14v3.172c-.41.351-.656.868-.656 1.41 0 .842.56 1.555 1.329 1.785.14 1.928 1.132 3.622 2.602 4.71v1.609l-4.754 1.427c-1.075.32-1.796 1.289-1.796 2.41v13.601c0 .306.249.554.554.554.306 0 .553-.248.553-.553V21.662c0-.628.404-1.171 1.006-1.35l3.184-.956c.118.841.45 2.917 1.139 5.49.817 3.06 2.316 7.407 4.808 10.748.108.147.274.223.445.223.114 0 .23-.035.328-.109.246-.184.296-.53.114-.775-.465-.624-.897-1.29-1.295-1.978 3.501-4.874 4.445-11.805 4.636-13.595l3.17.951c.2.06.382.162.536.302.107.094.238.14.372.14.15 0 .301-.061.412-.183.203-.226.185-.576-.043-.781zM5.049 11.034c0-.31-.253-.561-.563-.555-.25.006-.49-.104-.62-.32-.25-.417-.11-.873.253-1.086h.002c.11-.065.234-.106.361-.106h1.325c.238 0 .448-.153.524-.379l.532-1.591c1.295-.03 5.372-.21 7.68-1.352.258-.127.395-.423.299-.692-.115-.319-.476-.456-.77-.309-2.47 1.235-7.56 1.25-7.612 1.25-.238 0-.448.154-.524.38l-.53 1.585h-1.01V5.14c0-2.227 1.803-4.031 4.03-4.031h5.24c.698 0 1.284.506 1.388 1.204.025.163.132.3.274.381.652.37 1.058 1.056 1.058 1.79v4.113c0 .199.108.379.28.481.358.211.495.66.254 1.073-.128.219-.371.335-.625.329-.311-.006-.564.246-.564.555 0 2.944-2.396 5.34-5.34 5.34-2.945 0-5.342-2.396-5.342-5.34zm5.342 8.522l-2.722-1.632v-1.048c.827.387 1.75.605 2.722.605.973 0 1.893-.218 2.72-.605v1.048l-2.72 1.632zm.756 2.577v.689c0 .056-.047.1-.101.1h-1.31c-.057 0-.1-.044-.1-.1v-.689l.755-1.01.756 1.01zm-4.764-3.099l.657-.197 2.539 1.523-1.282 1.711-1.583-1.055c-.182-.953-.287-1.653-.331-1.982zm2.15 8.799c-.675-1.912-1.162-3.759-1.5-5.276l1.086.725c.093.064.201.093.306.093.075 0 .148-.016.216-.045.103.22.27.406.478.53l-.586 3.973zm1.722 4.035c-.328-.638-.632-1.292-.91-1.947l.868-5.891h.354l.858 5.808c-.35.7-.738 1.384-1.17 2.03zm2.01-3.923l-.604-4.085c.209-.124.375-.31.48-.53.067.029.14.045.214.045.107 0 .213-.03.308-.093l1.196-.797c-.329 1.59-.833 3.528-1.595 5.46zm1.877-6.978l-1.658 1.104-1.283-1.71 2.538-1.524.665.2c-.03.314-.11 1-.262 1.93z" clip-rule="evenodd"/>
</svg>
