<svg width="29" height="29" viewBox="0 0 29 29" fill="none" xmlns="http://www.w3.org/2000/svg">
<rect width="29" height="29" fill="white"/>
<path d="M3.89286 0C3.12562 0 2.38981 0.286439 1.8473 0.796304C1.30478 1.30617 1 1.99769 1 2.71875V26.2812C1 27.0023 1.30478 27.6938 1.8473 28.2037C2.38981 28.7136 3.12562 29 3.89286 29H17.3929C18.1601 29 18.8959 28.7136 19.4384 28.2037C19.9809 27.6938 20.2857 27.0023 20.2857 26.2812V23.5625C20.2857 23.3221 20.1841 23.0916 20.0033 22.9217C19.8224 22.7517 19.5772 22.6562 19.3214 22.6562C18.5249 22.6562 18.0158 22.4714 17.6706 22.2285C17.3176 21.9802 17.0496 21.6086 16.8529 21.0993C16.4401 20.0336 16.4286 18.6216 16.4286 17.2188C16.4285 17.0995 16.4035 16.9815 16.3548 16.8714C16.3062 16.7613 16.2349 16.6613 16.1451 16.5771L15.5935 16.0569L13.2541 13.8584C12.3535 13.0119 12.0893 12.4446 12.0391 12.1274C12.0006 11.8737 12.0816 11.7033 12.2744 11.5293C12.6871 11.1577 12.9822 10.9058 13.3159 10.8297C13.5145 10.7826 13.9677 10.7499 14.7816 11.5148L20.5673 16.9523C20.7481 17.1225 20.9934 17.2182 21.2493 17.2183C21.376 17.2184 21.5015 17.1951 21.6186 17.1496C21.7357 17.1041 21.8421 17.0374 21.9318 16.9532C22.0214 16.8691 22.0925 16.7692 22.1411 16.6592C22.1897 16.5492 22.2147 16.4313 22.2148 16.3122C22.2149 16.1932 22.19 16.0752 22.1416 15.9652C22.0932 15.8551 22.0222 15.7551 21.9327 15.6709L20.2857 14.1248V8.53144L25.2229 13.1714C25.4918 13.4239 25.7052 13.7236 25.8508 14.0536C25.9964 14.3836 26.0713 14.7373 26.0714 15.0945V28.0938C26.0714 28.3341 26.173 28.5646 26.3539 28.7346C26.5347 28.9045 26.78 29 27.0357 29C27.2915 29 27.5367 28.9045 27.7176 28.7346C27.8984 28.5646 28 28.3341 28 28.0938V15.0945C27.9997 13.8933 27.492 12.7413 26.5883 11.8918L20.2857 5.96856V2.71875C20.2857 1.99769 19.9809 1.30617 19.4384 0.796304C18.8959 0.286439 18.1601 0 17.3929 0H3.89286ZM18.3571 6.34375V12.3123L16.147 10.2334C15.0304 9.18575 13.9214 8.82506 12.8588 9.06794C12.65 9.11636 12.4476 9.18626 12.2551 9.27637C11.3931 9.04168 10.4847 8.99862 9.60187 9.15062C8.71904 9.30262 7.88591 9.6455 7.16834 10.1522C6.45077 10.6588 5.86841 11.3154 5.4673 12.07C5.06618 12.8246 4.85729 13.6565 4.85714 14.5C4.85706 15.5512 5.18117 16.5798 5.79024 17.4614C6.39931 18.343 7.26723 19.0399 8.28894 19.4675C9.31066 19.8952 10.4424 20.0354 11.5471 19.8711C12.6518 19.7068 13.6822 19.2451 14.5135 18.5419C14.5463 19.5895 14.6581 20.735 15.04 21.7192C15.3254 22.4569 15.7806 23.1619 16.5134 23.6767L16.525 23.6876C15.9377 23.8611 15.4247 24.2062 15.0605 24.6727C14.6963 25.1392 14.5 25.7027 14.5 26.2812V27.1875H6.78571V26.2812C6.78571 25.5602 6.48093 24.8687 5.93842 24.3588C5.3959 23.8489 4.66009 23.5625 3.89286 23.5625H2.92857V5.4375H3.89286C4.66009 5.4375 5.3959 5.15106 5.93842 4.6412C6.48093 4.13133 6.78571 3.43981 6.78571 2.71875V1.8125H14.5V2.71875C14.5 3.43981 14.8048 4.13133 15.3473 4.6412C15.8898 5.15106 16.6256 5.4375 17.3929 5.4375H18.3571V6.34375ZM18.3571 26.2812V26.2976C18.3526 26.5351 18.249 26.7614 18.0686 26.9279C17.8883 27.0943 17.6456 27.1875 17.3929 27.1875H16.4286V26.2812C16.4286 26.0409 16.5302 25.8104 16.711 25.6404C16.8918 25.4705 17.1371 25.375 17.3929 25.375H18.3571V26.2812ZM6.78571 14.5C6.78573 13.5781 7.15946 12.6909 7.83086 12.0188C8.50227 11.3467 9.4209 10.9403 10.3999 10.8822C10.1607 11.2991 10.0392 11.8066 10.1318 12.3921C10.2687 13.2657 10.8608 14.1737 11.8887 15.1398L13.6379 16.7838C13.1358 17.3653 12.4543 17.7864 11.6871 17.9892C10.9199 18.192 10.1048 18.1664 9.35367 17.9161C8.60257 17.6658 7.95241 17.2029 7.49258 16.5912C7.03274 15.9795 6.78581 15.249 6.78571 14.5ZM4.85714 1.8125V2.71875C4.85714 2.9591 4.75555 3.18961 4.57471 3.35957C4.39387 3.52952 4.1486 3.625 3.89286 3.625H2.92857V2.71875C2.92857 2.4784 3.03017 2.24789 3.211 2.07793C3.39184 1.90798 3.63711 1.8125 3.89286 1.8125H4.85714ZM2.92857 25.375H3.89286C4.1486 25.375 4.39387 25.4705 4.57471 25.6404C4.75555 25.8104 4.85714 26.0409 4.85714 26.2812V27.1875H3.89286C3.63711 27.1875 3.39184 27.092 3.211 26.9221C3.03017 26.7521 2.92857 26.5216 2.92857 26.2812V25.375ZM18.3571 3.625H17.3929C17.1371 3.625 16.8918 3.52952 16.711 3.35957C16.5302 3.18961 16.4286 2.9591 16.4286 2.71875V1.8125H17.3929C17.6486 1.8125 17.8939 1.90798 18.0747 2.07793C18.2555 2.24789 18.3571 2.4784 18.3571 2.71875V3.625Z" fill="#515151"/>
</svg>
