<svg width="29" height="29" viewBox="0 0 29 29" fill="none" xmlns="http://www.w3.org/2000/svg">
<rect width="29" height="29" fill="white"/>
<path d="M2.97437 5.85578C2.97437 5.09158 3.32058 4.40132 3.86095 3.86095C4.40132 3.32058 5.09158 2.97437 5.85578 2.97437H23.1442C23.9084 2.97437 24.5987 3.32058 25.1391 3.86095C25.6794 4.40132 26.0256 5.09158 26.0256 5.85578V23.1442C26.0256 23.9084 25.7221 24.6413 25.1817 25.1817C24.6413 25.7221 23.9084 26.0256 23.1442 26.0256H5.85578C5.09158 26.0256 4.35868 25.7221 3.81831 25.1817C3.27794 24.6413 2.97437 23.9084 2.97437 23.1442V5.85578ZM24.5849 8.73719H18.8221V13.0593H24.5849V8.73719ZM24.5849 14.5H18.8221V18.8221H24.5849V14.5ZM24.5849 20.2628H18.8221V24.5849H23.1442C23.5263 24.5849 23.8928 24.4332 24.163 24.163C24.4332 23.8928 24.5849 23.5263 24.5849 23.1442V20.2628ZM17.3814 24.5849V20.2628H11.6186V24.5849H17.3814ZM10.1779 24.5849V20.2628H4.41507V23.1442C4.41507 23.5263 4.56686 23.8928 4.83704 24.163C5.10723 24.4332 5.47368 24.5849 5.85578 24.5849H10.1779ZM4.41507 18.8221H10.1779V14.5H4.41507V18.8221ZM4.41507 13.0593H10.1779V8.73719H4.41507V13.0593ZM11.6186 8.73719V13.0593H17.3814V8.73719H11.6186ZM17.3814 14.5H11.6186V18.8221H17.3814V14.5Z" fill="#515151"/>
<path d="M2.89999 7.89999C2.89999 5.13857 5.13857 2.89999 7.89999 2.89999H21.1C23.8614 2.89999 26.1 5.13857 26.1 7.89999V8.69999H2.89999V7.89999Z" fill="#8C031F"/>
</svg>
