<svg width="29" height="29" viewBox="0 0 29 29" fill="none" xmlns="http://www.w3.org/2000/svg">
<rect width="29" height="29" fill="white"/>
<path d="M5.74122 6.42857H1.01866C0.476006 6.42857 -0.0666481 6.97714 0.00668355 7.86857L2.29463 24.9943C2.29463 24.9943 5.0079 12.3771 5.53589 9.34286C5.69722 8.43429 6.43054 8.14286 6.97319 8.14286H14.541C14.541 8.14286 13.5144 4.57714 13.4117 4.18286C13.2357 3.42857 12.9131 3 12.2677 3H7.41318C6.88519 3 6.38654 3.39429 6.23988 4.09714C6.10788 4.78286 5.74122 6.42857 5.74122 6.42857ZM12.8984 6.42857H7.03186C7.03186 6.42857 7.64784 4.71429 8.30783 4.71429H11.4318C12.1357 4.71429 12.8984 6.42857 12.8984 6.42857ZM3.7906 25.7143C3.33594 26.52 2.67596 27 1.94264 27H25.0128C25.8048 27 26.3621 26.4686 26.5234 25.5771C27.1687 21.8229 28.9874 11.1086 28.9874 11.1086C29.09 10.2514 28.5474 9.85714 28.078 9.85714H23.3408V7.33714C23.3408 7.06286 22.9595 6.42857 22.3728 6.42857H16.8583C16.0957 6.42857 15.5823 7.42286 15.5823 7.42286L14.541 9.85714H8.07317C7.60385 9.85714 7.14919 10.1829 7.06119 10.7143C7.06119 10.7143 4.72924 22.2 4.53858 23.28C4.43592 23.9143 4.21592 24.9771 3.7906 25.7143V25.7143ZM22.4315 9.85714H16.0077C16.0077 9.85714 16.8583 8.14286 17.665 8.14286H21.0235C22.0649 8.14286 22.4315 9.85714 22.4315 9.85714V9.85714Z" fill="#515151"/>
</svg>
