<svg width="439" height="452" viewBox="0 0 439 452" fill="none" xmlns="http://www.w3.org/2000/svg">
<path d="M129.522 233.912C129.522 237.036 128.771 239.965 127.267 242.699C125.819 245.432 123.507 247.636 120.333 249.31C117.214 250.983 113.26 251.82 108.47 251.82H98.6957V274.247H87V215.837H108.47C112.981 215.837 116.824 216.618 119.999 218.18C123.173 219.742 125.54 221.89 127.1 224.623C128.715 227.357 129.522 230.453 129.522 233.912ZM107.969 242.364C111.199 242.364 113.594 241.639 115.153 240.188C116.713 238.682 117.492 236.59 117.492 233.912C117.492 228.222 114.318 225.377 107.969 225.377H98.6957V242.364H107.969Z" fill="black"/>
<path d="M163.223 274.833C157.765 274.833 152.752 273.55 148.185 270.983C143.618 268.417 139.998 264.874 137.325 260.356C134.652 255.781 133.315 250.621 133.315 244.874C133.315 239.184 134.652 234.079 137.325 229.561C139.998 224.986 143.618 221.416 148.185 218.849C152.752 216.283 157.765 215 163.223 215C168.736 215 173.749 216.283 178.26 218.849C182.827 221.416 186.419 224.986 189.037 229.561C191.71 234.079 193.047 239.184 193.047 244.874C193.047 250.621 191.71 255.781 189.037 260.356C186.419 264.874 182.827 268.417 178.26 270.983C173.693 273.55 168.681 274.833 163.223 274.833ZM163.223 264.372C166.731 264.372 169.822 263.591 172.496 262.029C175.169 260.411 177.258 258.124 178.761 255.167C180.265 252.211 181.017 248.78 181.017 244.874C181.017 240.969 180.265 237.566 178.761 234.665C177.258 231.709 175.169 229.449 172.496 227.887C169.822 226.325 166.731 225.544 163.223 225.544C159.714 225.544 156.595 226.325 153.866 227.887C151.193 229.449 149.104 231.709 147.601 234.665C146.097 237.566 145.345 240.969 145.345 244.874C145.345 248.78 146.097 252.211 147.601 255.167C149.104 258.124 151.193 260.411 153.866 262.029C156.595 263.591 159.714 264.372 163.223 264.372Z" fill="black"/>
<path d="M217.788 275C214.001 275 210.604 274.331 207.596 272.992C204.589 271.597 202.194 269.728 200.412 267.385C198.685 265.042 197.738 262.448 197.571 259.603H209.35C209.573 261.388 210.436 262.866 211.94 264.038C213.5 265.209 215.421 265.795 217.705 265.795C219.932 265.795 221.659 265.349 222.884 264.456C224.165 263.563 224.806 262.42 224.806 261.025C224.806 259.519 224.026 258.403 222.466 257.678C220.963 256.897 218.54 256.06 215.198 255.167C211.745 254.331 208.905 253.466 206.677 252.573C204.505 251.681 202.611 250.314 200.996 248.473C199.437 246.632 198.657 244.149 198.657 241.025C198.657 238.459 199.381 236.116 200.829 233.996C202.333 231.876 204.449 230.202 207.178 228.975C209.963 227.748 213.221 227.134 216.953 227.134C222.466 227.134 226.866 228.529 230.152 231.318C233.438 234.052 235.248 237.762 235.582 242.448H224.388C224.221 240.607 223.441 239.156 222.049 238.096C220.712 236.98 218.902 236.423 216.618 236.423C214.502 236.423 212.859 236.813 211.69 237.594C210.576 238.375 210.019 239.463 210.019 240.858C210.019 242.42 210.798 243.619 212.358 244.456C213.917 245.237 216.34 246.046 219.626 246.883C222.968 247.72 225.724 248.584 227.897 249.477C230.069 250.37 231.934 251.764 233.494 253.661C235.109 255.502 235.944 257.957 236 261.025C236 263.703 235.248 266.102 233.744 268.222C232.296 270.342 230.18 272.015 227.395 273.243C224.666 274.414 221.464 275 217.788 275Z" fill="black"/>
<path d="M329 16H58C62.4 18.8 62.5 24 62.5 27.5V377C62.5 389.703 72.7975 400 85.5 400H245V415.5H86C63.9086 415.5 46 397.591 46 375.5V112H40C17.9086 112 0 94.0914 0 72V30C0 13.4315 13.4315 0 30 0H327C349.091 0 367 17.9086 367 40V273L349 259.5V36C349 24.9543 340.046 16 329 16Z" fill="black"/>
<rect x="80" y="296" width="163" height="15" rx="7.5" fill="black"/>
<rect x="80" y="320" width="117" height="15" rx="7.5" fill="black"/>
<path d="M231.009 94.5086L213.511 112L231.009 129.491C231.502 129.985 231.894 130.571 232.161 131.216C232.428 131.861 232.565 132.552 232.565 133.25C232.565 133.948 232.428 134.639 232.161 135.284C231.894 135.929 231.502 136.515 231.009 137.009C230.515 137.502 229.929 137.894 229.284 138.161C228.639 138.428 227.948 138.565 227.25 138.565C226.552 138.565 225.861 138.428 225.216 138.161C224.571 137.894 223.985 137.502 223.491 137.009L206 119.511L188.509 137.009C188.015 137.502 187.429 137.894 186.784 138.161C186.139 138.428 185.448 138.565 184.75 138.565C184.052 138.565 183.361 138.428 182.716 138.161C182.071 137.894 181.485 137.502 180.991 137.009C180.498 136.515 180.106 135.929 179.839 135.284C179.572 134.639 179.435 133.948 179.435 133.25C179.435 132.552 179.572 131.861 179.839 131.216C180.106 130.571 180.498 129.985 180.991 129.491L198.489 112L180.991 94.5086C179.995 93.5118 179.435 92.1597 179.435 90.75C179.435 89.3403 179.995 87.9882 180.991 86.9914C181.988 85.9946 183.34 85.4345 184.75 85.4345C186.16 85.4345 187.512 85.9946 188.509 86.9914L206 104.489L223.491 86.9914C223.985 86.4978 224.571 86.1063 225.216 85.8392C225.861 85.572 226.552 85.4345 227.25 85.4345C227.948 85.4345 228.639 85.572 229.284 85.8392C229.929 86.1063 230.515 86.4978 231.009 86.9914C231.502 87.485 231.894 88.071 232.161 88.7159C232.428 89.3608 232.565 90.052 232.565 90.75C232.565 91.448 232.428 92.1392 232.161 92.7841C231.894 93.429 231.502 94.015 231.009 94.5086ZM275.063 112C275.063 125.659 271.012 139.012 263.423 150.369C255.835 161.726 245.049 170.578 232.429 175.805C219.81 181.033 205.923 182.4 192.527 179.735C179.13 177.071 166.824 170.493 157.165 160.835C147.507 151.176 140.929 138.87 138.265 125.473C135.6 112.077 136.967 98.1904 142.195 85.5709C147.422 72.9514 156.274 62.1653 167.631 54.5766C178.988 46.9879 192.341 42.9375 206 42.9375C224.311 42.9568 241.866 50.2393 254.813 63.1868C267.761 76.1343 275.043 93.6894 275.063 112ZM264.438 112C264.438 100.442 261.01 89.1439 254.589 79.5339C248.168 69.9239 239.041 62.4338 228.363 58.0108C217.685 53.5878 205.935 52.4305 194.599 54.6854C183.264 56.9402 172.851 62.5058 164.678 70.6784C156.506 78.8511 150.94 89.2636 148.685 100.599C146.431 111.935 147.588 123.685 152.011 134.363C156.434 145.041 163.924 154.168 173.534 160.589C183.144 167.01 194.442 170.438 206 170.438C221.493 170.42 236.347 164.257 247.302 153.302C258.258 142.347 264.42 127.493 264.438 112Z" fill="black"/>
<path d="M416.663 412.813C403.098 389.363 382.195 372.548 357.801 364.577C369.868 357.394 379.243 346.448 384.486 333.421C389.73 320.394 390.552 306.006 386.827 292.466C383.102 278.927 375.036 266.984 363.866 258.473C352.697 249.961 339.042 245.352 325 245.352C310.957 245.352 297.302 249.961 286.133 258.473C274.964 266.984 266.897 278.927 263.172 292.466C259.447 306.006 260.269 320.394 265.513 333.421C270.756 346.448 280.131 357.394 292.198 364.577C267.804 372.539 246.901 389.354 233.336 412.813C232.839 413.624 232.509 414.527 232.366 415.468C232.223 416.408 232.27 417.368 232.504 418.29C232.738 419.212 233.154 420.078 233.728 420.837C234.302 421.596 235.023 422.232 235.846 422.708C236.67 423.184 237.581 423.49 238.525 423.608C239.469 423.726 240.428 423.654 241.343 423.396C242.259 423.138 243.114 422.699 243.857 422.105C244.601 421.511 245.218 420.774 245.672 419.938C262.451 390.94 292.109 373.626 325 373.626C357.89 373.626 387.548 390.94 404.328 419.938C404.782 420.774 405.398 421.511 406.142 422.105C406.885 422.699 407.74 423.138 408.656 423.396C409.572 423.654 410.53 423.726 411.474 423.608C412.418 423.49 413.329 423.184 414.153 422.708C414.977 422.232 415.697 421.596 416.271 420.837C416.845 420.078 417.261 419.212 417.495 418.29C417.729 417.368 417.776 416.408 417.633 415.468C417.49 414.527 417.16 413.624 416.663 412.813ZM275.125 309.501C275.125 299.636 278.05 289.994 283.53 281.792C289.01 273.59 296.8 267.197 305.913 263.422C315.027 259.647 325.055 258.66 334.73 260.584C344.404 262.509 353.291 267.259 360.266 274.234C367.242 281.209 371.992 290.096 373.916 299.771C375.841 309.445 374.853 319.474 371.078 328.587C367.303 337.701 360.911 345.49 352.709 350.97C344.507 356.451 334.864 359.376 325 359.376C311.776 359.362 299.099 354.102 289.748 344.752C280.398 335.402 275.139 322.724 275.125 309.501Z" fill="black"/>
</svg>
