<svg width="29" height="29" viewBox="0 0 29 29" fill="none" xmlns="http://www.w3.org/2000/svg">
<rect width="29" height="29" fill="white"/>
<path d="M6.09 23.2H8.99C9.1495 23.2 9.28 23.0695 9.28 22.91V6.09C9.28 5.9305 9.1495 5.8 8.99 5.8H6.09C5.9305 5.8 5.8 5.9305 5.8 6.09V22.91C5.8 23.0695 5.9305 23.2 6.09 23.2ZM13.05 13.05H15.95C16.1095 13.05 16.24 12.9195 16.24 12.76V6.09C16.24 5.9305 16.1095 5.8 15.95 5.8H13.05C12.8905 5.8 12.76 5.9305 12.76 6.09V12.76C12.76 12.9195 12.8905 13.05 13.05 13.05ZM20.01 15.66H22.91C23.0695 15.66 23.2 15.5295 23.2 15.37V6.09C23.2 5.9305 23.0695 5.8 22.91 5.8H20.01C19.8505 5.8 19.72 5.9305 19.72 6.09V15.37C19.72 15.5295 19.8505 15.66 20.01 15.66ZM27.84 0H1.16C0.518375 0 0 0.518375 0 1.16V27.84C0 28.4816 0.518375 29 1.16 29H27.84C28.4816 29 29 28.4816 29 27.84V1.16C29 0.518375 28.4816 0 27.84 0ZM26.39 26.39H2.61V2.61H26.39V26.39Z" fill="#515151"/>
<rect x="5" y="5" width="5" height="19" rx="1" fill="#8C031F"/>
<rect x="12" y="5" width="5" height="9" rx="1" fill="#8C031F"/>
<rect x="19" y="5" width="5" height="11" rx="1" fill="#8C031F"/>
</svg>
