<svg width="29" height="29" viewBox="0 0 29 29" fill="none" xmlns="http://www.w3.org/2000/svg">
<rect width="29" height="29" fill="white"/>
<path d="M14.5 0L0 8.64538V20.3387L14.5 29L29 20.3387V8.66133L14.5 0ZM14.5 1.01935L27.694 8.90107L22.3421 12.0973L9.19638 4.18132L14.5 1.01935ZM14.0606 27.7182L0.8787 19.8442V9.6657L14.0602 17.5387L14.0606 27.7182ZM1.29388 8.89382L6.57913 5.74248L19.85 13.586L14.5 16.7818L1.29388 8.89382ZM28.1213 19.8442L22.7747 23.0376V19.5126L20.284 21.0004V24.5253L14.9394 27.7177V17.5387L20.284 14.3521V17.8693L22.7747 16.3821V12.8673L28.1213 9.67972V19.8442Z" fill="#515151"/>
<path d="M11.9881 3.12717L15.0955 5.02522L17.7171 3.46163L14.6102 1.56358L11.9881 3.12717Z" fill="#8C031F"/>
<path d="M27.8826 10.1718L25.3919 11.6566V15.6842L27.8826 14.197V10.1718Z" fill="#8C031F"/>
<path d="M15.3265 27.0338L18.7248 25.0038V19.5126L15.3265 21.5388V27.0338Z" fill="#8C031F"/>
</svg>
