<svg width="29" height="29" viewBox="0 0 29 29" fill="none" xmlns="http://www.w3.org/2000/svg">
<rect width="29" height="29" fill="white"/>
<path d="M6.45975 23.7949L0 29V1.48718C0 1.09275 0.152767 0.714485 0.424695 0.435585C0.696623 0.156684 1.06544 0 1.45 0H27.55C27.9346 0 28.3034 0.156684 28.5753 0.435585C28.8472 0.714485 29 1.09275 29 1.48718V22.3077C29 22.7021 28.8472 23.0804 28.5753 23.3593C28.3034 23.6382 27.9346 23.7949 27.55 23.7949H6.45975ZM13.05 16.359V19.3333H15.95V16.359H13.05ZM9.52215 8.64497L12.3671 9.22944C12.4478 8.81516 12.6416 8.4329 12.9258 8.12716C13.2101 7.82142 13.5732 7.60476 13.9728 7.50238C14.3725 7.40001 14.7922 7.41613 15.1833 7.54888C15.5743 7.68162 15.9206 7.92553 16.1818 8.25223C16.4429 8.57892 16.6083 8.97497 16.6586 9.39428C16.7089 9.81359 16.6421 10.2389 16.4659 10.6208C16.2897 11.0027 16.0114 11.3254 15.6634 11.5514C15.3154 11.7774 14.9119 11.8974 14.5 11.8974H13.05V14.8718H14.5C15.461 14.8715 16.4022 14.5913 17.214 14.0639C18.0259 13.5365 18.6751 12.7835 19.086 11.8925C19.497 11.0015 19.6528 10.0091 19.5354 9.03086C19.418 8.05259 19.0322 7.1286 18.4229 6.3664C17.8136 5.60419 17.0058 5.03509 16.0935 4.72531C15.1812 4.41552 14.2018 4.37778 13.2694 4.61647C12.337 4.85517 11.4898 5.36049 10.8265 6.07365C10.1631 6.78681 9.71078 7.67849 9.52215 8.64497V8.64497Z" fill="#515151"/>
</svg>
