<!-- <svg id="Layer_1" data-name="Layer 1" xmlns="http://www.w3.org/2000/svg" viewBox="0 0 20.2 21.68">
<defs>
<style>.cls-1{fill:#686565;}
.burgendi{fill:#8C031F}</style>
</defs>
<path class="cls-1" d="M-388.31,306.63c-.23,0-.34.23-.3.52a8.56,8.56,0,0,1-1.64,6.56,7.39,7.39,0,0,1-1.31,1.37,5.64,5.64,0,0,0-3.86-4.47,3,3,0,0,0,.61-4.4,3,3,0,0,0-4.2-.39,2.86,2.86,0,0,0-1.07,2,3,3,0,0,0,1.3,2.78,5.64,5.64,0,0,0-3.86,4.48l-.13-.11a8.53,8.53,0,0,1-2.94-6.54,9.79,9.79,0,0,1,.11-1.32.39.39,0,0,0-.28-.49c-.22,0-.4.1-.45.37a.29.29,0,0,0,0,.09,8.84,8.84,0,0,0,.05,3.12,9.19,9.19,0,0,0,5.17,6.73,8.34,8.34,0,0,0,2.39.76c.33.06.56-.13.51-.41a.41.41,0,0,0-.38-.33,8.33,8.33,0,0,1-2.81-1c-.58-.33-.58-.33-.43-1a4.84,4.84,0,0,1,5.73-3.74,4.85,4.85,0,0,1,3.83,4.11.38.38,0,0,1-.2.45,8.68,8.68,0,0,1-3.1,1.19c-.21,0-.37.12-.39.36s.2.44.54.38a9.07,9.07,0,0,0,5.65-3.37,9.21,9.21,0,0,0,1.92-7.3C-387.92,306.74-388.08,306.59-388.31,306.63Zm-8.79,3.74a2.25,2.25,0,0,1-2.25-2.25,2.25,2.25,0,0,1,2.24-2.24,2.25,2.25,0,0,1,2.25,2.24A2.25,2.25,0,0,1-397.1,310.37Z" transform="translate(407.21 -296.17)"/>
<path  class="cls-1" style="fill:#8C031F" d="M-399.73,300.84a.78.78,0,0,1,.27.88c-.14.63-.22,1.26-.32,1.85a.37.37,0,0,0,.58.38l1.91-1a.35.35,0,0,1,.37,0c.62.34,1.26.67,1.89,1a.39.39,0,0,0,.57-.12.67.67,0,0,0,0-.42c-.12-.67-.23-1.35-.36-2a.32.32,0,0,1,.12-.32l1.51-1.47a.44.44,0,0,0,.18-.45.42.42,0,0,0-.42-.28c-.71-.1-1.41-.22-2.12-.31a.27.27,0,0,1-.24-.18c-.31-.63-.63-1.27-.93-1.9a.44.44,0,0,0-.41-.3.43.43,0,0,0-.37.3l-.93,1.88a.32.32,0,0,1-.27.21c-.7.09-1.4.2-2.1.3-.18,0-.34.07-.4.26s0,.34.16.47C-400.6,300-400.19,300.45-399.73,300.84Zm1.45-1.59a.48.48,0,0,0,.39-.29l.79-1.59c.07.16.13.28.19.4.2.4.4.79.59,1.19a.48.48,0,0,0,.39.29l1.55.22h.13c-.39.41-.75.82-1.14,1.21a.58.58,0,0,0-.19.58c.11.54.19,1.09.28,1.65a.43.43,0,0,1-.23-.09c-.44-.23-.87-.45-1.3-.69a.54.54,0,0,0-.55,0c-.49.28-1,.53-1.54.82.1-.6.19-1.15.3-1.71a.56.56,0,0,0-.18-.54c-.39-.4-.77-.82-1.14-1.22C-399.42,299.41-398.85,299.32-398.28,299.25Z" transform="translate(407.21 -296.17)"/>
<path class="cls-1 burgendi" d="M-405.77,303.52c-.11.55-.2,1.11-.29,1.64a.38.38,0,0,0,.58.36c.5-.25,1-.5,1.47-.77a.33.33,0,0,1,.36,0l1.44.77a.38.38,0,0,0,.44,0,.38.38,0,0,0,.14-.41c-.09-.52-.17-1.05-.27-1.57a.38.38,0,0,1,.14-.42l1.09-1.06c.13-.13.25-.27.18-.47s-.25-.25-.44-.28l-1.57-.23a.26.26,0,0,1-.24-.17c-.24-.49-.48-1-.71-1.45a.43.43,0,0,0-.38-.29.4.4,0,0,0-.39.29c-.23.47-.47.94-.7,1.42a.33.33,0,0,1-.29.21l-1.57.22c-.18,0-.34.08-.4.27a.41.41,0,0,0,.15.46l1.13,1.09A.38.38,0,0,1-405.77,303.52Zm1-1.74a.5.5,0,0,0,.42-.32l.54-1.09c.19.38.37.72.53,1.07a.52.52,0,0,0,.46.34c.38,0,.77.11,1.14.17-.24.26-.48.54-.74.78a.63.63,0,0,0-.23.68c.09.35.13.72.19,1.11-.35-.18-.69-.34-1-.53a.6.6,0,0,0-.68,0c-.32.19-.65.35-1,.54.07-.43.12-.81.21-1.19a.54.54,0,0,0-.18-.54l-.8-.85C-405.59,301.89-405.2,301.82-404.8,301.78Z" transform="translate(407.21 -296.17)"/>
<path class="cls-1 burgendi" d="M-387,301.59c-.07-.22-.24-.26-.44-.29l-1.57-.23a.27.27,0,0,1-.25-.19c-.24-.48-.48-1-.71-1.44a.42.42,0,0,0-.37-.28.42.42,0,0,0-.39.28c-.23.48-.47,1-.71,1.44a.28.28,0,0,1-.25.2c-.54.06-1.08.15-1.62.23a.41.41,0,0,0-.39.28.39.39,0,0,0,.16.43c.38.37.75.75,1.14,1.11a.41.41,0,0,1,.12.39c-.11.55-.2,1.1-.29,1.63a.37.37,0,0,0,.58.37c.5-.25,1-.52,1.5-.79a.28.28,0,0,1,.28,0l1.46.77a.39.39,0,0,0,.46,0,.39.39,0,0,0,.14-.44l-.27-1.59a.32.32,0,0,1,.11-.35c.38-.35.74-.72,1.12-1.09C-387.08,301.92-387,301.79-387,301.59Zm-2,1.12a.67.67,0,0,0-.24.72c.09.34.12.7.19,1.09l-1-.54a.57.57,0,0,0-.64,0c-.32.19-.67.36-1,.55.07-.42.12-.81.2-1.19a.53.53,0,0,0-.17-.54c-.27-.27-.53-.56-.8-.85.38-.06.78-.13,1.18-.18a.46.46,0,0,0,.39-.29c.17-.36.35-.71.55-1.11l.53,1.07a.51.51,0,0,0,.45.34c.39,0,.77.11,1.15.17A10.52,10.52,0,0,1-389,302.71Z" transform="translate(407.21 -296.17)"/>
<path class="cls-1" d="M-397.09,317.1a.39.39,0,0,0-.39.36.37.37,0,0,0,.37.39.38.38,0,0,0,.38-.37A.38.38,0,0,0-397.09,317.1Z" transform="translate(407.21 -296.17)"/></svg> -->



<svg id="Layer_1" data-name="Layer 1" xmlns="http://www.w3.org/2000/svg" viewBox="0 0 20.2 21.68">
<defs>
<style>.cls-1{fill:#4c3f3f;}
.burgendi{fill:#8C031F}</style>
</defs>
<path class="cls-1" d="M-388.31,306.63c-.23,0-.34.23-.3.52a8.56,8.56,0,0,1-1.64,6.56,7.39,7.39,0,0,1-1.31,1.37,5.64,5.64,0,0,0-3.86-4.47,3,3,0,0,0,.61-4.4,3,3,0,0,0-4.2-.39,2.86,2.86,0,0,0-1.07,2,3,3,0,0,0,1.3,2.78,5.64,5.64,0,0,0-3.86,4.48l-.13-.11a8.53,8.53,0,0,1-2.94-6.54,9.79,9.79,0,0,1,.11-1.32.39.39,0,0,0-.28-.49c-.22,0-.4.1-.45.37a.29.29,0,0,0,0,.09,8.84,8.84,0,0,0,.05,3.12,9.19,9.19,0,0,0,5.17,6.73,8.34,8.34,0,0,0,2.39.76c.33.06.56-.13.51-.41a.41.41,0,0,0-.38-.33,8.33,8.33,0,0,1-2.81-1c-.58-.33-.58-.33-.43-1a4.84,4.84,0,0,1,5.73-3.74,4.85,4.85,0,0,1,3.83,4.11.38.38,0,0,1-.2.45,8.68,8.68,0,0,1-3.1,1.19c-.21,0-.37.12-.39.36s.2.44.54.38a9.07,9.07,0,0,0,5.65-3.37,9.21,9.21,0,0,0,1.92-7.3C-387.92,306.74-388.08,306.59-388.31,306.63Zm-8.79,3.74a2.25,2.25,0,0,1-2.25-2.25,2.25,2.25,0,0,1,2.24-2.24,2.25,2.25,0,0,1,2.25,2.24A2.25,2.25,0,0,1-397.1,310.37Z" transform="translate(407.21 -296.17)"/>
<path class="cls-1" style="fill:#8C031F" d="M-399.73,300.84a.78.78,0,0,1,.27.88c-.14.63-.22,1.26-.32,1.85a.37.37,0,0,0,.58.38l1.91-1a.35.35,0,0,1,.37,0c.62.34,1.26.67,1.89,1a.39.39,0,0,0,.57-.12.67.67,0,0,0,0-.42c-.12-.67-.23-1.35-.36-2a.32.32,0,0,1,.12-.32l1.51-1.47a.44.44,0,0,0,.18-.45.42.42,0,0,0-.42-.28c-.71-.1-1.41-.22-2.12-.31a.27.27,0,0,1-.24-.18c-.31-.63-.63-1.27-.93-1.9a.44.44,0,0,0-.41-.3.43.43,0,0,0-.37.3l-.93,1.88a.32.32,0,0,1-.27.21c-.7.09-1.4.2-2.1.3-.18,0-.34.07-.4.26s0Z" transform="translate(407.21 -296.17)"/>
<path class="cls-1 burgendi" d="M-405.77,303.52c-.11.55-.2,1.11-.29,1.64a.38.38,0,0,0,.58.36c.5-.25,1-.5,1.47-.77a.33.33,0,0,1,.36,0l1.44.77a.38.38,0,0,0,.44,0,.38.38,0,0,0,.14-.41c-.09-.52-.17-1.05-.27-1.57a.38.38,0,0,1,.14-.42l1.09-1.06c.13-.13.25-.27.18-.47s-.25-.25-.44-.28l-1.57-.23a.26.26,0,0,1-.24-.17c-.24-.49-.48-1-.71-1.45a.43.43,0,0,0-.38-.29.4.4,0,0,0-.39.29c-.23.47-.47.94-.7,1.42a.33.33,0,0,1-.29.21l-1.57.22c-.18,0-.34.08-.4.27a.41.41,0,0,0,.15.46l1.13,1.09A.38.38,0,0,1-405.77,303.52Zm1-1.74a.5.5,0,0,0,.42-.32l.54-1.09c.19.38.37.72.53Z" transform="translate(407.21 -296.17)"/>
<path class="cls-1 burgendi" d="M-387,301.59c-.07-.22-.24-.26-.44-.29l-1.57-.23a.27.27,0,0,1-.25-.19c-.24-.48-.48-1-.71-1.44a.42.42,0,0,0-.37-.28.42.42,0,0,0-.39.28c-.23.48-.47,1-.71,1.44a.28.28,0,0,1-.25.2c-.54.06-1.08.15-1.62.23a.41.41,0,0,0-.39.28.39.39,0,0,0,.16.43c.38.37.75.75,1.14,1.11a.41.41,0,0,1,.12.39c-.11.55-.2,1.1-.29,1.63a.37.37,0,0,0,.58.37c.5-.25,1-.52,1.5-.79a.28.28,0,0,1,.28,0l1.46.77a.39.39,0,0,0,.46,0,.39.39,0,0,0,.14-.44l-.27-1.59a.32.32,0,0,1,.11-.35c.38-.35.74-.72,1.12-1.09C-387.08,301.92-387,301.79-387,301.59Zm-2,1.12a.67.67Z" transform="translate(407.21 -296.17)"/>
<path class="cls-1" d="M-397.09,317.1a.39.39,0,0,0-.39.36.37.37,0,0,0,.37.39.38.38,0,0,0,.38-.37A.38.38,0,0,0-397.09,317.1Z" transform="translate(407.21 -296.17)"/></svg>