<svg width="24" height="24" viewBox="0 0 24 24" fill="none" xmlns="http://www.w3.org/2000/svg">
<path fill-rule="evenodd" clip-rule="evenodd" d="M21.1662 9.63086L21.1744 9.63937C21.7959 10.2872 22.5 11.0212 22.5 12C22.5 12.9788 21.7959 13.7137 21.1744 14.3606L21.1713 14.3638C20.8188 14.7322 20.4549 15.1125 20.3175 15.4453C20.1903 15.7513 20.1825 16.258 20.175 16.7493L20.175 16.7522L20.1749 16.7558C20.1609 17.6699 20.145 18.705 19.425 19.425C18.705 20.145 17.6699 20.1609 16.7558 20.1749L16.7522 20.175L16.7493 20.175C16.258 20.1825 15.7513 20.1903 15.4453 20.3175C15.1132 20.4543 14.7358 20.8153 14.3691 21.1662L14.3606 21.1744C13.7128 21.7959 12.9788 22.5 12 22.5C11.0212 22.5 10.2863 21.7959 9.63937 21.1744L9.63618 21.1713C9.2678 20.8188 8.88748 20.4549 8.55469 20.3175C8.24872 20.1903 7.74198 20.1825 7.2507 20.175L7.24781 20.175L7.2442 20.1749C6.33008 20.1609 5.29499 20.145 4.575 19.425C3.85501 18.705 3.8391 17.6699 3.82506 16.7558L3.825 16.7522L3.82496 16.7493C3.81747 16.258 3.80975 15.7513 3.6825 15.4453C3.54575 15.1132 3.18466 14.7358 2.83376 14.3691L2.82562 14.3606C2.20406 13.7128 1.5 12.9788 1.5 12C1.5 11.0212 2.20406 10.2863 2.82562 9.63937L2.82868 9.63619C3.18116 9.26781 3.54508 8.88748 3.6825 8.55469C3.80975 8.24873 3.81747 7.742 3.82496 7.25072L3.825 7.24781C3.82528 7.2341 3.82556 7.22035 3.82584 7.20658C3.84422 6.3018 3.86487 5.28513 4.575 4.575C5.29499 3.85501 6.33009 3.8391 7.2442 3.82506L7.24781 3.825L7.25106 3.82495C7.74224 3.81747 8.25067 3.80972 8.55469 3.6825C8.88681 3.54575 9.26416 3.18466 9.63087 2.83377L9.63937 2.82562C10.2872 2.20406 11.0212 1.5 12 1.5C12.9788 1.5 13.7137 2.20406 14.3606 2.82562L14.3638 2.82868C14.7322 3.18116 15.1125 3.54508 15.4453 3.6825C15.7513 3.80975 16.258 3.81747 16.7493 3.82496L16.7522 3.825L16.7558 3.82506C17.6699 3.8391 18.705 3.85501 19.425 4.575C20.145 5.29499 20.1609 6.33008 20.1749 7.2442L20.175 7.24781L20.175 7.2507C20.1825 7.74198 20.1903 8.24872 20.3175 8.55469C20.4543 8.8868 20.8153 9.26416 21.1662 9.63086ZM8.23852 9.78445C7.83061 9.33877 7.86122 8.6468 8.3069 8.23889C8.75257 7.83098 9.44454 7.86159 9.85246 8.30726L11.9999 10.6535L14.1474 8.30726C14.5553 7.86159 15.2473 7.83098 15.693 8.23889C16.1386 8.6468 16.1693 9.33877 15.7613 9.78445L13.4829 12.2738L15.7612 14.763C16.1691 15.2087 16.1385 15.9006 15.6928 16.3086C15.2471 16.7165 14.5552 16.6859 14.1473 16.2402L11.9999 13.8941L9.85261 16.2402C9.44469 16.6859 8.75272 16.7165 8.30705 16.3086C7.86137 15.9006 7.83076 15.2087 8.23867 14.763L10.517 12.2738L8.23852 9.78445Z" fill="#FF6759"/>
</svg>
