<svg width="29" height="29" viewBox="0 0 29 29" fill="none" xmlns="http://www.w3.org/2000/svg">
<rect width="29" height="29" fill="white"/>
<path d="M5.80001 20.956V9.407C6.76747 9.08144 7.58286 8.44081 8.10207 7.59836C8.62128 6.75591 8.81088 5.76588 8.63736 4.80324C8.46384 3.8406 7.93836 2.96734 7.15381 2.3378C6.36926 1.70827 5.37615 1.36298 4.35001 1.36298C3.32386 1.36298 2.33075 1.70827 1.5462 2.3378C0.761652 2.96734 0.236179 3.8406 0.0626552 4.80324C-0.110868 5.76588 0.0787314 6.75591 0.597943 7.59836C1.11715 8.44081 1.93255 9.08144 2.90001 9.407V20.956C1.93255 21.2815 1.11715 21.9222 0.597943 22.7646C0.0787314 23.6071 -0.110868 24.5971 0.0626552 25.5597C0.236179 26.5224 0.761652 27.3956 1.5462 28.0252C2.33075 28.6547 3.32386 29 4.35001 29C5.37615 29 6.36926 28.6547 7.15381 28.0252C7.93836 27.3956 8.46384 26.5224 8.63736 25.5597C8.81088 24.5971 8.62128 23.6071 8.10207 22.7646C7.58286 21.9222 6.76747 21.2815 5.80001 20.956V20.956ZM4.35001 4.14041C4.63679 4.14041 4.91713 4.22135 5.15558 4.373C5.39404 4.52465 5.57989 4.7402 5.68963 4.99239C5.79938 5.24457 5.82809 5.52207 5.77215 5.78979C5.7162 6.05751 5.5781 6.30343 5.37531 6.49644C5.17253 6.68946 4.91416 6.82091 4.63289 6.87416C4.35162 6.92741 4.06007 6.90008 3.79512 6.79562C3.53016 6.69116 3.30371 6.51427 3.14438 6.2873C2.98505 6.06034 2.90001 5.79351 2.90001 5.52054C2.90001 5.15451 3.05278 4.80346 3.3247 4.54464C3.59663 4.28581 3.96544 4.14041 4.35001 4.14041V4.14041ZM4.35001 26.2226C4.06322 26.2226 3.78288 26.1416 3.54443 25.99C3.30598 25.8383 3.12013 25.6228 3.01038 25.3706C2.90064 25.1184 2.87192 24.8409 2.92787 24.5732C2.98382 24.3055 3.12192 24.0596 3.3247 23.8665C3.52749 23.6735 3.78585 23.5421 4.06713 23.4888C4.3484 23.4356 4.63995 23.4629 4.9049 23.5674C5.16985 23.6718 5.39631 23.8487 5.55564 24.0757C5.71497 24.3026 5.80001 24.5695 5.80001 24.8424C5.80001 25.2085 5.64724 25.5595 5.37531 25.8183C5.10338 26.0772 4.73457 26.2226 4.35001 26.2226Z" fill="#8C031F"/>
<path d="M26.1 20.956V6.90068C26.1 6.16861 25.7945 5.46652 25.2506 4.94887C24.7067 4.43122 23.9691 4.14041 23.2 4.14041H15.7006L18.0003 1.95151L15.95 0L12.2003 3.56903L10.15 5.52054L12.2003 7.47205L15.95 11.0411L18.0003 9.08957L15.7006 6.90068H23.2V20.956C22.2325 21.2815 21.4171 21.9222 20.8979 22.7646C20.3787 23.6071 20.1891 24.5971 20.3626 25.5597C20.5362 26.5224 21.0616 27.3956 21.8462 28.0252C22.6307 28.6547 23.6238 29 24.65 29C25.6761 29 26.6692 28.6547 27.4538 28.0252C28.2383 27.3956 28.7638 26.5224 28.9373 25.5597C29.1109 24.5971 28.9213 23.6071 28.4021 22.7646C27.8828 21.9222 27.0674 21.2815 26.1 20.956V20.956ZM24.65 26.2226C24.3632 26.2226 24.0829 26.1416 23.8444 25.99C23.606 25.8383 23.4201 25.6228 23.3104 25.3706C23.2006 25.1184 23.1719 24.8409 23.2279 24.5732C23.2838 24.3055 23.4219 24.0596 23.6247 23.8665C23.8275 23.6735 24.0858 23.5421 24.3671 23.4888C24.6484 23.4356 24.9399 23.4629 25.2049 23.5674C25.4698 23.6718 25.6963 23.8487 25.8556 24.0757C26.0149 24.3026 26.1 24.5695 26.1 24.8424C26.1 25.2085 25.9472 25.5595 25.6753 25.8183C25.4034 26.0772 25.0346 26.2226 24.65 26.2226Z" fill="#515151"/>
</svg>
