<svg width="156" height="167" viewBox="0 0 156 167" fill="none" xmlns="http://www.w3.org/2000/svg">
<g clip-path="url(#clip0_1098_14260)">
<path fill-rule="evenodd" clip-rule="evenodd" d="M154.096 47.9238C155.522 49.3552 155.996 50.978 155.996 52.9097C155.99 60.2478 155.988 67.5859 155.991 74.924C156.026 97.3734 156.026 119.823 155.991 142.272C155.983 147.349 155.027 152.222 152.171 156.542C149.215 161.137 144.798 164.577 139.648 166.297C138.829 166.575 137.979 166.647 137.129 166.72C136.491 166.774 135.852 166.829 135.225 166.971H47.7292C44.0604 166.766 40.5303 165.485 37.5701 163.286C31.7132 159 28.1517 153.332 27.5143 145.883C27.1722 141.861 27.2084 137.822 27.2446 133.783C27.2648 131.518 27.2851 129.252 27.2387 126.988C27.2124 125.681 27.2084 125.04 26.8857 124.725C26.5746 124.421 25.9673 124.421 24.7581 124.421H8.62156C3.60014 124.413 0.297014 121.611 0.210883 116.542C-0.0345897 103.182 -0.0604289 89.812 0.210883 76.4511C0.318546 71.0998 3.6001 68.3589 8.95312 68.3328H24.6031C27.2215 68.311 27.2215 68.3067 27.2215 65.7224C27.2215 61.214 27.2157 56.7051 27.21 52.1958C27.1985 43.1764 27.187 34.1558 27.2215 25.1351C27.243 19.9665 28.0569 14.9589 30.9724 10.5212C33.8061 6.10971 37.9574 2.72507 42.824 0.858413C43.8501 0.465063 44.9211 0.362338 45.992 0.259629C46.6741 0.194207 47.3561 0.128791 48.0264 -0.0117188H105.82C106.684 0.279845 107.462 0.783665 108.085 1.45445C123.408 16.9718 138.745 32.4616 154.096 47.9238ZM150.255 143.038V100.153C150.255 96.2208 150.253 92.2881 150.252 88.3557C150.248 77.3401 150.244 66.3265 150.272 55.3199C150.277 53.8581 149.889 53.5492 148.485 53.5492C139.081 53.5922 129.675 53.5874 120.27 53.5827C117.301 53.5812 114.332 53.5797 111.363 53.5797C110.288 53.6453 109.209 53.5663 108.154 53.3447C104.532 52.3615 102.319 49.3117 102.319 45.1699V6.68394C102.319 6.59195 102.321 6.50169 102.324 6.41394C102.342 5.72557 102.356 5.19166 101.165 5.19166C90.2457 5.22802 79.3123 5.23202 68.3785 5.23602C62.3044 5.23824 56.2302 5.24046 50.1581 5.24822C47.7839 5.25119 45.4428 5.81119 43.3193 6.88408C36.3298 10.3994 32.9836 16.2206 32.9836 24.0518C32.981 28.3414 32.9819 32.6311 32.9828 36.9208C32.985 46.9274 32.9871 56.934 32.9449 66.9405C32.9363 68.4807 33.2248 68.9157 34.8355 68.9157C62.2222 68.8867 89.6074 68.8722 116.991 68.8722C122.275 68.8722 125.092 71.6871 125.092 76.9906V115.959C125.088 121.18 122.288 123.978 117.09 123.978H34.4522C34.3821 123.977 34.3131 123.976 34.2455 123.975C33.5124 123.961 32.9492 123.95 32.9492 125.165C32.976 127.734 32.965 130.304 32.954 132.873C32.9385 136.501 32.923 140.127 33.0138 143.751C33.2765 154.206 40.8344 161.781 50.9634 161.781H132.314C134.467 161.792 136.605 161.415 138.627 160.667C145.845 157.987 150.255 151.348 150.255 143.038ZM31.1584 108.061C32.7009 108.687 34.4457 109 36.3927 109C38.3904 109 40.1225 108.637 41.5891 107.911C43.0557 107.185 44.1683 106.209 44.9269 104.982C45.7108 103.755 46.1028 102.391 46.1028 100.889C46.1028 99.3115 45.7108 98.0223 44.9269 97.0209C44.1431 96.0195 43.2075 95.2559 42.1201 94.7302C41.0581 94.2045 39.6673 93.6537 37.9479 93.0779C36.2284 92.5271 34.9641 92.0139 34.1549 91.5382C33.3457 91.0626 32.9411 90.3992 32.9411 89.548C32.9411 88.7719 33.1814 88.1836 33.6618 87.783C34.1422 87.3574 34.7744 87.1446 35.5583 87.1446C36.4686 87.1446 37.2146 87.395 37.7961 87.8957C38.3777 88.3713 38.6938 89.0348 38.7444 89.8859H45.7614C45.635 87.4075 44.6741 85.4798 42.8787 84.1029C41.0834 82.701 38.7191 82 35.7859 82C32.9032 82 30.5642 82.701 28.7689 84.1029C26.9735 85.4798 26.0759 87.395 26.0759 89.8484C26.0759 91.5007 26.4678 92.8401 27.2517 93.8665C28.0356 94.8929 28.9712 95.669 30.0585 96.1947C31.1458 96.7204 32.5492 97.2462 34.2687 97.7719C35.4571 98.1224 36.3675 98.4353 36.9996 98.7107C37.6571 98.9861 38.2007 99.3366 38.6306 99.7622C39.0858 100.188 39.3133 100.726 39.3133 101.377C39.3133 102.153 39.0352 102.766 38.4789 103.217C37.9226 103.643 37.164 103.855 36.2031 103.855C35.2675 103.855 34.5089 103.605 33.9273 103.104C33.3457 102.579 33.0044 101.828 32.9032 100.851H26C26.0506 102.579 26.531 104.056 27.4413 105.282C28.3769 106.509 29.616 107.435 31.1584 108.061ZM56.5802 108.737V82.3755H50.0943V108.737H56.5802ZM80.4351 82.3755V87.5202H73.3801V108.737H66.8942V87.5202H59.8392V82.3755H80.4351ZM90.1762 92.8526V87.5202H100V82.3755H83.6902V108.737H100V103.592H90.1762V97.8095H98.8621V92.8526H90.1762Z" fill="#64748B"/>
</g>
<defs>
<clipPath id="clip0_1098_14260">
<rect width="156" height="167" fill="white"/>
</clipPath>
</defs>
</svg>
