<svg width="29" height="29" viewBox="0 0 29 29" fill="none" xmlns="http://www.w3.org/2000/svg">
<rect width="29" height="29" fill="white"/>
<path d="M26.1334 11.2668V11.0318C26.1422 8.6807 25.3588 6.38888 23.8983 4.49315C22.4378 2.59741 20.3773 1.19774 18.0195 0.499805H17.9324C16.7147 0.146295 15.4459 -0.021637 14.1731 0.00222875C11.1421 0.160613 8.28884 1.41444 6.19564 3.50782C4.10244 5.6012 2.92709 8.37632 2.90946 11.2668C2.0589 11.5517 1.3222 12.081 0.801045 12.7817C0.279894 13.4823 0 14.3197 0 15.1783C0 16.0369 0.279894 16.8743 0.801045 17.5749C1.3222 18.2756 2.0589 18.8049 2.90946 19.0898C3.20842 21.8192 4.5626 24.3453 6.70871 26.1769C8.85483 28.0085 11.6395 29.0146 14.5214 28.9998H14.8553C17.6421 28.8714 20.291 27.8068 22.3317 25.9951C24.3725 24.1834 25.6731 21.7418 26.0027 19.1036C26.8633 18.8348 27.6144 18.3172 28.1516 17.6228C28.6887 16.9284 28.9851 16.0918 28.9994 15.2295C29.0138 14.3672 28.7455 13.5221 28.2318 12.8118C27.7181 12.1015 26.9846 11.5615 26.1334 11.2668V11.2668ZM14.7827 26.2355C12.6815 26.2934 10.6292 25.6257 9.00458 24.3555C7.37993 23.0854 6.29255 21.2985 5.94309 19.3248H23.0272C22.6729 21.1933 21.6656 22.8929 20.1689 24.1475C18.6722 25.402 16.774 26.1379 14.7827 26.2355ZM24.6819 16.5604H4.36096C3.976 16.5604 3.6068 16.4148 3.3346 16.1556C3.06239 15.8964 2.90946 15.5449 2.90946 15.1783C2.90946 14.8117 3.06239 14.4602 3.3346 14.201C3.6068 13.9418 3.976 13.7961 4.36096 13.7961H7.26395C7.64891 13.7961 8.0181 13.6505 8.29031 13.3913C8.56252 13.1321 8.71544 12.7805 8.71544 12.414C8.71544 12.0474 8.56252 11.6959 8.29031 11.4366C8.0181 11.1774 7.64891 11.0318 7.26395 11.0318H5.81245C5.87743 9.59799 6.30779 8.20075 7.06643 6.96064C7.82506 5.72054 8.88916 4.67482 10.1669 3.91373V8.26752C10.1669 8.63409 10.3199 8.98564 10.5921 9.24485C10.8643 9.50405 11.2335 9.64967 11.6184 9.64967C12.0034 9.64967 12.3726 9.50405 12.6448 9.24485C12.917 8.98564 13.0699 8.63409 13.0699 8.26752V2.86329C13.4639 2.80061 13.8613 2.75908 14.2602 2.7389H14.5214C15.0079 2.74542 15.4931 2.787 15.9729 2.86329V8.26752C15.9729 8.63409 16.1258 8.98564 16.398 9.24485C16.6703 9.50405 17.0394 9.64967 17.4244 9.64967C17.8094 9.64967 18.1786 9.50405 18.4508 9.24485C18.723 8.98564 18.8759 8.63409 18.8759 8.26752V3.87226C19.4916 4.21175 20.066 4.61503 20.5887 5.07474C21.4255 5.8486 22.0906 6.77468 22.5444 7.798C22.9982 8.82131 23.2315 9.92101 23.2304 11.0318H21.7789C21.3939 11.0318 21.0247 11.1774 20.7525 11.4366C20.4803 11.6959 20.3274 12.0474 20.3274 12.414C20.3274 12.7805 20.4803 13.1321 20.7525 13.3913C21.0247 13.6505 21.3939 13.7961 21.7789 13.7961H24.6819C25.0668 13.7961 25.436 13.9418 25.7082 14.201C25.9805 14.4602 26.1334 14.8117 26.1334 15.1783C26.1334 15.5449 25.9805 15.8964 25.7082 16.1556C25.436 16.4148 25.0668 16.5604 24.6819 16.5604Z" fill="#515151"/>
</svg>
