<svg width="29" height="29" viewBox="0 0 29 29" fill="none" xmlns="http://www.w3.org/2000/svg">
<rect width="29" height="29" fill="white"/>
<path d="M7.02138 17.1414C6.4122 17.1421 5.81946 17.3391 5.33104 17.7032C4.84263 18.0673 4.48454 18.5791 4.30988 19.1627H9.73385C9.55894 18.5791 9.20065 18.0673 8.71209 17.7032C8.22353 17.3392 7.63068 17.1422 7.02138 17.1414" fill="#8C031F"/>
<path d="M28.0937 0H0.90625C0.407933 0 0 0.4031 0 0.8961V12.094C0 12.7552 0.3741 13.3265 0.913983 13.6368V27.2687H0.483333V29H28.5167V27.2682H28.086V13.6363C28.6259 13.3255 29 12.7547 29 12.0935V0.8961C29 0.4031 28.5921 0 28.0937 0ZM0.679567 12.0935V8.062H2.94543V12.0935C2.94543 12.7107 2.43745 13.2129 1.8125 13.2129C1.18755 13.2129 0.679567 12.7107 0.679567 12.0935ZM9.85178 19.9708V27.2682H4.19195V19.9708H3.38333C3.39437 19.0133 3.7825 18.0987 4.46352 17.4255C5.14454 16.7523 6.06353 16.3747 7.02114 16.3747C7.97875 16.3747 8.89774 16.7523 9.57876 17.4255C10.2598 18.0987 10.6479 19.0133 10.6589 19.9708H9.85178V19.9708ZM24.808 24.418H12.6807V16.3333H24.808V24.418ZM27.1875 14.239H1.8125V13.8847C2.81348 13.8847 3.625 13.0829 3.625 12.0935C3.625 13.0829 4.43652 13.8847 5.4375 13.8847C6.43848 13.8847 7.25 13.0824 7.25 12.0935C7.25 13.0829 8.06152 13.8847 9.0625 13.8847C10.0635 13.8847 10.875 13.0829 10.875 12.0935C10.875 13.0829 11.6865 13.8847 12.6875 13.8847C13.6885 13.8847 14.5 13.0824 14.5 12.0935C14.5 13.0829 15.3115 13.8847 16.3125 13.8847C17.3135 13.8847 18.125 13.0829 18.125 12.0935C18.125 13.0829 18.9365 13.8847 19.9375 13.8847C20.9385 13.8847 21.75 13.0824 21.75 12.0935C21.75 13.0829 22.5615 13.8847 23.5625 13.8847C24.5635 13.8847 25.375 13.0829 25.375 12.0935C25.375 13.0829 26.1865 13.8847 27.1875 13.8847V14.239V14.239ZM7.92957 12.0935V8.062H10.1954V12.0935C10.1954 12.7107 9.68745 13.2129 9.0625 13.2129C8.43755 13.2129 7.92957 12.7107 7.92957 12.0935V12.0935ZM15.1796 12.0935V8.062H17.4454V12.0935C17.4454 12.7107 16.9374 13.2129 16.3125 13.2129C15.6875 13.2129 15.1796 12.7107 15.1796 12.0935ZM22.4296 12.0935V8.062H24.6954V12.0935C24.6954 12.7107 24.1874 13.2129 23.5625 13.2129C22.9375 13.2129 22.4296 12.7107 22.4296 12.0935ZM28.0937 6.71833C28.0926 6.83773 28.0443 6.95183 27.9594 7.03576C27.8744 7.11969 27.7598 7.16664 27.6404 7.16638H1.35962C1.24022 7.16664 1.12555 7.11969 1.04063 7.03576C0.9557 6.95183 0.907398 6.83773 0.90625 6.71833V1.34367C0.90625 1.09668 1.11022 0.895617 1.35962 0.895617H27.6409C27.8903 0.895617 28.0942 1.09668 28.0942 1.34367V6.71833H28.0937Z" fill="#515151"/>
<path d="M8.23407 21.9921C8.01173 21.9921 7.83 22.2304 7.83 22.5233V23.3208C7.83 23.6127 7.97597 23.9955 8.15335 24.171L8.3143 24.3295C8.49265 24.5055 8.63862 24.4102 8.63862 24.1169V22.5233C8.63862 22.2304 8.45688 21.9921 8.23407 21.9921" fill="#8C031F"/>
<path d="M6.63965 4.89258C6.63965 4.81055 6.62695 4.7373 6.60156 4.67285C6.57812 4.60645 6.53418 4.54688 6.46973 4.49414C6.40723 4.43945 6.31836 4.38672 6.20312 4.33594C6.08984 4.2832 5.94336 4.22852 5.76367 4.17188C5.56445 4.10938 5.37891 4.03906 5.20703 3.96094C5.03516 3.88281 4.88379 3.79199 4.75293 3.68848C4.62402 3.58496 4.52344 3.46582 4.45117 3.33105C4.37891 3.19434 4.34277 3.03613 4.34277 2.85645C4.34277 2.68066 4.37988 2.52051 4.4541 2.37598C4.53027 2.23145 4.6377 2.10742 4.77637 2.00391C4.91504 1.89844 5.07812 1.81738 5.26562 1.76074C5.45508 1.7041 5.66406 1.67578 5.89258 1.67578C6.20898 1.67578 6.48242 1.7334 6.71289 1.84863C6.94531 1.96387 7.125 2.12012 7.25195 2.31738C7.37891 2.51465 7.44238 2.73633 7.44238 2.98242H6.63965C6.63965 2.84961 6.61133 2.73242 6.55469 2.63086C6.5 2.5293 6.41602 2.44922 6.30273 2.39062C6.19141 2.33203 6.05078 2.30273 5.88086 2.30273C5.7168 2.30273 5.58008 2.32715 5.4707 2.37598C5.36328 2.4248 5.28223 2.49121 5.22754 2.5752C5.1748 2.65918 5.14844 2.75293 5.14844 2.85645C5.14844 2.93457 5.16699 3.00488 5.2041 3.06738C5.24121 3.12793 5.29688 3.18555 5.37109 3.24023C5.44531 3.29297 5.53711 3.34277 5.64648 3.38965C5.75781 3.43457 5.88672 3.47949 6.0332 3.52441C6.26758 3.59473 6.47266 3.67285 6.64844 3.75879C6.82617 3.84473 6.97363 3.94238 7.09082 4.05176C7.20996 4.16113 7.29883 4.28418 7.35742 4.4209C7.41797 4.55762 7.44824 4.71289 7.44824 4.88672C7.44824 5.07031 7.41211 5.23438 7.33984 5.37891C7.26758 5.52344 7.16406 5.64648 7.0293 5.74805C6.89453 5.84961 6.73242 5.92676 6.54297 5.97949C6.35547 6.03223 6.14551 6.05859 5.91309 6.05859C5.70605 6.05859 5.50098 6.03125 5.29785 5.97656C5.09668 5.91992 4.91406 5.83594 4.75 5.72461C4.58594 5.61133 4.45508 5.46875 4.35742 5.29688C4.25977 5.12305 4.21094 4.91992 4.21094 4.6875H5.01953C5.01953 4.82227 5.04102 4.9375 5.08398 5.0332C5.12891 5.12695 5.19141 5.2041 5.27148 5.26465C5.35352 5.32324 5.44922 5.36621 5.55859 5.39355C5.66797 5.4209 5.78613 5.43457 5.91309 5.43457C6.07715 5.43457 6.21191 5.41211 6.31738 5.36719C6.4248 5.32031 6.50488 5.25586 6.55762 5.17383C6.6123 5.0918 6.63965 4.99805 6.63965 4.89258ZM10.5004 1.73438V6H9.69766V1.73438H10.5004ZM11.8246 1.73438V2.37012H8.38809V1.73438H11.8246ZM16.3328 3.75879V3.97852C16.3328 4.30078 16.2898 4.59082 16.2039 4.84863C16.118 5.10449 15.9959 5.32227 15.8377 5.50195C15.6795 5.68164 15.491 5.81934 15.2723 5.91504C15.0535 6.01074 14.8104 6.05859 14.5428 6.05859C14.2791 6.05859 14.0369 6.01074 13.8162 5.91504C13.5975 5.81934 13.408 5.68164 13.2479 5.50195C13.0877 5.32227 12.9637 5.10449 12.8758 4.84863C12.7879 4.59082 12.7439 4.30078 12.7439 3.97852V3.75879C12.7439 3.43457 12.7879 3.14453 12.8758 2.88867C12.9637 2.63281 13.0867 2.41504 13.2449 2.23535C13.4031 2.05371 13.5916 1.91504 13.8104 1.81934C14.0311 1.72363 14.2732 1.67578 14.5369 1.67578C14.8045 1.67578 15.0477 1.72363 15.2664 1.81934C15.4852 1.91504 15.6736 2.05371 15.8318 2.23535C15.992 2.41504 16.115 2.63281 16.201 2.88867C16.2889 3.14453 16.3328 3.43457 16.3328 3.75879ZM15.5184 3.97852V3.75293C15.5184 3.52051 15.4969 3.31641 15.4539 3.14062C15.4109 2.96289 15.3475 2.81348 15.2635 2.69238C15.1795 2.57129 15.076 2.48047 14.9529 2.41992C14.8299 2.35742 14.6912 2.32617 14.5369 2.32617C14.3807 2.32617 14.242 2.35742 14.1209 2.41992C14.0018 2.48047 13.9002 2.57129 13.8162 2.69238C13.7322 2.81348 13.6678 2.96289 13.6229 3.14062C13.5799 3.31641 13.5584 3.52051 13.5584 3.75293V3.97852C13.5584 4.20898 13.5799 4.41309 13.6229 4.59082C13.6678 4.76855 13.7322 4.91895 13.8162 5.04199C13.9021 5.16309 14.0057 5.25488 14.1268 5.31738C14.2479 5.37988 14.3865 5.41113 14.5428 5.41113C14.699 5.41113 14.8377 5.37988 14.9588 5.31738C15.0799 5.25488 15.1814 5.16309 15.2635 5.04199C15.3475 4.91895 15.4109 4.76855 15.4539 4.59082C15.4969 4.41309 15.5184 4.20898 15.5184 3.97852ZM17.6154 1.73438H19.1652C19.4895 1.73438 19.7678 1.7832 20.0002 1.88086C20.2326 1.97852 20.4113 2.12305 20.5363 2.31445C20.6613 2.50586 20.7238 2.74121 20.7238 3.02051C20.7238 3.24121 20.6848 3.43262 20.6066 3.59473C20.5285 3.75684 20.4182 3.89258 20.2756 4.00195C20.135 4.11133 19.9689 4.19727 19.7775 4.25977L19.5256 4.38867H18.1574L18.1516 3.75293H19.174C19.34 3.75293 19.4777 3.72363 19.5871 3.66504C19.6965 3.60645 19.7785 3.52539 19.8332 3.42188C19.8898 3.31836 19.9182 3.2002 19.9182 3.06738C19.9182 2.9248 19.8908 2.80176 19.8361 2.69824C19.7814 2.59277 19.6984 2.51172 19.5871 2.45508C19.4758 2.39844 19.3352 2.37012 19.1652 2.37012H18.4211V6H17.6154V1.73438ZM20.0236 6L19.0363 4.08984L19.8889 4.08691L20.8879 5.95898V6H20.0236ZM24.857 5.36719V6H22.5895V5.36719H24.857ZM22.8355 1.73438V6H22.0299V1.73438H22.8355ZM24.5611 3.49512V4.11328H22.5895V3.49512H24.5611ZM24.8482 1.73438V2.37012H22.5895V1.73438H24.8482Z" fill="#8C031F"/>
</svg>
