<svg width="29" height="29" viewBox="0 0 29 29" fill="none" xmlns="http://www.w3.org/2000/svg">
<rect width="29" height="29" fill="white"/>
<path d="M15.2812 11.9625C15.2812 11.6741 15.4047 11.3975 15.6245 11.1935C15.8443 10.9896 16.1423 10.875 16.4531 10.875H21.9219C22.2327 10.875 22.5307 10.9896 22.7505 11.1935C22.9703 11.3975 23.0938 11.6741 23.0938 11.9625C23.0938 12.2509 22.9703 12.5275 22.7505 12.7315C22.5307 12.9354 22.2327 13.05 21.9219 13.05H16.4531C16.1423 13.05 15.8443 12.9354 15.6245 12.7315C15.4047 12.5275 15.2812 12.2509 15.2812 11.9625ZM16.4531 18.85C16.1423 18.85 15.8443 18.9646 15.6245 19.1685C15.4047 19.3725 15.2812 19.6491 15.2812 19.9375C15.2812 20.2259 15.4047 20.5025 15.6245 20.7065C15.8443 20.9104 16.1423 21.025 16.4531 21.025H21.9219C22.2327 21.025 22.5307 20.9104 22.7505 20.7065C22.9703 20.5025 23.0938 20.2259 23.0938 19.9375C23.0938 19.6491 22.9703 19.3725 22.7505 19.1685C22.5307 18.9646 22.2327 18.85 21.9219 18.85H16.4531ZM12.5938 11.281C12.7089 11.1814 12.8012 11.0614 12.8653 10.928C12.9293 10.7946 12.9638 10.6506 12.9665 10.5046C12.9693 10.3585 12.9404 10.2135 12.8814 10.0781C12.8225 9.94267 12.7348 9.81966 12.6235 9.7164C12.5122 9.61313 12.3797 9.53172 12.2337 9.47702C12.0878 9.42233 11.9315 9.39547 11.7742 9.39804C11.6168 9.40062 11.4617 9.43258 11.3179 9.49202C11.1742 9.55146 11.0448 9.63715 10.9375 9.744L8.64062 11.8755L7.90625 11.194C7.6841 11.0019 7.39028 10.8973 7.08668 10.9023C6.78309 10.9073 6.49342 11.0214 6.27872 11.2206C6.06401 11.4199 5.94102 11.6887 5.93566 11.9704C5.93031 12.2522 6.043 12.5248 6.25 12.731L7.8125 14.181C8.03223 14.3847 8.33008 14.499 8.64062 14.499C8.95117 14.499 9.24902 14.3847 9.46875 14.181L12.5938 11.281ZM12.5938 17.719C12.8132 17.9229 12.9365 18.1993 12.9365 18.4875C12.9365 18.7757 12.8132 19.0521 12.5938 19.256L9.46875 22.156C9.24902 22.3597 8.95117 22.474 8.64062 22.474C8.33008 22.474 8.03223 22.3597 7.8125 22.156L6.25 20.706C6.13486 20.6064 6.04252 20.4864 5.97847 20.353C5.91442 20.2196 5.87998 20.0756 5.8772 19.9296C5.87442 19.7835 5.90337 19.6385 5.96231 19.5031C6.02125 19.3677 6.10897 19.2447 6.22025 19.1414C6.33153 19.0381 6.46408 18.9567 6.61 18.902C6.75592 18.8473 6.91222 18.8205 7.06957 18.823C7.22691 18.8256 7.38209 18.8576 7.52584 18.917C7.66959 18.9765 7.79897 19.0622 7.90625 19.169L8.64062 19.8505L10.9375 17.719C11.1572 17.5153 11.4551 17.401 11.7656 17.401C12.0762 17.401 12.374 17.5153 12.5938 17.719ZM20.7406 3.0218C20.6751 2.20041 20.2773 1.4324 19.627 0.871913C18.9766 0.311428 18.1219 -4.82817e-05 17.2344 5.61354e-09H11.7656C10.9009 2.42505e-05 10.0665 0.29581 9.42194 0.830809C8.77741 1.36581 8.36796 2.10248 8.27187 2.9H5.51562C4.58322 2.9 3.68901 3.24373 3.0297 3.85556C2.3704 4.4674 2 5.29723 2 6.1625V25.7375C2 26.6028 2.3704 27.4326 3.0297 28.0444C3.68901 28.6563 4.58322 29 5.51562 29H23.4844C23.9461 29 24.4032 28.9156 24.8297 28.7517C25.2563 28.5877 25.6438 28.3474 25.9703 28.0444C26.2968 27.7415 26.5557 27.3818 26.7324 26.986C26.9091 26.5902 27 26.1659 27 25.7375V6.1625C27 5.73406 26.9091 5.30982 26.7324 4.914C26.5557 4.51817 26.2968 4.15852 25.9703 3.85556C25.6438 3.55261 25.2563 3.3123 24.8297 3.14834C24.4032 2.98439 23.9461 2.9 23.4844 2.9H20.7281L20.7406 3.0218ZM20.7406 3.0392L20.75 3.2625C20.75 3.1871 20.7469 3.11315 20.7422 3.0392H20.7406ZM11.7656 6.525H17.2344C18.4531 6.525 19.5266 5.94935 20.1578 5.075H23.4844C23.7952 5.075 24.0932 5.18958 24.313 5.39352C24.5328 5.59747 24.6562 5.87408 24.6562 6.1625V25.7375C24.6562 26.0259 24.5328 26.3025 24.313 26.5065C24.0932 26.7104 23.7952 26.825 23.4844 26.825H5.51562C5.20482 26.825 4.90675 26.7104 4.68698 26.5065C4.46721 26.3025 4.34375 26.0259 4.34375 25.7375V6.1625C4.34375 5.87408 4.46721 5.59747 4.68698 5.39352C4.90675 5.18958 5.20482 5.075 5.51562 5.075H8.84219C9.47344 5.94935 10.5469 6.525 11.7656 6.525ZM11.7656 2.175H17.2344C17.5452 2.175 17.8432 2.28958 18.063 2.49352C18.2828 2.69747 18.4062 2.97408 18.4062 3.2625C18.4062 3.55092 18.2828 3.82753 18.063 4.03148C17.8432 4.23542 17.5452 4.35 17.2344 4.35H11.7656C11.4548 4.35 11.1568 4.23542 10.937 4.03148C10.7172 3.82753 10.5938 3.55092 10.5938 3.2625C10.5938 2.97408 10.7172 2.69747 10.937 2.49352C11.1568 2.28958 11.4548 2.175 11.7656 2.175Z" fill="black"/>
<path d="M15.5 12H22.5" stroke="#8C031F" stroke-width="2.5" stroke-linecap="round"/>
<path d="M15.5 20H22.5" stroke="#8C031F" stroke-width="2.5" stroke-linecap="round"/>
<rect x="9.5" y="1.5" width="10" height="4" rx="2" stroke="#8C031F" stroke-width="3"/>
</svg>
