<svg width="29" height="29" viewBox="0 0 29 29" fill="none" xmlns="http://www.w3.org/2000/svg">
<g clip-path="url(#clip0_17_92)">
<rect width="29" height="29" fill="white"/>
<path fill-rule="evenodd" clip-rule="evenodd" d="M0 0H24.9723V4.02745H23.3612V1.61098H1.61112V20.1373H18.8396V21.7483H0V0ZM24.1667 10.4714C24.8077 10.4714 25.4224 10.2168 25.8756 9.76361C26.3288 9.31044 26.5834 8.6958 26.5834 8.05491C26.5834 7.41402 26.3288 6.79938 25.8756 6.3462C25.4224 5.89303 24.8077 5.63844 24.1667 5.63844C23.5258 5.63844 22.9111 5.89303 22.4579 6.3462C22.0047 6.79938 21.7501 7.41402 21.7501 8.05491C21.7501 8.6958 22.0047 9.31044 22.4579 9.76361C22.9111 10.2168 23.5258 10.4714 24.1667 10.4714ZM25.8028 12.0904C26.8492 12.0904 27.6773 12.5608 28.2195 13.2874C28.7262 13.968 28.9405 14.8098 28.9888 15.5871C29.0379 16.3756 28.9244 17.2021 28.669 17.9391C28.4273 18.6399 28.0189 19.3648 27.389 19.8618V27.7894C27.3895 28.093 27.2758 28.3857 27.0704 28.6092C26.865 28.8328 26.583 28.9708 26.2804 28.9959C25.9779 29.0209 25.677 28.9312 25.4376 28.7445C25.1982 28.5579 25.0378 28.2879 24.9884 27.9884L23.9492 21.7483H23.7092L22.5347 28.0118C22.4789 28.3074 22.3148 28.5715 22.0746 28.7526C21.8343 28.9337 21.5352 29.0186 21.2356 28.9908C20.9361 28.963 20.6576 28.8245 20.4548 28.6023C20.252 28.3801 20.1394 28.0903 20.1389 27.7894V16.2975C19.9778 16.5429 19.8189 16.7896 19.6621 17.0377L19.5992 17.1368L19.5831 17.1626L19.5791 17.1698C19.4705 17.3441 19.3193 17.4879 19.1397 17.5876C18.9602 17.6872 18.7582 17.7394 18.5528 17.7393H14.525C14.2045 17.7393 13.8972 17.612 13.6706 17.3854C13.444 17.1589 13.3167 16.8515 13.3167 16.5311C13.3167 16.2106 13.444 15.9033 13.6706 15.6767C13.8972 15.4501 14.2045 15.3229 14.525 15.3229H17.8898C18.0856 15.02 18.3434 14.6269 18.614 14.2322C18.896 13.8206 19.2069 13.3848 19.484 13.0433C19.6186 12.8766 19.7692 12.7026 19.9206 12.56C19.9947 12.4899 20.0979 12.3989 20.2235 12.3184C20.4453 12.1728 20.7042 12.094 20.9695 12.0912L25.8028 12.0904Z" fill="#515151"/>
<path d="M18.5 21H1V1H24V4" stroke="#8C031F" stroke-width="2.5" stroke-linecap="round"/>
</g>
<defs>
<clipPath id="clip0_17_92">
<rect width="29" height="29" fill="white"/>
</clipPath>
</defs>
</svg>
