<svg width="29" height="29" viewBox="0 0 29 29" fill="none" xmlns="http://www.w3.org/2000/svg">
<g clip-path="url(#clip0_5_76)">
<rect width="29" height="29" fill="white"/>
<path d="M22.1135 11.6248H15.226V14.1406C15.226 15.9241 13.7624 17.3752 11.9635 17.3752C10.1646 17.3752 8.70102 15.9241 8.70102 14.1406V8.67763L5.76024 10.4297C4.88571 10.9464 4.35103 11.8853 4.35103 12.8917V15.0166L0.726032 17.0922C0.0327522 17.4876 -0.207404 18.3681 0.195877 19.0555L3.82087 25.2822C4.21962 25.9695 5.10774 26.2031 5.80102 25.8078L10.4863 23.1257H16.676C18.2755 23.1257 19.576 21.8364 19.576 20.2505H20.301C21.103 20.2505 21.751 19.608 21.751 18.8129V15.9376H22.1135C22.7161 15.9376 23.201 15.4569 23.201 14.8594V12.703C23.201 12.1055 22.7161 11.6248 22.1135 11.6248ZM28.8061 9.94454L25.1811 3.71784C24.7824 3.03048 23.8943 2.79686 23.201 3.19221L18.5157 5.87427H13.8848C13.341 5.87427 12.8109 6.02702 12.3487 6.31005L10.8307 7.249C10.4048 7.50957 10.151 7.9723 10.151 8.46648V14.1406C10.151 15.1335 10.9621 15.9376 11.9635 15.9376C12.9649 15.9376 13.776 15.1335 13.776 14.1406V10.1871H22.1135C23.5136 10.1871 24.651 11.3148 24.651 12.703V13.9834L28.276 11.9078C28.9693 11.5079 29.2049 10.6319 28.8061 9.94454Z" fill="#515151"/>
<path d="M10 8.00001V14.5C11.2 17.3 12.8333 15.6667 13.5 14.5V10H21C24.2 9.2 24.6667 12.3333 24.5 14L25.5 13.5L27 12.5C29 11.5 29 10.5 28.5 10C27.5 8.16667 25.4 4.30001 25 3.50001C24.6 2.70001 23.8333 2.83334 23.5 3.00001L18.5 6.00001H13.5C13 6 11 6 10 8.00001Z" fill="#8C031F"/>
<path d="M10 14.5H9.75V14.5513L9.77021 14.5985L10 14.5ZM10 8.00001L9.77639 7.8882C9.75904 7.92292 9.75 7.9612 9.75 8.00001H10ZM13.5 6.00001L13.5 6.25001H13.5V6.00001ZM18.5 6.00001V6.25001H18.5692L18.6286 6.21438L18.5 6.00001ZM23.5 3.00001L23.3882 2.7764L23.3796 2.7807L23.3714 2.78564L23.5 3.00001ZM25 3.50001L25.2236 3.38821L25.2236 3.38821L25 3.50001ZM28.5 10L28.2805 10.1197L28.2978 10.1513L28.3232 10.1768L28.5 10ZM27 12.5L26.8882 12.2764L26.8743 12.2834L26.8613 12.292L27 12.5ZM24.5 14L24.2512 13.9751L24.2061 14.4265L24.6118 14.2236L24.5 14ZM21 10V10.25H21.0308L21.0606 10.2425L21 10ZM13.5 10V9.75H13.25V10H13.5ZM13.5 14.5L13.7171 14.624L13.75 14.5664V14.5H13.5ZM25.5 13.5L25.6118 13.7236L25.6257 13.7166L25.6387 13.708L25.5 13.5ZM10.25 14.5V8.00001H9.75V14.5H10.25ZM10.2236 8.11181C11.1515 6.25593 13.0017 6.25 13.5 6.25001L13.5 5.75001C12.9983 5.75 10.8485 5.74407 9.77639 7.8882L10.2236 8.11181ZM13.5 6.25001H18.5V5.75001H13.5V6.25001ZM18.6286 6.21438L23.6286 3.21438L23.3714 2.78564L18.3714 5.78563L18.6286 6.21438ZM23.6118 3.22362C23.7427 3.15818 23.9645 3.09863 24.1851 3.1343C24.3901 3.16747 24.6128 3.28469 24.7764 3.61181L25.2236 3.38821C24.9872 2.91533 24.6266 2.69922 24.2649 2.64072C23.9188 2.58473 23.5906 2.67518 23.3882 2.7764L23.6118 3.22362ZM24.7764 3.61181C25.179 4.417 27.2822 8.28936 28.2805 10.1197L28.7195 9.88029C27.7178 8.04398 25.621 4.18302 25.2236 3.38821L24.7764 3.61181ZM28.3232 10.1768C28.5078 10.3614 28.6012 10.6291 28.4577 10.964C28.3045 11.3215 27.8673 11.7868 26.8882 12.2764L27.1118 12.7236C28.1327 12.2132 28.6955 11.6785 28.9173 11.161C29.1488 10.6209 28.9922 10.1386 28.6768 9.82322L28.3232 10.1768ZM24.7488 14.0249C24.8345 13.1672 24.7619 11.9083 24.231 10.9535C23.9622 10.4701 23.5708 10.0563 23.0175 9.8228C22.4648 9.5895 21.7781 9.54779 20.9394 9.75746L21.0606 10.2425C21.8219 10.0522 22.3936 10.1022 22.8231 10.2835C23.2521 10.4645 23.567 10.7882 23.794 11.1965C24.2547 12.025 24.3321 13.1662 24.2512 13.9751L24.7488 14.0249ZM21 9.75H13.5V10.25H21V9.75ZM13.25 10V14.5H13.75V10H13.25ZM13.2829 14.376C13.1247 14.6529 12.9097 14.956 12.6613 15.2117C12.4107 15.4697 12.1406 15.6645 11.8742 15.7493C11.6194 15.8303 11.362 15.814 11.0984 15.6376C10.8228 15.4531 10.5204 15.0797 10.2298 14.4015L9.77021 14.5985C10.0796 15.3203 10.4314 15.7928 10.8203 16.0531C11.2213 16.3214 11.6389 16.3488 12.0258 16.2257C12.4011 16.1063 12.7393 15.849 13.0199 15.5601C13.3028 15.269 13.542 14.9304 13.7171 14.624L13.2829 14.376ZM26.8613 12.292L25.3613 13.292L25.6387 13.708L27.1387 12.708L26.8613 12.292ZM25.3882 13.2764L24.3882 13.7764L24.6118 14.2236L25.6118 13.7236L25.3882 13.2764Z" fill="#8C031F"/>
</g>
<defs>
<clipPath id="clip0_5_76">
<rect width="29" height="29" fill="white"/>
</clipPath>
</defs>
</svg>
