<svg width="29" height="29" viewBox="0 0 29 29" fill="none" xmlns="http://www.w3.org/2000/svg">
<g clip-path="url(#clip0_17_179)">
<rect width="29" height="29" fill="white"/>
<path d="M14.5 0C11.6322 0 8.82875 0.85041 6.44424 2.44369C4.05972 4.03697 2.20122 6.30156 1.10375 8.95109C0.00628257 11.6006 -0.280866 14.5161 0.27862 17.3288C0.838105 20.1415 2.2191 22.7252 4.24696 24.753C6.27482 26.7809 8.85847 28.1619 11.6712 28.7214C14.4839 29.2809 17.3994 28.9937 20.0489 27.8962C22.6984 26.7988 24.963 24.9403 26.5563 22.5558C28.1496 20.1712 29 17.3678 29 14.5C28.9956 10.6557 27.4665 6.97012 24.7482 4.25179C22.0299 1.53347 18.3443 0.00438596 14.5 0ZM14.5 26.9286C11.2037 26.9286 8.04249 25.6191 5.71168 23.2883C3.38087 20.9575 2.07143 17.7963 2.07143 14.5C2.07143 11.2037 3.38087 8.04248 5.71168 5.71167C8.04249 3.38086 11.2037 2.07143 14.5 2.07143V14.5L23.2839 23.2839C22.1319 24.44 20.763 25.3571 19.2555 25.9825C17.7481 26.608 16.132 26.9295 14.5 26.9286Z" fill="#515151"/>
</g>
<defs>
<clipPath id="clip0_17_179">
<rect width="29" height="29" fill="white"/>
</clipPath>
</defs>
</svg>
