<svg xmlns="http://www.w3.org/2000/svg" width="30" height="36" fill="none" viewBox="0 0 30 36">
    <path fill="#8D0528" fill-rule="evenodd" d="M12.984 14.652c-.184-.224-.518-.258-.742-.073-.373.307-.91.484-1.473.484-.562 0-1.099-.177-1.472-.484-.226-.185-.558-.151-.742.073-.185.224-.153.558.071.742.567.466 1.329.722 2.143.722.816 0 1.577-.256 2.142-.722.226-.184.258-.518.073-.742zM7.757 10.845c-.292 0-.528.235-.528.527v.603c0 .29.236.527.528.527.292 0 .527-.237.527-.527v-.603c0-.292-.235-.527-.527-.527zM13.782 10.845c-.292 0-.528.235-.528.527v.603c0 .29.236.528.528.528.292 0 .527-.238.527-.528v-.603c0-.292-.235-.527-.527-.527zM18.602 21.69c-.292 0-.527.235-.527.527v.603c0 .29.235.528.527.528.292 0 .528-.237.528-.528v-.602c0-.293-.236-.528-.528-.528zM23.422 21.69c-.292 0-.527.235-.527.527v.603c0 .29.235.528.527.528.292 0 .527-.237.527-.528v-.602c0-.293-.235-.528-.527-.528zM19.205 33.74c-.292 0-.528.236-.528.528v1.206c0 .29.236.525.528.525.292 0 .527-.235.527-.525v-1.206c0-.292-.235-.528-.527-.528zM22.82 33.74c-.292 0-.528.236-.528.528v1.206c0 .29.236.525.528.525.292 0 .527-.235.527-.525v-1.206c0-.292-.235-.528-.527-.528z" clip-rule="evenodd"/>
    <path fill="#8D0528" fill-rule="evenodd" d="M29.283 19.515c-1.241-1.862-3.636-3.668-3.737-3.746-.21-.156-.503-.135-.69.051l-1.168 1.168c-.787-.458-1.701-.721-2.675-.721-.526 0-1.035.077-1.515.22-.18-1.908-.37-4.727-.37-8.128C19.129 3.75 15.38 0 10.77 0c-4.61 0-8.36 3.75-8.36 8.36 0 5.913-.59 10.126-.596 10.167-.033.224.083.445.286.547.096.049 2.336 1.162 4.691 1.786-.08.07-.17.132-.268.18l-5.231 2.616C.494 24.053 0 24.854 0 25.746v2.497c0 .432.243.809.601.999v6.23c0 .292.237.528.528.528.292 0 .527-.236.527-.528v-6.1h1.958v6.1c0 .292.237.528.527.528.292 0 .528-.236.528-.528V27.64c0-.292-.236-.527-.528-.527-.29 0-.527.235-.527.527v.677H1.129c-.042 0-.076-.032-.076-.074v-2.498c0-.488.271-.927.709-1.145l2.826-1.413c.912 2.602 3.385 4.378 6.181 4.378 2.046 0 3.926-.934 5.153-2.502.21.648.543 1.255.985 1.784.066.37.219.709.438.997l-1.073 7.555c-.041.288.16.556.449.595.024.004.049.006.073.006.26 0 .484-.19.522-.454l.987-6.958c.09.038.183.07.277.096.545.801 1.457 1.29 2.433 1.29.97 0 1.887-.489 2.43-1.29.096-.026.188-.058.277-.096l.987 6.958c.038.264.264.454.522.454.025 0 .05-.002.076-.006.288-.04.488-.307.448-.595l-1.074-7.555c.219-.286.373-.627.439-.997.725-.868 1.153-1.94 1.228-3.067 1.815-.885 2.94-3.653 2.988-3.777.064-.16.045-.343-.05-.488zM3.463 8.359c.002-4.028 3.278-7.306 7.306-7.306 4.028 0 7.306 3.278 7.306 7.306 0 3.638.213 6.617.406 8.546-.05.027-.097.055-.146.083l-1.168-1.17c-.003-.003-.009-.008-.015-.011.43-.842.695-1.78.758-2.771.009-.04.015-.458.015-.458 0-3.137-2.374-3.69-5.121-4.332-1.477-.343-3.152-.734-4.812-1.563-.26-.13-.576-.025-.706.235-.012.02-1.116 2.165-3.216 2.722-.22.01-.428.06-.618.144.007-.464.011-.939.011-1.425zm13.407 4.219c0 3.363-2.738 6.098-6.101 6.098s-6.1-2.735-6.1-6.098c0-.292-.236-.528-.528-.528-.373 0-.676-.305-.676-.678 0-.373.303-.678.676-.678.043 0 .087-.004.128-.015 1.977-.494 3.196-2.06 3.697-2.84 1.616.74 3.193 1.108 4.599 1.436 2.907.678 4.305 1.1 4.305 3.303zM2.905 18.292c.098-.784.311-2.719.445-5.38.088.046.18.084.279.114.152 2.47 1.565 4.603 3.6 5.767v1.09c-1.79-.453-3.595-1.252-4.324-1.591zm7.864 8.218c-2.39 0-4.5-1.549-5.23-3.8l1.455-.727c.795-.398 1.29-1.199 1.29-2.088v-.608c.774.288 1.611.444 2.485.444.703 0 1.381-.101 2.022-.29l-.051.074c-.096.145-.115.328-.05.488.048.122 1.124 2.767 2.867 3.715-.976 1.728-2.787 2.792-4.788 2.792zm4.895-4.895v.912c-.857-.682-1.558-1.938-1.884-2.658.89-1.228 2.312-2.44 2.973-2.973l.718.718c-1.108.98-1.807 2.41-1.807 4.001zm5.348 7.305c-.361 0-.708-.106-1.005-.292.397-.145.742-.396 1.005-.716.264.32.611.57 1.009.718-.296.186-.643.29-1.009.29zm-.678-3.691c0-.373.304-.676.678-.676.373 0 .677.303.677.676 0 .375-.303.678-.677.678-.374 0-.678-.303-.678-.678zm4.97-1.807c0 .661-.152 1.308-.439 1.89-.124-.228-.288-.437-.486-.614-.216-.196-.55-.178-.744.04-.196.216-.177.55.04.743.27.243.425.59.425.954 0 .706-.574 1.28-1.28 1.28-.558 0-1.033-.36-1.208-.86.66-.245 1.132-.88 1.132-1.626 0-.955-.776-1.732-1.732-1.732-.954 0-1.733.777-1.733 1.732 0 .746.473 1.38 1.133 1.626-.174.5-.648.86-1.208.86-.704 0-1.28-.574-1.28-1.28 0-.364.155-.712.426-.954.217-.196.236-.53.042-.746-.194-.216-.528-.235-.744-.041-.2.179-.364.388-.49.618-.286-.584-.439-1.229-.439-1.89v-1.807c0-2.368 1.925-4.293 4.293-4.293 2.367 0 4.293 1.925 4.293 4.293v1.807zm1.056-.895v-.912c0-1.592-.7-3.022-1.805-4.001l.717-.718c.66.531 2.082 1.743 2.973 2.973-.326.72-1.026 1.978-1.885 2.658z" clip-rule="evenodd"/>
</svg>
