<svg width="29" height="29" viewBox="0 0 29 29" fill="none" xmlns="http://www.w3.org/2000/svg">
<rect width="29" height="29" fill="white"/>
<path d="M24.8571 19.6786V18.6429C24.8571 18.3682 24.9663 18.1047 25.1605 17.9105C25.3547 17.7163 25.6182 17.6071 25.8929 17.6071C26.1675 17.6071 26.431 17.7163 26.6252 17.9105C26.8194 18.1047 26.9286 18.3682 26.9286 18.6429V29H29V18.6429C28.9992 17.819 28.6715 17.0292 28.089 16.4467C27.5065 15.8642 26.7167 15.5365 25.8929 15.5357C25.3578 15.5391 24.833 15.6823 24.3704 15.951C23.9511 15.2724 23.2834 14.7843 22.5095 14.5908C21.7356 14.3974 20.9168 14.5138 20.2275 14.9153C19.9489 14.4718 19.5624 14.1061 19.1042 13.8523C18.646 13.5986 18.1309 13.4651 17.6071 13.4643C17.2534 13.4679 16.903 13.5327 16.5714 13.6559V8.28571C16.5714 7.46165 16.2441 6.67133 15.6614 6.08863C15.0787 5.50593 14.2883 5.17857 13.4643 5.17857C12.6402 5.17857 11.8499 5.50593 11.2672 6.08863C10.6845 6.67133 10.3571 7.46165 10.3571 8.28571V19.7873L8.04232 18.2027V18.2037C7.40984 17.7415 6.62609 17.5354 5.84807 17.6266C5.07006 17.7179 4.35523 18.0997 3.8468 18.6956C3.33837 19.2915 3.07387 20.0575 3.1063 20.8402C3.13873 21.6229 3.46569 22.3644 4.02167 22.9162L10.6917 29L12.0868 27.4692L5.48099 21.4434C5.38491 21.3479 5.30871 21.2343 5.2568 21.1091C5.20489 20.984 5.1783 20.8498 5.17857 20.7143C5.17857 20.5219 5.23213 20.3334 5.33325 20.1698C5.43437 20.0062 5.57906 19.8739 5.75109 19.7879C5.92313 19.7019 6.11573 19.6655 6.30729 19.6828C6.49886 19.7 6.68183 19.7703 6.83571 19.8857L12.4286 23.7127V8.28571C12.4286 8.01102 12.5377 7.74759 12.7319 7.55335C12.9262 7.35912 13.1896 7.25 13.4643 7.25C13.739 7.25 14.0024 7.35912 14.1966 7.55335C14.3909 7.74759 14.5 8.01102 14.5 8.28571V19.6786H16.5714V16.5714C16.5714 16.2967 16.6805 16.0333 16.8748 15.8391C17.069 15.6448 17.3324 15.5357 17.6071 15.5357C17.8818 15.5357 18.1453 15.6448 18.3395 15.8391C18.5337 16.0333 18.6429 16.2967 18.6429 16.5714V19.6786H20.7143V17.6071C20.7143 17.3325 20.8234 17.069 21.0176 16.8748C21.2119 16.6805 21.4753 16.5714 21.75 16.5714C22.0247 16.5714 22.2881 16.6805 22.4824 16.8748C22.6766 17.069 22.7857 17.3325 22.7857 17.6071V19.6786H24.8571Z" fill="#515151"/>
<path d="M26.9286 10.3571H20.7143V8.28571H26.9286V2.07143H2.07143V8.28571H6.21429V10.3571H2.07143C1.52222 10.3566 0.995662 10.1382 0.607313 9.74983C0.218964 9.36148 0.000548387 8.83492 0 8.28571V2.07143C0.000548387 1.52222 0.218964 0.995662 0.607313 0.607313C0.995662 0.218964 1.52222 0.000548387 2.07143 0H26.9286C27.4778 0.000548387 28.0043 0.218964 28.3927 0.607313C28.781 0.995662 28.9995 1.52222 29 2.07143V8.28571C28.9995 8.83492 28.781 9.36148 28.3927 9.74983C28.0043 10.1382 27.4778 10.3566 26.9286 10.3571V10.3571Z" fill="#8C031F"/>
</svg>
