<svg width="29" height="29" viewBox="0 0 29 29" fill="none" xmlns="http://www.w3.org/2000/svg">
<rect width="29" height="29" fill="white"/>
<path d="M1 5.55957V14.5358C1 14.5358 1 19.0239 11.7059 19.0239C22.4118 19.0239 22.4118 14.5358 22.4118 14.5358V5.55957" stroke="black" stroke-width="1.5" stroke-linecap="round" stroke-linejoin="round"/>
<path d="M11.7059 1.07144C22.4118 1.07144 22.4118 5.55954 22.4118 5.55954C22.4118 5.55954 22.4118 10.0476 11.7059 10.0476C1 10.0476 1 5.55954 1 5.55954C1 5.55954 1 1.07144 11.7059 1.07144Z" stroke="black" stroke-width="1.5" stroke-linecap="round" stroke-linejoin="round"/>
<path d="M11.7059 28C1 28 1 23.5119 1 23.5119V14.5357" stroke="black" stroke-width="1.5" stroke-linecap="round" stroke-linejoin="round"/>
<path d="M17.8235 28V25.0079" stroke="#8C031F" stroke-width="1.5" stroke-linecap="round"/>
<path d="M22.4118 28V22.0159" stroke="#8C031F" stroke-width="1.5" stroke-linecap="round"/>
<path d="M27 28V19.0238" stroke="#8C031F" stroke-width="1.5" stroke-linecap="round"/>
</svg>
