<svg width="29" height="29" viewBox="0 0 29 29" fill="none" xmlns="http://www.w3.org/2000/svg">
<rect width="29" height="29" fill="white"/>
<path d="M14.5 14.5C18.7609 14.5 22.2143 11.2545 22.2143 7.25C22.2143 3.24551 18.7609 0 14.5 0C10.2391 0 6.78571 3.24551 6.78571 7.25C6.78571 11.2545 10.2391 14.5 14.5 14.5ZM20.2737 16.3465L17.3929 27.1875L15.4643 19.4844L17.3929 16.3125H11.6071L13.5357 19.4844L11.6071 27.1875L8.72634 16.3465C4.42924 16.5391 1 19.8412 1 23.925V26.2812C1 27.7822 2.29576 29 3.89286 29H25.1071C26.7042 29 28 27.7822 28 26.2812V23.925C28 19.8412 24.5708 16.5391 20.2737 16.3465Z" fill="#515151"/>
</svg>
