<svg width="29" height="29" viewBox="0 0 29 29" fill="none" xmlns="http://www.w3.org/2000/svg">
<path d="M22.9438 2.43115L26.5688 6.05615L23.8054 8.82082L20.1804 5.19582L22.9438 2.43115ZM9.66667 19.3333H13.2917L22.0968 10.5282L18.4718 6.90319L9.66667 15.7083V19.3333Z" fill="#0078F6"/>
<path d="M22.9583 22.9583H9.85758C9.82617 22.9583 9.79354 22.9704 9.76213 22.9704C9.72225 22.9704 9.68238 22.9595 9.64129 22.9583H6.04167V6.04167H14.3151L16.7318 3.625H6.04167C4.70887 3.625 3.625 4.70767 3.625 6.04167V22.9583C3.625 24.2923 4.70887 25.375 6.04167 25.375H22.9583C23.5993 25.375 24.214 25.1204 24.6672 24.6672C25.1204 24.214 25.375 23.5993 25.375 22.9583V12.4845L22.9583 14.9012V22.9583Z" fill="#0078F6"/>
</svg>
