<svg width="156" height="167" viewBox="0 0 156 167" fill="none" xmlns="http://www.w3.org/2000/svg">
<g clip-path="url(#clip0_1098_14260)">
<path fill-rule="evenodd" clip-rule="evenodd" d="M154.096 47.9238C155.522 49.3552 155.996 50.978 155.996 52.9097C155.99 60.2478 155.988 67.5859 155.991 74.924C156.026 97.3734 156.026 119.823 155.991 142.272C155.983 147.349 155.027 152.222 152.171 156.542C149.215 161.137 144.798 164.577 139.648 166.297C138.829 166.575 137.979 166.647 137.129 166.72C136.491 166.774 135.851 166.829 135.225 166.971H47.7292C44.0604 166.766 40.5303 165.485 37.5701 163.286C31.7132 159 28.1517 153.332 27.5143 145.883C27.1722 141.861 27.2084 137.822 27.2446 133.783C27.2648 131.518 27.2851 129.252 27.2387 126.988C27.2124 125.681 27.2084 125.04 26.8857 124.725C26.5746 124.421 25.9673 124.421 24.7581 124.421H8.62156C3.60014 124.413 0.297014 121.611 0.210883 116.542C-0.0345897 103.182 -0.0604289 89.812 0.210883 76.4511C0.318546 71.0998 3.6001 68.3589 8.95312 68.3328H24.6031C27.2215 68.311 27.2215 68.3067 27.2215 65.7224C27.2215 61.214 27.2157 56.7051 27.21 52.1958C27.1985 43.1764 27.187 34.1558 27.2215 25.1351C27.243 19.9665 28.0569 14.9589 30.9724 10.5212C33.8061 6.10971 37.9574 2.72507 42.8241 0.858413C43.8501 0.465063 44.9211 0.362338 45.992 0.259629C46.6741 0.194207 47.3561 0.128791 48.0264 -0.0117188H105.82C106.684 0.279845 107.462 0.783665 108.085 1.45445C123.408 16.9718 138.745 32.4616 154.096 47.9238ZM150.255 143.038V100.153C150.255 96.2221 150.253 92.2907 150.252 88.3596C150.248 77.3428 150.244 66.3278 150.272 55.3199C150.277 53.8581 149.889 53.5492 148.485 53.5492C139.081 53.5922 129.675 53.5874 120.27 53.5827C117.301 53.5812 114.332 53.5797 111.363 53.5797C110.288 53.6453 109.209 53.5663 108.154 53.3447C104.532 52.3615 102.319 49.3117 102.319 45.1699V6.68394C102.319 6.59195 102.321 6.50169 102.324 6.41395C102.342 5.72557 102.356 5.19166 101.165 5.19166C90.2457 5.22802 79.3123 5.23202 68.3785 5.23602C62.3044 5.23824 56.2302 5.24046 50.1581 5.24822C47.7839 5.25119 45.4428 5.81119 43.3193 6.88408C36.3298 10.3994 32.9836 16.2206 32.9836 24.0518C32.981 28.341 32.9819 32.6303 32.9829 36.9195C32.985 46.9265 32.9871 56.9335 32.9449 66.9405C32.9363 68.4807 33.2248 68.9157 34.8355 68.9157C62.2222 68.8867 89.6074 68.8722 116.991 68.8722C122.275 68.8722 125.092 71.6871 125.092 76.9906V115.959C125.088 121.18 122.288 123.978 117.09 123.978H34.4522C34.3821 123.977 34.3131 123.976 34.2455 123.975C33.5124 123.961 32.9492 123.95 32.9492 125.165C32.976 127.734 32.965 130.304 32.954 132.873C32.9385 136.501 32.923 140.127 33.0138 143.751C33.2765 154.206 40.8344 161.781 50.9634 161.781H132.314C134.467 161.792 136.605 161.415 138.627 160.667C145.845 157.987 150.255 151.348 150.255 143.038ZM16.7143 94.3542C16.7143 92.344 17.0562 90.3802 17.7401 88.4628C18.4537 86.5144 19.4795 84.7517 20.8176 83.1744C22.1556 81.5663 23.791 80.2983 25.7237 79.3705C27.6565 78.4118 29.8568 77.9325 32.3247 77.9325C35.2387 77.9325 37.7512 78.5974 39.8624 79.9272C42.0032 81.257 43.594 82.9889 44.6347 85.1228L39.907 88.5092C39.3718 87.2721 38.673 86.298 37.8107 85.5867C36.9484 84.8444 36.0267 84.3342 35.0454 84.0558C34.0642 83.7466 33.0978 83.5919 32.1463 83.5919C30.6002 83.5919 29.2472 83.9167 28.0876 84.5661C26.9577 85.2155 26.0062 86.066 25.2331 87.1175C24.46 88.169 23.8802 89.3442 23.4937 90.643C23.1369 91.9419 22.9584 93.2408 22.9584 94.5397C22.9584 95.9932 23.1815 97.4004 23.6275 98.7611C24.0735 100.091 24.6979 101.282 25.5007 102.333C26.3333 103.354 27.3145 104.173 28.4444 104.792C29.6041 105.379 30.8678 105.673 32.2355 105.673C33.2168 105.673 34.2129 105.503 35.2238 105.163C36.2348 104.823 37.1714 104.281 38.0337 103.539C38.896 102.797 39.565 101.838 40.0408 100.663L45.0807 103.678C44.4563 105.317 43.4305 106.709 42.0032 107.853C40.6057 108.998 39.0298 109.864 37.2755 110.451C35.5212 111.039 33.7817 111.332 32.0571 111.332C29.7973 111.332 27.7308 110.853 25.8575 109.894C23.9843 108.905 22.3638 107.606 20.996 105.998C19.6579 104.359 18.6024 102.534 17.8293 100.524C17.0859 98.4828 16.7143 96.4262 16.7143 94.3542ZM57.381 78.118H63.6252L75.2661 111.054H68.9327L65.989 102.843H54.9279L52.0288 111.054H45.6954L57.381 78.118ZM64.874 98.3436L60.5031 84.7517L55.9537 98.3436H64.874ZM78.7395 78.118V111.054H90.2466C93.4282 111.054 96.1786 110.374 98.4979 109.013C100.847 107.652 102.661 105.735 103.939 103.261C105.218 100.787 105.857 97.8797 105.857 94.5397C105.857 91.509 105.277 88.7566 104.118 86.2825C102.958 83.7775 101.219 81.7982 98.8993 80.3447C96.58 78.8603 93.6958 78.118 90.2466 78.118H78.7395ZM98.5425 88.9267C99.2858 90.5348 99.6575 92.4058 99.6575 94.5397C99.6575 96.6117 99.2858 98.4828 98.5425 100.153C97.8289 101.792 96.7733 103.091 95.3758 104.049C93.9783 104.977 92.2686 105.441 90.2466 105.441H84.8945V83.7311H90.2466C92.2388 83.7311 93.9337 84.195 95.3312 85.1228C96.7287 86.0196 97.7991 87.2876 98.5425 88.9267Z" fill="#64748B"/>
</g>
<defs>
<clipPath id="clip0_1098_14260">
<rect width="156" height="167" fill="white"/>
</clipPath>
</defs>
</svg>
