<svg width="29" height="29" viewBox="0 0 29 29" fill="none" xmlns="http://www.w3.org/2000/svg">
<rect width="29" height="29" fill="white"/>
<path d="M23.2 13.15V16.05H29V13.15H23.2ZM20.3 22.7345C21.692 23.764 23.5045 25.127 24.94 26.2C25.52 25.4315 26.1 24.6485 26.68 23.88C25.2445 22.807 23.432 21.444 22.04 20.4C21.46 21.183 20.88 21.966 20.3 22.7345ZM26.68 5.32C26.1 4.5515 25.52 3.7685 24.94 3C23.5045 4.073 21.692 5.436 20.3 6.48C20.88 7.2485 21.46 8.0315 22.04 8.8C23.432 7.756 25.2445 6.4075 26.68 5.32ZM2.9 10.25C1.305 10.25 0 11.555 0 13.15V16.05C0 17.645 1.305 18.95 2.9 18.95H4.35V24.75H7.25V18.95H8.7L15.95 23.3V5.9L8.7 10.25H2.9ZM10.1935 12.7295L13.05 11.0185V18.1815L10.1935 16.4705L9.4975 16.05H2.9V13.15H9.4975L10.1935 12.7295ZM19.575 14.6C19.575 12.6715 18.734 10.9315 17.4 9.7425V19.443C18.734 18.2685 19.575 16.5285 19.575 14.6Z" fill="#515151"/>
<path d="M10.1935 12.7296L13.05 11.0186V18.1816L10.1935 16.4706L9.49749 16.0501H2.89999V13.1501H9.49749L10.1935 12.7296V12.7296Z" fill="#8C031F"/>
</svg>
