<svg width="29" height="29" viewBox="0 0 29 29" fill="none" xmlns="http://www.w3.org/2000/svg">
<g clip-path="url(#clip0_35_589)">
<rect width="29" height="29" fill="white"/>
<path d="M0 0H1.8125V1.8125H0V0Z" fill="#515151"/>
<path d="M3.625 0H5.4375V1.8125H3.625V0Z" fill="#515151"/>
<path d="M1.8125 1.8125H3.625V3.625H1.8125V1.8125Z" fill="#515151"/>
<path d="M0 3.625H1.8125V5.4375H0V3.625Z" fill="#515151"/>
<path d="M3.625 3.625H5.4375V5.4375H3.625V3.625Z" fill="#515151"/>
<path d="M1.8125 5.4375H3.625V7.25H1.8125V5.4375Z" fill="#515151"/>
<path d="M0 7.25H1.8125V9.0625H0V7.25Z" fill="#515151"/>
<path d="M1.8125 9.0625H3.625V10.875H1.8125V9.0625Z" fill="#515151"/>
<path d="M0 10.875H1.8125V12.6875H0V10.875Z" fill="#515151"/>
<path d="M1.8125 12.6875H3.625V14.5H1.8125V12.6875Z" fill="#515151"/>
<path d="M0 14.5H1.8125V16.3125H0V14.5Z" fill="#515151"/>
<path d="M1.8125 16.3125H3.625V18.125H1.8125V16.3125Z" fill="#515151"/>
<path d="M0 18.125H1.8125V19.9375H0V18.125Z" fill="#515151"/>
<path d="M1.8125 19.9375H3.625V21.75H1.8125V19.9375Z" fill="#515151"/>
<path d="M0 21.75H1.8125V23.5625H0V21.75Z" fill="#515151"/>
<path d="M1.8125 23.5625H3.625V25.375H1.8125V23.5625Z" fill="#515151"/>
<path d="M0 25.375H1.8125V27.1875H0V25.375Z" fill="#515151"/>
<path d="M3.625 25.375H5.4375V27.1875H3.625V25.375Z" fill="#515151"/>
<path d="M1.8125 27.1875H3.625V29H1.8125V27.1875Z" fill="#515151"/>
<path d="M5.4375 27.1875H7.25V29H5.4375V27.1875Z" fill="#515151"/>
<path d="M9.0625 27.1875H10.875V29H9.0625V27.1875Z" fill="#515151"/>
<path d="M7.25 0H9.0625V1.8125H7.25V0Z" fill="#515151"/>
<path d="M5.4375 1.8125H7.25V3.625H5.4375V1.8125Z" fill="#515151"/>
<path d="M9.0625 1.8125H10.875V3.625H9.0625V1.8125Z" fill="#515151"/>
<path d="M7.25 25.375H9.0625V27.1875H7.25V25.375Z" fill="#515151"/>
<path d="M10.875 0H12.6875V1.8125H10.875V0Z" fill="#515151"/>
<path d="M14.5 0H16.3125V1.8125H14.5V0Z" fill="#515151"/>
<path d="M12.6875 1.8125H14.5V3.625H12.6875V1.8125Z" fill="#515151"/>
<path d="M10.875 25.375H12.6875V27.1875H10.875V25.375Z" fill="#515151"/>
<path d="M14.5 25.375H16.3125V27.1875H14.5V25.375Z" fill="#515151"/>
<path d="M12.6875 27.1875H14.5V29H12.6875V27.1875Z" fill="#515151"/>
<path d="M16.3125 27.1875H18.125V29H16.3125V27.1875Z" fill="#515151"/>
<path d="M19.9375 27.1875H21.75V29H19.9375V27.1875Z" fill="#515151"/>
<path d="M18.125 0H19.9375V1.8125H18.125V0Z" fill="#515151"/>
<path d="M16.3125 1.8125H18.125V3.625H16.3125V1.8125Z" fill="#515151"/>
<path d="M19.9375 1.8125H21.75V3.625H19.9375V1.8125Z" fill="#515151"/>
<path d="M18.125 25.375H19.9375V27.1875H18.125V25.375Z" fill="#515151"/>
<path d="M21.75 0H23.5625V1.8125H21.75V0Z" fill="#515151"/>
<path d="M25.375 0H27.1875V1.8125H25.375V0Z" fill="#515151"/>
<path d="M23.5625 1.8125H25.375V3.625H23.5625V1.8125Z" fill="#515151"/>
<path d="M23.5625 3.625H21.75V5.4375H19.9375V3.625H18.125V5.4375H16.3125V3.625H14.5V5.4375H12.6875V3.625H10.875V5.4375H9.0625V3.625H7.25V5.4375H5.4375V7.25H3.625V9.0625H5.4375V10.875H3.625V12.6875H5.4375V14.5H3.625V16.3125H5.4375V18.125H3.625V19.9375H5.4375V21.75H3.625V23.5625H5.4375V25.375H7.25V23.5625H9.0625V25.375H10.875V23.5625H12.6875V25.375H14.5V23.5625H16.3125V25.375H18.125V23.5625H19.9375V25.375H21.75V23.5625H23.5625V21.75H25.375V19.9375H23.5625V18.125H25.375V16.3125H23.5625V14.5H25.375V12.6875H23.5625V10.875H25.375V9.0625H23.5625V7.25H25.375V5.4375H23.5625V3.625ZM21.75 21.75H7.25V7.25H21.75V21.75Z" fill="#8C031F"/>
<path d="M25.375 3.625H27.1875V5.4375H25.375V3.625Z" fill="#515151"/>
<path d="M25.375 7.25H27.1875V9.0625H25.375V7.25Z" fill="#515151"/>
<path d="M25.375 10.875H27.1875V12.6875H25.375V10.875Z" fill="#515151"/>
<path d="M25.375 14.5H27.1875V16.3125H25.375V14.5Z" fill="#515151"/>
<path d="M25.375 18.125H27.1875V19.9375H25.375V18.125Z" fill="#515151"/>
<path d="M25.375 21.75H27.1875V23.5625H25.375V21.75Z" fill="#515151"/>
<path d="M23.5625 23.5625H25.375V25.375H23.5625V23.5625Z" fill="#515151"/>
<path d="M21.75 25.375H23.5625V27.1875H21.75V25.375Z" fill="#515151"/>
<path d="M25.375 25.375H27.1875V27.1875H25.375V25.375Z" fill="#515151"/>
<path d="M23.5625 27.1875H25.375V29H23.5625V27.1875Z" fill="#515151"/>
<path d="M27.1875 27.1875H29V29H27.1875V27.1875Z" fill="#515151"/>
<path d="M27.1875 1.8125H29V3.625H27.1875V1.8125Z" fill="#515151"/>
<path d="M27.1875 5.4375H29V7.25H27.1875V5.4375Z" fill="#515151"/>
<path d="M27.1875 9.0625H29V10.875H27.1875V9.0625Z" fill="#515151"/>
<path d="M27.1875 12.6875H29V14.5H27.1875V12.6875Z" fill="#515151"/>
<path d="M27.1875 16.3125H29V18.125H27.1875V16.3125Z" fill="#515151"/>
<path d="M27.1875 19.9375H29V21.75H27.1875V19.9375Z" fill="#515151"/>
<path d="M27.1875 23.5625H29V25.375H27.1875V23.5625Z" fill="#515151"/>
</g>
<defs>
<clipPath id="clip0_35_589">
<rect width="29" height="29" fill="white"/>
</clipPath>
</defs>
</svg>
