<svg width="29" height="29" viewBox="0 0 29 29" fill="none" xmlns="http://www.w3.org/2000/svg">
<rect width="29" height="29" fill="white"/>
<path d="M0 26.9286H29V29H0V26.9286Z" fill="#515151"/>
<path d="M22.7857 24.8571H6.21428C5.66507 24.8566 5.13852 24.6382 4.75017 24.2498C4.36182 23.8615 4.1434 23.3349 4.14285 22.7857V18.6429C4.1434 18.0936 4.36182 17.5671 4.75017 17.1787C5.13852 16.7904 5.66507 16.572 6.21428 16.5714H22.7857C23.3349 16.572 23.8615 16.7904 24.2498 17.1787C24.6382 17.5671 24.8566 18.0936 24.8571 18.6429V22.7857C24.8566 23.3349 24.6382 23.8615 24.2498 24.2498C23.8615 24.6382 23.3349 24.8566 22.7857 24.8571V24.8571ZM22.7857 18.6418L6.21428 18.6429V22.7857H22.7857V18.6418Z" fill="#8C031F"/>
<path d="M0 10.3571H29V12.4286H0V10.3571Z" fill="#515151"/>
<path d="M18.6429 8.28571H10.3571C9.80793 8.28517 9.28138 8.06675 8.89303 7.6784C8.50468 7.29005 8.28626 6.76349 8.28571 6.21429V2.07143C8.28626 1.52222 8.50468 0.995662 8.89303 0.607313C9.28138 0.218964 9.80793 0.000548387 10.3571 0H18.6429C19.1921 0.000548387 19.7186 0.218964 20.107 0.607313C20.4953 0.995662 20.7137 1.52222 20.7143 2.07143V6.21429C20.7137 6.76349 20.4953 7.29005 20.107 7.6784C19.7186 8.06675 19.1921 8.28517 18.6429 8.28571V8.28571ZM18.6429 2.07039L10.3571 2.07143V6.21429H18.6429V2.07039Z" fill="#8C031F"/>
</svg>
