<svg width="29" height="29" viewBox="0 0 29 29" fill="none" xmlns="http://www.w3.org/2000/svg">
<rect width="29" height="29" fill="white"/>
<path fill-rule="evenodd" clip-rule="evenodd" d="M23.3611 27.3889C24.4294 27.3889 25.4538 26.9645 26.2092 26.2092C26.9645 25.4538 27.3889 24.4293 27.3889 23.3611C27.3889 22.2929 26.9645 21.2684 26.2092 20.513C25.4538 19.7577 24.4294 19.3333 23.3611 19.3333C22.2929 19.3333 21.2684 19.7577 20.513 20.513C19.7577 21.2684 19.3333 22.2929 19.3333 23.3611C19.3333 24.4293 19.7577 25.4538 20.513 26.2092C21.2684 26.9645 22.2929 27.3889 23.3611 27.3889ZM23.3611 29C24.8566 29 26.2909 28.4059 27.3484 27.3484C28.4059 26.2909 29 24.8566 29 23.3611C29 21.8656 28.4059 20.4313 27.3484 19.3738C26.2909 18.3163 24.8566 17.7222 23.3611 17.7222C21.8656 17.7222 20.4313 18.3163 19.3738 19.3738C18.3163 20.4313 17.7222 21.8656 17.7222 23.3611C17.7222 24.8566 18.3163 26.2909 19.3738 27.3484C20.4313 28.4059 21.8656 29 23.3611 29V29Z" fill="#8C031F"/>
<path fill-rule="evenodd" clip-rule="evenodd" d="M23.3611 20.5417C23.5748 20.5417 23.7797 20.6265 23.9307 20.7776C24.0818 20.9287 24.1667 21.1336 24.1667 21.3472V23.0276L24.7362 23.5971C24.8829 23.7491 24.9641 23.9526 24.9623 24.1638C24.9605 24.375 24.8757 24.577 24.7264 24.7264C24.577 24.8757 24.375 24.9605 24.1638 24.9623C23.9526 24.9641 23.7491 24.8829 23.5971 24.7362L22.5556 23.6946V21.3472C22.5556 21.1336 22.6404 20.9287 22.7915 20.7776C22.9426 20.6265 23.1475 20.5417 23.3611 20.5417Z" fill="#8C031F"/>
<path fill-rule="evenodd" clip-rule="evenodd" d="M6.44445 13.6944H4.83334V15.3056H6.44445V13.6944ZM4.83334 12.0833C4.40605 12.0833 3.99625 12.2531 3.69411 12.5552C3.39197 12.8574 3.22223 13.2671 3.22223 13.6944V15.3056C3.22223 15.7328 3.39197 16.1426 3.69411 16.4448C3.99625 16.7469 4.40605 16.9167 4.83334 16.9167H6.44445C6.87174 16.9167 7.28154 16.7469 7.58368 16.4448C7.88582 16.1426 8.05556 15.7328 8.05556 15.3056V13.6944C8.05556 13.2671 7.88582 12.8574 7.58368 12.5552C7.28154 12.2531 6.87174 12.0833 6.44445 12.0833H4.83334Z" fill="#515151"/>
<path fill-rule="evenodd" clip-rule="evenodd" d="M12.8889 13.6944H11.2778V15.3056H12.8889V13.6944ZM11.2778 12.0833C10.8505 12.0833 10.4407 12.2531 10.1386 12.5552C9.83641 12.8574 9.66667 13.2671 9.66667 13.6944V15.3056C9.66667 15.7328 9.83641 16.1426 10.1386 16.4448C10.4407 16.7469 10.8505 16.9167 11.2778 16.9167H12.8889C13.3162 16.9167 13.726 16.7469 14.0281 16.4448C14.3303 16.1426 14.5 15.7328 14.5 15.3056V13.6944C14.5 13.2671 14.3303 12.8574 14.0281 12.5552C13.726 12.2531 13.3162 12.0833 12.8889 12.0833H11.2778Z" fill="#515151"/>
<path fill-rule="evenodd" clip-rule="evenodd" d="M19.3333 13.6944H17.7222V15.3056H19.3333V13.6944ZM17.7222 12.0833C17.2949 12.0833 16.8851 12.2531 16.583 12.5552C16.2809 12.8574 16.1111 13.2671 16.1111 13.6944V15.3056C16.1111 15.7328 16.2809 16.1426 16.583 16.4448C16.8851 16.7469 17.2949 16.9167 17.7222 16.9167H19.3333C19.7606 16.9167 20.1704 16.7469 20.4726 16.4448C20.7747 16.1426 20.9444 15.7328 20.9444 15.3056V13.6944C20.9444 13.2671 20.7747 12.8574 20.4726 12.5552C20.1704 12.2531 19.7606 12.0833 19.3333 12.0833H17.7222Z" fill="#515151"/>
<path fill-rule="evenodd" clip-rule="evenodd" d="M6.44445 20.1389H4.83334V21.75H6.44445V20.1389ZM4.83334 18.5278C4.40605 18.5278 3.99625 18.6975 3.69411 18.9997C3.39197 19.3018 3.22223 19.7116 3.22223 20.1389V21.75C3.22223 22.1773 3.39197 22.5871 3.69411 22.8892C3.99625 23.1914 4.40605 23.3611 4.83334 23.3611H6.44445C6.87174 23.3611 7.28154 23.1914 7.58368 22.8892C7.88582 22.5871 8.05556 22.1773 8.05556 21.75V20.1389C8.05556 19.7116 7.88582 19.3018 7.58368 18.9997C7.28154 18.6975 6.87174 18.5278 6.44445 18.5278H4.83334Z" fill="#515151"/>
<path fill-rule="evenodd" clip-rule="evenodd" d="M12.8889 20.1389H11.2778V21.75H12.8889V20.1389ZM11.2778 18.5278C10.8505 18.5278 10.4407 18.6975 10.1386 18.9997C9.83641 19.3018 9.66667 19.7116 9.66667 20.1389V21.75C9.66667 22.1773 9.83641 22.5871 10.1386 22.8892C10.4407 23.1914 10.8505 23.3611 11.2778 23.3611H12.8889C13.3162 23.3611 13.726 23.1914 14.0281 22.8892C14.3303 22.5871 14.5 22.1773 14.5 21.75V20.1389C14.5 19.7116 14.3303 19.3018 14.0281 18.9997C13.726 18.6975 13.3162 18.5278 12.8889 18.5278H11.2778Z" fill="#515151"/>
<path fill-rule="evenodd" clip-rule="evenodd" d="M1.61111 4.83333C1.61111 4.61969 1.69598 4.41479 1.84705 4.26372C1.99812 4.11265 2.20302 4.02778 2.41667 4.02778H6.44444V2.41667H2.41667C1.77573 2.41667 1.16104 2.67128 0.707825 3.12449C0.254612 3.57771 0 4.19239 0 4.83333V24.1667C0 24.8076 0.254612 25.4223 0.707825 25.8755C1.16104 26.3287 1.77573 26.5833 2.41667 26.5833H18.7332C18.3897 26.0913 18.1272 25.5473 17.9558 24.9722H2.41667C2.20302 24.9722 1.99812 24.8874 1.84705 24.7363C1.69598 24.5852 1.61111 24.3803 1.61111 24.1667V4.83333ZM22.5556 17.7786C23.0899 17.7022 23.6323 17.7022 24.1667 17.7786V4.83333C24.1667 4.19239 23.9121 3.57771 23.4588 3.12449C23.0056 2.67128 22.3909 2.41667 21.75 2.41667H19.3333V4.02778H21.75C21.9636 4.02778 22.1685 4.11265 22.3196 4.26372C22.4707 4.41479 22.5556 4.61969 22.5556 4.83333V17.7786ZM8.05556 4.02778H16.5646V2.41667H8.05556V4.02778Z" fill="#515151"/>
<path fill-rule="evenodd" clip-rule="evenodd" d="M24.1667 9.66667H1.61111V8.05556H24.1667V9.66667Z" fill="#515151"/>
<path d="M4.83333 0.805556C4.83333 0.591909 4.9182 0.387013 5.06927 0.235942C5.22034 0.0848709 5.42524 0 5.63888 0C5.85253 0 6.05743 0.0848709 6.2085 0.235942C6.35957 0.387013 6.44444 0.591909 6.44444 0.805556V4.83333C6.44444 5.04698 6.35957 5.25188 6.2085 5.40295C6.05743 5.55402 5.85253 5.63889 5.63888 5.63889C5.42524 5.63889 5.22034 5.55402 5.06927 5.40295C4.9182 5.25188 4.83333 5.04698 4.83333 4.83333V0.805556Z" fill="#515151"/>
<path d="M16.1111 0.805556C16.1111 0.591909 16.196 0.387013 16.3471 0.235942C16.4981 0.0848709 16.703 0 16.9167 0C17.1303 0 17.3352 0.0848709 17.4863 0.235942C17.6374 0.387013 17.7222 0.591909 17.7222 0.805556V4.83333C17.7222 5.04698 17.6374 5.25188 17.4863 5.40295C17.3352 5.55402 17.1303 5.63889 16.9167 5.63889C16.703 5.63889 16.4981 5.55402 16.3471 5.40295C16.196 5.25188 16.1111 5.04698 16.1111 4.83333V0.805556Z" fill="#515151"/>
</svg>
