<svg width="29" height="29" viewBox="0 0 29 29" fill="none" xmlns="http://www.w3.org/2000/svg">
<rect width="29" height="29" fill="white"/>
<path d="M27.3483 21.9013L28.7857 20.6404L27.5248 18.4591L25.6965 19.0769C25.2917 18.7358 24.831 18.467 24.3348 18.2826L23.9565 16.3913H21.4348L21.0565 18.27C20.5603 18.4544 20.0996 18.7231 19.6948 19.0643L17.8665 18.4465L16.6057 20.6278L18.043 21.8887C17.9422 22.4134 17.9422 22.9526 18.043 23.4774L16.6057 24.7383L17.8665 26.9196L19.6948 26.3017C20.0996 26.643 20.5602 26.9117 21.0565 27.0961L21.4348 29H23.9565L24.3348 27.1213C24.831 26.9369 25.2917 26.6682 25.6965 26.3269L27.5248 26.9448L28.7857 24.7635L27.3483 23.5026C27.4491 22.9736 27.4491 22.4303 27.3483 21.9013V21.9013ZM22.6957 25.2174C22.1969 25.2174 21.7093 25.0695 21.2946 24.7924C20.8799 24.5153 20.5567 24.1215 20.3659 23.6607C20.175 23.1999 20.1251 22.6928 20.2224 22.2037C20.3197 21.7145 20.5598 21.2652 20.9125 20.9125C21.2652 20.5598 21.7145 20.3197 22.2037 20.2224C22.6929 20.1251 23.1999 20.175 23.6607 20.3659C24.1215 20.5567 24.5153 20.8799 24.7924 21.2946C25.0695 21.7093 25.2174 22.1969 25.2174 22.6956C25.2154 23.3638 24.9491 24.0041 24.4766 24.4766C24.0041 24.9491 23.3638 25.2154 22.6957 25.2174V25.2174Z" fill="#8C031F"/>
<path d="M27.7391 12.6087H0V0H27.7391V12.6087ZM2.52174 10.087H25.2174V2.52174H2.52174V10.087ZM15.1304 5.04348H3.78261V7.56522H15.1304V5.04348ZM18.913 5.04348C18.6637 5.04348 18.4199 5.11743 18.2125 5.25597C18.0052 5.39452 17.8436 5.59144 17.7482 5.82183C17.6527 6.05223 17.6277 6.30575 17.6764 6.55033C17.7251 6.79492 17.8451 7.01958 18.0215 7.19592C18.1978 7.37225 18.4225 7.49234 18.6671 7.54099C18.9116 7.58964 19.1652 7.56467 19.3956 7.46924C19.6259 7.37381 19.8229 7.2122 19.9614 7.00485C20.1 6.7975 20.1739 6.55372 20.1739 6.30435C20.1739 5.96994 20.0411 5.64924 19.8046 5.41278C19.5682 5.17632 19.2474 5.04348 18.913 5.04348ZM22.6957 5.04348C22.4463 5.04348 22.2025 5.11743 21.9951 5.25597C21.7878 5.39452 21.6262 5.59144 21.5308 5.82183C21.4353 6.05223 21.4104 6.30575 21.459 6.55033C21.5077 6.79492 21.6277 7.01958 21.8041 7.19592C21.9804 7.37225 22.2051 7.49234 22.4497 7.54099C22.6943 7.58964 22.9478 7.56467 23.1782 7.46924C23.4086 7.37381 23.6055 7.2122 23.744 7.00485C23.8826 6.7975 23.9565 6.55372 23.9565 6.30435C23.9565 5.96994 23.8237 5.64924 23.5872 5.41278C23.3508 5.17632 23.0301 5.04348 22.6957 5.04348Z" fill="#515151"/>
<path d="M14.2403 25.2174H2.52174V17.6522H15.4583C16.1735 16.6303 17.0964 15.771 18.1666 15.1304H0V27.7391H15.4583C14.9199 26.9691 14.5087 26.1177 14.2403 25.2174V25.2174Z" fill="#8C031F"/>
<path d="M3.78261 22.6956H13.8696C13.8704 21.8415 13.9952 20.9921 14.2403 20.1739H3.78261V22.6956Z" fill="#8C031F"/>
</svg>
