<svg width="29" height="29" viewBox="0 0 29 29" fill="none" xmlns="http://www.w3.org/2000/svg">
<rect width="29" height="29" fill="white"/>
<path d="M27.1 28H19V23.6497C19 23.411 19.0948 23.1821 19.2636 23.0133C19.4324 22.8445 19.6613 22.7497 19.9 22.7497H27.1C27.3387 22.7497 27.5676 22.8445 27.7364 23.0133C27.9052 23.1821 28 23.411 28 23.6497V27.0999C28 27.3386 27.9052 27.5676 27.7364 27.7364C27.5676 27.9051 27.3387 28 27.1 28V28Z" stroke="#515151" stroke-width="1.5" stroke-linecap="round" stroke-linejoin="round"/>
<path d="M10 28V20.6496C10 20.4109 9.90518 20.1819 9.7364 20.0131C9.56761 19.8443 9.33869 19.7495 9.1 19.7495H1.9C1.66131 19.7495 1.43239 19.8443 1.2636 20.0131C1.09482 20.1819 1 20.4109 1 20.6496V27.0999C1 27.3386 1.09482 27.5675 1.2636 27.7363C1.43239 27.9051 1.66131 28 1.9 28H10V28Z" stroke="#515151" stroke-width="1.5" stroke-linecap="round" stroke-linejoin="round"/>
<path d="M19 28H10V15.3993C10 15.1606 10.0948 14.9317 10.2636 14.7629C10.4324 14.5941 10.6613 14.4993 10.9 14.4993H18.1C18.3387 14.4993 18.5676 14.5941 18.7364 14.7629C18.9052 14.9317 19 15.1606 19 15.3993V28V28Z" stroke="#8C031F" stroke-width="1.5" stroke-linecap="round" stroke-linejoin="round"/>
<path d="M12.709 4.16823L14.0725 1.27757C14.1093 1.19494 14.1693 1.12474 14.2451 1.07548C14.321 1.02622 14.4095 1 14.5 1C14.5904 1 14.679 1.02622 14.7548 1.07548C14.8307 1.12474 14.8907 1.19494 14.9275 1.27757L16.2925 4.16823L19.3405 4.63475C19.732 4.69476 19.888 5.19878 19.6045 5.4868L17.3995 7.73692L17.92 10.9141C17.986 11.3221 17.578 11.6341 17.227 11.4406L14.5 9.94054L11.773 11.4406C11.4235 11.6326 11.014 11.3221 11.08 10.9141L11.6005 7.73692L9.39548 5.4868C9.11048 5.19878 9.26798 4.69476 9.65798 4.63475L12.709 4.16973V4.16823Z" stroke="#8C031F" stroke-width="1.5" stroke-linecap="round" stroke-linejoin="round"/>
</svg>
