<svg width="29" height="29" viewBox="0 0 29 29" fill="none" xmlns="http://www.w3.org/2000/svg">
<rect width="29" height="29" fill="white"/>
<path d="M17.4287 15.8444L18.0242 16.44L17.2821 17.1822C17.2271 17.2371 17.2271 17.2921 17.2821 17.3471L17.4378 17.5028C17.4928 17.5578 17.5478 17.5578 17.6027 17.5028L18.3449 16.7607L19.4902 17.906L18.748 18.6482C18.6931 18.7031 18.6931 18.755 18.748 18.8039L18.9038 18.9688C18.9588 19.0238 19.0138 19.0238 19.0687 18.9688L19.8109 18.2267L20.3881 18.8039C20.4431 18.8589 20.4706 18.9261 20.4706 19.0055C20.4706 19.0849 20.4431 19.1551 20.3881 19.2162L18.9221 20.6822C18.861 20.7372 18.7908 20.7647 18.7114 20.7647C18.632 20.7647 18.5648 20.7372 18.5098 20.6822L15.5503 17.7227L13.8278 19.4453C13.7301 19.543 13.611 19.5919 13.4705 19.5919C13.33 19.5919 13.2109 19.543 13.1131 19.4453L12.4168 18.7398C12.3191 18.642 12.2702 18.5245 12.2702 18.387C12.2702 18.2496 12.3191 18.132 12.4168 18.0343L14.1393 16.3117L11.1707 13.3431C11.1157 13.2881 11.0882 13.2209 11.0882 13.1415C11.0882 13.0621 11.1157 12.9949 11.1707 12.9399L12.6367 11.4648C12.6978 11.4098 12.768 11.3823 12.8474 11.3823C12.9268 11.3823 12.994 11.4098 13.049 11.4648L13.6262 12.042L12.8841 12.7842C12.8291 12.8392 12.8291 12.8941 12.8841 12.9491L13.0398 13.1049C13.0948 13.1598 13.1498 13.1598 13.2048 13.1049L13.9469 12.3627L15.0922 13.508L14.3501 14.2502C14.2951 14.3051 14.2951 14.3601 14.3501 14.4151L14.5058 14.5709C14.5608 14.6258 14.6158 14.6258 14.6708 14.5709L15.4129 13.8287L16.0085 14.4334L18.913 11.5289C19.0107 11.4312 19.1283 11.3823 19.2657 11.3823C19.4032 11.3823 19.5207 11.4312 19.6185 11.5289L20.324 12.2344C20.4217 12.3322 20.4706 12.4498 20.4706 12.5872C20.4706 12.7246 20.4217 12.8422 20.324 12.9399L17.4287 15.8444ZM11.693 18.7856C11.7052 18.8345 11.7266 18.8742 11.7571 18.9047L12.9482 20.0958C12.9788 20.1264 13.0185 20.1477 13.0673 20.16C13.0368 20.221 13.0123 20.2577 12.994 20.2699L11.3814 20.7647C11.2348 20.7647 11.1493 20.7525 11.1249 20.728C11.1005 20.7036 11.0882 20.6181 11.0882 20.4715L11.583 18.8589C11.5952 18.8467 11.6319 18.8222 11.693 18.7856Z" fill="#8C031F"/>
<path d="M0 22.4706V25.3706C0 25.9587 0.233644 26.5228 0.649534 26.9387C1.06542 27.3546 1.62949 27.5882 2.21765 27.5882H26.7312C27.3193 27.5882 27.8834 27.3546 28.2993 26.9387C28.7152 26.5228 28.9488 25.9587 28.9488 25.3706V22.4706H0ZM27.2941 25.3706C27.2941 25.5063 27.2402 25.6365 27.1442 25.7325C27.0483 25.8284 26.9181 25.8823 26.7824 25.8823H2.18353C2.0478 25.8823 1.91763 25.8284 1.82166 25.7325C1.72568 25.6365 1.67176 25.5063 1.67176 25.3706V23.7756H10.1585C10.2652 24.0272 10.4432 24.242 10.6705 24.3936C10.8979 24.5452 11.1647 24.6269 11.4379 24.6285H17.5194C17.7927 24.6269 18.0595 24.5452 18.2868 24.3936C18.5142 24.242 18.6922 24.0272 18.7988 23.7756H27.2941V25.3706Z" fill="#515151"/>
<path d="M18.3382 6.26468C18.3391 5.97936 18.3591 5.69441 18.3979 5.41174H3.83823C3.49891 5.41174 3.17349 5.54654 2.93355 5.78647C2.69362 6.02641 2.55882 6.35183 2.55882 6.69115V20.7647H4.2647V7.11763H18.3979C18.3591 6.83496 18.3391 6.55001 18.3382 6.26468V6.26468Z" fill="#515151"/>
<path d="M24.7353 12.6617V20.7647H26.4412V12.4229C25.8859 12.5792 25.3121 12.6595 24.7353 12.6617V12.6617Z" fill="#515151"/>
<path d="M18.8756 8.82355H5.97059V20.6624H7.33529V10.1883H19.6859C19.3601 9.7688 19.0879 9.31036 18.8756 8.82355Z" fill="#515151"/>
<path d="M24.7353 10.5294C27.0906 10.5294 29 8.62004 29 6.26471C29 3.90937 27.0906 2 24.7353 2C22.38 2 20.4706 3.90937 20.4706 6.26471C20.4706 8.62004 22.38 10.5294 24.7353 10.5294Z" fill="#8C031F"/>
</svg>
