<svg width="29" height="29" viewBox="0 0 29 29" fill="none" xmlns="http://www.w3.org/2000/svg">
<g clip-path="url(#clip0_8_145)">
<rect width="29" height="29" fill="white"/>
<path d="M0 17.8462V4.46154C0 3.27826 0.471032 2.14345 1.30947 1.30675C2.14792 0.470053 3.28509 0 4.47082 0H8.3828C8.63644 0.000450937 8.8824 0.0869846 9.08024 0.245384L11.5683 2.23077H22.3541C23.5399 2.23077 24.677 2.70082 25.5155 3.53752C26.3539 4.37422 26.8249 5.50903 26.8249 6.69231V9.49638C26.1354 8.92828 25.3858 8.43684 24.5895 8.03077V6.69231C24.5895 6.10067 24.354 5.53327 23.9348 5.11492C23.5156 4.69657 22.947 4.46154 22.3541 4.46154H12.5027L9.13389 7.51769C8.92834 7.70414 8.66057 7.80752 8.3828 7.80769H2.23541V17.8462C2.23541 18.4378 2.47093 19.0052 2.89015 19.4235C3.30937 19.8419 3.87796 20.0769 4.47082 20.0769H6.75541C6.82471 20.8421 6.96554 21.5894 7.16897 22.3077H4.47082C3.28509 22.3077 2.14792 21.8376 1.30947 21.0009C0.471032 20.1642 0 19.0294 0 17.8462ZM4.47082 2.23077C3.87796 2.23077 3.30937 2.4658 2.89015 2.88415C2.47093 3.3025 2.23541 3.8699 2.23541 4.46154V5.57692H7.95136L9.93194 3.78115L7.9916 2.23077H4.47082ZM20.9168 26.7135C21.6656 25.0694 22.2088 22.7516 22.3295 20.0769H15.6702C15.791 22.7538 16.3319 25.0694 17.0808 26.7135C18.0241 28.7836 18.8691 29 18.9988 29C19.1262 29 19.9712 28.7836 20.9145 26.7135H20.9168ZM15.3953 28.3352C13.674 27.675 12.1674 26.5557 11.04 25.0993C9.91256 23.643 9.2076 21.9057 9.002 20.0769H13.4348C13.569 23.3829 14.3044 26.3097 15.3953 28.3352ZM9.002 17.8462H13.4348C13.569 14.5402 14.3044 11.6134 15.3953 9.58785C13.674 10.2481 12.1674 11.3674 11.04 12.8237C9.91256 14.28 9.2076 16.0174 9.002 17.8462ZM19.001 8.92308C18.8736 8.92308 18.0264 9.13946 17.083 11.2096C16.3342 12.8537 15.7932 15.1715 15.6725 17.8462H22.3295C22.2088 15.1692 21.6656 12.8537 20.9168 11.2096C19.9734 9.13946 19.1284 8.92308 19.001 8.92308ZM22.6067 9.58785C24.3281 10.2481 25.8346 11.3674 26.962 12.8237C28.0894 14.28 28.7944 16.0174 29 17.8462H24.5672C24.4308 14.5402 23.6976 11.6134 22.6067 9.58785ZM29 20.0769C28.7944 21.9057 28.0894 23.643 26.962 25.0993C25.8346 26.5557 24.3281 27.675 22.6067 28.3352C23.6976 26.3097 24.4308 23.3829 24.5672 20.0769H28.9978H29Z" fill="#515151"/>
<path d="M6.5 21C5 21.1667 1.9 21.3 1.5 18.5C1.19836 16.3885 1.06732 11.1114 1.02111 7M11.5 3.5L8 1H5.5C3 1 1.5 2.33333 1 3.5C1 4.44261 1.00605 5.65934 1.02111 7M11.5 3.5L8.5 6.5L1.02111 7M11.5 3.5H23C23.8333 3.5 25.5 4 25.5 6V8.5" stroke="#8C031F" stroke-width="3" stroke-linecap="round"/>
</g>
<defs>
<clipPath id="clip0_8_145">
<rect width="29" height="29" fill="white"/>
</clipPath>
</defs>
</svg>
