<svg width="44" height="44" viewBox="0 0 44 44" fill="none" xmlns="http://www.w3.org/2000/svg">
<circle cx="22" cy="22" r="21.5" fill="#F1F1F1" stroke="#CCCCCC"/>
<path d="M30.8456 29.9061C30.7852 30.0107 30.6984 30.0975 30.5939 30.1578C30.4893 30.2182 30.3707 30.2499 30.25 30.2499H13.75C13.6294 30.2498 13.5109 30.2179 13.4065 30.1575C13.3021 30.0971 13.2154 30.0103 13.1552 29.9058C13.0949 29.8013 13.0632 29.6828 13.0632 29.5622C13.0633 29.4416 13.095 29.3231 13.1553 29.2186C14.4642 26.9559 16.4811 25.3334 18.8349 24.5643C17.6706 23.8711 16.766 22.815 16.2601 21.558C15.7541 20.301 15.6748 18.9127 16.0342 17.6062C16.3936 16.2998 17.172 15.1474 18.2497 14.3261C19.3275 13.5049 20.645 13.0601 22 13.0601C23.355 13.0601 24.6726 13.5049 25.7503 14.3261C26.8281 15.1474 27.6064 16.2998 27.9659 17.6062C28.3253 18.9127 28.2459 20.301 27.74 21.558C27.234 22.815 26.3294 23.8711 25.1651 24.5643C27.5189 25.3334 29.5359 26.9559 30.8447 29.2186C30.9052 29.3231 30.9371 29.4416 30.9373 29.5623C30.9374 29.683 30.9058 29.8016 30.8456 29.9061Z" fill="#A1A1A1"/>
</svg>
