<svg width="29" height="29" viewBox="0 0 29 29" fill="none" xmlns="http://www.w3.org/2000/svg">
<rect width="29" height="29" fill="white"/>
<path d="M4.14286 22.6429C4.69223 22.6429 5.21911 22.4246 5.60758 22.0361C5.99605 21.6477 6.21429 21.1208 6.21429 20.5714C6.21429 20.0221 5.99605 19.4952 5.60758 19.1067C5.21911 18.7182 4.69223 18.5 4.14286 18.5C3.59348 18.5 3.0666 18.7182 2.67814 19.1067C2.28967 19.4952 2.07143 20.0221 2.07143 20.5714C2.07143 21.1208 2.28967 21.6477 2.67814 22.0361C3.0666 22.4246 3.59348 22.6429 4.14286 22.6429V22.6429ZM5.52381 20.5714C5.52381 20.9377 5.37832 21.2889 5.11934 21.5479C4.86036 21.8069 4.50911 21.9524 4.14286 21.9524C3.77661 21.9524 3.42536 21.8069 3.16638 21.5479C2.9074 21.2889 2.7619 20.9377 2.7619 20.5714C2.7619 20.2052 2.9074 19.8539 3.16638 19.5949C3.42536 19.336 3.77661 19.1905 4.14286 19.1905C4.50911 19.1905 4.86036 19.336 5.11934 19.5949C5.37832 19.8539 5.52381 20.2052 5.52381 20.5714V20.5714ZM8.28571 26.0952C8.28571 26.7857 7.59524 26.7857 7.59524 26.7857H0.690476C0.690476 26.7857 0 26.7857 0 26.0952C0 25.4048 0.690476 23.3333 4.14286 23.3333C7.59524 23.3333 8.28571 25.4048 8.28571 26.0952ZM7.59524 26.0925C7.59455 25.9226 7.4889 25.4117 7.02076 24.9435C6.57057 24.4933 5.72336 24.0238 4.14286 24.0238C2.56167 24.0238 1.71514 24.4933 1.26495 24.9435C0.79681 25.4117 0.691857 25.9226 0.690476 26.0925H7.59524Z" fill="#515151"/>
<path d="M14.5 22.6429C15.0494 22.6429 15.5762 22.4246 15.9647 22.0361C16.3532 21.6477 16.5714 21.1208 16.5714 20.5714C16.5714 20.0221 16.3532 19.4952 15.9647 19.1067C15.5762 18.7182 15.0494 18.5 14.5 18.5C13.9506 18.5 13.4237 18.7182 13.0353 19.1067C12.6468 19.4952 12.4286 20.0221 12.4286 20.5714C12.4286 21.1208 12.6468 21.6477 13.0353 22.0361C13.4237 22.4246 13.9506 22.6429 14.5 22.6429V22.6429ZM15.8809 20.5714C15.8809 20.9377 15.7355 21.2889 15.4765 21.5479C15.2175 21.8069 14.8662 21.9524 14.5 21.9524C14.1337 21.9524 13.7825 21.8069 13.5235 21.5479C13.2645 21.2889 13.119 20.9377 13.119 20.5714C13.119 20.2052 13.2645 19.8539 13.5235 19.5949C13.7825 19.336 14.1337 19.1905 14.5 19.1905C14.8662 19.1905 15.2175 19.336 15.4765 19.5949C15.7355 19.8539 15.8809 20.2052 15.8809 20.5714V20.5714ZM18.6429 26.0952C18.6429 26.7857 17.9524 26.7857 17.9524 26.7857H11.0476C11.0476 26.7857 10.3571 26.7857 10.3571 26.0952C10.3571 25.4048 11.0476 23.3333 14.5 23.3333C17.9524 23.3333 18.6429 25.4048 18.6429 26.0952ZM17.9524 26.0925C17.9517 25.9226 17.846 25.4117 17.3779 24.9435C16.9277 24.4933 16.0805 24.0238 14.5 24.0238C12.9188 24.0238 12.0723 24.4933 11.6221 24.9435C11.1539 25.4117 11.049 25.9226 11.0476 26.0925H17.9524Z" fill="#515151"/>
<path d="M24.8571 22.6429C25.4065 22.6429 25.9334 22.4246 26.3219 22.0361C26.7103 21.6477 26.9286 21.1208 26.9286 20.5714C26.9286 20.0221 26.7103 19.4952 26.3219 19.1067C25.9334 18.7182 25.4065 18.5 24.8571 18.5C24.3078 18.5 23.7809 18.7182 23.3924 19.1067C23.004 19.4952 22.7857 20.0221 22.7857 20.5714C22.7857 21.1208 23.004 21.6477 23.3924 22.0361C23.7809 22.4246 24.3078 22.6429 24.8571 22.6429V22.6429ZM26.2381 20.5714C26.2381 20.9377 26.0926 21.2889 25.8336 21.5479C25.5746 21.8069 25.2234 21.9524 24.8571 21.9524C24.4909 21.9524 24.1396 21.8069 23.8807 21.5479C23.6217 21.2889 23.4762 20.9377 23.4762 20.5714C23.4762 20.2052 23.6217 19.8539 23.8807 19.5949C24.1396 19.336 24.4909 19.1905 24.8571 19.1905C25.2234 19.1905 25.5746 19.336 25.8336 19.5949C26.0926 19.8539 26.2381 20.2052 26.2381 20.5714V20.5714ZM29 26.0952C29 26.7857 28.3095 26.7857 28.3095 26.7857H21.4048C21.4048 26.7857 20.7143 26.7857 20.7143 26.0952C20.7143 25.4048 21.4048 23.3333 24.8571 23.3333C28.3095 23.3333 29 25.4048 29 26.0952ZM28.3095 26.0925C28.3088 25.9226 28.2032 25.4117 27.735 24.9435C27.2849 24.4933 26.4376 24.0238 24.8571 24.0238C23.276 24.0238 22.4294 24.4933 21.9792 24.9435C21.5111 25.4117 21.4061 25.9226 21.4048 26.0925H28.3095Z" fill="#515151"/>
<path d="M11.0476 12.2857C11.0476 12.2857 10.3571 12.2857 10.3571 11.5952C10.3571 10.9048 11.0476 8.83333 14.5 8.83333C17.9524 8.83333 18.6429 10.9048 18.6429 11.5952C18.6429 12.2857 17.9524 12.2857 17.9524 12.2857H11.0476ZM14.5 8.14286C15.0494 8.14286 15.5762 7.92462 15.9647 7.53615C16.3532 7.14768 16.5714 6.62081 16.5714 6.07143C16.5714 5.52205 16.3532 4.99518 15.9647 4.60671C15.5762 4.21824 15.0494 4 14.5 4C13.9506 4 13.4237 4.21824 13.0353 4.60671C12.6468 4.99518 12.4286 5.52205 12.4286 6.07143C12.4286 6.62081 12.6468 7.14768 13.0353 7.53615C13.4237 7.92462 13.9506 8.14286 14.5 8.14286V8.14286Z" fill="#8C031F"/>
<line x1="14.75" y1="12.5357" x2="14.75" y2="18.9405" stroke="#515151" stroke-width="0.5" stroke-linecap="square"/>
<line x1="25.1071" y1="15.9881" x2="25.1071" y2="18.9405" stroke="#515151" stroke-width="0.5" stroke-linecap="square"/>
<line x1="4.39286" y1="15.9881" x2="4.39286" y2="18.9405" stroke="#515151" stroke-width="0.5" stroke-linecap="square"/>
<line x1="4.39286" y1="15.4881" x2="25.0929" y2="15.4881" stroke="#515151" stroke-width="0.5" stroke-linecap="square"/>
</svg>
