<svg width="29" height="29" viewBox="0 0 29 29" fill="none" xmlns="http://www.w3.org/2000/svg">
<g clip-path="url(#clip0_44_597)">
<rect width="29" height="29" fill="white"/>
<path d="M14.5 25.489H29V27.4223H14.5V25.489Z" fill="#515151"/>
<path d="M14.5 19.0446H29V20.9779H14.5V19.0446Z" fill="#515151"/>
<path d="M14.5 12.6002H29V14.5335H14.5V12.6002Z" fill="#515151"/>
<path d="M18.85 6.15564H29V8.08897H18.85V6.15564Z" fill="#8C031F"/>
<path d="M17.2792 7.06195L9.135 2V6.1557H8.77461C6.39106 6.1557 4.16331 7.28881 2.50125 9.3463C0.888125 11.3434 0 13.9867 0 16.789C0 19.5914 0.888125 22.2346 2.50125 24.2318C4.16331 26.2893 6.39106 27.4224 8.77437 27.4224H12.0833V25.489H8.77437C5.0025 25.489 1.93333 21.5861 1.93333 16.789C1.93333 11.992 5.0025 8.08903 8.77437 8.08903H9.135V12.2716L17.2792 7.06195ZM11.0683 5.47807L13.6542 7.08557L11.0683 8.73984V5.47807Z" fill="#8C031F"/>
<path d="M23 3C23 4.1046 22.1046 5 21 5C20.642 5 20.3056 4.906 20.0148 4.741C19.7068 4.56644 19.4506 4.31334 19.2724 4.00749C19.0941 3.70165 19.0001 3.35401 19 3C19 2.4864 19.1936 2.018 19.5116 1.664C19.699 1.45479 19.9284 1.2875 20.1849 1.17308C20.4414 1.05865 20.7191 0.999676 21 1C22.1046 1 23 1.8954 23 3Z" fill="#8C031F" stroke="#515151" stroke-width="0.4" stroke-linecap="round" stroke-linejoin="round"/>
<path d="M21.1797 1.89373V3.59998H20.7848V2.33904L20.3957 2.45271V2.15271L21.1434 1.89373H21.1797Z" fill="white"/>
</g>
<defs>
<clipPath id="clip0_44_597">
<rect width="29" height="29" fill="white"/>
</clipPath>
</defs>
</svg>
