<svg width="29" height="29" viewBox="0 0 29 29" fill="none" xmlns="http://www.w3.org/2000/svg">
<rect width="29" height="29" fill="white"/>
<path d="M12.7273 27.069C5.698 27.069 0 21.2334 0 14.0345C0 6.83554 5.698 1 12.7273 1C14.7034 0.998483 16.6526 1.46895 18.4201 2.37402C20.1876 3.2791 21.7246 4.59384 22.9091 6.2138H19.46C17.9903 4.88657 16.1779 4.02186 14.2402 3.72343C12.3025 3.42499 10.3219 3.70551 8.53604 4.53132C6.75017 5.35713 5.23492 6.69315 4.17209 8.37907C3.10926 10.065 2.54402 12.0292 2.54418 14.0359C2.54434 16.0427 3.10991 18.0068 4.17301 19.6925C5.23611 21.3782 6.75159 22.714 8.53758 23.5395C10.3236 24.365 12.3042 24.6452 14.2419 24.3464C16.1795 24.0477 17.9918 23.1826 19.4613 21.8552H22.9104C21.7258 23.4753 20.1885 24.7902 18.4208 25.6952C16.6531 26.6003 14.7036 27.0707 12.7273 27.069ZM21.6364 19.2483V15.3379H11.4545V12.731H21.6364V8.82069L28 14.0345L21.6364 19.2483Z" fill="#515151"/>
<path d="M11.5862 13.0689V15.4827H21.7241V19.3448L28 14.0345L21.2414 8.72412V13.0689H11.5862Z" fill="#8C031F"/>
<path d="M11.5862 15.4827V13.0689H21.2414V8.72412L28 14.0345L21.7241 19.3448V15.4827H11.1035" stroke="#8C031F"/>
</svg>
