<svg width="29" height="29" viewBox="0 0 29 29" fill="none" xmlns="http://www.w3.org/2000/svg">
<rect width="29" height="29" fill="white"/>
<path d="M12.5667 18.6429H6.76667C5.99754 18.6429 5.25991 18.9702 4.71606 19.5529C4.1722 20.1356 3.86667 20.9259 3.86667 21.75V23.8214H5.8V21.75C5.8 21.4753 5.90185 21.2119 6.08313 21.0176C6.26442 20.8234 6.51029 20.7143 6.76667 20.7143H12.5667C12.823 20.7143 13.0689 20.8234 13.2502 21.0176C13.4315 21.2119 13.5333 21.4753 13.5333 21.75V23.8214H15.4667V21.75C15.4667 20.9259 15.1611 20.1356 14.6173 19.5529C14.0734 18.9702 13.3358 18.6429 12.5667 18.6429V18.6429Z" fill="#515151"/>
<path d="M9.66667 17.6071C10.4314 17.6071 11.179 17.3642 11.8149 16.9089C12.4507 16.4537 12.9463 15.8067 13.239 15.0497C13.5317 14.2927 13.6082 13.4597 13.459 12.6561C13.3098 11.8524 12.9416 11.1142 12.4008 10.5348C11.8601 9.95545 11.1711 9.56089 10.421 9.40103C9.67096 9.24118 8.8935 9.32322 8.18696 9.63678C7.48042 9.95035 6.87653 10.4813 6.45165 11.1626C6.02678 11.8439 5.8 12.6449 5.8 13.4643C5.8 14.563 6.20738 15.6168 6.93252 16.3937C7.65766 17.1707 8.64117 17.6071 9.66667 17.6071ZM9.66667 11.3929C10.049 11.3929 10.4228 11.5143 10.7408 11.742C11.0587 11.9696 11.3065 12.2931 11.4528 12.6716C11.5992 13.0501 11.6375 13.4666 11.5629 13.8684C11.4883 14.2702 11.3041 14.6393 11.0337 14.929C10.7634 15.2187 10.4189 15.416 10.0438 15.4959C9.66881 15.5758 9.28009 15.5348 8.92682 15.378C8.57354 15.2213 8.2716 14.9558 8.05916 14.6151C7.84672 14.2745 7.73334 13.874 7.73334 13.4643C7.73334 12.9149 7.93703 12.388 8.2996 11.9996C8.66217 11.6111 9.15392 11.3929 9.66667 11.3929V11.3929Z" fill="#515151"/>
<path d="M25.1333 17.6071V26.9286H1.93333V6.21428H13.5333V4.14285H1.93333C1.42058 4.14285 0.92883 4.36109 0.56626 4.74956C0.20369 5.13803 0 5.6649 0 6.21428V26.9286C0 27.4779 0.20369 28.0048 0.56626 28.3933C0.92883 28.7818 1.42058 29 1.93333 29H25.1333C25.6461 29 26.1378 28.7818 26.5004 28.3933C26.863 28.0048 27.0667 27.4779 27.0667 26.9286V17.6071H25.1333Z" fill="#515151"/>
<path d="M17.4 17.6071H23.2V19.6786H17.4V17.6071Z" fill="#515151"/>
<path d="M19.3333 21.75H23.2V23.8214H19.3333V21.75Z" fill="#515151"/>
<path d="M29 8.28571V6.21429H26.969C26.8444 5.56595 26.6041 4.94948 26.2614 4.39868L27.7018 2.85546L26.3349 1.39096L24.8946 2.93418C24.3805 2.56703 23.8051 2.30961 23.2 2.17604V0H21.2667V2.17604C20.6615 2.30961 20.0862 2.56703 19.5721 2.93418L18.1318 1.39096L16.7649 2.85546L18.2052 4.39868C17.8626 4.94948 17.6223 5.56595 17.4976 6.21429H15.4667V8.28571H17.4976C17.6223 8.93405 17.8626 9.55052 18.2052 10.1013L16.7649 11.6445L18.1318 13.109L19.5721 11.5658C20.0862 11.933 20.6615 12.1904 21.2667 12.324V14.5H23.2V12.324C23.8051 12.1904 24.3805 11.933 24.8946 11.5658L26.3349 13.109L27.7018 11.6445L26.2614 10.1013C26.6041 9.55052 26.8444 8.93405 26.969 8.28571H29ZM22.2333 10.3571C21.6598 10.3571 21.0991 10.1749 20.6222 9.83349C20.1453 9.49208 19.7736 9.00681 19.5541 8.43905C19.3346 7.8713 19.2772 7.24655 19.389 6.64383C19.5009 6.0411 19.7771 5.48746 20.1827 5.05292C20.5883 4.61838 21.105 4.32245 21.6676 4.20256C22.2301 4.08267 22.8132 4.1442 23.3431 4.37937C23.873 4.61455 24.3259 5.0128 24.6446 5.52376C24.9632 6.03473 25.1333 6.63547 25.1333 7.25C25.1326 8.07381 24.8268 8.86365 24.2831 9.44617C23.7394 10.0287 23.0022 10.3563 22.2333 10.3571V10.3571Z" fill="#8C031F"/>
</svg>
