<svg width="29" height="29" viewBox="0 0 29 29" fill="none" xmlns="http://www.w3.org/2000/svg">
<rect width="29" height="29" fill="white"/>
<path d="M16.3125 12.325C17.1392 12.3249 17.9351 12.6386 18.5393 13.2028C19.1436 13.7669 19.5112 14.5395 19.5678 15.3642L19.575 15.5875V25.7375C19.5751 26.5642 19.2614 27.3601 18.6972 27.9643C18.1331 28.5686 17.3605 28.9362 16.5358 28.9928L16.3125 29H3.2625C2.43582 29.0001 1.63992 28.6864 1.03566 28.1222C0.431396 27.5581 0.0638321 26.7855 0.00725019 25.9608L2.46481e-08 25.7375V15.5875C-0.000101532 14.7608 0.313628 13.9649 0.877786 13.3607C1.44194 12.7564 2.21446 12.3888 3.0392 12.3323L3.2625 12.325H16.3125ZM27.9125 12.325C28.1753 12.325 28.4292 12.4202 28.6273 12.5929C28.8253 12.7656 28.9541 13.0042 28.9899 13.2646L29 13.4125V25.7375C29.0001 26.5642 28.6864 27.3601 28.1222 27.9643C27.5581 28.5686 26.7855 28.9362 25.9608 28.9928L25.7375 29H22.8375C22.562 28.9999 22.2967 28.8952 22.0954 28.7071C21.8941 28.519 21.7716 28.2615 21.7529 27.9866C21.7341 27.7117 21.8203 27.44 21.9942 27.2262C22.1681 27.0125 22.4166 26.8727 22.6896 26.8352L22.8375 26.825H25.7375C26.0003 26.825 26.2542 26.7298 26.4523 26.5571C26.6503 26.3844 26.7791 26.1458 26.8149 25.8854L26.825 25.7375V13.4125C26.825 13.1241 26.9396 12.8475 27.1435 12.6435C27.3475 12.4396 27.6241 12.325 27.9125 12.325ZM16.3125 14.5H3.2625C2.99971 14.5 2.7458 14.5952 2.54775 14.7679C2.3497 14.9406 2.22089 15.1792 2.18515 15.4396L2.175 15.5875V25.7375C2.175 26.2885 2.5839 26.7438 3.1146 26.8149L3.2625 26.825H16.3125C16.5753 26.825 16.8292 26.7298 17.0273 26.5571C17.2253 26.3844 17.3541 26.1458 17.3899 25.8854L17.4 25.7375V15.5875C17.4 15.2991 17.2854 15.0225 17.0815 14.8185C16.8775 14.6146 16.6009 14.5 16.3125 14.5ZM12.6875 22.475C12.9759 22.475 13.2525 22.5896 13.4565 22.7935C13.6604 22.9975 13.775 23.2741 13.775 23.5625C13.775 24.1135 13.282 24.65 12.6875 24.65H6.8875C6.59908 24.65 6.32247 24.5354 6.11852 24.3315C5.91458 24.1275 5.8 23.8509 5.8 23.5625C5.8 23.0115 6.293 22.475 6.8875 22.475H12.6875ZM5.8 16.675C6.18456 16.675 6.55338 16.8278 6.8253 17.0997C7.09723 17.3716 7.25 17.7404 7.25 18.125C7.25 18.5096 7.09723 18.8784 6.8253 19.1503C6.55338 19.4222 6.18456 19.575 5.8 19.575C5.41544 19.575 5.04662 19.4222 4.7747 19.1503C4.50277 18.8784 4.35 18.5096 4.35 18.125C4.35 17.7404 4.50277 17.3716 4.7747 17.0997C5.04662 16.8278 5.41544 16.675 5.8 16.675ZM13.775 16.675C14.1596 16.675 14.5284 16.8278 14.8003 17.0997C15.0722 17.3716 15.225 17.7404 15.225 18.125C15.225 18.5096 15.0722 18.8784 14.8003 19.1503C14.5284 19.4222 14.1596 19.575 13.775 19.575C13.3904 19.575 13.0216 19.4222 12.7497 19.1503C12.4778 18.8784 12.325 18.5096 12.325 18.125C12.325 17.7404 12.4778 17.3716 12.7497 17.0997C13.0216 16.8278 13.3904 16.675 13.775 16.675ZM9.7875 16.675C10.1721 16.675 10.5409 16.8278 10.8128 17.0997C11.0847 17.3716 11.2375 17.7404 11.2375 18.125C11.2375 18.5096 11.0847 18.8784 10.8128 19.1503C10.5409 19.4222 10.1721 19.575 9.7875 19.575C9.40294 19.575 9.03412 19.4222 8.7622 19.1503C8.49027 18.8784 8.3375 18.5096 8.3375 18.125C8.3375 17.7404 8.49027 17.3716 8.7622 17.0997C9.03412 16.8278 9.40294 16.675 9.7875 16.675ZM27.9125 3.25334e-10C28.0761 -3.98794e-06 28.2376 0.0366612 28.3852 0.1073L28.4475 0.14065C28.4889 0.164125 28.5286 0.190281 28.5665 0.21895L28.6825 0.319L28.7564 0.40165L28.7709 0.42195L28.8217 0.49155C28.9107 0.626875 28.9682 0.7805 28.9899 0.94105L29 1.0875V8.3375C28.9999 8.61303 28.8952 8.87826 28.7071 9.0796C28.519 9.28093 28.2615 9.40336 27.9866 9.42214C27.7117 9.44092 27.44 9.35465 27.2262 9.18077C27.0125 9.00689 26.8727 8.75836 26.8352 8.4854L26.825 8.3375V3.712L20.3435 10.1935C20.1492 10.3863 19.8893 10.4987 19.6158 10.5084C19.3423 10.518 19.0751 10.4241 18.8678 10.2455C18.6604 10.0668 18.528 9.81655 18.497 9.5446C18.466 9.27264 18.5388 8.999 18.7007 8.7783L18.8065 8.6565L25.2851 2.175H20.6625C20.3997 2.17499 20.1458 2.07982 19.9478 1.90709C19.7497 1.73436 19.6209 1.49575 19.5851 1.2354L19.575 1.0875C19.575 0.824705 19.6702 0.570804 19.8429 0.372751C20.0156 0.174697 20.2542 0.04589 20.5146 0.01015L20.6625 3.25334e-10H27.9125ZM15.5875 3.25334e-10C15.863 8.44521e-05 16.1283 0.104755 16.3296 0.29286C16.5309 0.480966 16.6534 0.738483 16.6721 1.01338C16.6909 1.28827 16.6047 1.56004 16.4308 1.77378C16.2569 1.98752 16.0084 2.12729 15.7354 2.16485L15.5875 2.175H3.2625C2.99971 2.17501 2.7458 2.27018 2.54775 2.44291C2.3497 2.61564 2.22089 2.85425 2.18515 3.1146L2.175 3.2625V9.0625C2.17492 9.33803 2.07025 9.60326 1.88214 9.8046C1.69403 10.0059 1.43652 10.1284 1.16162 10.1471C0.886731 10.1659 0.614957 10.0797 0.401217 9.90577C0.187477 9.73189 0.0477071 9.48336 0.01015 9.2104L2.46481e-08 9.0625V3.2625C-0.000101532 2.43582 0.313628 1.63992 0.877786 1.03566C1.44194 0.431396 2.21446 0.0638321 3.0392 0.00725017L3.2625 3.25334e-10H15.5875Z" fill="#515151"/>
<circle cx="5.85" cy="17.85" r="1.85" fill="#8C031F"/>
<circle cx="9.85" cy="17.85" r="1.85" fill="#8C031F"/>
<circle cx="13.85" cy="17.85" r="1.85" fill="#8C031F"/>
<rect x="5" y="22" width="9" height="3" rx="1.5" fill="#8C031F"/>
</svg>
