<svg width="14" height="15" viewBox="0 0 14 15" fill="none" xmlns="http://www.w3.org/2000/svg">
<path d="M12.625 1.25H10.9375V0.6875C10.9375 0.538316 10.8782 0.395242 10.7727 0.289752C10.6673 0.184263 10.5242 0.125 10.375 0.125C10.2258 0.125 10.0827 0.184263 9.97725 0.289752C9.87176 0.395242 9.8125 0.538316 9.8125 0.6875V1.25H4.1875V0.6875C4.1875 0.538316 4.12824 0.395242 4.02275 0.289752C3.91726 0.184263 3.77418 0.125 3.625 0.125C3.47582 0.125 3.33274 0.184263 3.22725 0.289752C3.12176 0.395242 3.0625 0.538316 3.0625 0.6875V1.25H1.375C1.07663 1.25 0.790483 1.36853 0.579505 1.5795C0.368526 1.79048 0.25 2.07663 0.25 2.375V13.625C0.25 13.9234 0.368526 14.2095 0.579505 14.4205C0.790483 14.6315 1.07663 14.75 1.375 14.75H12.625C12.9234 14.75 13.2095 14.6315 13.4205 14.4205C13.6315 14.2095 13.75 13.9234 13.75 13.625V2.375C13.75 2.07663 13.6315 1.79048 13.4205 1.5795C13.2095 1.36853 12.9234 1.25 12.625 1.25ZM3.0625 2.375V2.9375C3.0625 3.08668 3.12176 3.22976 3.22725 3.33525C3.33274 3.44074 3.47582 3.5 3.625 3.5C3.77418 3.5 3.91726 3.44074 4.02275 3.33525C4.12824 3.22976 4.1875 3.08668 4.1875 2.9375V2.375H9.8125V2.9375C9.8125 3.08668 9.87176 3.22976 9.97725 3.33525C10.0827 3.44074 10.2258 3.5 10.375 3.5C10.5242 3.5 10.6673 3.44074 10.7727 3.33525C10.8782 3.22976 10.9375 3.08668 10.9375 2.9375V2.375H12.625V4.625H1.375V2.375H3.0625ZM12.625 13.625H1.375V5.75H12.625V13.625ZM5.875 7.4375V11.9375C5.875 12.0867 5.81574 12.2298 5.71025 12.3352C5.60476 12.4407 5.46168 12.5 5.3125 12.5C5.16332 12.5 5.02024 12.4407 4.91475 12.3352C4.80926 12.2298 4.75 12.0867 4.75 11.9375V8.34734L4.43922 8.50344C4.3057 8.5702 4.15113 8.58118 4.00951 8.53398C3.86789 8.48677 3.75082 8.38524 3.68406 8.25172C3.6173 8.1182 3.60632 7.96363 3.65352 7.82201C3.70073 7.68039 3.80226 7.56332 3.93578 7.49656L5.06078 6.93406C5.14657 6.89113 5.24191 6.87086 5.33775 6.87516C5.43358 6.87947 5.52672 6.90821 5.60832 6.95866C5.68991 7.00911 5.75725 7.07959 5.80393 7.1634C5.8506 7.24721 5.87507 7.34157 5.875 7.4375ZM10.0347 9.57852L8.6875 11.375H9.8125C9.96168 11.375 10.1048 11.4343 10.2102 11.5398C10.3157 11.6452 10.375 11.7883 10.375 11.9375C10.375 12.0867 10.3157 12.2298 10.2102 12.3352C10.1048 12.4407 9.96168 12.5 9.8125 12.5H7.5625C7.45804 12.5 7.35564 12.4709 7.26678 12.416C7.17791 12.3611 7.1061 12.2825 7.05939 12.1891C7.01267 12.0956 6.99289 11.991 7.00227 11.887C7.01165 11.7829 7.04982 11.6836 7.1125 11.6L9.13609 8.90211C9.18212 8.84083 9.21514 8.7708 9.23313 8.6963C9.25112 8.6218 9.25369 8.54441 9.2407 8.46889C9.2277 8.39336 9.19941 8.32128 9.15755 8.25708C9.1157 8.19288 9.06117 8.13791 8.99731 8.09554C8.93344 8.05318 8.8616 8.02431 8.78617 8.0107C8.71075 7.9971 8.63335 7.99906 8.55871 8.01645C8.48407 8.03384 8.41377 8.0663 8.35213 8.11183C8.29048 8.15737 8.2388 8.21502 8.20023 8.28125C8.16439 8.34726 8.11569 8.40542 8.057 8.45231C7.99831 8.49919 7.93083 8.53385 7.85853 8.55423C7.78623 8.57461 7.71059 8.5803 7.63605 8.57097C7.56152 8.56164 7.48961 8.53748 7.42456 8.49991C7.35952 8.46234 7.30266 8.41212 7.25734 8.35222C7.21202 8.29232 7.17915 8.22394 7.16068 8.15114C7.14221 8.07833 7.13851 8.00256 7.1498 7.92829C7.16109 7.85403 7.18714 7.78278 7.22641 7.71875C7.41222 7.3972 7.69891 7.14593 8.04204 7.00388C8.38517 6.86183 8.76558 6.83695 9.1243 6.93307C9.48302 7.0292 9.8 7.24098 10.0261 7.53557C10.2522 7.83017 10.3749 8.19113 10.375 8.5625C10.3762 8.92935 10.2566 9.28639 10.0347 9.57852Z" fill="#A1A1A1"/>
</svg>
