<svg width="29" height="29" viewBox="0 0 29 29" fill="none" xmlns="http://www.w3.org/2000/svg">
<rect width="29" height="29" fill="white"/>
<path d="M26.1 7H20.3V4L17.4 1H11.6L8.7 4V7H2.9C1.305 7 0 8.35 0 10V17.5C0 18.625 0.58 19.57 1.45 20.095V25C1.45 26.665 2.7405 28 4.35 28H24.65C26.2595 28 27.55 26.665 27.55 25V20.08C28.4055 19.555 29 18.595 29 17.5V10C29 8.35 27.695 7 26.1 7ZM11.6 4H17.4V7H11.6V4ZM2.9 10H26.1V17.5H18.85V13H10.15V17.5H2.9V10ZM15.95 19H13.05V16H15.95V19ZM24.65 25H4.35V20.5H10.15V22H18.85V20.5H24.65V25Z" fill="#515151"/>
<rect x="11.5" y="14.5" width="6" height="6" stroke="#8C031F" stroke-width="3"/>
</svg>
