<svg xmlns="http://www.w3.org/2000/svg" width="23" height="36" fill="none" viewBox="0 0 23 36">
    <path fill="#8D0528" fill-rule="evenodd" d="M14.241 33.7c-.36-.145-.77.03-.913.39-.122.301-.429.504-.762.504h-2.57c-.334 0-.64-.203-.762-.504-.144-.36-.553-.535-.913-.39-.36.143-.537.553-.39.913C8.266 35.456 9.078 36 9.995 36h2.57c.917 0 1.728-.544 2.065-1.387.146-.36-.03-.77-.39-.913z" clip-rule="evenodd"/>
    <path fill="#8D0528" fill-rule="evenodd" d="M22.498 30.077c-.191-.985-.798-1.836-1.664-2.34.157-.13.305-.271.44-.428.665-.774.96-1.797.81-2.805-.247-1.641-.947-3.173-2.02-4.433-.803-.942-1.792-1.702-2.897-2.236 1.353-1.442 2.183-3.383 2.183-5.513 0-3.688-2.486-6.805-5.869-7.764.46-.552.713-1.238.713-1.966C14.194 1.164 13.03 0 11.6 0c-.578 0-1.118.188-1.522.529-.447.377-.693.906-.693 1.49 0 .388.314.702.703.702.388 0 .703-.314.703-.703 0-.166.066-.307.193-.413.152-.129.37-.199.616-.199.654 0 1.186.533 1.186 1.186 0 .444-.172.86-.485 1.174-.314.314-.73.487-1.173.487-.017 0-.034 0-.05.002-4.358.107-7.867 3.685-7.867 8.067 0 2.13.83 4.069 2.183 5.513-1.107.534-2.094 1.294-2.898 2.236-1.074 1.26-1.772 2.792-2.018 4.433-.152 1.008.142 2.031.809 2.805.135.157.282.299.44.428-.869.504-1.475 1.355-1.664 2.34-.192.988.053 2.007.672 2.8L2.243 34.8c.609.779 1.531 1.196 2.47 1.196.532 0 1.068-.135 1.553-.415 1.34-.774 1.914-2.44 1.336-3.874l-.913-2.266c-.06-.152-.133-.298-.214-.436h5.157c.388 0 .703-.315.703-.703 0-.389-.315-.703-.704-.703H5.14v-1.482c0-.192.155-.347.345-.347h11.592c.191 0 .347.155.347.347v1.578c-.698.383-1.249.997-1.55 1.746l-.914 2.266c-.58 1.435-.005 3.1 1.336 3.874.485.28 1.022.415 1.554.415.937 0 1.861-.417 2.47-1.196l1.504-1.923c.62-.793.866-1.812.675-2.8zM4.618 12.322c0-3.675 2.988-6.663 6.663-6.663 3.673 0 6.663 2.988 6.663 6.663 0 3.675-2.988 6.663-6.663 6.663-3.675 0-6.663-2.989-6.663-6.663zm.767 17.643l.914 2.267c.318.79.001 1.706-.736 2.132-.737.425-1.688.24-2.213-.43L1.845 32.01c-.37-.471-.515-1.078-.402-1.666.114-.587.476-1.095.995-1.394.518-.298 1.14-.358 1.704-.163.567.195 1.02.625 1.243 1.178zm11.697-7.008c-.389 0-.703.315-.703.703v.703H6.187v-.703c0-.388-.315-.703-.703-.703-.389 0-.703.315-.703.703v.851c-.616.271-1.048.89-1.048 1.606v.993c-.533-.054-1.028-.31-1.38-.719-.398-.462-.574-1.074-.485-1.679.403-2.676 2.187-4.885 4.692-5.85 1.328.96 2.959 1.53 4.721 1.53 1.76 0 3.392-.57 4.72-1.53 2.504.965 4.29 3.174 4.691 5.85.091.605-.085 1.217-.483 1.68-.353.409-.847.664-1.38.718v-.993c0-.715-.43-1.33-1.044-1.604v-.853c0-.388-.315-.703-.703-.703zm3.635 9.053l-1.505 1.924c-.525.67-1.476.855-2.213.43-.738-.426-1.054-1.342-.736-2.132l.913-2.267c.224-.553.677-.983 1.242-1.178.22-.076.447-.114.673-.114.358 0 .714.095 1.032.277.518.3.88.807.995 1.394.114.588-.032 1.194-.401 1.666z" clip-rule="evenodd"/>
    <path fill="#8D0528" fill-rule="evenodd" d="M14.922 27.804c-.13-.13-.313-.206-.497-.206-.186 0-.367.075-.498.206-.13.13-.205.313-.205.497 0 .185.074.367.205.498.13.13.313.205.498.205.184 0 .366-.074.497-.205.13-.13.207-.313.207-.498 0-.184-.076-.366-.207-.497zM13.219 14.723c-.301-.245-.745-.2-.99.104-.232.288-.58.453-.949.453-.37 0-.716-.165-.95-.453-.244-.303-.687-.349-.988-.104-.302.244-.347.688-.103.989.5.62 1.245.974 2.041.974.796 0 1.54-.354 2.043-.974.245-.301.197-.745-.104-.99zM9.504 11.824c-.639-.638-1.675-.638-2.314 0-.275.275-.275.72 0 .995s.72.275.995 0c.089-.09.235-.09.324 0 .138.137.318.205.498.205s.36-.068.497-.205c.275-.275.275-.72 0-.995zM15.37 11.824c-.638-.638-1.675-.638-2.313 0-.275.275-.275.72 0 .995.138.137.318.205.498.205s.358-.068.497-.205c.089-.089.235-.09.324 0 .275.275.72.275.995 0 .274-.275.274-.72 0-.995z" clip-rule="evenodd"/>
</svg>
