<svg id="Layer_1" data-name="Layer 1" xmlns="http://www.w3.org/2000/svg" viewBox="0 0 408.47 408.55"><defs><style>.cls-1{fill:#922230;}</style></defs><path class="cls-1" d="M-540.1,617.77c-11-11-22.18-12.09-35-3.33-11.74,8-23.45,16.08-35.21,24.06-5.15,3.5-8.29,3.17-12.71-1.17-3.71-3.64-7.28-7.4-11-11-4-3.83-8.71-4-12-.51s-3,7.8.72,11.71c3.49,3.65,7.11,7.18,10.7,10.74,10.34,10.25,21.69,11.31,33.75,3.12,11.75-8,23.46-16,35.21-24,5.84-4,8.92-3.69,14,1.36q20.33,20.29,40.64,40.63c5.92,5.92,11.9,11.8,17.76,17.79,4.24,4.33,4.29,8.87.16,12.88a108.61,108.61,0,0,1-17.52,13.76c-2.27,1.45-3.47,1.15-5.28-.67q-22-22.27-44.27-44.34a22.58,22.58,0,0,0-3.61-3.1,7.77,7.77,0,0,0-9.82,1.13,7.6,7.6,0,0,0-1,9.53,22.11,22.11,0,0,0,3.06,3.65q19.72,19.77,39.48,39.52c.9.9,2.17,1.56,2.48,3.16a62.47,62.47,0,0,1-15.56,4.38c-35.77,5.75-66.32-4.5-91.88-30.13Q-696.78,637-756.66,577.26a110,110,0,0,1-15.05-18c-25.71-40-21-90.29,11.64-124.82,4.57-4.84,9-5,13.7-.31,5.69,5.6,11.3,11.28,17,16.92q20.88,20.88,41.75,41.77c3.71,3.72,4.8,7.05,2.54,10.63-5.15,8.17-10.7,16.09-16.1,24.14-.54-.43-.76-.57-.95-.76q-20.33-20.31-40.65-40.62a24.13,24.13,0,0,0-3.59-3.12,7.88,7.88,0,0,0-9.85,1,7.55,7.55,0,0,0-1,9.51,23.91,23.91,0,0,0,3.32,3.94q20.43,20.49,41,40.88c1.92,1.9,2.28,3.08.74,5.55-5.66,9.1-5.4,19.51,1,27.15,6.65,8,14.27,15.06,21.87,22.11a7.73,7.73,0,0,0,12.71-3.08c1.22-3.68-.15-6.72-2.82-9.35-5.58-5.52-11.11-11.09-16.65-16.65-5-5.07-5.3-7.91-1.2-13.94q11.89-17.46,23.82-34.88c8.34-12.23,7.31-23.69-3.07-34.11q-16.19-16.26-32.44-32.45c-8.75-8.75-17.43-17.57-26.26-26.23-10.46-10.23-25.06-10.57-34.87-.57-19.18,19.54-30.56,43-33.13,70.26-3.49,37.2,8.36,69.11,34.65,95.54q60.66,61,121.59,121.65c16.25,16.23,35.41,27.25,57.93,32.42,4.44,1,9.18.65,13.32,2.9h4.79c.25-.86.91-.75,1.56-.67h0c.69-.13,1.31-.08,1.64.67h9.57c.32-.77.94-.8,1.63-.67h0c.66-.1,1.34-.24,1.57.67h2.39c.14-.64.61-.71,1.17-.77,26-2.68,48.44-13,67.64-30.7,12.82-11.81,13.22-26.07.82-38.48Q-511.58,646.26-540.1,617.77Z" transform="translate(803.96 -336.17)"/><path class="cls-1" d="M-396.17,435.68a49.24,49.24,0,0,0-1.24-6.22,42.53,42.53,0,0,0-22.29-25.77c-12.51-6.13-25.86-5.05-39.06-3.54-3.53.4-5.11,4-5,7.67A7.56,7.56,0,0,0-457.4,415a50.83,50.83,0,0,0,6.77.26c6.24.09,12.55-.58,18.68.88,12.59,3,20.47,13.79,20.48,27.79q0,52.07,0,104.13a38.1,38.1,0,0,1-.74,7.92,24,24,0,0,1-9.62,15.11c0-8.2.21-15.62,0-23-.27-7.71-3.41-14.37-8.49-20.13-5.71-6.47-13.11-9.72-21.43-11.2-1.43-.26-2.68-.12-2.14-2.53,2.22-10,1.49-20.11.95-30.17-.89-16.52-14.39-31.06-30.05-32.93-18.64-2.22-35.11,7.68-40,24.77-3.44,12.06-2.43,24.52-.85,36.78.41,3.19-.23,3.85-3,4.43-18.79,3.88-29,16.52-29,35.74,0,6.71,0,13.42,0,20.33-8.43-4.13-13.51-13-13.53-23.45q-.06-36.9,0-73.81c0-11.17-.13-22.34,0-33.51.22-14.4,9.83-25,23.91-26.74,6.5-.81,13-.16,19.53-.41a18.37,18.37,0,0,0,5.1-.61A7.57,7.57,0,0,0-516,406c-.58-3.95-3.73-6.58-8.59-6.72-5.71-.17-11.43-.1-17.15,0-25.24.28-43.64,18.79-43.68,44.05q-.09,52.88,0,105.73c0,25.5,18.52,44,44,44,11.83,0,23.67.11,35.5-.06,2.85,0,3.58.76,3.47,3.53-.23,5.71,0,11.44-.11,17.15-.1,4.15.64,7.83,4.83,9.59,4.35,1.83,7.58-.35,10.58-3.37,8-8,16.1-15.87,24-24a8.94,8.94,0,0,1,7.31-2.93c6.65.19,13.31.21,19.95,0,19.76-.72,37.94-17.44,39.78-36.44-.28-1.47-.44-2.92.64-4.18V439.83C-396.54,438.58-396.43,437.14-396.17,435.68Zm-112.6,49.14c.51-10.14,9.77-18.35,20.07-18.26s19.05,8,19.79,18.11c.28,3.69.05,7.43.05,11.15-.08,5.14.81,10.35-.82,15.42a20.23,20.23,0,0,1-21.64,13.85,19.93,19.93,0,0,1-17.5-18.75C-509.08,499.18-509.13,492-508.77,484.82Zm68.63,92.34c-6.78-.09-13.57.14-20.34-.1a13.43,13.43,0,0,0-10.94,4.59c-4.67,5-9.55,9.83-15.16,15.56,0-4.13,0-7,0-9.86-.06-7.2-3-10.21-10.18-10.22-13.17,0-26.34-.13-39.5.08-3.26,0-3.89-1-3.81-4,.21-7.31,0-14.63.08-22,.09-9.56,5.25-16.07,14.54-18.3,3.09-.75,6.27-1.16,9.36-1.91a3.59,3.59,0,0,1,3.56,1.08,35.91,35.91,0,0,0,47.37.06c.78-.7,1.51-1.58,2.75-1.28,4.76,1.18,9.82,1.22,14.31,3.34,6.25,3,10,8,10.28,14.94.32,8.5.06,17,.2,25.53C-437.59,576.78-438.3,577.18-440.14,577.16Z" transform="translate(803.96 -336.17)"/><path class="cls-1" d="M-396.17,435.68c.7,1.31-.27,2.88.67,4.15v-4A.48.48,0,0,0-396.17,435.68Z" transform="translate(803.96 -336.17)"/><path class="cls-1" d="M-396.14,556.55l.64-.19v-4C-396.43,553.65-395.49,555.23-396.14,556.55Z" transform="translate(803.96 -336.17)"/><path class="cls-1" d="M-571.09,744.72h1.6c0-.13,0-.27,0-.41C-570.07,744.33-570.65,744.24-571.09,744.72Z" transform="translate(803.96 -336.17)"/><path class="cls-1" d="M-569.23,744.48c-.08.16-.17.24-.26.24h1.6a1.6,1.6,0,0,0-1.33-.41A.2.2,0,0,1-569.23,744.48Z" transform="translate(803.96 -336.17)"/><path class="cls-1" d="M-569.49,744.31h.27a.52.52,0,0,0-.31-.26c0,.09,0,.17,0,.26Z" transform="translate(803.96 -336.17)"/><path class="cls-1" d="M-556.72,744.31c-.56,0-1.16-.08-1.6.41h1.6c0-.13,0-.27,0-.41Z" transform="translate(803.96 -336.17)"/><path class="cls-1" d="M-556.47,744.51c-.08.14-.17.21-.25.21h1.6a1.6,1.6,0,0,0-1.33-.41A.23.23,0,0,1-556.47,744.51Z" transform="translate(803.96 -336.17)"/><path class="cls-1" d="M-556.45,744.31a.62.62,0,0,0-.24-.26h0a2.26,2.26,0,0,0,0,.26Z" transform="translate(803.96 -336.17)"/><path class="cls-1" d="M-698.15,352.13c35.89,1.48,67.26,27.24,76,62.14,1.92,7.68,2.07,15.51,3.19,23.25a7.54,7.54,0,0,0,7.58,6.32,7.7,7.7,0,0,0,7.65-6.73,49.34,49.34,0,0,0,0-6,68.84,68.84,0,0,0-.83-9.51,98.62,98.62,0,0,0-92.89-85.44c-7.39-.35-11.54,2.38-11.68,7.69C-709.23,349-705.44,351.83-698.15,352.13Z" transform="translate(803.96 -336.17)"/><path class="cls-1" d="M-702.61,389.57A22.54,22.54,0,0,0-699,390c22.09.69,41.86,19.68,42.59,44.47.17,5.87,3.4,9.41,8.19,9.32s7.81-3.8,7.74-9.63c-.36-31.64-25.58-58.08-57.26-60a17.26,17.26,0,0,0-4.76.06,8,8,0,0,0-6.56,7.45A7.84,7.84,0,0,0-702.61,389.57Z" transform="translate(803.96 -336.17)"/><path class="cls-1" d="M-708.92,416.15a8,8,0,0,0,6.76,8.45c8.47,1.61,9.85,3,11.78,11.89,1,4.71,4.46,7.57,8.53,7.08,4.48-.54,7.21-4,7.09-8.93A26.67,26.67,0,0,0-700,408.86,8.25,8.25,0,0,0-708.92,416.15Z" transform="translate(803.96 -336.17)"/><path class="cls-1" d="M-493.36,415.17a8,8,0,0,0,7.6-8.07,8.2,8.2,0,0,0-8.05-7.72,8.22,8.22,0,0,0-7.81,8A8,8,0,0,0-493.36,415.17Z" transform="translate(803.96 -336.17)"/><path class="cls-1" d="M-661.49,602.39a7.86,7.86,0,0,0-7.79,8.23,7.84,7.84,0,0,0,8.14,7.46,8.09,8.09,0,0,0,7.68-8A8.13,8.13,0,0,0-661.49,602.39Z" transform="translate(803.96 -336.17)"/></svg>