<svg width="29" height="29" viewBox="0 0 29 29" fill="none" xmlns="http://www.w3.org/2000/svg">
<rect width="29" height="29" fill="white"/>
<path d="M17.3493 19.3915C15.3051 21.5602 11.6519 20.6993 10.7893 17.8455C9.9271 14.9929 12.4937 12.2684 15.399 12.9502C18.6995 10.1329 23.8269 5.77433 26.7968 3.36048C27.8325 2.51824 28.72 3.46929 27.9132 4.47472C25.5583 7.41153 21.1489 12.5662 18.3011 15.8718C18.5754 17.0614 18.3022 18.3806 17.3493 19.3915ZM24.5596 14.4984C24.5596 13.6438 23.6263 13.1069 22.8837 13.5341C22.1411 13.9614 22.1411 15.0354 22.8837 15.4627C23.6263 15.89 24.5596 15.3529 24.5596 14.4984ZM7.81311 10.0415C7.81311 9.18693 6.87981 8.64992 6.1372 9.07722C5.39459 9.50452 5.39459 10.5785 6.1372 11.0058C6.87981 11.4332 7.81311 10.8961 7.81311 10.0415ZM6.69673 14.4984C6.69673 13.6438 5.76342 13.1069 5.02081 13.5341C4.27814 13.9614 4.27814 15.0354 5.02081 15.4627C5.76348 15.89 6.69673 15.3529 6.69673 14.4984ZM11.1624 6.69882C11.1624 5.84429 10.2291 5.30728 9.48653 5.73452C8.74392 6.16181 8.74392 7.23583 9.48653 7.66313C10.2291 8.09037 11.1624 7.55336 11.1624 6.69882ZM20.0939 6.69882C20.0939 5.84429 19.1606 5.30728 18.418 5.73452C17.6754 6.16181 17.6754 7.23583 18.418 7.66313C19.1606 8.09037 20.0939 7.55336 20.0939 6.69882ZM15.6282 5.58459C15.6282 4.73005 14.6949 4.19304 13.9522 4.62034C13.2096 5.04764 13.2096 6.1216 13.9522 6.5489C14.6949 6.97619 15.6282 6.43918 15.6282 5.58459ZM25.2631 11.5339C26.581 16.4025 24.5528 22.0003 19.432 24.5067C11.7443 28.2696 2.80381 22.2713 3.37776 13.7356C3.95142 5.20096 13.611 0.47198 20.7245 5.24197L23.4992 3.12537C14.7601 -3.77465 1.76087 1.38497 0.156915 12.3905C-1.44715 23.396 9.53625 32.0679 19.8795 27.9624C27.9943 24.7415 30.983 15.5339 27.6739 8.38377L25.2631 11.5339Z" fill="#515151"/>
<rect x="17" y="5" width="4" height="3" rx="1.5" fill="white"/>
<rect x="13" y="4" width="4" height="3" rx="1.5" fill="white"/>
<rect x="8" y="5" width="4" height="3" rx="1.5" fill="white"/>
<rect x="5" y="8" width="4" height="4" rx="2" fill="white"/>
<rect x="21" y="13" width="4" height="4" rx="2" fill="white"/>
<path d="M18.5 6.41716C12.5 2.81716 7.66667 6.91716 6 9.41716C10.8 6.61715 14.3333 8.25049 15.5 9.41716L18.5 6.41716Z" fill="#8C031F" stroke="#8C031F" stroke-linecap="round"/>
<circle cx="7.15" cy="18.15" r="1.15" fill="#8C031F"/>
<circle cx="9.15" cy="21.15" r="1.15" fill="#8C031F"/>
<rect x="4" y="13" width="3" height="3" fill="white"/>
<circle cx="6.15" cy="14.65" r="1.15" fill="#8C031F"/>
</svg>
