<svg width="29" height="29" viewBox="0 0 29 29" fill="none" xmlns="http://www.w3.org/2000/svg">
<g clip-path="url(#clip0_76_7)">
<rect width="29" height="29" fill="white"/>
<path d="M12.982 15.5061C12.6526 15.4911 12.3232 15.4761 11.9788 15.4761C8.35522 15.4761 4.9712 16.4794 2.08132 18.2013C0.763649 18.9799 0 20.4473 0 21.9896V24.4602C0 25.2838 0.673808 25.9576 1.49735 25.9576H13.8655C12.8079 24.4489 12.169 22.6869 12.0138 20.851C11.8586 19.0151 12.1927 17.1709 12.982 15.5061V15.5061Z" fill="#515151"/>
<path d="M11.9788 13.9788C15.2866 13.9788 17.9682 11.2973 17.9682 7.9894C17.9682 4.68155 15.2866 2 11.9788 2C8.67093 2 5.98938 4.68155 5.98938 7.9894C5.98938 11.2973 8.67093 13.9788 11.9788 13.9788Z" fill="#515151"/>
<path d="M28.0753 19.9682C28.0753 19.6388 28.0304 19.3394 27.9855 19.0249L29.2433 17.9318C29.5128 17.6923 29.5727 17.303 29.393 16.9885L28.5096 15.4612C28.4249 15.3108 28.2898 15.1952 28.1281 15.135C27.9664 15.0747 27.7886 15.0735 27.6261 15.1318L26.0389 15.6708C25.5598 15.2666 25.0207 14.9521 24.4218 14.7275L24.0924 13.0954C24.0571 12.9267 23.965 12.7752 23.8315 12.6662C23.6979 12.5572 23.531 12.4973 23.3587 12.4965H21.5918C21.2324 12.4965 20.933 12.751 20.8581 13.0954L20.5287 14.7275C19.9297 14.9521 19.3907 15.2666 18.9115 15.6708L17.3244 15.1318C17.1617 15.076 16.9848 15.0783 16.8237 15.1383C16.6625 15.1984 16.5273 15.3125 16.4409 15.4612L15.5575 16.9885C15.3778 17.303 15.4377 17.6923 15.7072 17.9318L16.965 19.0249C16.9201 19.3394 16.8752 19.6388 16.8752 19.9682C16.8752 20.2977 16.9201 20.5971 16.965 20.9116L15.7072 22.0046C15.4377 22.2442 15.3778 22.6335 15.5575 22.948L16.4409 24.4753C16.6206 24.7897 16.9949 24.9245 17.3244 24.8047L18.9115 24.2656C19.3907 24.6699 19.9297 24.9844 20.5287 25.209L20.8581 26.8411C20.933 27.1855 21.2324 27.44 21.5918 27.44H23.3587C23.718 27.44 24.0175 27.1855 24.0924 26.8411L24.4218 25.209C25.0207 24.9844 25.5598 24.6699 26.0389 24.2656L27.6261 24.8047C27.9705 24.9245 28.3299 24.7747 28.5096 24.4753L29.393 22.948C29.5727 22.6335 29.5128 22.2442 29.2433 22.0046L27.9855 20.9116C28.0304 20.5971 28.0753 20.2977 28.0753 19.9682V19.9682ZM22.4603 22.9629C20.8132 22.9629 19.4656 21.6153 19.4656 19.9682C19.4656 18.3212 20.8132 16.9735 22.4603 16.9735C24.1074 16.9735 25.455 18.3212 25.455 19.9682C25.455 21.6153 24.1074 22.9629 22.4603 22.9629Z" fill="#8C031F"/>
</g>
<defs>
<clipPath id="clip0_76_7">
<rect width="29" height="29" fill="white"/>
</clipPath>
</defs>
</svg>
