<svg width="30" height="30" viewBox="0 0 30 30" fill="none" xmlns="http://www.w3.org/2000/svg">
<path fill-rule="evenodd" clip-rule="evenodd" d="M16.126 7C16.0438 7.31962 16 7.6547 16 8C16 8.3453 16.0438 8.68038 16.126 9H7L15 14L18.6018 11.7488C19.0371 11.9112 19.5082 12 20 12H21.4L15 16L7 11V21H23V12H24C24.3453 12 24.6804 11.9562 25 11.874V21C25 21.55 24.8042 22.0208 24.4125 22.4125C24.0208 22.8042 23.55 23 23 23H7C6.45 23 5.97917 22.8042 5.5875 22.4125C5.19583 22.0208 5 21.55 5 21V9C5 8.45 5.19583 7.97917 5.5875 7.5875C5.97917 7.19583 6.45 7 7 7H16.126Z" fill="#515151"/>
<path d="M21.875 11.4167H19.7083C18.959 11.4167 18.3203 11.1526 17.7922 10.6245C17.2641 10.0964 17 9.45764 17 8.70833C17 7.95903 17.2641 7.32031 17.7922 6.79219C18.3203 6.26406 18.959 6 19.7083 6H21.875V7.08333H19.7083C19.2569 7.08333 18.8733 7.24132 18.5573 7.55729C18.2413 7.87326 18.0833 8.25694 18.0833 8.70833C18.0833 9.15972 18.2413 9.5434 18.5573 9.85937C18.8733 10.1753 19.2569 10.3333 19.7083 10.3333H21.875V11.4167ZM20.25 9.25V8.16667H24.5833V9.25H20.25ZM22.9583 11.4167V10.3333H25.125C25.5764 10.3333 25.9601 10.1753 26.276 9.85937C26.592 9.5434 26.75 9.15972 26.75 8.70833C26.75 8.25694 26.592 7.87326 26.276 7.55729C25.9601 7.24132 25.5764 7.08333 25.125 7.08333H22.9583V6H25.125C25.8743 6 26.513 6.26406 27.0411 6.79219C27.5693 7.32031 27.8333 7.95903 27.8333 8.70833C27.8333 9.45764 27.5693 10.0964 27.0411 10.6245C26.513 11.1526 25.8743 11.4167 25.125 11.4167H22.9583Z" fill="#8C031F"/>
</svg>
