<svg width="29" height="29" viewBox="0 0 29 29" fill="none" xmlns="http://www.w3.org/2000/svg">
<rect width="29" height="29" fill="white"/>
<path d="M10.9381 6.57418C11.3918 6.57418 11.8092 6.66033 12.1907 6.83272C13.323 7.39321 13.9915 8.45846 14 9.6463V17.8285C13.7876 19.1292 12.2738 18.7755 12.2371 17.8285V10.1026C12.1022 9.66198 11.2372 9.84466 11.2165 10.1026V27.8357C10.9966 29.6465 8.6174 29.1149 8.55673 27.8053V16.9464C8.4046 16.246 7.40339 16.5642 7.38145 16.9768C7.42391 20.5862 7.41238 24.1958 7.41238 27.8053C7.17511 29.6068 4.80753 29.1458 4.75259 27.8357L4.72167 10.1026C4.58301 9.67148 3.78146 9.83683 3.76288 10.1026V17.8285C3.55047 19.1292 2.03666 18.7755 2 17.8285V9.6463C2.0214 8.50911 2.44518 7.36987 3.45361 6.83272C3.78352 6.66033 4.18558 6.57416 4.6598 6.57416L10.9381 6.57418V6.57418ZM10.9069 2.85836C10.9069 4.437 9.6057 5.71675 8.00055 5.71675C6.39543 5.71675 5.09419 4.437 5.09419 2.85836C5.09417 1.27975 6.3954 0 8.0005 0C9.6057 0 10.9069 1.27975 10.9069 2.85836V2.85836Z" fill="#515151"/>
<path d="M23.9381 6.57418C24.3918 6.57418 24.8092 6.66033 25.1907 6.83272C26.323 7.39321 26.9915 8.45846 27 9.6463V17.8285C26.7876 19.1292 25.2738 18.7755 25.2371 17.8285V10.1026C25.1022 9.66198 24.2372 9.84466 24.2165 10.1026V27.8357C23.9966 29.6465 21.6174 29.1149 21.5567 27.8053V16.9464C21.4046 16.246 20.4034 16.5642 20.3814 16.9768C20.4239 20.5862 20.4124 24.1958 20.4124 27.8053C20.1751 29.6068 17.8075 29.1458 17.7526 27.8357L17.7217 10.1026C17.583 9.67148 16.7815 9.83683 16.7629 10.1026V17.8285C16.5505 19.1292 15.0367 18.7755 15 17.8285V9.6463C15.0214 8.50911 15.4452 7.36987 16.4536 6.83272C16.7835 6.66033 17.1856 6.57416 17.6598 6.57416L23.9381 6.57418V6.57418ZM23.9069 2.85836C23.9069 4.437 22.6057 5.71675 21.0006 5.71675C19.3954 5.71675 18.0942 4.437 18.0942 2.85836C18.0942 1.27975 19.3954 0 21.0005 0C22.6057 0 23.9069 1.27975 23.9069 2.85836V2.85836Z" fill="#515151"/>
<circle cx="15" cy="14" r="5.75" fill="white" stroke="#8C031F" stroke-width="0.5"/>
<path fill-rule="evenodd" clip-rule="evenodd" d="M16.3563 10.0172C16.4189 9.9957 16.4866 9.99431 16.5501 10.0133C16.6135 10.0322 16.6694 10.0705 16.7101 10.1229L18.9331 12.9865C18.9765 13.0423 19 13.1111 19 13.1818C19 13.2526 18.9765 13.3214 18.9331 13.3772L16.7101 16.2408C16.6694 16.2931 16.6135 16.3314 16.5501 16.3503C16.4867 16.3692 16.419 16.3678 16.3564 16.3463C16.2938 16.3248 16.2395 16.2842 16.2011 16.2303C16.1626 16.1764 16.142 16.1117 16.1419 16.0455V14.7759C14.4337 14.8116 13.6131 15.1364 13.2009 15.4896C12.809 15.8253 12.7372 16.2201 12.6626 16.6338L12.6432 16.7404C12.629 16.8166 12.5874 16.8851 12.5263 16.9328C12.4652 16.9805 12.3888 17.0042 12.3115 16.9994C12.2342 16.9946 12.1613 16.9617 12.1066 16.9069C12.0518 16.852 12.0189 16.779 12.0141 16.7015C11.9595 15.8272 12.0414 14.5602 12.6578 13.5003C13.2561 12.4717 14.3333 11.6807 16.1419 11.5979V10.3182C16.1419 10.2519 16.1626 10.1873 16.201 10.1333C16.2394 10.0794 16.2937 10.0388 16.3563 10.0172V10.0172Z" fill="#8C031F"/>
</svg>
