<svg width="29" height="29" viewBox="0 0 29 29" fill="none" xmlns="http://www.w3.org/2000/svg">
<g clip-path="url(#clip0_40_285)">
<rect width="29" height="29" fill="white"/>
<path d="M13.5658 18.8044C14.5187 19.1814 15.3887 19.6827 16.1717 20.3062C16.9547 20.9276 17.6237 21.6526 18.1809 22.4729C19.3174 24.1281 19.9295 26.087 19.9375 28.0948V29H18.125V28.0927C18.1289 27.0214 17.9193 25.9601 17.5085 24.9706C17.0978 23.9812 16.494 23.0835 15.7325 22.33C14.9851 21.5932 14.1061 21.003 13.1412 20.59C12.1383 20.1603 11.0588 19.9384 9.96774 19.9375C8.89644 19.9336 7.8351 20.1432 6.84567 20.554C5.85625 20.9647 4.95857 21.5685 4.20503 22.33C3.46841 23.0776 2.87825 23.9566 2.46503 24.9214C2.03832 25.9032 1.82289 26.9617 1.81253 28.0927V29H3.40448e-05V28.0927C-0.00526448 26.0835 0.608029 24.1214 1.7566 22.4729C2.90064 20.8224 4.507 19.5468 6.37381 18.8065C5.94972 18.5151 5.56354 18.1721 5.22417 17.7853C4.88883 17.4045 4.59895 16.9861 4.36039 16.5383C4.12276 16.0909 3.94184 15.6156 3.82182 15.1235C3.69942 14.6222 3.63341 14.1087 3.62503 13.5927C3.62503 12.7165 3.79074 11.8941 4.12217 11.1298C4.77023 9.6154 5.97633 8.40856 7.49031 7.75957C8.27138 7.42707 9.11116 7.25448 9.96005 7.25199C10.8089 7.2495 11.6497 7.41716 12.4327 7.74507C13.9475 8.39363 15.1544 9.60052 15.8029 11.1153C16.3393 12.3766 16.4534 13.7775 16.1282 15.109C16.0039 15.5999 15.8216 16.0722 15.5772 16.5259C15.3343 16.9749 15.0448 17.397 14.7134 17.7853C14.3819 18.1726 13.9987 18.5103 13.5658 18.8044V18.8044ZM9.96774 18.125C10.5912 18.125 11.1774 18.0069 11.7243 17.7729C12.8085 17.3122 13.6715 16.4484 14.1313 15.3638C14.3778 14.8066 14.5 14.2162 14.5 13.5948C14.5027 13.0016 14.3861 12.414 14.1573 11.8667C13.9285 11.3194 13.5921 10.8237 13.1681 10.4089C12.7487 9.99993 12.2598 9.66886 11.7243 9.43121C11.1718 9.18443 10.5729 9.05872 9.96774 9.0625C9.34631 9.0625 8.7601 9.18057 8.21324 9.41464C7.12301 9.87965 6.25467 10.748 5.78967 11.8382C5.5556 12.3851 5.43753 12.9713 5.43753 13.5948C5.43753 14.2162 5.5556 14.8024 5.78967 15.3493C6.02788 15.8961 6.34896 16.3788 6.75496 16.7931C7.17526 17.2178 7.6761 17.5544 8.22813 17.7831C8.78016 18.0118 9.37228 18.128 9.96981 18.125H9.96774ZM29 0V14.5H25.375L19.9375 19.9375V14.5H18.125V12.6875H21.75V15.5626L24.6251 12.6875H27.1875V1.8125H9.06252V5.06879C8.75871 5.10717 8.45614 5.15484 8.15524 5.21171C7.8467 5.27029 7.54382 5.35554 7.25003 5.4665V0H29Z" fill="#515151"/>
<path d="M18.1641 9.68359C17.6367 9.68359 17.2148 9.49023 16.8984 9.10352C16.5938 8.70508 16.4414 8.23633 16.4414 7.69727C16.4414 7.25195 16.5234 6.83594 16.6875 6.44922C16.8516 6.0625 17.0566 5.71094 17.3027 5.39453C17.5605 5.07812 17.8301 4.80273 18.1113 4.56836C18.4043 4.32227 18.6738 4.11719 18.9199 3.95312C19.166 3.77734 19.3652 3.64844 19.5176 3.56641C19.6816 3.48437 19.7578 3.44336 19.7461 3.44336L20.1504 3.98828C20.0449 4.03516 19.9043 4.12891 19.7285 4.26953C19.5527 4.39844 19.377 4.55664 19.2012 4.74414C19.0371 4.93164 18.8906 5.13672 18.7617 5.35938C18.6328 5.57031 18.5684 5.77539 18.5684 5.97461C18.5684 6.0918 18.6387 6.20898 18.7793 6.32617C18.9199 6.43164 19.0723 6.56055 19.2363 6.71289C19.4004 6.85352 19.5527 7.0293 19.6934 7.24023C19.834 7.43945 19.9043 7.68555 19.9043 7.97852C19.9043 8.23633 19.8516 8.4707 19.7461 8.68164C19.6523 8.89258 19.5234 9.07422 19.3594 9.22656C19.207 9.36719 19.0254 9.47852 18.8145 9.56055C18.6035 9.64258 18.3867 9.68359 18.1641 9.68359ZM22.4883 9.71875C22.2188 9.71875 21.9727 9.66016 21.75 9.54297C21.5273 9.42578 21.334 9.26758 21.1699 9.06836C21.0059 8.86914 20.877 8.64062 20.7832 8.38281C20.7012 8.11328 20.6602 7.82617 20.6602 7.52148C20.6602 6.91211 20.7891 6.34961 21.0469 5.83398C21.3164 5.30664 21.6094 4.85547 21.9258 4.48047C22.3008 4.03516 22.7285 3.63086 23.209 3.26758L23.7188 3.74219C23.6133 3.8125 23.4844 3.92383 23.332 4.07617C23.1914 4.22852 23.0566 4.41016 22.9277 4.62109C22.8105 4.82031 22.7051 5.03125 22.6113 5.25391C22.5293 5.47656 22.4883 5.69336 22.4883 5.9043C22.4883 6.04492 22.5762 6.16211 22.752 6.25586C22.9277 6.34961 23.1211 6.4668 23.332 6.60742C23.543 6.74805 23.7363 6.92969 23.9121 7.15234C24.0879 7.36328 24.1758 7.66211 24.1758 8.04883C24.1758 8.2832 24.1289 8.5 24.0352 8.69922C23.9414 8.89844 23.8125 9.07422 23.6484 9.22656C23.4961 9.37891 23.3145 9.50195 23.1035 9.5957C22.9043 9.67773 22.6992 9.71875 22.4883 9.71875Z" fill="#8C031F"/>
</g>
<defs>
<clipPath id="clip0_40_285">
<rect width="29" height="29" fill="white"/>
</clipPath>
</defs>
</svg>
