<svg id="Layer_1" data-name="Layer 1" xmlns="http://www.w3.org/2000/svg" viewBox="0 0 409.45 408.49" style="width:40px">
<defs><style>.cls-1{fill:#4c3f3f;}</style></defs>
<path style="fill:#8C031F" d="M-453.25,209.87c2.56-6.61,7.7-9.15,14.5-9.71,6.22-.51,12.38-1.8,18.59-2.49a6.84,6.84,0,0,0,6.18-4.45c2.86-6.26,6.23-12.29,9.27-18.48,2.33-4.74,6-7.35,11.3-7.39,5.51,0,9.23,2.61,11.63,7.51,3.26,6.67,6.75,13.23,10,19.88a4,4,0,0,0,3.51,2.57c7.53.92,15,2,22.53,3.14,9.74,1.42,14.89,9.35,11.21,17.21a17,17,0,0,1-3.94,5c-5.21,4.94-10.38,9.93-15.66,14.81-1.57,1.46-2.33,2.71-1.82,5.1,1.51,7.14,2.54,14.38,3.87,21.56.94,5.11-.09,9.56-4.28,12.85s-8.84,3.24-13.49.9c-7-3.53-14-7-20.92-10.71a4.73,4.73,0,0,0-5.09,0c-6.55,3.52-13.23,6.79-19.81,10.23-5,2.6-9.92,3.24-14.59-.4-4.5-3.5-5.25-8.2-4.14-13.61,1.4-6.89,2.24-13.9,3.69-20.78.5-2.37-.19-3.66-1.8-5.1-3.36-3-6.62-6.18-9.88-9.31-3.89-3.73-8.07-7.21-10.91-11.9Z" transform="translate(453.25 -94.28)"/>
<path style="fill:#8C031F" d="M-43.81,216.26c-5.68,8.29-13.81,14.19-20.8,21.2-1.51,1.52-2.3,2.73-1.79,5.11,1.51,7.14,2.53,14.38,3.86,21.55,1,5.13-.11,9.58-4.3,12.85s-8.83,3.24-13.49.88c-7-3.53-14-7-20.91-10.72a4.75,4.75,0,0,0-5.09,0c-6.56,3.51-13.23,6.79-19.82,10.23-4.82,2.52-9.67,3.22-14.27-.18s-5.59-8.28-4.44-13.86c1.42-6.89,2.25-13.9,3.7-20.78.5-2.39-.25-3.64-1.82-5.1-5.28-4.88-10.42-9.89-15.67-14.8-4-3.72-6.21-7.94-4.45-13.51,1.81-5.73,6.23-7.93,11.73-8.7,7.51-1.05,15-2.21,22.53-3.13a4,4,0,0,0,3.51-2.58c3.3-6.65,6.79-13.2,10-19.87,2.4-4.91,6.12-7.55,11.63-7.51,5.34,0,9,2.65,11.3,7.39,3,6.19,6.41,12.22,9.27,18.48a6.83,6.83,0,0,0,6.18,4.44c6.21.69,12.37,2,18.59,2.5,6.8.56,11.94,3.1,14.5,9.71Z" transform="translate(453.25 -94.28)"/>
<path style="fill:#8C031F" class="cls-1" d="M-149.32,502a3.39,3.39,0,0,0-.17.51c0,.08.08.18.12.27H-347.69l-.05-.78c1.49-1.49,3.43-1.3,5.27-1.3q93.95-.06,187.88,0C-152.76,500.69-150.81,500.5-149.32,502Z" transform="translate(453.25 -94.28)"/>
<path class="cls-1" d="M-149.32,502H-347.74c-5.21-1.2-8.5-4.89-8.49-9.76,0-19.5-2.1-39.14,2-58.47,7.29-34.42,27-59.39,58.25-75.47,1.18-.61,2.38-1.18,4-2-21.45-17.93-31.58-40.44-27.53-68.26,2.63-18.07,11.46-33,25.66-44.52,29.08-23.61,71.72-20.62,97.22,5.82,25.17,26.1,30.52,76-8.31,107a112.58,112.58,0,0,1,22.75,13.73c26.42,21.25,40.43,48.78,41.52,82.63.4,12.49.14,25,.07,37.5C-140.63,496.35-143.64,500.25-149.32,502Z" transform="translate(453.25 -94.28)"/>
<path style="fill:#8C031F" d="M-290.06,193.2c1.24-7.23,2.55-15.49,4.14-23.7a4.5,4.5,0,0,0-1.57-4.82c-5.5-5-10.86-10.21-16.25-15.36-3.82-3.65-5.87-7.89-4.08-13.25s5.89-7.81,11.37-8.5c7.53-.95,15-2.16,22.54-3.12a4.5,4.5,0,0,0,3.89-2.81c3.27-6.67,6.78-13.22,10-19.9,2.33-4.79,6.05-7.41,11.3-7.46,5.44-.06,9.26,2.6,11.66,7.54,3.2,6.55,6.68,13,9.87,19.53a4.79,4.79,0,0,0,4.12,3.1c7.66,1,15.29,2.14,22.93,3.18,5.17.7,9,3.13,10.79,8.16s.18,9.43-3.51,13c-5.53,5.4-11.15,10.69-16.81,16a4.16,4.16,0,0,0-1.55,4.44c1.46,7.29,2.56,14.65,3.91,22,.95,5.13-.15,9.56-4.34,12.83s-8.84,3.25-13.49.89c-6.87-3.49-13.76-6.94-20.53-10.6a5.43,5.43,0,0,0-5.85.05c-6.9,3.7-13.83,7.37-20.92,10.7C-281.16,209.15-290.24,203.48-290.06,193.2Z" transform="translate(453.25 -94.28)"/></svg>