<svg width="29" height="29" viewBox="0 0 29 29" fill="none" xmlns="http://www.w3.org/2000/svg">
<rect width="29" height="29" fill="white"/>
<path d="M27.8611 26.2479L25.9113 20.3H23.7718L24.9599 26.1H4.04084L5.229 20.3H3.08945L1.13818 26.2479C0.643236 27.7617 1.52045 29 3.08945 29H25.9113C27.4803 29 28.3575 27.7617 27.8611 26.2479ZM21.6322 7.25C21.6322 5.32718 20.8808 3.48311 19.5433 2.12348C18.2059 0.763837 16.3919 0 14.5004 0C12.6089 0 10.7949 0.763837 9.45741 2.12348C8.11994 3.48311 7.36855 5.32718 7.36855 7.25C7.36855 14.1738 14.5004 21.75 14.5004 21.75C14.5004 21.75 21.6322 14.1738 21.6322 7.25ZM10.6492 7.337C10.6492 5.17505 12.3722 3.42345 14.5004 3.42345C15.5216 3.42345 16.501 3.83585 17.2231 4.56991C17.9452 5.30398 18.3509 6.2996 18.3509 7.33773C18.3509 8.37586 17.9452 9.37147 17.2231 10.1055C16.501 10.8396 15.5216 11.252 14.5004 11.252C13.479 11.252 12.4994 10.8395 11.7772 10.1053C11.0549 9.37112 10.6492 8.37532 10.6492 7.337Z" fill="#515151"/>
<path d="M14.5 0C12.7767 0.00196598 11.1246 0.66484 9.90606 1.84321C8.68751 3.02159 8.00204 4.61924 8.00001 6.28571C7.99794 7.64756 8.45795 8.97245 9.30946 10.0571C9.30946 10.0571 9.48673 10.2829 9.51569 10.3154L14.5 16L19.4867 10.3126C19.5127 10.2823 19.6905 10.0571 19.6905 10.0571L19.6911 10.0554C20.5422 8.97121 21.002 7.64693 21 6.28571C20.998 4.61924 20.3125 3.02159 19.0939 1.84321C17.8754 0.66484 16.2233 0.00196598 14.5 0V0ZM14.5 3.42857C14.8506 3.42857 15.1933 3.52911 15.4849 3.71748C15.7764 3.90585 16.0036 4.17358 16.1378 4.48683C16.272 4.80007 16.3071 5.14476 16.2387 5.4773C16.1703 5.80984 16.0014 6.11529 15.7535 6.35504C15.5056 6.59479 15.1897 6.75806 14.8458 6.8242C14.502 6.89035 14.1455 6.8564 13.8216 6.72665C13.4977 6.5969 13.2208 6.37718 13.026 6.09526C12.8312 5.81335 12.7273 5.48191 12.7273 5.14286C12.7277 4.68834 12.9147 4.25257 13.247 3.93118C13.5794 3.60978 14.03 3.42903 14.5 3.42857V3.42857ZM16.8636 9.71429H15.6818V8.57143H13.3182V9.71429H12.1364V8.57143C12.1367 8.26842 12.2613 7.9779 12.4829 7.76364C12.7044 7.54938 13.0048 7.42887 13.3182 7.42857H15.6818C15.9952 7.42887 16.2956 7.54938 16.5171 7.76364C16.7387 7.9779 16.8633 8.26842 16.8636 8.57143V9.71429Z" fill="#8C031F"/>
</svg>
