<svg width="29" height="29" viewBox="0 0 29 29" fill="none" xmlns="http://www.w3.org/2000/svg">
<rect width="29" height="29" fill="white"/>
<path d="M18.85 13.5714H29V16.4286H18.85V13.5714ZM20.3 19.2857H29V22.1429H20.3V19.2857ZM17.4 7.85714H29V10.7143H17.4V7.85714ZM2.9 25H17.4V23.5714C17.4 19.6329 14.1477 16.4286 10.15 16.4286H7.25C3.25235 16.4286 0 19.6329 0 23.5714V25H2.9ZM8.7 15C11.5928 15 13.775 12.85 13.775 10C13.775 7.15 11.5928 5 8.7 5C5.80725 5 3.625 7.15 3.625 10C3.625 12.85 5.80725 15 8.7 15Z" fill="#515151"/>
<rect x="17" y="7" width="12" height="4" fill="#8C031F"/>
<rect x="18" y="13" width="11" height="4" fill="#8C031F"/>
<rect x="20" y="19" width="9" height="4" fill="#8C031F"/>
</svg>
