<svg width="10" height="10" viewBox="0 0 10 10" fill="none" xmlns="http://www.w3.org/2000/svg">
<path d="M9.5 6.125V8.75C9.5 8.94891 9.42098 9.13968 9.28033 9.28033C9.13968 9.42098 8.94891 9.5 8.75 9.5H1.25C1.05109 9.5 0.860322 9.42098 0.71967 9.28033C0.579018 9.13968 0.5 8.94891 0.5 8.75V6.125C0.5 6.02554 0.539509 5.93016 0.609835 5.85983C0.680161 5.78951 0.775544 5.75 0.875 5.75C0.974456 5.75 1.06984 5.78951 1.14016 5.85983C1.21049 5.93016 1.25 6.02554 1.25 6.125V8.75H8.75V6.125C8.75 6.02554 8.78951 5.93016 8.85983 5.85983C8.93016 5.78951 9.02554 5.75 9.125 5.75C9.22446 5.75 9.31984 5.78951 9.39017 5.85983C9.46049 5.93016 9.5 6.02554 9.5 6.125ZM4.73469 6.39031C4.76951 6.42518 4.81087 6.45284 4.8564 6.47171C4.90192 6.49058 4.95072 6.50029 5 6.50029C5.04928 6.50029 5.09808 6.49058 5.1436 6.47171C5.18913 6.45284 5.23049 6.42518 5.26531 6.39031L7.14031 4.51531C7.17515 4.48047 7.20279 4.43911 7.22165 4.39359C7.2405 4.34806 7.25021 4.29927 7.25021 4.25C7.25021 4.20073 7.2405 4.15194 7.22165 4.10641C7.20279 4.06089 7.17515 4.01953 7.14031 3.98469C7.10547 3.94985 7.06411 3.92221 7.01859 3.90335C6.97306 3.8845 6.92427 3.87479 6.875 3.87479C6.82573 3.87479 6.77694 3.8845 6.73141 3.90335C6.68589 3.92221 6.64453 3.94985 6.60969 3.98469L5.375 5.21984V0.875C5.375 0.775544 5.33549 0.680161 5.26517 0.609835C5.19484 0.539509 5.09946 0.5 5 0.5C4.90054 0.5 4.80516 0.539509 4.73484 0.609835C4.66451 0.680161 4.625 0.775544 4.625 0.875V5.21984L3.39031 3.98469C3.31995 3.91432 3.22451 3.87479 3.125 3.87479C3.02549 3.87479 2.93005 3.91432 2.85969 3.98469C2.78932 4.05505 2.74979 4.15049 2.74979 4.25C2.74979 4.34951 2.78932 4.44495 2.85969 4.51531L4.73469 6.39031Z" fill="#922230"/>
</svg>
