<svg width="29" height="29" viewBox="0 0 29 29" fill="none" xmlns="http://www.w3.org/2000/svg">
<rect width="29" height="29" fill="white"/>
<path d="M22.1135 11.6248H15.226V14.1406C15.226 15.9241 13.7624 17.3752 11.9635 17.3752C10.1646 17.3752 8.70102 15.9241 8.70102 14.1406V8.67763L5.76024 10.4297C4.88571 10.9464 4.35103 11.8853 4.35103 12.8917V15.0166L0.726032 17.0922C0.0327522 17.4876 -0.207404 18.3681 0.195877 19.0555L3.82087 25.2822C4.21962 25.9695 5.10774 26.2031 5.80102 25.8078L10.4863 23.1257H16.676C18.2755 23.1257 19.576 21.8364 19.576 20.2505H20.301C21.103 20.2505 21.751 19.608 21.751 18.8129V15.9376H22.1135C22.7161 15.9376 23.201 15.4569 23.201 14.8594V12.703C23.201 12.1055 22.7161 11.6248 22.1135 11.6248ZM28.8061 9.94454L25.1811 3.71784C24.7824 3.03048 23.8943 2.79686 23.201 3.19221L18.5157 5.87427H13.8848C13.341 5.87427 12.8109 6.02702 12.3487 6.31005L10.8307 7.249C10.4048 7.50957 10.151 7.9723 10.151 8.46648V14.1406C10.151 15.1335 10.9621 15.9376 11.9635 15.9376C12.9649 15.9376 13.776 15.1335 13.776 14.1406V10.1871H22.1135C23.5136 10.1871 24.651 11.3148 24.651 12.703V13.9834L28.276 11.9078C28.9693 11.508 29.2049 10.6319 28.8061 9.94454Z" fill="#515151"/>
<path d="M28.9366 22.9338L28.1704 21.717L28.6249 20.3514C28.6549 20.261 28.6529 20.1631 28.6194 20.074C28.5858 19.985 28.5227 19.9104 28.4408 19.8628L27.2009 19.1432L26.9729 17.7212C26.9575 17.6272 26.9105 17.5414 26.8396 17.4782C26.7688 17.415 26.6785 17.3783 26.5839 17.3743L25.1538 17.318L24.2958 16.1652C24.2391 16.0889 24.1579 16.0347 24.066 16.0119C23.9741 15.9892 23.8773 15.9992 23.7919 16.0402L22.5 16.6588L21.2076 16.0397C21.1221 15.9991 21.0253 15.9894 20.9335 16.0122C20.8417 16.0351 20.7606 16.0891 20.7037 16.1652L19.8456 17.318L18.4156 17.3743C18.3211 17.3781 18.2308 17.4147 18.16 17.4778C18.0893 17.5409 18.0423 17.6267 18.0272 17.7207L17.7991 19.1427L16.5592 19.8623C16.4772 19.9098 16.414 19.9844 16.3804 20.0734C16.3467 20.1624 16.3447 20.2605 16.3746 20.3508L16.8291 21.7164L16.0634 22.9338C16.0129 23.0143 15.9915 23.11 16.003 23.2046C16.0145 23.2992 16.0581 23.3868 16.1264 23.4528L17.159 24.4497L17.043 25.8849C17.0353 25.9798 17.0604 26.0746 17.1141 26.153C17.1677 26.2315 17.2467 26.2889 17.3376 26.3155L18.7122 26.7142L19.2716 28.0402C19.3083 28.128 19.3742 28.2004 19.4581 28.2447C19.5419 28.2891 19.6384 28.3028 19.7311 28.2834L21.1335 27.994L22.2402 28.9066C22.3154 28.968 22.4077 29 22.5 29C22.5923 29 22.6841 28.968 22.7598 28.9066L23.8665 27.994L25.2689 28.2834C25.459 28.3241 25.6522 28.221 25.7284 28.0402L26.2878 26.7142L27.6624 26.3155C27.7533 26.289 27.8324 26.2316 27.8861 26.1531C27.9398 26.0746 27.9648 25.9798 27.957 25.8849L27.841 24.4497L28.8736 23.4528C28.9419 23.3868 28.9855 23.2992 28.997 23.2046C29.0085 23.11 28.9871 23.0143 28.9366 22.9338ZM25.4646 20.9476L22.5938 25.2775C22.4854 25.439 22.3174 25.5471 22.1504 25.5471C21.984 25.5471 21.7978 25.4532 21.6793 25.3333L19.5717 23.1775C19.5027 23.1062 19.464 23.0105 19.464 22.9109C19.464 22.8113 19.5027 22.7156 19.5717 22.6443L20.0918 22.111C20.1259 22.0765 20.1664 22.0492 20.211 22.0305C20.2557 22.0118 20.3035 22.0022 20.3519 22.0022C20.4002 22.0022 20.448 22.0118 20.4927 22.0305C20.5373 22.0492 20.5778 22.0765 20.6119 22.111L21.9835 23.5137L24.2454 20.102C24.2722 20.0613 24.3068 20.0264 24.3471 19.9993C24.3875 19.9722 24.4328 19.9535 24.4804 19.9443C24.528 19.935 24.577 19.9354 24.6244 19.9454C24.6719 19.9554 24.7169 19.9748 24.7569 20.0025L25.3667 20.4245C25.5347 20.5413 25.5781 20.7764 25.4646 20.9476V20.9476Z" fill="#8C031F"/>
</svg>
