<svg width="29" height="29" viewBox="0 0 29 29" fill="none" xmlns="http://www.w3.org/2000/svg">
<g clip-path="url(#clip0_77_22)">
<rect width="29" height="29" fill="white"/>
<path fill-rule="evenodd" clip-rule="evenodd" d="M11.2247 23.6348C16.804 23.6348 21.327 19.0466 21.327 13.3868C21.327 7.72697 16.804 3.13868 11.2247 3.13868C5.64547 3.13868 1.12247 7.72697 1.12247 13.3868C1.12247 19.0466 5.64547 23.6348 11.2247 23.6348ZM11.2247 24.7735C17.4241 24.7735 22.4494 19.6757 22.4494 13.3868C22.4494 7.09785 17.4241 2 11.2247 2C5.0253 2 0 7.09785 0 13.3868C0 19.6757 5.0253 24.7735 11.2247 24.7735Z" fill="#515151"/>
<path d="M4.48987 20.0082C4.48987 19.4201 4.92314 18.9231 5.50009 18.8582C9.83003 18.3719 12.639 18.4158 16.9594 18.869C17.1751 18.892 17.3796 18.9782 17.5479 19.1171C17.7161 19.256 17.8408 19.4417 17.9068 19.6513C17.9727 19.861 17.977 20.0856 17.9192 20.2977C17.8614 20.5098 17.744 20.7002 17.5813 20.8457C12.4824 25.3543 9.56849 25.2922 4.84906 20.8503C4.61895 20.6339 4.48987 20.3265 4.48987 20.0088V20.0082Z" fill="#515151"/>
<path fill-rule="evenodd" clip-rule="evenodd" d="M16.9016 19.4349C12.6155 18.9852 9.84688 18.943 5.56129 19.4241C5.27281 19.4566 5.05112 19.7065 5.05112 20.0088C5.05112 20.1717 5.11791 20.3259 5.23072 20.433C7.56995 22.634 9.34233 23.6287 11.0749 23.6349C12.8136 23.6412 14.6814 22.6545 17.2125 20.417C17.293 20.3444 17.3508 20.2497 17.3792 20.1443C17.4075 20.039 17.405 19.9275 17.3721 19.8236C17.3392 19.7196 17.2772 19.6276 17.1937 19.5587C17.1101 19.4898 17.0087 19.447 16.9016 19.4355V19.4349ZM5.43838 18.2923C9.81377 17.8009 12.6637 17.8453 17.0178 18.3025C17.3424 18.3369 17.65 18.4665 17.9031 18.6755C18.1561 18.8845 18.3436 19.1638 18.4426 19.4793C18.5416 19.7947 18.5478 20.1326 18.4604 20.4515C18.373 20.7705 18.1958 21.0567 17.9506 21.275C15.3829 23.5456 13.2446 24.7822 11.0715 24.7736C8.89222 24.7656 6.8482 23.508 4.468 21.2676C4.29758 21.1066 4.16173 20.9117 4.06893 20.695C3.97613 20.4783 3.92838 20.2445 3.92865 20.0083C3.92783 19.5838 4.08142 19.1739 4.36 18.8572C4.63857 18.5404 5.02255 18.3391 5.43838 18.2917V18.2923Z" fill="#515151"/>
<path d="M15.7146 11.1094C15.7146 12.3174 15.2416 13.4759 14.3995 14.3301C13.5575 15.1842 12.4155 15.6641 11.2247 15.6641C10.0339 15.6641 8.89191 15.1842 8.04989 14.3301C7.20787 13.4759 6.73483 12.3174 6.73483 11.1094C6.73483 9.90141 7.20787 8.7429 8.04989 7.88873C8.89191 7.03456 10.0339 6.55469 11.2247 6.55469C12.4155 6.55469 13.5575 7.03456 14.3995 7.88873C15.2416 8.7429 15.7146 9.90141 15.7146 11.1094V11.1094Z" fill="#515151"/>
<path fill-rule="evenodd" clip-rule="evenodd" d="M11.2247 14.5254C12.1178 14.5254 12.9743 14.1655 13.6058 13.5249C14.2374 12.8843 14.5921 12.0154 14.5921 11.1094C14.5921 10.2034 14.2374 9.33453 13.6058 8.6939C12.9743 8.05327 12.1178 7.69336 11.2247 7.69336C10.3316 7.69336 9.47511 8.05327 8.8436 8.6939C8.21208 9.33453 7.8573 10.2034 7.8573 11.1094C7.8573 12.0154 8.21208 12.8843 8.8436 13.5249C9.47511 14.1655 10.3316 14.5254 11.2247 14.5254V14.5254ZM11.2247 15.6641C12.4155 15.6641 13.5575 15.1842 14.3995 14.3301C15.2416 13.4759 15.7146 12.3174 15.7146 11.1094C15.7146 9.90141 15.2416 8.7429 14.3995 7.88873C13.5575 7.03456 12.4155 6.55469 11.2247 6.55469C10.0339 6.55469 8.89191 7.03456 8.04989 7.88873C7.20787 8.7429 6.73483 9.90141 6.73483 11.1094C6.73483 12.3174 7.20787 13.4759 8.04989 14.3301C8.89191 15.1842 10.0339 15.6641 11.2247 15.6641V15.6641Z" fill="#515151"/>
<path d="M22.4749 24.7996C23.4705 24.7996 24.2777 23.9808 24.2777 22.9708C24.2777 21.9608 23.4705 21.142 22.4749 21.142C21.4792 21.142 20.6721 21.9608 20.6721 22.9708C20.6721 23.9808 21.4792 24.7996 22.4749 24.7996Z" fill="#8C031F"/>
<path d="M22.4749 24.7996C23.4705 24.7996 24.2777 23.9808 24.2777 22.9708C24.2777 21.9608 23.4705 21.142 22.4749 21.142C21.4792 21.142 20.6721 21.9608 20.6721 22.9708C20.6721 23.9808 21.4792 24.7996 22.4749 24.7996Z" stroke="white"/>
<path d="M25.5045 22.971V22.9708C25.5045 22.3636 25.327 21.7698 24.9943 21.2647C24.6616 20.7596 24.1885 20.3657 23.6348 20.133C23.081 19.9003 22.4716 19.8394 21.8836 19.958C21.2957 20.0767 20.7558 20.3695 20.3322 20.7992C19.9086 21.2289 19.6203 21.7762 19.5035 22.3718C19.3868 22.9674 19.4467 23.5847 19.6758 24.1459C19.9049 24.707 20.293 25.1869 20.7913 25.5246C21.2895 25.8623 21.8754 26.0426 22.4749 26.0426V25.9428L22.4751 26.0426C23.2786 26.0414 24.0486 25.717 24.6163 25.1411C25.184 24.5652 25.5033 23.7848 25.5045 22.971ZM26.5027 19.4363C27.6832 20.2907 28.5913 21.4774 29.1145 22.8499C29.1421 22.928 29.1421 23.0136 29.1145 23.0917C28.5913 24.4642 27.6832 25.6509 26.5027 26.5053C25.323 27.3593 23.9228 27.844 22.4749 27.9C21.0271 27.844 19.6269 27.3593 18.4472 26.5053C17.2667 25.6509 16.3586 24.4642 15.8353 23.0917C15.8077 23.0136 15.8077 22.928 15.8353 22.8499C16.3586 21.4774 17.2667 20.2907 18.4472 19.4363C19.6269 18.5823 21.0271 18.0976 22.4749 18.0416C23.9228 18.0976 25.323 18.5823 26.5027 19.4363Z" fill="#8C031F" stroke="white" stroke-width="0.2"/>
</g>
<defs>
<clipPath id="clip0_77_22">
<rect width="29" height="29" fill="white"/>
</clipPath>
</defs>
</svg>
